<svg width="1920" height="1080" viewBox="0 0 1920 1080" fill="none" xmlns="http://www.w3.org/2000/svg">
<rect width="1920" height="1080" fill="white"/>
<rect x="162" y="390" width="301" height="301" fill="#B24E72"/>
<path d="M342.53 587.208V597H287.234V587.208H309.338V516.864C309.338 514.752 309.41 512.616 309.554 510.456L291.194 526.224C290.57 526.752 289.946 527.088 289.322 527.232C288.698 527.328 288.122 527.328 287.594 527.232C287.066 527.136 286.562 526.944 286.082 526.656C285.65 526.368 285.314 526.056 285.074 525.72L281.042 520.176L311.786 493.608H322.226V587.208H342.53Z" fill="white"/>
<rect x="594" y="390" width="301" height="301" fill="#4D8DC9"/>
<path d="M774.53 587.208V597H719.234V587.208H741.338V516.864C741.338 514.752 741.41 512.616 741.554 510.456L723.194 526.224C722.57 526.752 721.946 527.088 721.322 527.232C720.698 527.328 720.122 527.328 719.594 527.232C719.066 527.136 718.562 526.944 718.082 526.656C717.65 526.368 717.314 526.056 717.074 525.72L713.042 520.176L743.786 493.608H754.226V587.208H774.53Z" fill="white"/>
<rect x="1026" y="389" width="301" height="301" fill="#44BC96"/>
<path d="M1206.53 586.208V596H1151.23V586.208H1173.34V515.864C1173.34 513.752 1173.41 511.616 1173.55 509.456L1155.19 525.224C1154.57 525.752 1153.95 526.088 1153.32 526.232C1152.7 526.328 1152.12 526.328 1151.59 526.232C1151.07 526.136 1150.56 525.944 1150.08 525.656C1149.65 525.368 1149.31 525.056 1149.07 524.72L1145.04 519.176L1175.79 492.608H1186.23V586.208H1206.53Z" fill="white"/>
<path d="M1458 390H1759V691H1458V390Z" fill="#E3848B"/>
<rect x="1458" y="390" width="301" height="301" fill="#E3848B"/>
<path d="M1638.53 587.208V597H1583.23V587.208H1605.34V516.864C1605.34 514.752 1605.41 512.616 1605.55 510.456L1587.19 526.224C1586.57 526.752 1585.95 527.088 1585.32 527.232C1584.7 527.328 1584.12 527.328 1583.59 527.232C1583.07 527.136 1582.56 526.944 1582.08 526.656C1581.65 526.368 1581.31 526.056 1581.07 525.72L1577.04 520.176L1607.79 493.608H1618.23V587.208H1638.53Z" fill="white"/>
<path d="M173.028 765.584V798H167.332V765.584H173.028ZM174.244 755.408C174.244 755.963 174.127 756.485 173.892 756.976C173.679 757.445 173.38 757.872 172.996 758.256C172.633 758.619 172.196 758.907 171.684 759.12C171.193 759.333 170.671 759.44 170.116 759.44C169.561 759.44 169.039 759.333 168.548 759.12C168.079 758.907 167.663 758.619 167.3 758.256C166.937 757.872 166.649 757.445 166.436 756.976C166.223 756.485 166.116 755.963 166.116 755.408C166.116 754.853 166.223 754.331 166.436 753.84C166.649 753.328 166.937 752.891 167.3 752.528C167.663 752.144 168.079 751.845 168.548 751.632C169.039 751.419 169.561 751.312 170.116 751.312C170.671 751.312 171.193 751.419 171.684 751.632C172.196 751.845 172.633 752.144 172.996 752.528C173.38 752.891 173.679 753.328 173.892 753.84C174.127 754.331 174.244 754.853 174.244 755.408ZM187.763 770.288C188.467 769.499 189.214 768.784 190.003 768.144C190.792 767.504 191.624 766.96 192.499 766.512C193.395 766.043 194.334 765.691 195.315 765.456C196.318 765.2 197.395 765.072 198.547 765.072C200.318 765.072 201.875 765.371 203.219 765.968C204.584 766.544 205.715 767.376 206.611 768.464C207.528 769.531 208.222 770.821 208.691 772.336C209.16 773.851 209.395 775.525 209.395 777.36V798H203.667V777.36C203.667 774.907 203.102 773.008 201.971 771.664C200.862 770.299 199.166 769.616 196.883 769.616C195.198 769.616 193.619 770.021 192.147 770.832C190.696 771.643 189.352 772.741 188.115 774.128V798H182.387V765.584H185.811C186.622 765.584 187.123 765.979 187.315 766.768L187.763 770.288ZM223.963 750.864V798H218.266V750.864H223.963ZM239.216 765.584V798H233.52V765.584H239.216ZM240.432 755.408C240.432 755.963 240.314 756.485 240.08 756.976C239.866 757.445 239.568 757.872 239.184 758.256C238.821 758.619 238.384 758.907 237.872 759.12C237.381 759.333 236.858 759.44 236.304 759.44C235.749 759.44 235.226 759.333 234.736 759.12C234.266 758.907 233.85 758.619 233.488 758.256C233.125 757.872 232.837 757.445 232.624 756.976C232.41 756.485 232.304 755.963 232.304 755.408C232.304 754.853 232.41 754.331 232.624 753.84C232.837 753.328 233.125 752.891 233.488 752.528C233.85 752.144 234.266 751.845 234.736 751.632C235.226 751.419 235.749 751.312 236.304 751.312C236.858 751.312 237.381 751.419 237.872 751.632C238.384 751.845 238.821 752.144 239.184 752.528C239.568 752.891 239.866 753.328 240.08 753.84C240.314 754.331 240.432 754.853 240.432 755.408ZM253.951 770.288C254.655 769.499 255.401 768.784 256.191 768.144C256.98 767.504 257.812 766.96 258.687 766.512C259.583 766.043 260.521 765.691 261.503 765.456C262.505 765.2 263.583 765.072 264.735 765.072C266.505 765.072 268.063 765.371 269.407 765.968C270.772 766.544 271.903 767.376 272.799 768.464C273.716 769.531 274.409 770.821 274.879 772.336C275.348 773.851 275.583 775.525 275.583 777.36V798H269.855V777.36C269.855 774.907 269.289 773.008 268.159 771.664C267.049 770.299 265.353 769.616 263.071 769.616C261.385 769.616 259.807 770.021 258.335 770.832C256.884 771.643 255.54 772.741 254.303 774.128V798H248.575V765.584H251.999C252.809 765.584 253.311 765.979 253.503 766.768L253.951 770.288ZM305.958 778.256C305.958 776.933 305.766 775.728 305.382 774.64C305.019 773.531 304.475 772.581 303.75 771.792C303.046 770.981 302.182 770.363 301.158 769.936C300.134 769.488 298.971 769.264 297.67 769.264C294.939 769.264 292.774 770.064 291.174 771.664C289.595 773.243 288.614 775.44 288.23 778.256H305.958ZM310.566 793.456C309.862 794.309 309.019 795.056 308.038 795.696C307.057 796.315 306.001 796.827 304.87 797.232C303.761 797.637 302.609 797.936 301.414 798.128C300.219 798.341 299.035 798.448 297.862 798.448C295.622 798.448 293.553 798.075 291.654 797.328C289.777 796.56 288.145 795.451 286.758 794C285.393 792.528 284.326 790.715 283.558 788.56C282.79 786.405 282.406 783.931 282.406 781.136C282.406 778.875 282.747 776.763 283.43 774.8C284.134 772.837 285.137 771.141 286.438 769.712C287.739 768.261 289.329 767.131 291.206 766.32C293.083 765.488 295.195 765.072 297.542 765.072C299.483 765.072 301.275 765.403 302.918 766.064C304.582 766.704 306.011 767.643 307.206 768.88C308.422 770.096 309.371 771.611 310.054 773.424C310.737 775.216 311.078 777.264 311.078 779.568C311.078 780.464 310.982 781.061 310.79 781.36C310.598 781.659 310.235 781.808 309.702 781.808H288.038C288.102 783.856 288.379 785.637 288.87 787.152C289.382 788.667 290.086 789.936 290.982 790.96C291.878 791.963 292.945 792.72 294.182 793.232C295.419 793.723 296.806 793.968 298.342 793.968C299.771 793.968 300.998 793.808 302.022 793.488C303.067 793.147 303.963 792.784 304.71 792.4C305.457 792.016 306.075 791.664 306.566 791.344C307.078 791.003 307.515 790.832 307.878 790.832C308.347 790.832 308.71 791.013 308.966 791.376L310.566 793.456ZM353.33 770.928C353.074 771.397 352.679 771.632 352.146 771.632C351.826 771.632 351.463 771.515 351.058 771.28C350.652 771.045 350.151 770.789 349.554 770.512C348.978 770.213 348.284 769.947 347.474 769.712C346.663 769.456 345.703 769.328 344.594 769.328C343.634 769.328 342.77 769.456 342.002 769.712C341.234 769.947 340.572 770.277 340.018 770.704C339.484 771.131 339.068 771.632 338.77 772.208C338.492 772.763 338.354 773.371 338.354 774.032C338.354 774.864 338.588 775.557 339.058 776.112C339.548 776.667 340.188 777.147 340.978 777.552C341.767 777.957 342.663 778.32 343.666 778.64C344.668 778.939 345.692 779.269 346.738 779.632C347.804 779.973 348.839 780.357 349.842 780.784C350.844 781.211 351.74 781.744 352.53 782.384C353.319 783.024 353.948 783.813 354.418 784.752C354.908 785.669 355.154 786.779 355.154 788.08C355.154 789.573 354.887 790.96 354.354 792.24C353.82 793.499 353.031 794.597 351.986 795.536C350.94 796.453 349.66 797.179 348.146 797.712C346.631 798.245 344.882 798.512 342.898 798.512C340.636 798.512 338.588 798.149 336.754 797.424C334.919 796.677 333.362 795.728 332.082 794.576L333.426 792.4C333.596 792.123 333.799 791.909 334.034 791.76C334.268 791.611 334.567 791.536 334.93 791.536C335.314 791.536 335.719 791.685 336.146 791.984C336.572 792.283 337.084 792.613 337.682 792.976C338.3 793.339 339.047 793.669 339.922 793.968C340.796 794.267 341.884 794.416 343.186 794.416C344.295 794.416 345.266 794.277 346.097 794C346.93 793.701 347.623 793.307 348.178 792.816C348.732 792.325 349.138 791.76 349.394 791.12C349.671 790.48 349.81 789.797 349.81 789.072C349.81 788.176 349.564 787.44 349.074 786.864C348.604 786.267 347.975 785.765 347.186 785.36C346.396 784.933 345.49 784.571 344.466 784.272C343.463 783.952 342.428 783.621 341.362 783.28C340.316 782.939 339.282 782.555 338.258 782.128C337.255 781.68 336.359 781.125 335.57 780.464C334.78 779.803 334.14 778.992 333.65 778.032C333.18 777.051 332.946 775.867 332.946 774.48C332.946 773.243 333.202 772.059 333.714 770.928C334.226 769.776 334.972 768.773 335.954 767.92C336.935 767.045 338.14 766.352 339.57 765.84C340.999 765.328 342.631 765.072 344.466 765.072C346.599 765.072 348.508 765.413 350.194 766.096C351.9 766.757 353.372 767.675 354.61 768.848L353.33 770.928ZM372.089 798.512C369.529 798.512 367.556 797.797 366.169 796.368C364.804 794.939 364.121 792.88 364.121 790.192V770.352H360.217C359.876 770.352 359.588 770.256 359.353 770.064C359.118 769.851 359.001 769.531 359.001 769.104V766.832L364.313 766.16L365.625 756.144C365.689 755.824 365.828 755.568 366.041 755.376C366.276 755.163 366.574 755.056 366.937 755.056H369.817V766.224H379.193V770.352H369.817V789.808C369.817 791.173 370.148 792.187 370.809 792.848C371.47 793.509 372.324 793.84 373.369 793.84C373.966 793.84 374.478 793.765 374.905 793.616C375.353 793.445 375.737 793.264 376.057 793.072C376.377 792.88 376.644 792.709 376.857 792.56C377.092 792.389 377.294 792.304 377.465 792.304C377.764 792.304 378.03 792.485 378.265 792.848L379.929 795.568C378.948 796.485 377.764 797.211 376.377 797.744C374.99 798.256 373.561 798.512 372.089 798.512ZM413.043 765.584L394.963 807.568C394.771 807.995 394.525 808.336 394.227 808.592C393.949 808.848 393.512 808.976 392.915 808.976H388.691L394.611 796.112L381.235 765.584H386.163C386.653 765.584 387.037 765.712 387.315 765.968C387.613 766.203 387.816 766.469 387.923 766.768L396.595 787.184C396.936 788.08 397.224 789.019 397.458 790C397.757 788.997 398.077 788.048 398.419 787.152L406.835 766.768C406.963 766.427 407.176 766.149 407.475 765.936C407.795 765.701 408.147 765.584 408.531 765.584H413.043ZM423.963 750.864V798H418.266V750.864H423.963ZM454.896 778.256C454.896 776.933 454.704 775.728 454.32 774.64C453.957 773.531 453.413 772.581 452.688 771.792C451.984 770.981 451.12 770.363 450.096 769.936C449.072 769.488 447.909 769.264 446.608 769.264C443.877 769.264 441.712 770.064 440.112 771.664C438.533 773.243 437.552 775.44 437.168 778.256H454.896ZM459.504 793.456C458.8 794.309 457.957 795.056 456.976 795.696C455.994 796.315 454.938 796.827 453.808 797.232C452.698 797.637 451.546 797.936 450.352 798.128C449.157 798.341 447.973 798.448 446.8 798.448C444.56 798.448 442.49 798.075 440.592 797.328C438.714 796.56 437.082 795.451 435.696 794C434.33 792.528 433.264 790.715 432.496 788.56C431.728 786.405 431.344 783.931 431.344 781.136C431.344 778.875 431.685 776.763 432.368 774.8C433.072 772.837 434.074 771.141 435.376 769.712C436.677 768.261 438.266 767.131 440.144 766.32C442.021 765.488 444.133 765.072 446.48 765.072C448.421 765.072 450.213 765.403 451.856 766.064C453.52 766.704 454.949 767.643 456.144 768.88C457.36 770.096 458.309 771.611 458.992 773.424C459.674 775.216 460.016 777.264 460.016 779.568C460.016 780.464 459.92 781.061 459.728 781.36C459.536 781.659 459.173 781.808 458.64 781.808H436.976C437.04 783.856 437.317 785.637 437.808 787.152C438.32 788.667 439.024 789.936 439.92 790.96C440.816 791.963 441.882 792.72 443.12 793.232C444.357 793.723 445.744 793.968 447.28 793.968C448.709 793.968 449.936 793.808 450.96 793.488C452.005 793.147 452.901 792.784 453.648 792.4C454.394 792.016 455.013 791.664 455.504 791.344C456.016 791.003 456.453 790.832 456.816 790.832C457.285 790.832 457.648 791.013 457.904 791.376L459.504 793.456Z" fill="#6D7E8A"/>
<path d="M721.704 769.84H713.8L711.72 780.272H719.624L721.704 769.84ZM733.8 765.648L733.384 768.048C733.277 768.667 733.021 769.125 732.616 769.424C732.232 769.701 731.634 769.84 730.824 769.84H726.408L724.328 780.272H730.056C730.674 780.272 731.112 780.453 731.368 780.816C731.645 781.157 731.72 781.765 731.592 782.64L731.304 784.464H723.72L721.032 798H718.44C718.162 798 717.906 797.936 717.672 797.808C717.437 797.68 717.234 797.509 717.064 797.296C716.914 797.083 716.808 796.827 716.744 796.528C716.68 796.229 716.68 795.899 716.744 795.536L719.016 784.464H711.112L708.84 795.824C708.712 796.613 708.402 797.179 707.912 797.52C707.421 797.84 706.866 798 706.248 798H703.688L706.408 784.464H701.736C701.138 784.464 700.701 784.293 700.424 783.952C700.168 783.589 700.104 782.971 700.232 782.096L700.488 780.272H707.016L709.096 769.84H701.672L702.088 767.472C702.194 766.853 702.44 766.395 702.824 766.096C703.229 765.797 703.837 765.648 704.648 765.648H709.704L712.008 754.192C712.136 753.552 712.424 753.051 712.872 752.688C713.341 752.325 713.896 752.144 714.536 752.144H717.096L714.408 765.648H722.312L725 752.144H727.528C728.146 752.144 728.626 752.347 728.968 752.752C729.33 753.157 729.458 753.669 729.352 754.288L727.016 765.648H733.8ZM745.997 765.584V798H740.301V765.584H745.997ZM747.213 755.408C747.213 755.963 747.095 756.485 746.861 756.976C746.647 757.445 746.349 757.872 745.965 758.256C745.602 758.619 745.165 758.907 744.653 759.12C744.162 759.333 743.639 759.44 743.085 759.44C742.53 759.44 742.007 759.333 741.517 759.12C741.047 758.907 740.631 758.619 740.269 758.256C739.906 757.872 739.618 757.445 739.405 756.976C739.191 756.485 739.085 755.963 739.085 755.408C739.085 754.853 739.191 754.331 739.405 753.84C739.618 753.328 739.906 752.891 740.269 752.528C740.631 752.144 741.047 751.845 741.517 751.632C742.007 751.419 742.53 751.312 743.085 751.312C743.639 751.312 744.162 751.419 744.653 751.632C745.165 751.845 745.602 752.144 745.965 752.528C746.349 752.891 746.647 753.328 746.861 753.84C747.095 754.331 747.213 754.853 747.213 755.408ZM776.476 773.296C775.409 771.867 774.257 770.875 773.02 770.32C771.782 769.744 770.396 769.456 768.86 769.456C765.852 769.456 763.537 770.533 761.916 772.688C760.294 774.843 759.484 777.915 759.484 781.904C759.484 784.016 759.665 785.829 760.028 787.344C760.39 788.837 760.924 790.075 761.628 791.056C762.332 792.016 763.196 792.72 764.22 793.168C765.244 793.616 766.406 793.84 767.708 793.84C769.585 793.84 771.217 793.413 772.604 792.56C774.012 791.707 775.302 790.501 776.476 788.944V773.296ZM782.172 750.864V798H778.78C777.969 798 777.457 797.605 777.244 796.816L776.732 792.88C775.345 794.544 773.766 795.888 771.996 796.912C770.225 797.936 768.177 798.448 765.852 798.448C763.996 798.448 762.31 798.096 760.796 797.392C759.281 796.667 757.99 795.611 756.924 794.224C755.857 792.837 755.036 791.109 754.46 789.04C753.884 786.971 753.596 784.592 753.596 781.904C753.596 779.515 753.916 777.296 754.556 775.248C755.196 773.179 756.113 771.387 757.308 769.872C758.502 768.357 759.964 767.173 761.692 766.32C763.441 765.445 765.404 765.008 767.58 765.008C769.564 765.008 771.26 765.349 772.668 766.032C774.097 766.693 775.366 767.621 776.476 768.816V750.864H782.172Z" fill="#6D7E8A"/>
<path d="M1471.09 775.472C1470.66 775.685 1470.2 775.877 1469.71 776.048C1469.24 776.219 1468.73 776.357 1468.18 776.464C1468.73 776.592 1469.24 776.741 1469.71 776.912C1470.2 777.061 1470.66 777.253 1471.09 777.488L1485.46 784.752C1485.88 784.965 1486.18 785.211 1486.35 785.488C1486.52 785.765 1486.61 786.075 1486.61 786.416V790.512L1461.87 777.648V775.28L1486.61 762.448V766.512C1486.61 766.875 1486.52 767.195 1486.35 767.472C1486.18 767.728 1485.88 767.963 1485.46 768.176L1471.09 775.472ZM1520.02 778.256C1520.02 776.933 1519.83 775.728 1519.44 774.64C1519.08 773.531 1518.54 772.581 1517.81 771.792C1517.11 770.981 1516.24 770.363 1515.22 769.936C1514.2 769.488 1513.03 769.264 1511.73 769.264C1509 769.264 1506.84 770.064 1505.24 771.664C1503.66 773.243 1502.68 775.44 1502.29 778.256H1520.02ZM1524.63 793.456C1523.92 794.309 1523.08 795.056 1522.1 795.696C1521.12 796.315 1520.06 796.827 1518.93 797.232C1517.82 797.637 1516.67 797.936 1515.48 798.128C1514.28 798.341 1513.1 798.448 1511.92 798.448C1509.68 798.448 1507.62 798.075 1505.72 797.328C1503.84 796.56 1502.21 795.451 1500.82 794C1499.46 792.528 1498.39 790.715 1497.62 788.56C1496.85 786.405 1496.47 783.931 1496.47 781.136C1496.47 778.875 1496.81 776.763 1497.49 774.8C1498.2 772.837 1499.2 771.141 1500.5 769.712C1501.8 768.261 1503.39 767.131 1505.27 766.32C1507.15 765.488 1509.26 765.072 1511.6 765.072C1513.55 765.072 1515.34 765.403 1516.98 766.064C1518.64 766.704 1520.07 767.643 1521.27 768.88C1522.48 770.096 1523.43 771.611 1524.12 773.424C1524.8 775.216 1525.14 777.264 1525.14 779.568C1525.14 780.464 1525.04 781.061 1524.85 781.36C1524.66 781.659 1524.3 781.808 1523.76 781.808H1502.1C1502.16 783.856 1502.44 785.637 1502.93 787.152C1503.44 788.667 1504.15 789.936 1505.04 790.96C1505.94 791.963 1507.01 792.72 1508.24 793.232C1509.48 793.723 1510.87 793.968 1512.4 793.968C1513.83 793.968 1515.06 793.808 1516.08 793.488C1517.13 793.147 1518.03 792.784 1518.77 792.4C1519.52 792.016 1520.14 791.664 1520.63 791.344C1521.14 791.003 1521.58 790.832 1521.94 790.832C1522.41 790.832 1522.77 791.013 1523.03 791.376L1524.63 793.456ZM1538.03 750.864V798H1532.33V750.864H1538.03ZM1568.96 778.256C1568.96 776.933 1568.77 775.728 1568.38 774.64C1568.02 773.531 1567.48 772.581 1566.75 771.792C1566.05 770.981 1565.18 770.363 1564.16 769.936C1563.13 769.488 1561.97 769.264 1560.67 769.264C1557.94 769.264 1555.77 770.064 1554.17 771.664C1552.6 773.243 1551.61 775.44 1551.23 778.256H1568.96ZM1573.57 793.456C1572.86 794.309 1572.02 795.056 1571.04 795.696C1570.06 796.315 1569 796.827 1567.87 797.232C1566.76 797.637 1565.61 797.936 1564.41 798.128C1563.22 798.341 1562.04 798.448 1560.86 798.448C1558.62 798.448 1556.55 798.075 1554.65 797.328C1552.78 796.56 1551.14 795.451 1549.76 794C1548.39 792.528 1547.33 790.715 1546.56 788.56C1545.79 786.405 1545.41 783.931 1545.41 781.136C1545.41 778.875 1545.75 776.763 1546.43 774.8C1547.13 772.837 1548.14 771.141 1549.44 769.712C1550.74 768.261 1552.33 767.131 1554.21 766.32C1556.08 765.488 1558.2 765.072 1560.54 765.072C1562.48 765.072 1564.28 765.403 1565.92 766.064C1567.58 766.704 1569.01 767.643 1570.21 768.88C1571.42 770.096 1572.37 771.611 1573.05 773.424C1573.74 775.216 1574.08 777.264 1574.08 779.568C1574.08 780.464 1573.98 781.061 1573.79 781.36C1573.6 781.659 1573.24 781.808 1572.7 781.808H1551.04C1551.1 783.856 1551.38 785.637 1551.87 787.152C1552.38 788.667 1553.09 789.936 1553.98 790.96C1554.88 791.963 1555.94 792.72 1557.18 793.232C1558.42 793.723 1559.81 793.968 1561.34 793.968C1562.77 793.968 1564 793.808 1565.02 793.488C1566.07 793.147 1566.96 792.784 1567.71 792.4C1568.46 792.016 1569.08 791.664 1569.57 791.344C1570.08 791.003 1570.52 790.832 1570.88 790.832C1571.35 790.832 1571.71 791.013 1571.97 791.376L1573.57 793.456ZM1581.07 798V765.584H1584.5C1585.31 765.584 1585.81 765.979 1586 766.768L1586.42 770.096C1587.61 768.624 1588.96 767.419 1590.45 766.48C1591.94 765.541 1593.67 765.072 1595.63 765.072C1597.81 765.072 1599.57 765.68 1600.91 766.896C1602.28 768.112 1603.26 769.755 1603.86 771.824C1604.33 770.651 1604.93 769.637 1605.65 768.784C1606.4 767.931 1607.23 767.227 1608.15 766.672C1609.06 766.117 1610.03 765.712 1611.06 765.456C1612.1 765.2 1613.16 765.072 1614.23 765.072C1615.93 765.072 1617.45 765.349 1618.77 765.904C1620.11 766.437 1621.25 767.227 1622.16 768.272C1623.1 769.317 1623.82 770.608 1624.31 772.144C1624.8 773.659 1625.04 775.397 1625.04 777.36V798H1619.31V777.36C1619.31 774.821 1618.76 772.901 1617.65 771.6C1616.54 770.277 1614.94 769.616 1612.85 769.616C1611.91 769.616 1611.02 769.787 1610.16 770.128C1609.33 770.448 1608.59 770.928 1607.95 771.568C1607.31 772.208 1606.8 773.019 1606.42 774C1606.06 774.96 1605.87 776.08 1605.87 777.36V798H1600.15V777.36C1600.15 774.757 1599.62 772.816 1598.58 771.536C1597.53 770.256 1596.01 769.616 1594 769.616C1592.59 769.616 1591.29 770 1590.1 770.768C1588.9 771.515 1587.81 772.539 1586.8 773.84V798H1581.07ZM1655.4 778.256C1655.4 776.933 1655.2 775.728 1654.82 774.64C1654.46 773.531 1653.91 772.581 1653.19 771.792C1652.48 770.981 1651.62 770.363 1650.6 769.936C1649.57 769.488 1648.41 769.264 1647.11 769.264C1644.38 769.264 1642.21 770.064 1640.61 771.664C1639.03 773.243 1638.05 775.44 1637.67 778.256H1655.4ZM1660 793.456C1659.3 794.309 1658.46 795.056 1657.48 795.696C1656.49 796.315 1655.44 796.827 1654.31 797.232C1653.2 797.637 1652.05 797.936 1650.85 798.128C1649.66 798.341 1648.47 798.448 1647.3 798.448C1645.06 798.448 1642.99 798.075 1641.09 797.328C1639.21 796.56 1637.58 795.451 1636.2 794C1634.83 792.528 1633.76 790.715 1633 788.56C1632.23 786.405 1631.84 783.931 1631.84 781.136C1631.84 778.875 1632.18 776.763 1632.87 774.8C1633.57 772.837 1634.57 771.141 1635.88 769.712C1637.18 768.261 1638.77 767.131 1640.64 766.32C1642.52 765.488 1644.63 765.072 1646.98 765.072C1648.92 765.072 1650.71 765.403 1652.36 766.064C1654.02 766.704 1655.45 767.643 1656.64 768.88C1657.86 770.096 1658.81 771.611 1659.49 773.424C1660.17 775.216 1660.52 777.264 1660.52 779.568C1660.52 780.464 1660.42 781.061 1660.23 781.36C1660.04 781.659 1659.67 781.808 1659.14 781.808H1637.48C1637.54 783.856 1637.82 785.637 1638.31 787.152C1638.82 788.667 1639.52 789.936 1640.42 790.96C1641.32 791.963 1642.38 792.72 1643.62 793.232C1644.86 793.723 1646.24 793.968 1647.78 793.968C1649.21 793.968 1650.44 793.808 1651.46 793.488C1652.5 793.147 1653.4 792.784 1654.15 792.4C1654.89 792.016 1655.51 791.664 1656 791.344C1656.52 791.003 1656.95 790.832 1657.32 790.832C1657.78 790.832 1658.15 791.013 1658.4 791.376L1660 793.456ZM1672.89 770.288C1673.59 769.499 1674.34 768.784 1675.13 768.144C1675.92 767.504 1676.75 766.96 1677.62 766.512C1678.52 766.043 1679.46 765.691 1680.44 765.456C1681.44 765.2 1682.52 765.072 1683.67 765.072C1685.44 765.072 1687 765.371 1688.34 765.968C1689.71 766.544 1690.84 767.376 1691.74 768.464C1692.65 769.531 1693.35 770.821 1693.82 772.336C1694.29 773.851 1694.52 775.525 1694.52 777.36V798H1688.79V777.36C1688.79 774.907 1688.23 773.008 1687.1 771.664C1685.99 770.299 1684.29 769.616 1682.01 769.616C1680.32 769.616 1678.74 770.021 1677.27 770.832C1675.82 771.643 1674.48 772.741 1673.24 774.128V798H1667.51V765.584H1670.94C1671.75 765.584 1672.25 765.979 1672.44 766.768L1672.89 770.288ZM1712.71 798.512C1710.15 798.512 1708.18 797.797 1706.79 796.368C1705.43 794.939 1704.75 792.88 1704.75 790.192V770.352H1700.84C1700.5 770.352 1700.21 770.256 1699.98 770.064C1699.74 769.851 1699.63 769.531 1699.63 769.104V766.832L1704.94 766.16L1706.25 756.144C1706.31 755.824 1706.45 755.568 1706.67 755.376C1706.9 755.163 1707.2 755.056 1707.56 755.056H1710.44V766.224H1719.82V770.352H1710.44V789.808C1710.44 791.173 1710.77 792.187 1711.43 792.848C1712.1 793.509 1712.95 793.84 1713.99 793.84C1714.59 793.84 1715.1 793.765 1715.53 793.616C1715.98 793.445 1716.36 793.264 1716.68 793.072C1717 792.88 1717.27 792.709 1717.48 792.56C1717.72 792.389 1717.92 792.304 1718.09 792.304C1718.39 792.304 1718.66 792.485 1718.89 792.848L1720.55 795.568C1719.57 796.485 1718.39 797.211 1717 797.744C1715.62 798.256 1714.19 798.512 1712.71 798.512ZM1753.12 775.28V777.648L1728.39 790.512V786.416C1728.39 786.075 1728.47 785.765 1728.64 785.488C1728.81 785.211 1729.11 784.965 1729.54 784.752L1743.91 777.488C1744.33 777.253 1744.78 777.061 1745.25 776.912C1745.74 776.741 1746.25 776.592 1746.79 776.464C1745.7 776.229 1744.74 775.899 1743.91 775.472L1729.54 768.176C1729.11 767.963 1728.81 767.728 1728.64 767.472C1728.47 767.195 1728.39 766.875 1728.39 766.512V762.448L1753.12 775.28Z" fill="#6D7E8A"/>
<path d="M1106.05 794.48C1106.05 793.925 1106.15 793.403 1106.34 792.912C1106.55 792.421 1106.83 791.995 1107.17 791.632C1107.53 791.269 1107.96 790.981 1108.45 790.768C1108.94 790.555 1109.47 790.448 1110.02 790.448C1110.57 790.448 1111.1 790.555 1111.59 790.768C1112.08 790.981 1112.51 791.269 1112.87 791.632C1113.23 791.995 1113.52 792.421 1113.73 792.912C1113.95 793.403 1114.05 793.925 1114.05 794.48C1114.05 795.056 1113.95 795.589 1113.73 796.08C1113.52 796.549 1113.23 796.965 1112.87 797.328C1112.51 797.691 1112.08 797.968 1111.59 798.16C1111.1 798.373 1110.57 798.48 1110.02 798.48C1109.47 798.48 1108.94 798.373 1108.45 798.16C1107.96 797.968 1107.53 797.691 1107.17 797.328C1106.83 796.965 1106.55 796.549 1106.34 796.08C1106.15 795.589 1106.05 795.056 1106.05 794.48ZM1144.7 771.344C1144.53 771.579 1144.36 771.76 1144.19 771.888C1144.01 772.016 1143.78 772.08 1143.48 772.08C1143.16 772.08 1142.81 771.952 1142.43 771.696C1142.04 771.419 1141.56 771.12 1140.99 770.8C1140.43 770.48 1139.74 770.192 1138.91 769.936C1138.09 769.659 1137.09 769.52 1135.9 769.52C1134.3 769.52 1132.89 769.808 1131.67 770.384C1130.46 770.939 1129.43 771.749 1128.6 772.816C1127.79 773.883 1127.17 775.173 1126.75 776.688C1126.34 778.203 1126.14 779.899 1126.14 781.776C1126.14 783.739 1126.36 785.488 1126.81 787.024C1127.26 788.539 1127.89 789.819 1128.7 790.864C1129.53 791.888 1130.52 792.677 1131.67 793.232C1132.85 793.765 1134.16 794.032 1135.61 794.032C1137 794.032 1138.14 793.872 1139.03 793.552C1139.93 793.211 1140.67 792.837 1141.24 792.432C1141.84 792.027 1142.33 791.664 1142.71 791.344C1143.12 791.003 1143.51 790.832 1143.9 790.832C1144.37 790.832 1144.73 791.013 1144.99 791.376L1146.59 793.456C1145.88 794.331 1145.08 795.077 1144.19 795.696C1143.29 796.315 1142.32 796.837 1141.27 797.264C1140.25 797.669 1139.17 797.968 1138.04 798.16C1136.91 798.352 1135.76 798.448 1134.59 798.448C1132.56 798.448 1130.67 798.075 1128.92 797.328C1127.19 796.581 1125.69 795.504 1124.41 794.096C1123.13 792.667 1122.13 790.917 1121.4 788.848C1120.68 786.779 1120.31 784.421 1120.31 781.776C1120.31 779.365 1120.64 777.136 1121.31 775.088C1121.99 773.04 1122.97 771.28 1124.25 769.808C1125.55 768.315 1127.14 767.152 1129.02 766.32C1130.92 765.488 1133.09 765.072 1135.55 765.072C1137.83 765.072 1139.83 765.445 1141.56 766.192C1143.31 766.917 1144.86 767.952 1146.2 769.296L1144.7 771.344ZM1158.59 750.864V798H1152.89V750.864H1158.59ZM1185.39 783.408C1182.77 783.493 1180.53 783.707 1178.67 784.048C1176.84 784.368 1175.33 784.795 1174.16 785.328C1173.01 785.861 1172.17 786.491 1171.63 787.216C1171.12 787.941 1170.86 788.752 1170.86 789.648C1170.86 790.501 1171 791.237 1171.28 791.856C1171.56 792.475 1171.93 792.987 1172.4 793.392C1172.89 793.776 1173.46 794.064 1174.1 794.256C1174.76 794.427 1175.46 794.512 1176.21 794.512C1177.21 794.512 1178.13 794.416 1178.96 794.224C1179.79 794.011 1180.57 793.712 1181.3 793.328C1182.04 792.944 1182.75 792.485 1183.41 791.952C1184.09 791.419 1184.75 790.811 1185.39 790.128V783.408ZM1166.99 770.16C1168.78 768.432 1170.72 767.141 1172.78 766.288C1174.85 765.435 1177.15 765.008 1179.66 765.008C1181.48 765.008 1183.09 765.307 1184.5 765.904C1185.9 766.501 1187.09 767.333 1188.05 768.4C1189.01 769.467 1189.73 770.757 1190.22 772.272C1190.72 773.787 1190.96 775.451 1190.96 777.264V798H1188.43C1187.88 798 1187.45 797.915 1187.15 797.744C1186.85 797.552 1186.62 797.189 1186.45 796.656L1185.81 793.584C1184.96 794.373 1184.12 795.077 1183.31 795.696C1182.5 796.293 1181.65 796.805 1180.75 797.232C1179.86 797.637 1178.9 797.947 1177.87 798.16C1176.87 798.395 1175.75 798.512 1174.51 798.512C1173.25 798.512 1172.07 798.341 1170.96 798C1169.85 797.637 1168.88 797.104 1168.05 796.4C1167.24 795.696 1166.59 794.811 1166.1 793.744C1165.63 792.656 1165.39 791.376 1165.39 789.904C1165.39 788.624 1165.74 787.397 1166.45 786.224C1167.15 785.029 1168.29 783.973 1169.87 783.056C1171.45 782.139 1173.51 781.392 1176.05 780.816C1178.59 780.219 1181.7 779.877 1185.39 779.792V777.264C1185.39 774.747 1184.85 772.848 1183.76 771.568C1182.67 770.267 1181.08 769.616 1178.99 769.616C1177.58 769.616 1176.4 769.797 1175.44 770.16C1174.5 770.501 1173.68 770.896 1172.98 771.344C1172.29 771.771 1171.7 772.165 1171.18 772.528C1170.69 772.869 1170.2 773.04 1169.71 773.04C1169.33 773.04 1169 772.944 1168.72 772.752C1168.44 772.539 1168.21 772.283 1168.02 771.984L1166.99 770.16ZM1218.52 770.928C1218.26 771.397 1217.87 771.632 1217.33 771.632C1217.01 771.632 1216.65 771.515 1216.25 771.28C1215.84 771.045 1215.34 770.789 1214.74 770.512C1214.17 770.213 1213.47 769.947 1212.66 769.712C1211.85 769.456 1210.89 769.328 1209.78 769.328C1208.82 769.328 1207.96 769.456 1207.19 769.712C1206.42 769.947 1205.76 770.277 1205.21 770.704C1204.67 771.131 1204.26 771.632 1203.96 772.208C1203.68 772.763 1203.54 773.371 1203.54 774.032C1203.54 774.864 1203.78 775.557 1204.25 776.112C1204.74 776.667 1205.38 777.147 1206.17 777.552C1206.95 777.957 1207.85 778.32 1208.85 778.64C1209.86 778.939 1210.88 779.269 1211.93 779.632C1212.99 779.973 1214.03 780.357 1215.03 780.784C1216.03 781.211 1216.93 781.744 1217.72 782.384C1218.51 783.024 1219.14 783.813 1219.61 784.752C1220.1 785.669 1220.34 786.779 1220.34 788.08C1220.34 789.573 1220.07 790.96 1219.54 792.24C1219.01 793.499 1218.22 794.597 1217.17 795.536C1216.13 796.453 1214.85 797.179 1213.33 797.712C1211.82 798.245 1210.07 798.512 1208.09 798.512C1205.82 798.512 1203.78 798.149 1201.94 797.424C1200.11 796.677 1198.55 795.728 1197.27 794.576L1198.61 792.4C1198.78 792.123 1198.99 791.909 1199.22 791.76C1199.46 791.611 1199.75 791.536 1200.12 791.536C1200.5 791.536 1200.91 791.685 1201.33 791.984C1201.76 792.283 1202.27 792.613 1202.87 792.976C1203.49 793.339 1204.23 793.669 1205.11 793.968C1205.98 794.267 1207.07 794.416 1208.37 794.416C1209.48 794.416 1210.45 794.277 1211.28 794C1212.12 793.701 1212.81 793.307 1213.37 792.816C1213.92 792.325 1214.33 791.76 1214.58 791.12C1214.86 790.48 1215 789.797 1215 789.072C1215 788.176 1214.75 787.44 1214.26 786.864C1213.79 786.267 1213.16 785.765 1212.37 785.36C1211.58 784.933 1210.68 784.571 1209.65 784.272C1208.65 783.952 1207.62 783.621 1206.55 783.28C1205.5 782.939 1204.47 782.555 1203.45 782.128C1202.44 781.68 1201.55 781.125 1200.76 780.464C1199.97 779.803 1199.33 778.992 1198.84 778.032C1198.37 777.051 1198.13 775.867 1198.13 774.48C1198.13 773.243 1198.39 772.059 1198.9 770.928C1199.41 769.776 1200.16 768.773 1201.14 767.92C1202.12 767.045 1203.33 766.352 1204.76 765.84C1206.19 765.328 1207.82 765.072 1209.65 765.072C1211.79 765.072 1213.7 765.413 1215.38 766.096C1217.09 766.757 1218.56 767.675 1219.8 768.848L1218.52 770.928ZM1246.2 770.928C1245.95 771.397 1245.55 771.632 1245.02 771.632C1244.7 771.632 1244.34 771.515 1243.93 771.28C1243.53 771.045 1243.03 770.789 1242.43 770.512C1241.85 770.213 1241.16 769.947 1240.35 769.712C1239.54 769.456 1238.58 769.328 1237.47 769.328C1236.51 769.328 1235.64 769.456 1234.88 769.712C1234.11 769.947 1233.45 770.277 1232.89 770.704C1232.36 771.131 1231.94 771.632 1231.64 772.208C1231.37 772.763 1231.23 773.371 1231.23 774.032C1231.23 774.864 1231.46 775.557 1231.93 776.112C1232.42 776.667 1233.06 777.147 1233.85 777.552C1234.64 777.957 1235.54 778.32 1236.54 778.64C1237.54 778.939 1238.57 779.269 1239.61 779.632C1240.68 779.973 1241.71 780.357 1242.72 780.784C1243.72 781.211 1244.62 781.744 1245.4 782.384C1246.19 783.024 1246.82 783.813 1247.29 784.752C1247.78 785.669 1248.03 786.779 1248.03 788.08C1248.03 789.573 1247.76 790.96 1247.23 792.24C1246.7 793.499 1245.91 794.597 1244.86 795.536C1243.82 796.453 1242.54 797.179 1241.02 797.712C1239.51 798.245 1237.76 798.512 1235.77 798.512C1233.51 798.512 1231.46 798.149 1229.63 797.424C1227.79 796.677 1226.24 795.728 1224.96 794.576L1226.3 792.4C1226.47 792.123 1226.67 791.909 1226.91 791.76C1227.14 791.611 1227.44 791.536 1227.8 791.536C1228.19 791.536 1228.59 791.685 1229.02 791.984C1229.45 792.283 1229.96 792.613 1230.56 792.976C1231.18 793.339 1231.92 793.669 1232.8 793.968C1233.67 794.267 1234.76 794.416 1236.06 794.416C1237.17 794.416 1238.14 794.277 1238.97 794C1239.8 793.701 1240.5 793.307 1241.05 792.816C1241.61 792.325 1242.01 791.76 1242.27 791.12C1242.55 790.48 1242.68 789.797 1242.68 789.072C1242.68 788.176 1242.44 787.44 1241.95 786.864C1241.48 786.267 1240.85 785.765 1240.06 785.36C1239.27 784.933 1238.36 784.571 1237.34 784.272C1236.34 783.952 1235.3 783.621 1234.24 783.28C1233.19 782.939 1232.16 782.555 1231.13 782.128C1230.13 781.68 1229.23 781.125 1228.44 780.464C1227.66 779.803 1227.02 778.992 1226.52 778.032C1226.06 777.051 1225.82 775.867 1225.82 774.48C1225.82 773.243 1226.08 772.059 1226.59 770.928C1227.1 769.776 1227.85 768.773 1228.83 767.92C1229.81 767.045 1231.02 766.352 1232.44 765.84C1233.87 765.328 1235.51 765.072 1237.34 765.072C1239.47 765.072 1241.38 765.413 1243.07 766.096C1244.78 766.757 1246.25 767.675 1247.48 768.848L1246.2 770.928ZM1048.62 829.688V880.472H1054.03C1054.5 880.472 1054.87 880.621 1055.15 880.92C1055.45 881.219 1055.6 881.581 1055.6 882.008V884.248H1043.82V825.944H1055.6V828.184C1055.6 828.611 1055.45 828.973 1055.15 829.272C1054.87 829.549 1054.5 829.688 1054.03 829.688H1048.62ZM1077.71 860.408C1075.08 860.493 1072.84 860.707 1070.99 861.048C1069.15 861.368 1067.65 861.795 1066.47 862.328C1065.32 862.861 1064.48 863.491 1063.95 864.216C1063.43 864.941 1063.18 865.752 1063.18 866.648C1063.18 867.501 1063.32 868.237 1063.59 868.856C1063.87 869.475 1064.24 869.987 1064.71 870.392C1065.2 870.776 1065.77 871.064 1066.41 871.256C1067.07 871.427 1067.77 871.512 1068.52 871.512C1069.52 871.512 1070.44 871.416 1071.27 871.224C1072.11 871.011 1072.88 870.712 1073.61 870.328C1074.36 869.944 1075.06 869.485 1075.72 868.952C1076.4 868.419 1077.07 867.811 1077.71 867.128V860.408ZM1059.31 847.16C1061.1 845.432 1063.03 844.141 1065.1 843.288C1067.17 842.435 1069.46 842.008 1071.98 842.008C1073.79 842.008 1075.4 842.307 1076.81 842.904C1078.22 843.501 1079.4 844.333 1080.36 845.4C1081.32 846.467 1082.05 847.757 1082.54 849.272C1083.03 850.787 1083.27 852.451 1083.27 854.264V875H1080.75C1080.19 875 1079.76 874.915 1079.47 874.744C1079.17 874.552 1078.93 874.189 1078.76 873.656L1078.12 870.584C1077.27 871.373 1076.44 872.077 1075.62 872.696C1074.81 873.293 1073.96 873.805 1073.07 874.232C1072.17 874.637 1071.21 874.947 1070.19 875.16C1069.18 875.395 1068.06 875.512 1066.83 875.512C1065.57 875.512 1064.38 875.341 1063.27 875C1062.16 874.637 1061.19 874.104 1060.36 873.4C1059.55 872.696 1058.9 871.811 1058.41 870.744C1057.94 869.656 1057.71 868.376 1057.71 866.904C1057.71 865.624 1058.06 864.397 1058.76 863.224C1059.47 862.029 1060.61 860.973 1062.19 860.056C1063.76 859.139 1065.82 858.392 1068.36 857.816C1070.9 857.219 1074.01 856.877 1077.71 856.792V854.264C1077.71 851.747 1077.16 849.848 1076.07 848.568C1074.99 847.267 1073.4 846.616 1071.31 846.616C1069.9 846.616 1068.71 846.797 1067.75 847.16C1066.81 847.501 1065.99 847.896 1065.29 848.344C1064.61 848.771 1064.01 849.165 1063.5 849.528C1063.01 849.869 1062.52 850.04 1062.03 850.04C1061.64 850.04 1061.31 849.944 1061.03 849.752C1060.76 849.539 1060.52 849.283 1060.33 848.984L1059.31 847.16ZM1101.46 875.512C1098.9 875.512 1096.93 874.797 1095.54 873.368C1094.18 871.939 1093.5 869.88 1093.5 867.192V847.352H1089.59C1089.25 847.352 1088.96 847.256 1088.73 847.064C1088.49 846.851 1088.38 846.531 1088.38 846.104V843.832L1093.69 843.16L1095 833.144C1095.06 832.824 1095.2 832.568 1095.42 832.376C1095.65 832.163 1095.95 832.056 1096.31 832.056H1099.19V843.224H1114.46L1115.77 833.144C1115.83 832.824 1115.97 832.568 1116.18 832.376C1116.42 832.163 1116.72 832.056 1117.08 832.056H1119.96V843.224H1129.34V847.352H1119.96V866.808C1119.96 868.173 1120.29 869.187 1120.95 869.848C1121.63 870.509 1122.49 870.84 1123.51 870.84C1124.11 870.84 1124.62 870.765 1125.05 870.616C1125.5 870.445 1125.88 870.264 1126.2 870.072C1126.52 869.88 1126.79 869.709 1127 869.56C1127.23 869.389 1127.44 869.304 1127.61 869.304C1127.93 869.304 1128.19 869.485 1128.41 869.848L1130.1 872.568C1129.1 873.485 1127.91 874.211 1126.52 874.744C1125.13 875.256 1123.7 875.512 1122.23 875.512C1119.69 875.512 1117.73 874.797 1116.34 873.368C1114.96 871.939 1114.26 869.88 1114.26 867.192V847.352H1099.19V866.808C1099.19 868.173 1099.52 869.187 1100.18 869.848C1100.85 870.509 1101.7 870.84 1102.74 870.84C1103.34 870.84 1103.85 870.765 1104.28 870.616C1104.73 870.445 1105.11 870.264 1105.43 870.072C1105.75 869.88 1106.02 869.709 1106.23 869.56C1106.47 869.389 1106.67 869.304 1106.84 869.304C1107.14 869.304 1107.41 869.485 1107.64 869.848L1109.3 872.568C1108.32 873.485 1107.14 874.211 1105.75 874.744C1104.37 875.256 1102.94 875.512 1101.46 875.512ZM1140.61 849.08C1141.63 846.861 1142.89 845.133 1144.38 843.896C1145.88 842.637 1147.7 842.008 1149.86 842.008C1150.54 842.008 1151.19 842.083 1151.81 842.232C1152.45 842.381 1153.01 842.616 1153.5 842.936L1153.09 847.192C1152.96 847.725 1152.64 847.992 1152.13 847.992C1151.83 847.992 1151.39 847.928 1150.82 847.8C1150.24 847.672 1149.59 847.608 1148.86 847.608C1147.84 847.608 1146.92 847.757 1146.11 848.056C1145.32 848.355 1144.61 848.803 1143.97 849.4C1143.35 849.976 1142.78 850.701 1142.27 851.576C1141.78 852.429 1141.33 853.411 1140.93 854.52V875H1135.2V842.584H1138.46C1139.08 842.584 1139.51 842.701 1139.74 842.936C1139.98 843.171 1140.14 843.576 1140.22 844.152L1140.61 849.08ZM1164.53 842.584V875H1158.83V842.584H1164.53ZM1165.74 832.408C1165.74 832.963 1165.63 833.485 1165.39 833.976C1165.18 834.445 1164.88 834.872 1164.5 835.256C1164.13 835.619 1163.7 835.907 1163.18 836.12C1162.69 836.333 1162.17 836.44 1161.62 836.44C1161.06 836.44 1160.54 836.333 1160.05 836.12C1159.58 835.907 1159.16 835.619 1158.8 835.256C1158.44 834.872 1158.15 834.445 1157.94 833.976C1157.72 833.485 1157.62 832.963 1157.62 832.408C1157.62 831.853 1157.72 831.331 1157.94 830.84C1158.15 830.328 1158.44 829.891 1158.8 829.528C1159.16 829.144 1159.58 828.845 1160.05 828.632C1160.54 828.419 1161.06 828.312 1161.62 828.312C1162.17 828.312 1162.69 828.419 1163.18 828.632C1163.7 828.845 1164.13 829.144 1164.5 829.528C1164.88 829.891 1165.18 830.328 1165.39 830.84C1165.63 831.331 1165.74 831.853 1165.74 832.408ZM1179.62 867.192C1180.66 868.6 1181.8 869.592 1183.04 870.168C1184.3 870.744 1185.67 871.032 1187.17 871.032C1190.22 871.032 1192.55 869.955 1194.18 867.8C1195.8 865.645 1196.61 862.435 1196.61 858.168C1196.61 854.2 1195.88 851.288 1194.43 849.432C1193 847.555 1190.95 846.616 1188.29 846.616C1186.43 846.616 1184.81 847.043 1183.42 847.896C1182.06 848.749 1180.79 849.955 1179.62 851.512V867.192ZM1179.62 847.256C1180.98 845.677 1182.52 844.419 1184.22 843.48C1185.95 842.541 1187.94 842.072 1190.18 842.072C1192.07 842.072 1193.78 842.435 1195.3 843.16C1196.83 843.885 1198.13 844.941 1199.2 846.328C1200.27 847.693 1201.08 849.357 1201.63 851.32C1202.21 853.283 1202.5 855.491 1202.5 857.944C1202.5 860.568 1202.18 862.957 1201.53 865.112C1200.9 867.267 1199.97 869.112 1198.75 870.648C1197.56 872.163 1196.1 873.347 1194.37 874.2C1192.64 875.032 1190.7 875.448 1188.54 875.448C1186.41 875.448 1184.61 875.053 1183.14 874.264C1181.68 873.453 1180.42 872.312 1179.33 870.84L1179.04 873.784C1178.87 874.595 1178.38 875 1177.57 875H1173.89V827.864H1179.62V847.256ZM1236.36 842.584V875H1232.96C1232.15 875 1231.64 874.605 1231.43 873.816L1230.98 870.328C1229.57 871.885 1227.99 873.144 1226.24 874.104C1224.49 875.043 1222.49 875.512 1220.23 875.512C1218.46 875.512 1216.89 875.224 1215.52 874.648C1214.18 874.051 1213.05 873.219 1212.13 872.152C1211.21 871.085 1210.52 869.795 1210.05 868.28C1209.6 866.765 1209.38 865.091 1209.38 863.256V842.584H1215.08V863.256C1215.08 865.709 1215.63 867.608 1216.74 868.952C1217.87 870.296 1219.59 870.968 1221.89 870.968C1223.58 870.968 1225.14 870.573 1226.6 869.784C1228.07 868.973 1229.42 867.864 1230.66 866.456V842.584H1236.36ZM1255.34 875.512C1252.78 875.512 1250.81 874.797 1249.42 873.368C1248.05 871.939 1247.37 869.88 1247.37 867.192V847.352H1243.47C1243.13 847.352 1242.84 847.256 1242.6 847.064C1242.37 846.851 1242.25 846.531 1242.25 846.104V843.832L1247.56 843.16L1248.88 833.144C1248.94 832.824 1249.08 832.568 1249.29 832.376C1249.53 832.163 1249.82 832.056 1250.19 832.056H1253.07V843.224H1262.44V847.352H1253.07V866.808C1253.07 868.173 1253.4 869.187 1254.06 869.848C1254.72 870.509 1255.57 870.84 1256.62 870.84C1257.22 870.84 1257.73 870.765 1258.16 870.616C1258.6 870.445 1258.99 870.264 1259.31 870.072C1259.63 869.88 1259.89 869.709 1260.11 869.56C1260.34 869.389 1260.54 869.304 1260.72 869.304C1261.01 869.304 1261.28 869.485 1261.52 869.848L1263.18 872.568C1262.2 873.485 1261.01 874.211 1259.63 874.744C1258.24 875.256 1256.81 875.512 1255.34 875.512ZM1289.83 855.256C1289.83 853.933 1289.64 852.728 1289.26 851.64C1288.89 850.531 1288.35 849.581 1287.63 848.792C1286.92 847.981 1286.06 847.363 1285.03 846.936C1284.01 846.488 1282.85 846.264 1281.55 846.264C1278.81 846.264 1276.65 847.064 1275.05 848.664C1273.47 850.243 1272.49 852.44 1272.11 855.256H1289.83ZM1294.44 870.456C1293.74 871.309 1292.89 872.056 1291.91 872.696C1290.93 873.315 1289.88 873.827 1288.75 874.232C1287.64 874.637 1286.48 874.936 1285.29 875.128C1284.09 875.341 1282.91 875.448 1281.74 875.448C1279.5 875.448 1277.43 875.075 1275.53 874.328C1273.65 873.56 1272.02 872.451 1270.63 871C1269.27 869.528 1268.2 867.715 1267.43 865.56C1266.67 863.405 1266.28 860.931 1266.28 858.136C1266.28 855.875 1266.62 853.763 1267.31 851.8C1268.01 849.837 1269.01 848.141 1270.31 846.712C1271.61 845.261 1273.2 844.131 1275.08 843.32C1276.96 842.488 1279.07 842.072 1281.42 842.072C1283.36 842.072 1285.15 842.403 1286.79 843.064C1288.46 843.704 1289.89 844.643 1291.08 845.88C1292.3 847.096 1293.25 848.611 1293.93 850.424C1294.61 852.216 1294.95 854.264 1294.95 856.568C1294.95 857.464 1294.86 858.061 1294.67 858.36C1294.47 858.659 1294.11 858.808 1293.58 858.808H1271.91C1271.98 860.856 1272.25 862.637 1272.75 864.152C1273.26 865.667 1273.96 866.936 1274.86 867.96C1275.75 868.963 1276.82 869.72 1278.06 870.232C1279.29 870.723 1280.68 870.968 1282.22 870.968C1283.65 870.968 1284.87 870.808 1285.9 870.488C1286.94 870.147 1287.84 869.784 1288.59 869.4C1289.33 869.016 1289.95 868.664 1290.44 868.344C1290.95 868.003 1291.39 867.832 1291.75 867.832C1292.22 867.832 1292.59 868.013 1292.84 868.376L1294.44 870.456ZM1309.2 884.248H1297.42V882.008C1297.42 881.581 1297.56 881.219 1297.84 880.92C1298.14 880.621 1298.52 880.472 1298.99 880.472H1304.4V829.688H1298.99C1298.52 829.688 1298.14 829.549 1297.84 829.272C1297.56 828.973 1297.42 828.611 1297.42 828.184V825.944H1309.2V884.248Z" fill="#6D7E8A"/>
<path d="M748.95 119.128H753.542V129.992L753.43 135.256C754.737 133.987 756.193 132.979 757.798 132.232C759.441 131.485 761.065 131.112 762.67 131.112C764.5 131.112 766.124 131.448 767.542 132.12C768.961 132.755 770.137 133.688 771.07 134.92C772.041 136.115 772.769 137.571 773.254 139.288C773.74 140.968 773.982 142.853 773.982 144.944C773.982 147.259 773.646 149.331 772.974 151.16C772.302 152.989 771.388 154.539 770.23 155.808C769.11 157.077 767.804 158.048 766.31 158.72C764.817 159.355 763.268 159.672 761.662 159.672C760.356 159.672 758.937 159.355 757.406 158.72C755.913 158.048 754.513 157.133 753.206 155.976H753.038L752.646 159H748.95V119.128ZM753.542 152.616C754.849 153.773 756.156 154.595 757.462 155.08C758.806 155.565 759.964 155.808 760.934 155.808C762.129 155.808 763.23 155.565 764.238 155.08C765.246 154.557 766.124 153.848 766.87 152.952C767.617 152.019 768.196 150.88 768.606 149.536C769.017 148.192 769.222 146.68 769.222 145C769.222 143.507 769.073 142.144 768.774 140.912C768.476 139.68 768.009 138.635 767.374 137.776C766.777 136.88 765.993 136.189 765.022 135.704C764.052 135.219 762.894 134.976 761.55 134.976C760.356 134.976 759.068 135.312 757.686 135.984C756.342 136.619 754.961 137.645 753.542 139.064V152.616ZM805.6 159H801.848L801.456 154.24H801.232C799.851 155.845 798.339 157.152 796.696 158.16C795.091 159.168 793.224 159.672 791.096 159.672C787.811 159.672 785.403 158.757 783.872 156.928C782.379 155.061 781.632 152.317 781.632 148.696V131.784H786.28V148.08C786.28 150.656 786.747 152.579 787.68 153.848C788.651 155.08 790.275 155.696 792.552 155.696C794.12 155.696 795.539 155.304 796.808 154.52C798.078 153.699 799.478 152.411 801.008 150.656V131.784H805.6V159ZM822.434 135.536H814.762V132.064L822.602 131.784L823.218 124.168H827.026V131.784H840.41V135.536H827.026V148.472C827.026 149.704 827.138 150.787 827.362 151.72C827.586 152.616 827.96 153.381 828.482 154.016C829.005 154.651 829.714 155.136 830.61 155.472C831.506 155.771 832.608 155.92 833.914 155.92C835.221 155.92 836.397 155.808 837.442 155.584C838.488 155.36 839.496 155.061 840.466 154.688L841.474 158.048C840.242 158.496 838.88 158.869 837.386 159.168C835.893 159.504 834.4 159.672 832.906 159.672C830.928 159.672 829.266 159.411 827.922 158.888C826.578 158.328 825.496 157.563 824.674 156.592C823.89 155.584 823.312 154.389 822.938 153.008C822.602 151.627 822.434 150.096 822.434 148.416V135.536ZM856.013 135.536H848.341V132.064L856.181 131.784L856.797 124.168H860.605V131.784H873.989V135.536H860.605V148.472C860.605 149.704 860.717 150.787 860.941 151.72C861.165 152.616 861.538 153.381 862.061 154.016C862.583 154.651 863.293 155.136 864.189 155.472C865.085 155.771 866.186 155.92 867.493 155.92C868.799 155.92 869.975 155.808 871.021 155.584C872.066 155.36 873.074 155.061 874.045 154.688L875.053 158.048C873.821 158.496 872.458 158.869 870.965 159.168C869.471 159.504 867.978 159.672 866.485 159.672C864.506 159.672 862.845 159.411 861.501 158.888C860.157 158.328 859.074 157.563 858.253 156.592C857.469 155.584 856.89 154.389 856.517 153.008C856.181 151.627 856.013 150.096 856.013 148.416V135.536ZM881.415 145.448C881.415 143.171 881.769 141.155 882.479 139.4C883.225 137.608 884.215 136.096 885.447 134.864C886.679 133.632 888.097 132.699 889.703 132.064C891.345 131.429 893.063 131.112 894.855 131.112C896.647 131.112 898.345 131.429 899.951 132.064C901.593 132.699 903.031 133.632 904.263 134.864C905.495 136.096 906.465 137.608 907.175 139.4C907.921 141.155 908.295 143.171 908.295 145.448C908.295 147.688 907.921 149.704 907.175 151.496C906.465 153.251 905.495 154.744 904.263 155.976C903.031 157.171 901.593 158.085 899.951 158.72C898.345 159.355 896.647 159.672 894.855 159.672C893.063 159.672 891.345 159.355 889.703 158.72C888.097 158.085 886.679 157.171 885.447 155.976C884.215 154.744 883.225 153.251 882.479 151.496C881.769 149.704 881.415 147.688 881.415 145.448ZM886.175 145.448C886.175 147.016 886.38 148.435 886.791 149.704C887.201 150.973 887.78 152.075 888.527 153.008C889.311 153.904 890.225 154.613 891.271 155.136C892.353 155.621 893.548 155.864 894.855 155.864C896.161 155.864 897.337 155.621 898.383 155.136C899.465 154.613 900.38 153.904 901.127 153.008C901.911 152.075 902.508 150.973 902.919 149.704C903.329 148.435 903.535 147.016 903.535 145.448C903.535 143.88 903.329 142.461 902.919 141.192C902.508 139.885 901.911 138.765 901.127 137.832C900.38 136.899 899.465 136.189 898.383 135.704C897.337 135.181 896.161 134.92 894.855 134.92C893.548 134.92 892.353 135.181 891.271 135.704C890.225 136.189 889.311 136.899 888.527 137.832C887.78 138.765 887.201 139.885 886.791 141.192C886.38 142.461 886.175 143.88 886.175 145.448ZM916.841 131.784H920.649L921.041 136.432H921.265C922.683 134.901 924.214 133.632 925.857 132.624C927.499 131.616 929.385 131.112 931.513 131.112C934.761 131.112 937.131 132.045 938.625 133.912C940.155 135.741 940.921 138.467 940.921 142.088V159H936.329V142.704C936.329 140.128 935.843 138.224 934.873 136.992C933.902 135.723 932.297 135.088 930.057 135.088C929.235 135.088 928.47 135.2 927.761 135.424C927.089 135.611 926.417 135.909 925.745 136.32C925.073 136.731 924.382 137.253 923.673 137.888C922.963 138.485 922.217 139.195 921.433 140.016V159H916.841V131.784Z" fill="#E3848B"/>
<path d="M954.507 147.576H950.083V144.384H954.899L955.963 136.096H951.203V132.848H956.299L957.643 122.6H960.611L959.323 132.848H966.715L968.059 122.6H971.027L969.739 132.848H974.275V136.096H969.403L968.339 144.384H973.155V147.576H967.947L966.603 159H963.579L964.979 147.576H957.531L956.187 159H953.163L954.507 147.576ZM965.315 144.384L966.379 136.096H958.931L957.923 144.384H965.315ZM982.149 145.448C982.149 143.171 982.504 141.155 983.213 139.4C983.96 137.608 984.949 136.096 986.181 134.864C987.413 133.632 988.832 132.699 990.437 132.064C992.08 131.429 993.797 131.112 995.589 131.112C997.381 131.112 999.08 131.429 1000.69 132.064C1002.33 132.699 1003.77 133.632 1005 134.864C1006.23 136.096 1007.2 137.608 1007.91 139.4C1008.66 141.155 1009.03 143.171 1009.03 145.448C1009.03 147.688 1008.66 149.704 1007.91 151.496C1007.2 153.251 1006.23 154.744 1005 155.976C1003.77 157.171 1002.33 158.085 1000.69 158.72C999.08 159.355 997.381 159.672 995.589 159.672C993.797 159.672 992.08 159.355 990.437 158.72C988.832 158.085 987.413 157.171 986.181 155.976C984.949 154.744 983.96 153.251 983.213 151.496C982.504 149.704 982.149 147.688 982.149 145.448ZM986.909 145.448C986.909 147.016 987.114 148.435 987.525 149.704C987.936 150.973 988.514 152.075 989.261 153.008C990.045 153.904 990.96 154.613 992.005 155.136C993.088 155.621 994.282 155.864 995.589 155.864C996.896 155.864 998.072 155.621 999.117 155.136C1000.2 154.613 1001.11 153.904 1001.86 153.008C1002.65 152.075 1003.24 150.973 1003.65 149.704C1004.06 148.435 1004.27 147.016 1004.27 145.448C1004.27 143.88 1004.06 142.461 1003.65 141.192C1003.24 139.885 1002.65 138.765 1001.86 137.832C1001.11 136.899 1000.2 136.189 999.117 135.704C998.072 135.181 996.896 134.92 995.589 134.92C994.282 134.92 993.088 135.181 992.005 135.704C990.96 136.189 990.045 136.899 989.261 137.832C988.514 138.765 987.936 139.885 987.525 141.192C987.114 142.461 986.909 143.88 986.909 145.448ZM1018.3 119.128H1022.9V146.12H1023.12L1037.79 131.784H1043.06L1032.19 142.592L1044.51 159H1039.36L1029.34 145.392L1022.9 151.608V159H1018.3V119.128Z" fill="#4D8DC9"/>
<path d="M1058.21 154.968C1058.21 153.549 1058.64 152.411 1059.5 151.552C1060.39 150.656 1061.48 150.208 1062.75 150.208C1064.01 150.208 1065.08 150.656 1065.94 151.552C1066.83 152.411 1067.28 153.549 1067.28 154.968C1067.28 156.387 1066.83 157.525 1065.94 158.384C1065.08 159.243 1064.01 159.672 1062.75 159.672C1061.48 159.672 1060.39 159.243 1059.5 158.384C1058.64 157.525 1058.21 156.387 1058.21 154.968ZM1084.73 119.128H1089.32V129.992L1089.21 135.256C1090.52 133.987 1091.97 132.979 1093.58 132.232C1095.22 131.485 1096.85 131.112 1098.45 131.112C1100.28 131.112 1101.9 131.448 1103.32 132.12C1104.74 132.755 1105.92 133.688 1106.85 134.92C1107.82 136.115 1108.55 137.571 1109.04 139.288C1109.52 140.968 1109.76 142.853 1109.76 144.944C1109.76 147.259 1109.43 149.331 1108.76 151.16C1108.08 152.989 1107.17 154.539 1106.01 155.808C1104.89 157.077 1103.58 158.048 1102.09 158.72C1100.6 159.355 1099.05 159.672 1097.44 159.672C1096.14 159.672 1094.72 159.355 1093.19 158.72C1091.69 158.048 1090.29 157.133 1088.99 155.976H1088.82L1088.43 159H1084.73V119.128ZM1089.32 152.616C1090.63 153.773 1091.94 154.595 1093.24 155.08C1094.59 155.565 1095.74 155.808 1096.72 155.808C1097.91 155.808 1099.01 155.565 1100.02 155.08C1101.03 154.557 1101.9 153.848 1102.65 152.952C1103.4 152.019 1103.98 150.88 1104.39 149.536C1104.8 148.192 1105 146.68 1105 145C1105 143.507 1104.85 142.144 1104.56 140.912C1104.26 139.68 1103.79 138.635 1103.16 137.776C1102.56 136.88 1101.77 136.189 1100.8 135.704C1099.83 135.219 1098.68 134.976 1097.33 134.976C1096.14 134.976 1094.85 135.312 1093.47 135.984C1092.12 136.619 1090.74 137.645 1089.32 139.064V152.616ZM1124.64 135.536H1116.97V132.064L1124.81 131.784L1125.42 124.168H1129.23V131.784H1142.61V135.536H1129.23V148.472C1129.23 149.704 1129.34 150.787 1129.57 151.72C1129.79 152.616 1130.16 153.381 1130.69 154.016C1131.21 154.651 1131.92 155.136 1132.81 155.472C1133.71 155.771 1134.81 155.92 1136.12 155.92C1137.42 155.92 1138.6 155.808 1139.65 155.584C1140.69 155.36 1141.7 155.061 1142.67 154.688L1143.68 158.048C1142.45 158.496 1141.08 158.869 1139.59 159.168C1138.1 159.504 1136.6 159.672 1135.11 159.672C1133.13 159.672 1131.47 159.411 1130.13 158.888C1128.78 158.328 1127.7 157.563 1126.88 156.592C1126.09 155.584 1125.51 154.389 1125.14 153.008C1124.81 151.627 1124.64 150.096 1124.64 148.416V135.536ZM1151.89 131.784H1155.7L1156.09 136.432H1156.31C1157.73 134.901 1159.26 133.632 1160.9 132.624C1162.55 131.616 1164.43 131.112 1166.56 131.112C1169.81 131.112 1172.18 132.045 1173.67 133.912C1175.2 135.741 1175.97 138.467 1175.97 142.088V159H1171.38V142.704C1171.38 140.128 1170.89 138.224 1169.92 136.992C1168.95 135.723 1167.34 135.088 1165.1 135.088C1164.28 135.088 1163.52 135.2 1162.81 135.424C1162.14 135.611 1161.46 135.909 1160.79 136.32C1160.12 136.731 1159.43 137.253 1158.72 137.888C1158.01 138.485 1157.26 139.195 1156.48 140.016V159H1151.89V131.784Z" fill="#44BC96"/>
<path d="M347.525 250.672L368.413 236.504V240.928L351.557 252.296V252.52L368.413 263.888V268.312L347.525 254.144V250.672ZM379.591 231.128H384.183V241.992L384.071 247.256C385.377 245.987 386.833 244.979 388.439 244.232C390.081 243.485 391.705 243.112 393.311 243.112C395.14 243.112 396.764 243.448 398.183 244.12C399.601 244.755 400.777 245.688 401.711 246.92C402.681 248.115 403.409 249.571 403.895 251.288C404.38 252.968 404.623 254.853 404.623 256.944C404.623 259.259 404.287 261.331 403.615 263.16C402.943 264.989 402.028 266.539 400.871 267.808C399.751 269.077 398.444 270.048 396.951 270.72C395.457 271.355 393.908 271.672 392.303 271.672C390.996 271.672 389.577 271.355 388.047 270.72C386.553 270.048 385.153 269.133 383.847 267.976H383.679L383.287 271H379.591V231.128ZM384.183 264.616C385.489 265.773 386.796 266.595 388.103 267.08C389.447 267.565 390.604 267.808 391.575 267.808C392.769 267.808 393.871 267.565 394.879 267.08C395.887 266.557 396.764 265.848 397.511 264.952C398.257 264.019 398.836 262.88 399.247 261.536C399.657 260.192 399.863 258.68 399.863 257C399.863 255.507 399.713 254.144 399.415 252.912C399.116 251.68 398.649 250.635 398.015 249.776C397.417 248.88 396.633 248.189 395.663 247.704C394.692 247.219 393.535 246.976 392.191 246.976C390.996 246.976 389.708 247.312 388.327 247.984C386.983 248.619 385.601 249.645 384.183 251.064V264.616ZM436.241 271H432.489L432.097 266.24H431.873C430.492 267.845 428.98 269.152 427.337 270.16C425.732 271.168 423.865 271.672 421.737 271.672C418.452 271.672 416.044 270.757 414.513 268.928C413.02 267.061 412.273 264.317 412.273 260.696V243.784H416.921V260.08C416.921 262.656 417.388 264.579 418.321 265.848C419.292 267.08 420.916 267.696 423.193 267.696C424.761 267.696 426.18 267.304 427.449 266.52C428.718 265.699 430.118 264.411 431.649 262.656V243.784H436.241V271ZM453.075 247.536H445.403V244.064L453.243 243.784L453.859 236.168H457.667V243.784H471.051V247.536H457.667V260.472C457.667 261.704 457.779 262.787 458.003 263.72C458.227 264.616 458.6 265.381 459.123 266.016C459.646 266.651 460.355 267.136 461.251 267.472C462.147 267.771 463.248 267.92 464.555 267.92C465.862 267.92 467.038 267.808 468.083 267.584C469.128 267.36 470.136 267.061 471.107 266.688L472.115 270.048C470.883 270.496 469.52 270.869 468.027 271.168C466.534 271.504 465.04 271.672 463.547 271.672C461.568 271.672 459.907 271.411 458.563 270.888C457.219 270.328 456.136 269.563 455.315 268.592C454.531 267.584 453.952 266.389 453.579 265.008C453.243 263.627 453.075 262.096 453.075 260.416V247.536ZM486.653 247.536H478.981V244.064L486.821 243.784L487.437 236.168H491.245V243.784H504.629V247.536H491.245V260.472C491.245 261.704 491.357 262.787 491.581 263.72C491.805 264.616 492.179 265.381 492.701 266.016C493.224 266.651 493.933 267.136 494.829 267.472C495.725 267.771 496.827 267.92 498.133 267.92C499.44 267.92 500.616 267.808 501.661 267.584C502.707 267.36 503.715 267.061 504.685 266.688L505.693 270.048C504.461 270.496 503.099 270.869 501.605 271.168C500.112 271.504 498.619 271.672 497.125 271.672C495.147 271.672 493.485 271.411 492.141 270.888C490.797 270.328 489.715 269.563 488.893 268.592C488.109 267.584 487.531 266.389 487.157 265.008C486.821 263.627 486.653 262.096 486.653 260.416V247.536ZM512.055 257.448C512.055 255.171 512.41 253.155 513.119 251.4C513.866 249.608 514.855 248.096 516.087 246.864C517.319 245.632 518.738 244.699 520.343 244.064C521.986 243.429 523.703 243.112 525.495 243.112C527.287 243.112 528.986 243.429 530.591 244.064C532.234 244.699 533.671 245.632 534.903 246.864C536.135 248.096 537.106 249.608 537.815 251.4C538.562 253.155 538.935 255.171 538.935 257.448C538.935 259.688 538.562 261.704 537.815 263.496C537.106 265.251 536.135 266.744 534.903 267.976C533.671 269.171 532.234 270.085 530.591 270.72C528.986 271.355 527.287 271.672 525.495 271.672C523.703 271.672 521.986 271.355 520.343 270.72C518.738 270.085 517.319 269.171 516.087 267.976C514.855 266.744 513.866 265.251 513.119 263.496C512.41 261.704 512.055 259.688 512.055 257.448ZM516.815 257.448C516.815 259.016 517.021 260.435 517.431 261.704C517.842 262.973 518.421 264.075 519.167 265.008C519.951 265.904 520.866 266.613 521.911 267.136C522.994 267.621 524.189 267.864 525.495 267.864C526.802 267.864 527.978 267.621 529.023 267.136C530.106 266.613 531.021 265.904 531.767 265.008C532.551 264.075 533.149 262.973 533.559 261.704C533.97 260.435 534.175 259.016 534.175 257.448C534.175 255.88 533.97 254.461 533.559 253.192C533.149 251.885 532.551 250.765 531.767 249.832C531.021 248.899 530.106 248.189 529.023 247.704C527.978 247.181 526.802 246.92 525.495 246.92C524.189 246.92 522.994 247.181 521.911 247.704C520.866 248.189 519.951 248.899 519.167 249.832C518.421 250.765 517.842 251.885 517.431 253.192C517.021 254.461 516.815 255.88 516.815 257.448ZM547.481 243.784H551.289L551.681 248.432H551.905C553.324 246.901 554.855 245.632 556.497 244.624C558.14 243.616 560.025 243.112 562.153 243.112C565.401 243.112 567.772 244.045 569.265 245.912C570.796 247.741 571.561 250.467 571.561 254.088V271H566.969V254.704C566.969 252.128 566.484 250.224 565.513 248.992C564.543 247.723 562.937 247.088 560.697 247.088C559.876 247.088 559.111 247.2 558.401 247.424C557.729 247.611 557.057 247.909 556.385 248.32C555.713 248.731 555.023 249.253 554.313 249.888C553.604 250.485 552.857 251.195 552.073 252.016V271H547.481V243.784ZM615.702 264.392C617.232 265.512 618.875 266.408 620.63 267.08C622.384 267.752 624.494 268.088 626.958 268.088C629.422 268.088 631.251 267.677 632.446 266.856C633.64 266.035 634.238 265.027 634.238 263.832C634.238 262.787 633.584 261.853 632.278 261.032C631.008 260.211 628.712 259.389 625.39 258.568C623.971 258.232 622.627 257.821 621.358 257.336C620.126 256.851 619.043 256.291 618.11 255.656C617.176 254.984 616.43 254.256 615.87 253.472C615.31 252.688 615.03 251.811 615.03 250.84C615.03 249.757 615.272 248.749 615.758 247.816C616.243 246.845 616.952 246.024 617.886 245.352C618.856 244.643 620.051 244.101 621.47 243.728C622.926 243.317 624.587 243.112 626.454 243.112C628.507 243.112 630.504 243.467 632.446 244.176C634.387 244.848 636.03 245.651 637.374 246.584L635.134 249.552C633.939 248.693 632.614 248.003 631.158 247.48C629.702 246.957 628.134 246.696 626.454 246.696C625.184 246.696 624.12 246.808 623.262 247.032C622.403 247.219 621.712 247.499 621.19 247.872C620.667 248.208 620.294 248.619 620.07 249.104C619.846 249.589 619.734 250.093 619.734 250.616C619.734 251.736 620.499 252.669 622.03 253.416C623.56 254.125 625.558 254.797 628.022 255.432C631.718 256.365 634.443 257.429 636.198 258.624C637.99 259.819 638.886 261.461 638.886 263.552C638.886 264.672 638.624 265.717 638.102 266.688C637.579 267.659 636.795 268.517 635.75 269.264C634.742 270.011 633.472 270.589 631.942 271C630.448 271.448 628.731 271.672 626.79 271.672C624.102 271.672 621.619 271.261 619.342 270.44C617.102 269.581 615.142 268.573 613.462 267.416L615.702 264.392ZM654.544 247.536H646.872V244.064L654.712 243.784L655.328 236.168H659.136V243.784H672.52V247.536H659.136V260.472C659.136 261.704 659.248 262.787 659.472 263.72C659.696 264.616 660.069 265.381 660.592 266.016C661.114 266.651 661.824 267.136 662.72 267.472C663.616 267.771 664.717 267.92 666.024 267.92C667.33 267.92 668.506 267.808 669.552 267.584C670.597 267.36 671.605 267.061 672.576 266.688L673.584 270.048C672.352 270.496 670.989 270.869 669.496 271.168C668.002 271.504 666.509 271.672 665.016 271.672C663.037 271.672 661.376 271.411 660.032 270.888C658.688 270.328 657.605 269.563 656.784 268.592C656 267.584 655.421 266.389 655.048 265.008C654.712 263.627 654.544 262.096 654.544 260.416V247.536ZM681.29 278.504C681.663 278.616 682.055 278.709 682.466 278.784C682.914 278.859 683.343 278.896 683.754 278.896C685.658 278.896 687.207 278.336 688.402 277.216C689.597 276.133 690.53 274.752 691.202 273.072L692.042 271.056L679.33 243.784H683.978L690.642 258.848C691.165 260.043 691.706 261.331 692.266 262.712C692.863 264.093 693.442 265.437 694.002 266.744H694.226C694.711 265.437 695.197 264.112 695.682 262.768C696.205 261.387 696.69 260.08 697.138 258.848L703.074 243.784H707.442L695.458 273.24C694.935 274.584 694.338 275.835 693.666 276.992C692.994 278.149 692.191 279.139 691.258 279.96C690.325 280.819 689.242 281.491 688.01 281.976C686.815 282.461 685.453 282.704 683.922 282.704C682.578 282.704 681.383 282.517 680.338 282.144L681.29 278.504ZM714.7 231.128H728.588V262.208C728.588 264.224 729.055 265.68 729.988 266.576C730.959 267.435 732.265 267.864 733.908 267.864C735.401 267.864 737.119 267.435 739.06 266.576L740.236 270.048C739.004 270.496 737.847 270.869 736.764 271.168C735.681 271.504 734.393 271.672 732.9 271.672C729.988 271.672 727.767 270.851 726.236 269.208C724.743 267.565 723.996 265.12 723.996 261.872V234.88H714.7V231.128ZM747.606 257.448C747.606 255.208 747.998 253.211 748.782 251.456C749.566 249.664 750.593 248.152 751.862 246.92C753.169 245.688 754.644 244.755 756.286 244.12C757.966 243.448 759.684 243.112 761.438 243.112C763.38 243.112 765.116 243.429 766.646 244.064C768.177 244.661 769.465 245.52 770.51 246.64C771.593 247.76 772.414 249.104 772.974 250.672C773.534 252.24 773.814 253.976 773.814 255.88C773.814 256.365 773.796 256.851 773.758 257.336C773.758 257.784 773.721 258.176 773.646 258.512H752.366C752.404 259.968 752.684 261.275 753.206 262.432C753.766 263.589 754.494 264.579 755.39 265.4C756.324 266.221 757.406 266.856 758.638 267.304C759.908 267.752 761.289 267.976 762.782 267.976C764.388 267.976 765.844 267.752 767.15 267.304C768.494 266.856 769.801 266.24 771.07 265.456L772.694 268.48C771.35 269.339 769.82 270.085 768.102 270.72C766.385 271.355 764.425 271.672 762.222 271.672C760.206 271.672 758.302 271.355 756.51 270.72C754.756 270.048 753.206 269.115 751.862 267.92C750.556 266.688 749.51 265.195 748.726 263.44C747.98 261.685 747.606 259.688 747.606 257.448ZM769.558 255.208C769.558 252.483 768.849 250.392 767.43 248.936C766.012 247.48 764.033 246.752 761.494 246.752C760.374 246.752 759.292 246.939 758.246 247.312C757.238 247.685 756.324 248.245 755.502 248.992C754.681 249.701 753.99 250.579 753.43 251.624C752.87 252.669 752.497 253.864 752.31 255.208H769.558ZM782.08 244.792H806.16V248.264H782.08V244.792ZM782.08 256.72H806.16V260.192H782.08V256.72ZM818.346 238.688L818.234 232.528H824.394L824.282 238.688L822.882 251.288H819.746L818.346 238.688ZM831.17 238.688L831.058 232.528H837.218L837.106 238.688L835.706 251.288H832.57L831.17 238.688ZM1221.28 238.688L1221.17 232.528H1227.33L1227.22 238.688L1225.82 251.288H1222.68L1221.28 238.688ZM1234.11 238.688L1234 232.528H1240.16L1240.04 238.688L1238.64 251.288H1235.51L1234.11 238.688ZM1274.29 254.144L1253.41 268.312V263.888L1270.26 252.52V252.296L1253.41 240.928V236.504L1274.29 250.672V254.144ZM1287.71 250.672L1308.6 236.504V240.928L1291.74 252.296V252.52L1308.6 263.888V268.312L1287.71 254.144V250.672ZM1324.26 279.96H1320.11L1338.48 231.24H1342.63L1324.26 279.96ZM1353.36 231.128H1357.95V241.992L1357.84 247.256C1359.14 245.987 1360.6 244.979 1362.2 244.232C1363.85 243.485 1365.47 243.112 1367.08 243.112C1368.91 243.112 1370.53 243.448 1371.95 244.12C1373.37 244.755 1374.54 245.688 1375.48 246.92C1376.45 248.115 1377.18 249.571 1377.66 251.288C1378.15 252.968 1378.39 254.853 1378.39 256.944C1378.39 259.259 1378.05 261.331 1377.38 263.16C1376.71 264.989 1375.79 266.539 1374.64 267.808C1373.52 269.077 1372.21 270.048 1370.72 270.72C1369.22 271.355 1367.67 271.672 1366.07 271.672C1364.76 271.672 1363.34 271.355 1361.81 270.72C1360.32 270.048 1358.92 269.133 1357.61 267.976H1357.44L1357.05 271H1353.36V231.128ZM1357.95 264.616C1359.26 265.773 1360.56 266.595 1361.87 267.08C1363.21 267.565 1364.37 267.808 1365.34 267.808C1366.54 267.808 1367.64 267.565 1368.64 267.08C1369.65 266.557 1370.53 265.848 1371.28 264.952C1372.02 264.019 1372.6 262.88 1373.01 261.536C1373.42 260.192 1373.63 258.68 1373.63 257C1373.63 255.507 1373.48 254.144 1373.18 252.912C1372.88 251.68 1372.42 250.635 1371.78 249.776C1371.18 248.88 1370.4 248.189 1369.43 247.704C1368.46 247.219 1367.3 246.976 1365.96 246.976C1364.76 246.976 1363.47 247.312 1362.09 247.984C1360.75 248.619 1359.37 249.645 1357.95 251.064V264.616ZM1410.01 271H1406.25L1405.86 266.24H1405.64C1404.26 267.845 1402.75 269.152 1401.1 270.16C1399.5 271.168 1397.63 271.672 1395.5 271.672C1392.22 271.672 1389.81 270.757 1388.28 268.928C1386.79 267.061 1386.04 264.317 1386.04 260.696V243.784H1390.69V260.08C1390.69 262.656 1391.15 264.579 1392.09 265.848C1393.06 267.08 1394.68 267.696 1396.96 267.696C1398.53 267.696 1399.95 267.304 1401.21 266.52C1402.48 265.699 1403.88 264.411 1405.41 262.656V243.784H1410.01V271ZM1426.84 247.536H1419.17V244.064L1427.01 243.784L1427.62 236.168H1431.43V243.784H1444.82V247.536H1431.43V260.472C1431.43 261.704 1431.54 262.787 1431.77 263.72C1431.99 264.616 1432.37 265.381 1432.89 266.016C1433.41 266.651 1434.12 267.136 1435.02 267.472C1435.91 267.771 1437.01 267.92 1438.32 267.92C1439.63 267.92 1440.8 267.808 1441.85 267.584C1442.89 267.36 1443.9 267.061 1444.87 266.688L1445.88 270.048C1444.65 270.496 1443.29 270.869 1441.79 271.168C1440.3 271.504 1438.81 271.672 1437.31 271.672C1435.33 271.672 1433.67 271.411 1432.33 270.888C1430.98 270.328 1429.9 269.563 1429.08 268.592C1428.3 267.584 1427.72 266.389 1427.34 265.008C1427.01 263.627 1426.84 262.096 1426.84 260.416V247.536ZM1460.42 247.536H1452.75V244.064L1460.59 243.784L1461.2 236.168H1465.01V243.784H1478.39V247.536H1465.01V260.472C1465.01 261.704 1465.12 262.787 1465.35 263.72C1465.57 264.616 1465.94 265.381 1466.47 266.016C1466.99 266.651 1467.7 267.136 1468.59 267.472C1469.49 267.771 1470.59 267.92 1471.9 267.92C1473.21 267.92 1474.38 267.808 1475.43 267.584C1476.47 267.36 1477.48 267.061 1478.45 266.688L1479.46 270.048C1478.23 270.496 1476.86 270.869 1475.37 271.168C1473.88 271.504 1472.38 271.672 1470.89 271.672C1468.91 271.672 1467.25 271.411 1465.91 270.888C1464.56 270.328 1463.48 269.563 1462.66 268.592C1461.87 267.584 1461.3 266.389 1460.92 265.008C1460.59 263.627 1460.42 262.096 1460.42 260.416V247.536ZM1485.82 257.448C1485.82 255.171 1486.18 253.155 1486.88 251.4C1487.63 249.608 1488.62 248.096 1489.85 246.864C1491.08 245.632 1492.5 244.699 1494.11 244.064C1495.75 243.429 1497.47 243.112 1499.26 243.112C1501.05 243.112 1502.75 243.429 1504.36 244.064C1506 244.699 1507.44 245.632 1508.67 246.864C1509.9 248.096 1510.87 249.608 1511.58 251.4C1512.33 253.155 1512.7 255.171 1512.7 257.448C1512.7 259.688 1512.33 261.704 1511.58 263.496C1510.87 265.251 1509.9 266.744 1508.67 267.976C1507.44 269.171 1506 270.085 1504.36 270.72C1502.75 271.355 1501.05 271.672 1499.26 271.672C1497.47 271.672 1495.75 271.355 1494.11 270.72C1492.5 270.085 1491.08 269.171 1489.85 267.976C1488.62 266.744 1487.63 265.251 1486.88 263.496C1486.18 261.704 1485.82 259.688 1485.82 257.448ZM1490.58 257.448C1490.58 259.016 1490.79 260.435 1491.2 261.704C1491.61 262.973 1492.19 264.075 1492.93 265.008C1493.72 265.904 1494.63 266.613 1495.68 267.136C1496.76 267.621 1497.95 267.864 1499.26 267.864C1500.57 267.864 1501.74 267.621 1502.79 267.136C1503.87 266.613 1504.79 265.904 1505.53 265.008C1506.32 264.075 1506.91 262.973 1507.32 261.704C1507.74 260.435 1507.94 259.016 1507.94 257.448C1507.94 255.88 1507.74 254.461 1507.32 253.192C1506.91 251.885 1506.32 250.765 1505.53 249.832C1504.79 248.899 1503.87 248.189 1502.79 247.704C1501.74 247.181 1500.57 246.92 1499.26 246.92C1497.95 246.92 1496.76 247.181 1495.68 247.704C1494.63 248.189 1493.72 248.899 1492.93 249.832C1492.19 250.765 1491.61 251.885 1491.2 253.192C1490.79 254.461 1490.58 255.88 1490.58 257.448ZM1521.25 243.784H1525.06L1525.45 248.432H1525.67C1527.09 246.901 1528.62 245.632 1530.26 244.624C1531.91 243.616 1533.79 243.112 1535.92 243.112C1539.17 243.112 1541.54 244.045 1543.03 245.912C1544.56 247.741 1545.33 250.467 1545.33 254.088V271H1540.74V254.704C1540.74 252.128 1540.25 250.224 1539.28 248.992C1538.31 247.723 1536.7 247.088 1534.46 247.088C1533.64 247.088 1532.88 247.2 1532.17 247.424C1531.5 247.611 1530.82 247.909 1530.15 248.32C1529.48 248.731 1528.79 249.253 1528.08 249.888C1527.37 250.485 1526.62 251.195 1525.84 252.016V271H1521.25V243.784ZM1576.5 254.144L1555.61 268.312V263.888L1572.47 252.52V252.296L1555.61 240.928V236.504L1576.5 250.672V254.144Z" fill="#2F4858"/>
<path d="M848.565 257.28C848.565 255.003 848.975 252.968 849.797 251.176C850.655 249.384 851.794 247.872 853.213 246.64C854.631 245.408 856.293 244.475 858.197 243.84C860.101 243.168 862.098 242.832 864.189 242.832C866.429 242.832 868.389 243.205 870.069 243.952C871.786 244.699 873.223 245.613 874.381 246.696L871.301 250.728C870.218 249.869 869.117 249.216 867.997 248.768C866.914 248.32 865.757 248.096 864.525 248.096C861.762 248.096 859.522 248.936 857.805 250.616C856.087 252.259 855.229 254.48 855.229 257.28C855.229 258.661 855.453 259.912 855.901 261.032C856.349 262.152 856.965 263.123 857.749 263.944C858.57 264.728 859.541 265.344 860.661 265.792C861.781 266.203 863.013 266.408 864.357 266.408C865.925 266.408 867.343 266.109 868.613 265.512C869.919 264.915 871.114 264.205 872.197 263.384L874.885 267.528C873.317 268.909 871.562 269.955 869.621 270.664C867.679 271.336 865.719 271.672 863.741 271.672C861.575 271.672 859.559 271.355 857.693 270.72C855.863 270.085 854.258 269.152 852.877 267.92C851.533 266.688 850.469 265.176 849.685 263.384C848.938 261.592 848.565 259.557 848.565 257.28ZM881.023 257.28C881.023 255.003 881.396 252.968 882.143 251.176C882.927 249.384 883.953 247.872 885.223 246.64C886.492 245.408 887.967 244.475 889.647 243.84C891.327 243.168 893.063 242.832 894.855 242.832C896.647 242.832 898.383 243.168 900.063 243.84C901.743 244.475 903.217 245.408 904.487 246.64C905.756 247.872 906.764 249.384 907.511 251.176C908.295 252.968 908.687 255.003 908.687 257.28C908.687 259.557 908.295 261.592 907.511 263.384C906.764 265.176 905.756 266.688 904.487 267.92C903.217 269.152 901.743 270.085 900.063 270.72C898.383 271.355 896.647 271.672 894.855 271.672C893.063 271.672 891.327 271.355 889.647 270.72C887.967 270.085 886.492 269.152 885.223 267.92C883.953 266.688 882.927 265.176 882.143 263.384C881.396 261.592 881.023 259.557 881.023 257.28ZM887.687 257.28C887.687 260.043 888.321 262.264 889.591 263.944C890.86 265.587 892.615 266.408 894.855 266.408C897.095 266.408 898.849 265.587 900.119 263.944C901.388 262.264 902.023 260.043 902.023 257.28C902.023 254.48 901.388 252.259 900.119 250.616C898.849 248.936 897.095 248.096 894.855 248.096C892.615 248.096 890.86 248.936 889.591 250.616C888.321 252.259 887.687 254.48 887.687 257.28ZM915.609 231.464H930.729V261.312C930.729 263.179 931.195 264.504 932.129 265.288C933.062 266.035 934.238 266.408 935.657 266.408C937.001 266.408 938.569 266.053 940.361 265.344L941.873 270.104C940.566 270.552 939.334 270.925 938.177 271.224C937.057 271.523 935.694 271.672 934.089 271.672C930.841 271.672 928.395 270.739 926.753 268.872C925.11 267.005 924.289 264.373 924.289 260.976V236.56H915.609V231.464ZM948.179 257.28C948.179 255.003 948.552 252.968 949.299 251.176C950.083 249.384 951.11 247.872 952.379 246.64C953.648 245.408 955.123 244.475 956.803 243.84C958.483 243.168 960.219 242.832 962.011 242.832C963.803 242.832 965.539 243.168 967.219 243.84C968.899 244.475 970.374 245.408 971.643 246.64C972.912 247.872 973.92 249.384 974.667 251.176C975.451 252.968 975.843 255.003 975.843 257.28C975.843 259.557 975.451 261.592 974.667 263.384C973.92 265.176 972.912 266.688 971.643 267.92C970.374 269.152 968.899 270.085 967.219 270.72C965.539 271.355 963.803 271.672 962.011 271.672C960.219 271.672 958.483 271.355 956.803 270.72C955.123 270.085 953.648 269.152 952.379 267.92C951.11 266.688 950.083 265.176 949.299 263.384C948.552 261.592 948.179 259.557 948.179 257.28ZM954.843 257.28C954.843 260.043 955.478 262.264 956.747 263.944C958.016 265.587 959.771 266.408 962.011 266.408C964.251 266.408 966.006 265.587 967.275 263.944C968.544 262.264 969.179 260.043 969.179 257.28C969.179 254.48 968.544 252.259 967.275 250.616C966.006 248.936 964.251 248.096 962.011 248.096C959.771 248.096 958.016 248.936 956.747 250.616C955.478 252.259 954.843 254.48 954.843 257.28ZM986.069 243.504H991.389L991.949 249.72H992.117C993.536 247.48 995.234 245.781 997.213 244.624C999.229 243.429 1001.43 242.832 1003.82 242.832C1004.94 242.832 1005.89 242.925 1006.68 243.112C1007.5 243.261 1008.32 243.541 1009.14 243.952L1007.8 249.384C1006.9 249.085 1006.1 248.88 1005.39 248.768C1004.72 248.619 1003.86 248.544 1002.81 248.544C1000.91 248.544 999.08 249.085 997.325 250.168C995.57 251.251 993.984 253.136 992.565 255.824V271H986.069V243.504ZM1023.62 246.976C1023.62 245.333 1024.15 243.989 1025.19 242.944C1026.24 241.861 1027.56 241.32 1029.17 241.32C1030.77 241.32 1032.1 241.861 1033.14 242.944C1034.19 243.989 1034.71 245.333 1034.71 246.976C1034.71 248.619 1034.19 249.981 1033.14 251.064C1032.1 252.109 1030.77 252.632 1029.17 252.632C1027.56 252.632 1026.24 252.109 1025.19 251.064C1024.15 249.981 1023.62 248.619 1023.62 246.976ZM1023.62 266.016C1023.62 264.373 1024.15 263.029 1025.19 261.984C1026.24 260.901 1027.56 260.36 1029.17 260.36C1030.77 260.36 1032.1 260.901 1033.14 261.984C1034.19 263.029 1034.71 264.373 1034.71 266.016C1034.71 267.659 1034.19 269.021 1033.14 270.104C1032.1 271.149 1030.77 271.672 1029.17 271.672C1027.56 271.672 1026.24 271.149 1025.19 270.104C1024.15 269.021 1023.62 267.659 1023.62 266.016ZM1084.12 231.464H1090.61V241.656L1090.39 246.472C1091.58 245.352 1092.93 244.475 1094.42 243.84C1095.91 243.168 1097.41 242.832 1098.9 242.832C1100.69 242.832 1102.28 243.168 1103.66 243.84C1105.04 244.475 1106.22 245.408 1107.19 246.64C1108.16 247.835 1108.89 249.291 1109.37 251.008C1109.89 252.725 1110.16 254.648 1110.16 256.776C1110.16 259.128 1109.82 261.237 1109.15 263.104C1108.48 264.933 1107.56 266.483 1106.4 267.752C1105.28 269.021 1103.98 269.992 1102.48 270.664C1101.03 271.336 1099.52 271.672 1097.95 271.672C1096.64 271.672 1095.28 271.355 1093.86 270.72C1092.44 270.085 1091.13 269.171 1089.94 267.976H1089.77L1089.21 271H1084.12V231.464ZM1090.61 263.832C1091.62 264.765 1092.66 265.419 1093.75 265.792C1094.83 266.165 1095.8 266.352 1096.66 266.352C1098.6 266.352 1100.22 265.568 1101.53 264C1102.84 262.395 1103.49 260.024 1103.49 256.888C1103.49 254.125 1102.99 251.979 1101.98 250.448C1100.97 248.917 1099.35 248.152 1097.11 248.152C1096.06 248.152 1095 248.413 1093.92 248.936C1092.83 249.459 1091.73 250.299 1090.61 251.456V263.832ZM1117.08 231.464H1132.2V261.312C1132.2 263.179 1132.66 264.504 1133.6 265.288C1134.53 266.035 1135.71 266.408 1137.13 266.408C1138.47 266.408 1140.04 266.053 1141.83 265.344L1143.34 270.104C1142.03 270.552 1140.8 270.925 1139.65 271.224C1138.53 271.523 1137.16 271.672 1135.56 271.672C1132.31 271.672 1129.86 270.739 1128.22 268.872C1126.58 267.005 1125.76 264.373 1125.76 260.976V236.56H1117.08V231.464ZM1175.52 271H1170.26L1169.75 266.632H1169.53C1168.22 268.163 1166.78 269.395 1165.22 270.328C1163.65 271.224 1161.84 271.672 1159.78 271.672C1156.57 271.672 1154.24 270.72 1152.78 268.816C1151.33 266.875 1150.6 264.112 1150.6 260.528V243.504H1157.04V259.688C1157.04 261.928 1157.41 263.571 1158.16 264.616C1158.94 265.624 1160.29 266.128 1162.19 266.128C1163.5 266.128 1164.66 265.829 1165.66 265.232C1166.71 264.635 1167.85 263.571 1169.08 262.04V243.504H1175.52V271ZM1183.73 257.28C1183.73 255.04 1184.12 253.024 1184.91 251.232C1185.73 249.44 1186.79 247.928 1188.1 246.696C1189.4 245.427 1190.9 244.475 1192.58 243.84C1194.3 243.168 1196.05 242.832 1197.84 242.832C1199.9 242.832 1201.71 243.168 1203.27 243.84C1204.88 244.475 1206.22 245.371 1207.31 246.528C1208.39 247.648 1209.21 249.011 1209.77 250.616C1210.33 252.221 1210.61 253.976 1210.61 255.88C1210.61 256.515 1210.57 257.112 1210.5 257.672C1210.46 258.232 1210.4 258.68 1210.33 259.016H1190.34C1190.56 261.48 1191.53 263.384 1193.25 264.728C1194.97 266.035 1197.08 266.688 1199.58 266.688C1201 266.688 1202.32 266.501 1203.55 266.128C1204.79 265.717 1206.04 265.157 1207.31 264.448L1209.49 268.48C1208 269.413 1206.34 270.179 1204.51 270.776C1202.68 271.373 1200.75 271.672 1198.74 271.672C1196.65 271.672 1194.69 271.355 1192.86 270.72C1191.03 270.048 1189.44 269.096 1188.1 267.864C1186.75 266.632 1185.69 265.139 1184.91 263.384C1184.12 261.592 1183.73 259.557 1183.73 257.28ZM1204.67 254.648C1204.67 252.52 1204.11 250.859 1202.99 249.664C1201.87 248.432 1200.21 247.816 1198.01 247.816C1196.14 247.816 1194.48 248.395 1193.03 249.552C1191.57 250.709 1190.66 252.408 1190.28 254.648H1204.67Z" fill="#B24E72"/>
<path d="M743.742 164.6H945.233V167.4H743.742V164.6Z" fill="#E3848B"/>
<path d="M945.211 164.6H1045.97V167.4H945.211V164.6Z" fill="#4D8DC9"/>
<path d="M1045.95 164.6H1180.28V167.4H1045.95V164.6Z" fill="#44BC96"/>
<path d="M844.477 276.6H1213.86V279.4H844.477V276.6Z" fill="#B24E72"/>
</svg>
