<svg width="1920" height="1080" viewBox="0 0 1920 1080" fill="none" xmlns="http://www.w3.org/2000/svg">
<rect width="1920" height="1080" fill="white"/>
<g opacity="0.3">
<path d="M606 161L761 161V316H606V161Z" fill="white"/>
<rect x="606" y="161" width="155" height="155" fill="#2F4858"/>
<path d="M712.321 242.958V269.358C708.865 271.854 705.169 273.726 701.233 274.974C697.329 276.19 693.041 276.798 688.369 276.798C682.833 276.798 677.841 275.95 673.393 274.254C668.945 272.526 665.137 270.126 661.969 267.054C658.833 263.95 656.417 260.238 654.721 255.918C653.025 251.598 652.177 246.846 652.177 241.662C652.177 236.414 652.993 231.63 654.625 227.31C656.289 222.99 658.641 219.294 661.681 216.222C664.721 213.118 668.417 210.718 672.769 209.022C677.121 207.326 681.985 206.478 687.361 206.478C690.081 206.478 692.609 206.686 694.945 207.102C697.281 207.486 699.441 208.062 701.425 208.83C703.409 209.566 705.249 210.478 706.945 211.566C708.641 212.622 710.225 213.822 711.697 215.166L709.057 219.39C708.641 220.03 708.097 220.446 707.425 220.638C706.785 220.798 706.065 220.638 705.265 220.158C704.497 219.71 703.617 219.166 702.625 218.526C701.633 217.886 700.417 217.278 698.977 216.702C697.569 216.094 695.889 215.582 693.937 215.166C692.017 214.75 689.729 214.542 687.073 214.542C683.201 214.542 679.697 215.182 676.561 216.462C673.425 217.71 670.753 219.518 668.545 221.886C666.337 224.222 664.641 227.07 663.457 230.43C662.273 233.758 661.681 237.502 661.681 241.662C661.681 245.982 662.289 249.854 663.505 253.278C664.753 256.67 666.513 259.566 668.785 261.966C671.089 264.334 673.873 266.142 677.137 267.39C680.401 268.638 684.065 269.262 688.129 269.262C691.329 269.262 694.161 268.91 696.625 268.206C699.121 267.47 701.553 266.462 703.921 265.182V250.062H693.217C692.609 250.062 692.113 249.886 691.729 249.534C691.377 249.182 691.201 248.75 691.201 248.238V242.958H712.321Z" fill="white"/>
<rect x="606" y="382" width="155" height="155" fill="#4D8DC9"/>
<path d="M700.633 438.998C700.345 439.478 700.025 439.846 699.673 440.102C699.353 440.326 698.953 440.438 698.473 440.438C697.929 440.438 697.289 440.166 696.553 439.622C695.817 439.078 694.889 438.486 693.769 437.846C692.681 437.174 691.353 436.566 689.785 436.022C688.249 435.478 686.377 435.206 684.169 435.206C682.089 435.206 680.249 435.494 678.649 436.07C677.081 436.614 675.753 437.366 674.665 438.326C673.609 439.286 672.809 440.422 672.265 441.734C671.721 443.014 671.449 444.406 671.449 445.91C671.449 447.83 671.913 449.43 672.841 450.71C673.801 451.958 675.049 453.03 676.585 453.926C678.153 454.822 679.913 455.606 681.865 456.278C683.849 456.918 685.865 457.59 687.913 458.294C689.993 458.998 692.009 459.798 693.961 460.694C695.945 461.558 697.705 462.662 699.241 464.006C700.809 465.35 702.057 466.998 702.985 468.95C703.945 470.902 704.425 473.302 704.425 476.15C704.425 479.158 703.913 481.99 702.889 484.646C701.865 487.27 700.361 489.558 698.377 491.51C696.425 493.462 694.009 494.998 691.129 496.118C688.281 497.238 685.033 497.798 681.385 497.798C676.905 497.798 672.841 496.998 669.193 495.398C665.545 493.766 662.425 491.574 659.833 488.822L662.521 484.406C662.777 484.054 663.081 483.766 663.433 483.542C663.817 483.286 664.233 483.158 664.681 483.158C665.097 483.158 665.561 483.334 666.073 483.686C666.617 484.006 667.225 484.422 667.897 484.934C668.569 485.446 669.337 486.006 670.201 486.614C671.065 487.222 672.041 487.782 673.129 488.294C674.249 488.806 675.513 489.238 676.921 489.59C678.329 489.91 679.913 490.07 681.673 490.07C683.881 490.07 685.849 489.766 687.577 489.158C689.305 488.55 690.761 487.702 691.945 486.614C693.161 485.494 694.089 484.166 694.729 482.63C695.369 481.094 695.689 479.382 695.689 477.494C695.689 475.414 695.209 473.718 694.249 472.406C693.321 471.062 692.089 469.942 690.553 469.046C689.017 468.15 687.257 467.398 685.273 466.79C683.289 466.15 681.273 465.51 679.225 464.87C677.177 464.198 675.161 463.43 673.177 462.566C671.193 461.702 669.433 460.582 667.897 459.206C666.361 457.83 665.113 456.118 664.153 454.07C663.225 451.99 662.761 449.43 662.761 446.39C662.761 443.958 663.225 441.606 664.153 439.334C665.113 437.062 666.489 435.046 668.281 433.286C670.105 431.526 672.329 430.118 674.953 429.062C677.609 428.006 680.649 427.478 684.073 427.478C687.913 427.478 691.401 428.086 694.537 429.302C697.705 430.518 700.489 432.278 702.889 434.582L700.633 438.998Z" fill="white"/>
<rect x="606.5" y="603.5" width="154" height="153" fill="#44BC96"/>
<path d="M687.387 690.109V717.517H678.075V690.109L652.875 648.733H661.035C661.867 648.733 662.523 648.941 663.003 649.357C663.483 649.741 663.899 650.253 664.251 650.893L679.995 677.629C680.571 678.749 681.099 679.805 681.579 680.797C682.059 681.757 682.475 682.733 682.827 683.725C683.179 682.733 683.579 681.757 684.027 680.797C684.475 679.805 684.971 678.749 685.515 677.629L701.211 650.893C701.499 650.349 701.899 649.853 702.411 649.405C702.923 648.957 703.579 648.733 704.379 648.733H712.587L687.387 690.109Z" fill="white"/>
<path d="M606 823H761V978H606V823Z" fill="#E3848B"/>
<rect x="606" y="823" width="155" height="155" fill="#E3848B"/>
<path d="M708.525 872.702C708.525 873.758 708.205 874.782 707.565 875.774L668.637 930.446H707.949V938.03H656.397V934.382C656.397 933.87 656.477 933.39 656.637 932.942C656.829 932.494 657.053 932.062 657.309 931.646L696.333 876.83H658.221V869.246H708.525V872.702Z" fill="white"/>
</g>
<path d="M114.048 140.768C117.44 140.768 119.488 140.128 122.368 138.912L121.024 135.008C118.912 135.968 116.992 136.416 115.2 136.416C111.488 136.416 109.056 134.496 109.056 129.952V94.432H92.736V98.72H103.808V129.568C103.808 136.928 107.456 140.768 114.048 140.768ZM151.591 140.768C155.495 140.768 158.503 139.936 161.319 138.912L160.167 135.072C157.927 135.904 155.623 136.48 152.679 136.48C146.663 136.48 144.807 133.536 144.807 127.968V113.184H160.103V108.896H144.807V98.912H140.455L139.751 108.896L130.791 109.216V113.184H139.559V127.904C139.559 135.584 142.503 140.768 151.591 140.768ZM174.094 140H179.342V121.76C183.054 115.296 187.47 112.864 192.142 112.864C194.574 112.864 195.726 113.184 197.902 113.952L199.118 109.408C197.198 108.448 195.278 108.128 192.974 108.128C187.214 108.128 182.35 111.264 179.086 116.256H178.894L178.446 108.896H174.094V140ZM222.965 140.768C231.861 140.768 236.789 136.544 236.789 131.488C236.789 126.752 234.293 124.128 223.925 121.888C217.589 120.544 214.901 119.392 214.901 116.704C214.901 114.336 216.757 112.224 222.069 112.224C226.037 112.224 229.621 113.504 232.501 115.488L235.061 112.096C231.989 109.984 227.253 108.128 222.517 108.128C214.005 108.128 209.589 111.968 209.589 116.96C209.589 121.632 213.685 124.384 221.749 126.048C230.197 127.776 231.477 129.44 231.477 131.808C231.477 134.432 228.853 136.672 223.605 136.672C217.845 136.672 213.685 135.008 210.101 132.448L207.669 135.904C211.445 138.528 216.885 140.768 222.965 140.768ZM537.837 151.264L540.717 148.576C532.141 141.344 528.173 132.96 528.173 122.208C528.173 111.456 532.141 103.072 540.717 95.84L537.837 93.152C528.941 100.064 523.437 109.856 523.437 122.208C523.437 134.56 528.941 144.352 537.837 151.264ZM576.212 151.264L579.092 148.576C570.516 141.344 566.548 132.96 566.548 122.208C566.548 111.456 570.516 103.072 579.092 95.84L576.212 93.152C567.316 100.064 561.812 109.856 561.812 122.208C561.812 134.56 567.316 144.352 576.212 151.264ZM689.673 140.768C693.065 140.768 695.113 140.128 697.993 138.912L696.649 135.008C694.537 135.968 692.617 136.416 690.825 136.416C687.113 136.416 684.681 134.496 684.681 129.952V94.432H668.361V98.72H679.433V129.568C679.433 136.928 683.081 140.768 689.673 140.768ZM789.438 151.264C798.334 144.352 803.838 134.56 803.838 122.208C803.838 109.856 798.334 100.064 789.438 93.152L786.558 95.84C795.134 103.072 799.102 111.456 799.102 122.208C799.102 132.96 795.134 141.344 786.558 148.576L789.438 151.264ZM860.94 114.016H888.46V110.048H860.94V114.016ZM860.94 127.712H888.46V123.744H860.94V127.712ZM900.723 136.928L924.595 120.736V116.768L900.723 100.576V105.632L919.987 118.624V118.88L900.723 131.872V136.928ZM976.577 153.12H981.825V142.624L981.569 136.736H981.761C984.513 139.296 988.161 140.768 991.041 140.768C998.529 140.768 1005.19 134.56 1005.19 124C1005.19 114.336 1000.71 108.128 992.321 108.128C988.481 108.128 984.449 110.112 981.569 112.864H981.377L980.929 108.896H976.577V153.12ZM990.145 136.352C988.033 136.352 984.769 135.328 981.825 132.704V117.216C985.025 114.016 988.225 112.544 990.977 112.544C997.185 112.544 999.745 117.152 999.745 124C999.745 131.68 995.713 136.352 990.145 136.352ZM1034.22 140.768C1038.12 140.768 1041.13 139.936 1043.94 138.912L1042.79 135.072C1040.55 135.904 1038.25 136.48 1035.3 136.48C1029.29 136.48 1027.43 133.536 1027.43 127.968V113.184H1042.73V108.896H1027.43V98.912H1023.08L1022.38 108.896L1013.42 109.216V113.184H1022.18V127.904C1022.18 135.584 1025.13 140.768 1034.22 140.768ZM1067.22 140.768C1076.11 140.768 1081.04 136.544 1081.04 131.488C1081.04 126.752 1078.54 124.128 1068.18 121.888C1061.84 120.544 1059.15 119.392 1059.15 116.704C1059.15 114.336 1061.01 112.224 1066.32 112.224C1070.29 112.224 1073.87 113.504 1076.75 115.488L1079.31 112.096C1076.24 109.984 1071.5 108.128 1066.77 108.128C1058.26 108.128 1053.84 111.968 1053.84 116.96C1053.84 121.632 1057.94 124.384 1066 126.048C1074.45 127.776 1075.73 129.44 1075.73 131.808C1075.73 134.432 1073.1 136.672 1067.86 136.672C1062.1 136.672 1057.94 135.008 1054.35 132.448L1051.92 135.904C1055.7 138.528 1061.14 140.768 1067.22 140.768ZM1100.15 149.728H1117.88V146.72H1104.37V97.696H1117.88V94.688H1100.15V149.728ZM1226.92 140.768C1230.32 140.768 1232.36 140.128 1235.24 138.912L1233.9 135.008C1231.79 135.968 1229.87 136.416 1228.08 136.416C1224.36 136.416 1221.93 134.496 1221.93 129.952V94.432H1205.61V98.72H1216.68V129.568C1216.68 136.928 1220.33 140.768 1226.92 140.768ZM1322.27 149.728H1340V94.688H1322.27V97.696H1335.78V146.72H1322.27V149.728ZM1399.6 136.928L1423.47 120.736V116.768L1399.6 100.576V105.632L1418.86 118.624V118.88L1399.6 131.872V136.928ZM1487.87 140.768C1496 140.768 1502.65 136.352 1502.65 129.12C1502.65 123.488 1497.98 119.904 1492.54 118.752V118.496C1497.6 116.832 1501.24 113.696 1501.24 108.768C1501.24 102.176 1495.42 98.4 1487.74 98.4C1482.49 98.4 1478.08 100.576 1474.68 103.52L1477.5 106.848C1480.19 104.416 1483.71 102.688 1487.55 102.688C1492.54 102.688 1495.87 105.184 1495.87 109.152C1495.87 113.44 1492.16 116.768 1482.49 116.768V120.8C1493.24 120.8 1497.34 124.064 1497.34 128.928C1497.34 133.472 1493.12 136.416 1487.55 136.416C1482.3 136.416 1478.52 134.112 1475.84 131.552L1473.15 135.008C1476.16 138.016 1480.83 140.768 1487.87 140.768ZM1518.56 151.264C1527.46 144.352 1532.96 134.56 1532.96 122.208C1532.96 109.856 1527.46 100.064 1518.56 93.152L1515.68 95.84C1524.26 103.072 1528.23 111.456 1528.23 122.208C1528.23 132.96 1524.26 141.344 1515.68 148.576L1518.56 151.264Z" fill="#2F4858"/>
<path d="M260.7 140.768C263.58 140.768 265.884 138.592 265.884 135.392C265.884 132.128 263.58 129.952 260.7 129.952C257.82 129.952 255.516 132.128 255.516 135.392C255.516 138.592 257.82 140.768 260.7 140.768ZM295.363 140H300.547V113.184H313.603V108.896H300.547V106.08C300.547 101.024 302.851 97.952 308.419 97.952C311.107 97.952 313.091 98.272 315.651 99.424L316.867 95.456C313.923 94.24 310.979 93.664 307.907 93.664C299.331 93.664 295.363 98.656 295.363 106.272V108.896L286.467 109.216V113.184H295.363V140ZM338.474 140H343.722V108.896H324.01V113.184H338.474V140ZM340.522 102.368C342.89 102.368 344.746 100.768 344.746 98.272C344.746 95.84 342.89 94.176 340.522 94.176C338.154 94.176 336.298 95.84 336.298 98.272C336.298 100.768 338.154 102.368 340.522 102.368ZM382.673 140.768C386.065 140.768 388.113 140.128 390.993 138.912L389.649 135.008C387.537 135.968 385.617 136.416 383.825 136.416C380.113 136.416 377.681 134.496 377.681 129.952V94.432H361.361V98.72H372.433V129.568C372.433 136.928 376.081 140.768 382.673 140.768ZM420.216 140.768C424.12 140.768 427.128 139.936 429.944 138.912L428.792 135.072C426.552 135.904 424.248 136.48 421.304 136.48C415.288 136.48 413.432 133.536 413.432 127.968V113.184H428.728V108.896H413.432V98.912H409.08L408.376 108.896L399.416 109.216V113.184H408.184V127.904C408.184 135.584 411.128 140.768 420.216 140.768ZM454.495 140.768C459.487 140.768 463.455 139.104 466.527 137.056L464.607 133.6C461.791 135.392 458.847 136.544 455.135 136.544C448.671 136.544 443.679 132.96 443.039 125.92H467.551C467.679 125.088 467.807 123.936 467.807 122.72C467.807 113.952 462.559 108.128 453.599 108.128C445.279 108.128 437.727 114.272 437.727 124.384C437.727 134.752 445.151 140.768 454.495 140.768ZM453.727 112.288C459.039 112.288 462.559 115.424 463.007 121.824H443.167C444.127 115.68 448.607 112.288 453.727 112.288ZM481.094 140H486.342V121.76C490.054 115.296 494.47 112.864 499.142 112.864C501.574 112.864 502.726 113.184 504.902 113.952L506.118 109.408C504.198 108.448 502.278 108.128 499.974 108.128C494.214 108.128 489.35 111.264 486.086 116.256H485.894L485.446 108.896H481.094V140Z" fill="#B24E72"/>
</svg>
