<svg width="1920" height="1080" viewBox="0 0 1920 1080" fill="none" xmlns="http://www.w3.org/2000/svg">
<rect width="1920" height="1080" fill="white"/>
<path d="M606 161L761 161V316H606V161Z" fill="white"/>
<rect x="606" y="161" width="155" height="155" fill="#2F4858"/>
<path d="M712.321 242.958V269.358C708.865 271.854 705.169 273.726 701.233 274.974C697.329 276.19 693.041 276.798 688.369 276.798C682.833 276.798 677.841 275.95 673.393 274.254C668.945 272.526 665.137 270.126 661.969 267.054C658.833 263.95 656.417 260.238 654.721 255.918C653.025 251.598 652.177 246.846 652.177 241.662C652.177 236.414 652.993 231.63 654.625 227.31C656.289 222.99 658.641 219.294 661.681 216.222C664.721 213.118 668.417 210.718 672.769 209.022C677.121 207.326 681.985 206.478 687.361 206.478C690.081 206.478 692.609 206.686 694.945 207.102C697.281 207.486 699.441 208.062 701.425 208.83C703.409 209.566 705.249 210.478 706.945 211.566C708.641 212.622 710.225 213.822 711.697 215.166L709.057 219.39C708.641 220.03 708.097 220.446 707.425 220.638C706.785 220.798 706.065 220.638 705.265 220.158C704.497 219.71 703.617 219.166 702.625 218.526C701.633 217.886 700.417 217.278 698.977 216.702C697.569 216.094 695.889 215.582 693.937 215.166C692.017 214.75 689.729 214.542 687.073 214.542C683.201 214.542 679.697 215.182 676.561 216.462C673.425 217.71 670.753 219.518 668.545 221.886C666.337 224.222 664.641 227.07 663.457 230.43C662.273 233.758 661.681 237.502 661.681 241.662C661.681 245.982 662.289 249.854 663.505 253.278C664.753 256.67 666.513 259.566 668.785 261.966C671.089 264.334 673.873 266.142 677.137 267.39C680.401 268.638 684.065 269.262 688.129 269.262C691.329 269.262 694.161 268.91 696.625 268.206C699.121 267.47 701.553 266.462 703.921 265.182V250.062H693.217C692.609 250.062 692.113 249.886 691.729 249.534C691.377 249.182 691.201 248.75 691.201 248.238V242.958H712.321Z" fill="white"/>
<rect x="606" y="382" width="155" height="155" fill="#4D8DC9"/>
<path d="M700.633 438.998C700.345 439.478 700.025 439.846 699.673 440.102C699.353 440.326 698.953 440.438 698.473 440.438C697.929 440.438 697.289 440.166 696.553 439.622C695.817 439.078 694.889 438.486 693.769 437.846C692.681 437.174 691.353 436.566 689.785 436.022C688.249 435.478 686.377 435.206 684.169 435.206C682.089 435.206 680.249 435.494 678.649 436.07C677.081 436.614 675.753 437.366 674.665 438.326C673.609 439.286 672.809 440.422 672.265 441.734C671.721 443.014 671.449 444.406 671.449 445.91C671.449 447.83 671.913 449.43 672.841 450.71C673.801 451.958 675.049 453.03 676.585 453.926C678.153 454.822 679.913 455.606 681.865 456.278C683.849 456.918 685.865 457.59 687.913 458.294C689.993 458.998 692.009 459.798 693.961 460.694C695.945 461.558 697.705 462.662 699.241 464.006C700.809 465.35 702.057 466.998 702.985 468.95C703.945 470.902 704.425 473.302 704.425 476.15C704.425 479.158 703.913 481.99 702.889 484.646C701.865 487.27 700.361 489.558 698.377 491.51C696.425 493.462 694.009 494.998 691.129 496.118C688.281 497.238 685.033 497.798 681.385 497.798C676.905 497.798 672.841 496.998 669.193 495.398C665.545 493.766 662.425 491.574 659.833 488.822L662.521 484.406C662.777 484.054 663.081 483.766 663.433 483.542C663.817 483.286 664.233 483.158 664.681 483.158C665.097 483.158 665.561 483.334 666.073 483.686C666.617 484.006 667.225 484.422 667.897 484.934C668.569 485.446 669.337 486.006 670.201 486.614C671.065 487.222 672.041 487.782 673.129 488.294C674.249 488.806 675.513 489.238 676.921 489.59C678.329 489.91 679.913 490.07 681.673 490.07C683.881 490.07 685.849 489.766 687.577 489.158C689.305 488.55 690.761 487.702 691.945 486.614C693.161 485.494 694.089 484.166 694.729 482.63C695.369 481.094 695.689 479.382 695.689 477.494C695.689 475.414 695.209 473.718 694.249 472.406C693.321 471.062 692.089 469.942 690.553 469.046C689.017 468.15 687.257 467.398 685.273 466.79C683.289 466.15 681.273 465.51 679.225 464.87C677.177 464.198 675.161 463.43 673.177 462.566C671.193 461.702 669.433 460.582 667.897 459.206C666.361 457.83 665.113 456.118 664.153 454.07C663.225 451.99 662.761 449.43 662.761 446.39C662.761 443.958 663.225 441.606 664.153 439.334C665.113 437.062 666.489 435.046 668.281 433.286C670.105 431.526 672.329 430.118 674.953 429.062C677.609 428.006 680.649 427.478 684.073 427.478C687.913 427.478 691.401 428.086 694.537 429.302C697.705 430.518 700.489 432.278 702.889 434.582L700.633 438.998Z" fill="white"/>
<rect x="606.5" y="603.5" width="154" height="153" fill="#44BC96"/>
<path d="M687.387 690.109V717.517H678.075V690.109L652.875 648.733H661.035C661.867 648.733 662.523 648.941 663.003 649.357C663.483 649.741 663.899 650.253 664.251 650.893L679.995 677.629C680.571 678.749 681.099 679.805 681.579 680.797C682.059 681.757 682.475 682.733 682.827 683.725C683.179 682.733 683.579 681.757 684.027 680.797C684.475 679.805 684.971 678.749 685.515 677.629L701.211 650.893C701.499 650.349 701.899 649.853 702.411 649.405C702.923 648.957 703.579 648.733 704.379 648.733H712.587L687.387 690.109Z" fill="white"/>
<path d="M606 823H761V978H606V823Z" fill="#E3848B"/>
<rect x="606" y="823" width="155" height="155" fill="#E3848B"/>
<path d="M708.525 872.702C708.525 873.758 708.205 874.782 707.565 875.774L668.637 930.446H707.949V938.03H656.397V934.382C656.397 933.87 656.477 933.39 656.637 932.942C656.829 932.494 657.053 932.062 657.309 931.646L696.333 876.83H658.221V869.246H708.525V872.702Z" fill="white"/>
<rect x="1628.5" y="603.5" width="154" height="153" fill="#44BC96"/>
<path d="M1709.39 690.109V717.517H1700.08V690.109L1674.88 648.733H1683.04C1683.87 648.733 1684.52 648.941 1685 649.357C1685.48 649.741 1685.9 650.253 1686.25 650.893L1702 677.629C1702.57 678.749 1703.1 679.805 1703.58 680.797C1704.06 681.757 1704.48 682.733 1704.83 683.725C1705.18 682.733 1705.58 681.757 1706.03 680.797C1706.48 679.805 1706.97 678.749 1707.52 677.629L1723.21 650.893C1723.5 650.349 1723.9 649.853 1724.41 649.405C1724.92 648.957 1725.58 648.733 1726.38 648.733H1734.59L1709.39 690.109Z" fill="white"/>
<path d="M1628 823H1783V978H1628V823Z" fill="#E3848B"/>
<rect x="1628" y="823" width="155" height="155" fill="#E3848B"/>
<path d="M1730.52 872.702C1730.52 873.758 1730.2 874.782 1729.56 875.774L1690.64 930.446H1729.95V938.03H1678.4V934.382C1678.4 933.87 1678.48 933.39 1678.64 932.942C1678.83 932.494 1679.05 932.062 1679.31 931.646L1718.33 876.83H1680.22V869.246H1730.52V872.702Z" fill="white"/>
<g opacity="0.3">
<path d="M1144 160L1299 160V315H1144V160Z" fill="white"/>
<rect x="1144" y="160" width="155" height="155" fill="#2F4858"/>
<path d="M1250.32 241.958V268.358C1246.87 270.854 1243.17 272.726 1239.23 273.974C1235.33 275.19 1231.04 275.798 1226.37 275.798C1220.83 275.798 1215.84 274.95 1211.39 273.254C1206.95 271.526 1203.14 269.126 1199.97 266.054C1196.83 262.95 1194.42 259.238 1192.72 254.918C1191.03 250.598 1190.18 245.846 1190.18 240.662C1190.18 235.414 1190.99 230.63 1192.63 226.31C1194.29 221.99 1196.64 218.294 1199.68 215.222C1202.72 212.118 1206.42 209.718 1210.77 208.022C1215.12 206.326 1219.99 205.478 1225.36 205.478C1228.08 205.478 1230.61 205.686 1232.95 206.102C1235.28 206.486 1237.44 207.062 1239.43 207.83C1241.41 208.566 1243.25 209.478 1244.95 210.566C1246.64 211.622 1248.23 212.822 1249.7 214.166L1247.06 218.39C1246.64 219.03 1246.1 219.446 1245.43 219.638C1244.79 219.798 1244.07 219.638 1243.27 219.158C1242.5 218.71 1241.62 218.166 1240.63 217.526C1239.63 216.886 1238.42 216.278 1236.98 215.702C1235.57 215.094 1233.89 214.582 1231.94 214.166C1230.02 213.75 1227.73 213.542 1225.07 213.542C1221.2 213.542 1217.7 214.182 1214.56 215.462C1211.43 216.71 1208.75 218.518 1206.55 220.886C1204.34 223.222 1202.64 226.07 1201.46 229.43C1200.27 232.758 1199.68 236.502 1199.68 240.662C1199.68 244.982 1200.29 248.854 1201.51 252.278C1202.75 255.67 1204.51 258.566 1206.79 260.966C1209.09 263.334 1211.87 265.142 1215.14 266.39C1218.4 267.638 1222.07 268.262 1226.13 268.262C1229.33 268.262 1232.16 267.91 1234.63 267.206C1237.12 266.47 1239.55 265.462 1241.92 264.182V249.062H1231.22C1230.61 249.062 1230.11 248.886 1229.73 248.534C1229.38 248.182 1229.2 247.75 1229.2 247.238V241.958H1250.32Z" fill="white"/>
</g>
<g opacity="0.3">
<rect x="1144" y="381" width="155" height="155" fill="#4D8DC9"/>
<path d="M1238.63 437.998C1238.35 438.478 1238.03 438.846 1237.67 439.102C1237.35 439.326 1236.95 439.438 1236.47 439.438C1235.93 439.438 1235.29 439.166 1234.55 438.622C1233.82 438.078 1232.89 437.486 1231.77 436.846C1230.68 436.174 1229.35 435.566 1227.79 435.022C1226.25 434.478 1224.38 434.206 1222.17 434.206C1220.09 434.206 1218.25 434.494 1216.65 435.07C1215.08 435.614 1213.75 436.366 1212.67 437.326C1211.61 438.286 1210.81 439.422 1210.27 440.734C1209.72 442.014 1209.45 443.406 1209.45 444.91C1209.45 446.83 1209.91 448.43 1210.84 449.71C1211.8 450.958 1213.05 452.03 1214.59 452.926C1216.15 453.822 1217.91 454.606 1219.87 455.278C1221.85 455.918 1223.87 456.59 1225.91 457.294C1227.99 457.998 1230.01 458.798 1231.96 459.694C1233.95 460.558 1235.71 461.662 1237.24 463.006C1238.81 464.35 1240.06 465.998 1240.99 467.95C1241.95 469.902 1242.43 472.302 1242.43 475.15C1242.43 478.158 1241.91 480.99 1240.89 483.646C1239.87 486.27 1238.36 488.558 1236.38 490.51C1234.43 492.462 1232.01 493.998 1229.13 495.118C1226.28 496.238 1223.03 496.798 1219.39 496.798C1214.91 496.798 1210.84 495.998 1207.19 494.398C1203.55 492.766 1200.43 490.574 1197.83 487.822L1200.52 483.406C1200.78 483.054 1201.08 482.766 1201.43 482.542C1201.82 482.286 1202.23 482.158 1202.68 482.158C1203.1 482.158 1203.56 482.334 1204.07 482.686C1204.62 483.006 1205.23 483.422 1205.9 483.934C1206.57 484.446 1207.34 485.006 1208.2 485.614C1209.07 486.222 1210.04 486.782 1211.13 487.294C1212.25 487.806 1213.51 488.238 1214.92 488.59C1216.33 488.91 1217.91 489.07 1219.67 489.07C1221.88 489.07 1223.85 488.766 1225.58 488.158C1227.31 487.55 1228.76 486.702 1229.95 485.614C1231.16 484.494 1232.09 483.166 1232.73 481.63C1233.37 480.094 1233.69 478.382 1233.69 476.494C1233.69 474.414 1233.21 472.718 1232.25 471.406C1231.32 470.062 1230.09 468.942 1228.55 468.046C1227.02 467.15 1225.26 466.398 1223.27 465.79C1221.29 465.15 1219.27 464.51 1217.23 463.87C1215.18 463.198 1213.16 462.43 1211.18 461.566C1209.19 460.702 1207.43 459.582 1205.9 458.206C1204.36 456.83 1203.11 455.118 1202.15 453.07C1201.23 450.99 1200.76 448.43 1200.76 445.39C1200.76 442.958 1201.23 440.606 1202.15 438.334C1203.11 436.062 1204.49 434.046 1206.28 432.286C1208.11 430.526 1210.33 429.118 1212.95 428.062C1215.61 427.006 1218.65 426.478 1222.07 426.478C1225.91 426.478 1229.4 427.086 1232.54 428.302C1235.71 429.518 1238.49 431.278 1240.89 433.582L1238.63 437.998Z" fill="white"/>
</g>
<g opacity="0.3">
<rect x="1144.5" y="602.5" width="154" height="153" fill="#44BC96"/>
<path d="M1225.39 689.109V716.517H1216.08V689.109L1190.88 647.733H1199.04C1199.87 647.733 1200.52 647.941 1201 648.357C1201.48 648.741 1201.9 649.253 1202.25 649.893L1218 676.629C1218.57 677.749 1219.1 678.805 1219.58 679.797C1220.06 680.757 1220.48 681.733 1220.83 682.725C1221.18 681.733 1221.58 680.757 1222.03 679.797C1222.48 678.805 1222.97 677.749 1223.52 676.629L1239.21 649.893C1239.5 649.349 1239.9 648.853 1240.41 648.405C1240.92 647.957 1241.58 647.733 1242.38 647.733H1250.59L1225.39 689.109Z" fill="white"/>
</g>
<path d="M1144 822H1299V977H1144V822Z" fill="#E3848B"/>
<rect x="1144" y="822" width="155" height="155" fill="#E3848B"/>
<path d="M1213.9 930.502V937.03H1177.04V930.502H1191.78V883.606C1191.78 882.198 1191.82 880.774 1191.92 879.334L1179.68 889.846C1179.26 890.198 1178.85 890.422 1178.43 890.518C1178.02 890.582 1177.63 890.582 1177.28 890.518C1176.93 890.454 1176.59 890.326 1176.27 890.134C1175.98 889.942 1175.76 889.734 1175.6 889.51L1172.91 885.814L1193.41 868.102H1200.37V930.502H1213.9ZM1273.53 902.662C1273.53 908.678 1272.87 913.894 1271.56 918.31C1270.28 922.694 1268.52 926.326 1266.28 929.206C1264.04 932.086 1261.38 934.23 1258.31 935.638C1255.27 937.046 1252.01 937.75 1248.52 937.75C1245 937.75 1241.72 937.046 1238.68 935.638C1235.67 934.23 1233.05 932.086 1230.81 929.206C1228.57 926.326 1226.81 922.694 1225.53 918.31C1224.25 913.894 1223.61 908.678 1223.61 902.662C1223.61 896.646 1224.25 891.43 1225.53 887.014C1226.81 882.598 1228.57 878.95 1230.81 876.07C1233.05 873.158 1235.67 870.998 1238.68 869.59C1241.72 868.182 1245 867.478 1248.52 867.478C1252.01 867.478 1255.27 868.182 1258.31 869.59C1261.38 870.998 1264.04 873.158 1266.28 876.07C1268.52 878.95 1270.28 882.598 1271.56 887.014C1272.87 891.43 1273.53 896.646 1273.53 902.662ZM1264.65 902.662C1264.65 897.414 1264.2 893.014 1263.3 889.462C1262.44 885.878 1261.26 882.998 1259.75 880.822C1258.28 878.646 1256.57 877.094 1254.62 876.166C1252.66 875.206 1250.63 874.726 1248.52 874.726C1246.41 874.726 1244.38 875.206 1242.42 876.166C1240.47 877.094 1238.76 878.646 1237.29 880.822C1235.82 882.998 1234.63 885.878 1233.74 889.462C1232.87 893.014 1232.44 897.414 1232.44 902.662C1232.44 907.91 1232.87 912.31 1233.74 915.862C1234.63 919.414 1235.82 922.278 1237.29 924.454C1238.76 926.63 1240.47 928.198 1242.42 929.158C1244.38 930.086 1246.41 930.55 1248.52 930.55C1250.63 930.55 1252.66 930.086 1254.62 929.158C1256.57 928.198 1258.28 926.63 1259.75 924.454C1261.26 922.278 1262.44 919.414 1263.3 915.862C1264.2 912.31 1264.65 907.91 1264.65 902.662Z" fill="white"/>
<path d="M114.048 917.768C117.44 917.768 119.488 917.128 122.368 915.912L121.024 912.008C118.912 912.968 116.992 913.416 115.2 913.416C111.488 913.416 109.056 911.496 109.056 906.952V871.432H92.736V875.72H103.808V906.568C103.808 913.928 107.456 917.768 114.048 917.768ZM151.591 917.768C155.495 917.768 158.503 916.936 161.319 915.912L160.167 912.072C157.927 912.904 155.623 913.48 152.679 913.48C146.663 913.48 144.807 910.536 144.807 904.968V890.184H160.103V885.896H144.807V875.912H140.455L139.751 885.896L130.791 886.216V890.184H139.559V904.904C139.559 912.584 142.503 917.768 151.591 917.768ZM174.094 917H179.342V898.76C183.054 892.296 187.47 889.864 192.142 889.864C194.574 889.864 195.726 890.184 197.902 890.952L199.118 886.408C197.198 885.448 195.278 885.128 192.974 885.128C187.214 885.128 182.35 888.264 179.086 893.256H178.894L178.446 885.896H174.094V917ZM222.965 917.768C231.861 917.768 236.789 913.544 236.789 908.488C236.789 903.752 234.293 901.128 223.925 898.888C217.589 897.544 214.901 896.392 214.901 893.704C214.901 891.336 216.757 889.224 222.069 889.224C226.037 889.224 229.621 890.504 232.501 892.488L235.061 889.096C231.989 886.984 227.253 885.128 222.517 885.128C214.005 885.128 209.589 888.968 209.589 893.96C209.589 898.632 213.685 901.384 221.749 903.048C230.197 904.776 231.477 906.44 231.477 908.808C231.477 911.432 228.853 913.672 223.605 913.672C217.845 913.672 213.685 912.008 210.101 909.448L207.669 912.904C211.445 915.528 216.885 917.768 222.965 917.768ZM537.837 928.264L540.717 925.576C532.141 918.344 528.173 909.96 528.173 899.208C528.173 888.456 532.141 880.072 540.717 872.84L537.837 870.152C528.941 877.064 523.437 886.856 523.437 899.208C523.437 911.56 528.941 921.352 537.837 928.264ZM576.212 928.264L579.092 925.576C570.516 918.344 566.548 909.96 566.548 899.208C566.548 888.456 570.516 880.072 579.092 872.84L576.212 870.152C567.316 877.064 561.812 886.856 561.812 899.208C561.812 911.56 567.316 921.352 576.212 928.264ZM789.438 928.264C798.334 921.352 803.838 911.56 803.838 899.208C803.838 886.856 798.334 877.064 789.438 870.152L786.558 872.84C795.134 880.072 799.102 888.456 799.102 899.208C799.102 909.96 795.134 918.344 786.558 925.576L789.438 928.264ZM860.94 891.016H888.46V887.048H860.94V891.016ZM860.94 904.712H888.46V900.744H860.94V904.712ZM900.723 913.928L924.595 897.736V893.768L900.723 877.576V882.632L919.987 895.624V895.88L900.723 908.872V913.928ZM1399.6 913.928L1423.47 897.736V893.768L1399.6 877.576V882.632L1418.86 895.624V895.88L1399.6 908.872V913.928ZM1487.87 917.768C1496 917.768 1502.65 913.352 1502.65 906.12C1502.65 900.488 1497.98 896.904 1492.54 895.752V895.496C1497.6 893.832 1501.24 890.696 1501.24 885.768C1501.24 879.176 1495.42 875.4 1487.74 875.4C1482.49 875.4 1478.08 877.576 1474.68 880.52L1477.5 883.848C1480.19 881.416 1483.71 879.688 1487.55 879.688C1492.54 879.688 1495.87 882.184 1495.87 886.152C1495.87 890.44 1492.16 893.768 1482.49 893.768V897.8C1493.24 897.8 1497.34 901.064 1497.34 905.928C1497.34 910.472 1493.12 913.416 1487.55 913.416C1482.3 913.416 1478.52 911.112 1475.84 908.552L1473.15 912.008C1476.16 915.016 1480.83 917.768 1487.87 917.768ZM1518.56 928.264C1527.46 921.352 1532.96 911.56 1532.96 899.208C1532.96 886.856 1527.46 877.064 1518.56 870.152L1515.68 872.84C1524.26 880.072 1528.23 888.456 1528.23 899.208C1528.23 909.96 1524.26 918.344 1515.68 925.576L1518.56 928.264Z" fill="#2F4858"/>
<path d="M260.7 917.768C263.58 917.768 265.884 915.592 265.884 912.392C265.884 909.128 263.58 906.952 260.7 906.952C257.82 906.952 255.516 909.128 255.516 912.392C255.516 915.592 257.82 917.768 260.7 917.768ZM295.363 917H300.547V890.184H313.603V885.896H300.547V883.08C300.547 878.024 302.851 874.952 308.419 874.952C311.107 874.952 313.091 875.272 315.651 876.424L316.867 872.456C313.923 871.24 310.979 870.664 307.907 870.664C299.331 870.664 295.363 875.656 295.363 883.272V885.896L286.467 886.216V890.184H295.363V917ZM338.474 917H343.722V885.896H324.01V890.184H338.474V917ZM340.522 879.368C342.89 879.368 344.746 877.768 344.746 875.272C344.746 872.84 342.89 871.176 340.522 871.176C338.154 871.176 336.298 872.84 336.298 875.272C336.298 877.768 338.154 879.368 340.522 879.368ZM382.673 917.768C386.065 917.768 388.113 917.128 390.993 915.912L389.649 912.008C387.537 912.968 385.617 913.416 383.825 913.416C380.113 913.416 377.681 911.496 377.681 906.952V871.432H361.361V875.72H372.433V906.568C372.433 913.928 376.081 917.768 382.673 917.768ZM420.216 917.768C424.12 917.768 427.128 916.936 429.944 915.912L428.792 912.072C426.552 912.904 424.248 913.48 421.304 913.48C415.288 913.48 413.432 910.536 413.432 904.968V890.184H428.728V885.896H413.432V875.912H409.08L408.376 885.896L399.416 886.216V890.184H408.184V904.904C408.184 912.584 411.128 917.768 420.216 917.768ZM454.495 917.768C459.487 917.768 463.455 916.104 466.527 914.056L464.607 910.6C461.791 912.392 458.847 913.544 455.135 913.544C448.671 913.544 443.679 909.96 443.039 902.92H467.551C467.679 902.088 467.807 900.936 467.807 899.72C467.807 890.952 462.559 885.128 453.599 885.128C445.279 885.128 437.727 891.272 437.727 901.384C437.727 911.752 445.151 917.768 454.495 917.768ZM453.727 889.288C459.039 889.288 462.559 892.424 463.007 898.824H443.167C444.127 892.68 448.607 889.288 453.727 889.288ZM481.094 917H486.342V898.76C490.054 892.296 494.47 889.864 499.142 889.864C501.574 889.864 502.726 890.184 504.902 890.952L506.118 886.408C504.198 885.448 502.278 885.128 499.974 885.128C494.214 885.128 489.35 888.264 486.086 893.256H485.894L485.446 885.896H481.094V917Z" fill="#B24E72"/>
<path d="M976.577 930.12H981.825V919.624L981.569 913.736H981.761C984.513 916.296 988.161 917.768 991.041 917.768C998.529 917.768 1005.19 911.56 1005.19 901C1005.19 891.336 1000.71 885.128 992.321 885.128C988.481 885.128 984.449 887.112 981.569 889.864H981.377L980.929 885.896H976.577V930.12ZM990.145 913.352C988.033 913.352 984.769 912.328 981.825 909.704V894.216C985.025 891.016 988.225 889.544 990.977 889.544C997.185 889.544 999.745 894.152 999.745 901C999.745 908.68 995.713 913.352 990.145 913.352ZM1034.22 917.768C1038.12 917.768 1041.13 916.936 1043.94 915.912L1042.79 912.072C1040.55 912.904 1038.25 913.48 1035.3 913.48C1029.29 913.48 1027.43 910.536 1027.43 904.968V890.184H1042.73V885.896H1027.43V875.912H1023.08L1022.38 885.896L1013.42 886.216V890.184H1022.18V904.904C1022.18 912.584 1025.13 917.768 1034.22 917.768ZM1067.22 917.768C1076.11 917.768 1081.04 913.544 1081.04 908.488C1081.04 903.752 1078.54 901.128 1068.18 898.888C1061.84 897.544 1059.15 896.392 1059.15 893.704C1059.15 891.336 1061.01 889.224 1066.32 889.224C1070.29 889.224 1073.87 890.504 1076.75 892.488L1079.31 889.096C1076.24 886.984 1071.5 885.128 1066.77 885.128C1058.26 885.128 1053.84 888.968 1053.84 893.96C1053.84 898.632 1057.94 901.384 1066 903.048C1074.45 904.776 1075.73 906.44 1075.73 908.808C1075.73 911.432 1073.1 913.672 1067.86 913.672C1062.1 913.672 1057.94 912.008 1054.35 909.448L1051.92 912.904C1055.7 915.528 1061.14 917.768 1067.22 917.768ZM1100.15 926.728H1117.88V923.72H1104.37V874.696H1117.88V871.688H1100.15V926.728ZM1322.27 926.728H1340V871.688H1322.27V874.696H1335.78V923.72H1322.27V926.728Z" fill="#C0C8CC"/>
</svg>
