<svg width="1920" height="1080" viewBox="0 0 1920 1080" fill="none" xmlns="http://www.w3.org/2000/svg">
<rect width="1920" height="1080" fill="white"/>
<path d="M606 161L761 161V316H606V161Z" fill="white"/>
<rect x="606" y="161" width="155" height="155" fill="#2F4858"/>
<path d="M712.321 242.958V269.358C708.865 271.854 705.169 273.726 701.233 274.974C697.329 276.19 693.041 276.798 688.369 276.798C682.833 276.798 677.841 275.95 673.393 274.254C668.945 272.526 665.137 270.126 661.969 267.054C658.833 263.95 656.417 260.238 654.721 255.918C653.025 251.598 652.177 246.846 652.177 241.662C652.177 236.414 652.993 231.63 654.625 227.31C656.289 222.99 658.641 219.294 661.681 216.222C664.721 213.118 668.417 210.718 672.769 209.022C677.121 207.326 681.985 206.478 687.361 206.478C690.081 206.478 692.609 206.686 694.945 207.102C697.281 207.486 699.441 208.062 701.425 208.83C703.409 209.566 705.249 210.478 706.945 211.566C708.641 212.622 710.225 213.822 711.697 215.166L709.057 219.39C708.641 220.03 708.097 220.446 707.425 220.638C706.785 220.798 706.065 220.638 705.265 220.158C704.497 219.71 703.617 219.166 702.625 218.526C701.633 217.886 700.417 217.278 698.977 216.702C697.569 216.094 695.889 215.582 693.937 215.166C692.017 214.75 689.729 214.542 687.073 214.542C683.201 214.542 679.697 215.182 676.561 216.462C673.425 217.71 670.753 219.518 668.545 221.886C666.337 224.222 664.641 227.07 663.457 230.43C662.273 233.758 661.681 237.502 661.681 241.662C661.681 245.982 662.289 249.854 663.505 253.278C664.753 256.67 666.513 259.566 668.785 261.966C671.089 264.334 673.873 266.142 677.137 267.39C680.401 268.638 684.065 269.262 688.129 269.262C691.329 269.262 694.161 268.91 696.625 268.206C699.121 267.47 701.553 266.462 703.921 265.182V250.062H693.217C692.609 250.062 692.113 249.886 691.729 249.534C691.377 249.182 691.201 248.75 691.201 248.238V242.958H712.321Z" fill="white"/>
<rect x="606" y="382" width="155" height="155" fill="#4D8DC9"/>
<path d="M700.633 438.998C700.345 439.478 700.025 439.846 699.673 440.102C699.353 440.326 698.953 440.438 698.473 440.438C697.929 440.438 697.289 440.166 696.553 439.622C695.817 439.078 694.889 438.486 693.769 437.846C692.681 437.174 691.353 436.566 689.785 436.022C688.249 435.478 686.377 435.206 684.169 435.206C682.089 435.206 680.249 435.494 678.649 436.07C677.081 436.614 675.753 437.366 674.665 438.326C673.609 439.286 672.809 440.422 672.265 441.734C671.721 443.014 671.449 444.406 671.449 445.91C671.449 447.83 671.913 449.43 672.841 450.71C673.801 451.958 675.049 453.03 676.585 453.926C678.153 454.822 679.913 455.606 681.865 456.278C683.849 456.918 685.865 457.59 687.913 458.294C689.993 458.998 692.009 459.798 693.961 460.694C695.945 461.558 697.705 462.662 699.241 464.006C700.809 465.35 702.057 466.998 702.985 468.95C703.945 470.902 704.425 473.302 704.425 476.15C704.425 479.158 703.913 481.99 702.889 484.646C701.865 487.27 700.361 489.558 698.377 491.51C696.425 493.462 694.009 494.998 691.129 496.118C688.281 497.238 685.033 497.798 681.385 497.798C676.905 497.798 672.841 496.998 669.193 495.398C665.545 493.766 662.425 491.574 659.833 488.822L662.521 484.406C662.777 484.054 663.081 483.766 663.433 483.542C663.817 483.286 664.233 483.158 664.681 483.158C665.097 483.158 665.561 483.334 666.073 483.686C666.617 484.006 667.225 484.422 667.897 484.934C668.569 485.446 669.337 486.006 670.201 486.614C671.065 487.222 672.041 487.782 673.129 488.294C674.249 488.806 675.513 489.238 676.921 489.59C678.329 489.91 679.913 490.07 681.673 490.07C683.881 490.07 685.849 489.766 687.577 489.158C689.305 488.55 690.761 487.702 691.945 486.614C693.161 485.494 694.089 484.166 694.729 482.63C695.369 481.094 695.689 479.382 695.689 477.494C695.689 475.414 695.209 473.718 694.249 472.406C693.321 471.062 692.089 469.942 690.553 469.046C689.017 468.15 687.257 467.398 685.273 466.79C683.289 466.15 681.273 465.51 679.225 464.87C677.177 464.198 675.161 463.43 673.177 462.566C671.193 461.702 669.433 460.582 667.897 459.206C666.361 457.83 665.113 456.118 664.153 454.07C663.225 451.99 662.761 449.43 662.761 446.39C662.761 443.958 663.225 441.606 664.153 439.334C665.113 437.062 666.489 435.046 668.281 433.286C670.105 431.526 672.329 430.118 674.953 429.062C677.609 428.006 680.649 427.478 684.073 427.478C687.913 427.478 691.401 428.086 694.537 429.302C697.705 430.518 700.489 432.278 702.889 434.582L700.633 438.998Z" fill="white"/>
<rect x="606.5" y="603.5" width="154" height="153" fill="#44BC96"/>
<path d="M687.387 690.109V717.517H678.075V690.109L652.875 648.733H661.035C661.867 648.733 662.523 648.941 663.003 649.357C663.483 649.741 663.899 650.253 664.251 650.893L679.995 677.629C680.571 678.749 681.099 679.805 681.579 680.797C682.059 681.757 682.475 682.733 682.827 683.725C683.179 682.733 683.579 681.757 684.027 680.797C684.475 679.805 684.971 678.749 685.515 677.629L701.211 650.893C701.499 650.349 701.899 649.853 702.411 649.405C702.923 648.957 703.579 648.733 704.379 648.733H712.587L687.387 690.109Z" fill="white"/>
<path d="M606 823H761V978H606V823Z" fill="#E3848B"/>
<rect x="606" y="823" width="155" height="155" fill="#E3848B"/>
<path d="M708.525 872.702C708.525 873.758 708.205 874.782 707.565 875.774L668.637 930.446H707.949V938.03H656.397V934.382C656.397 933.87 656.477 933.39 656.637 932.942C656.829 932.494 657.053 932.062 657.309 931.646L696.333 876.83H658.221V869.246H708.525V872.702Z" fill="white"/>
<rect x="1628.5" y="603.5" width="154" height="153" fill="#44BC96"/>
<path d="M1709.39 690.109V717.517H1700.08V690.109L1674.88 648.733H1683.04C1683.87 648.733 1684.52 648.941 1685 649.357C1685.48 649.741 1685.9 650.253 1686.25 650.893L1702 677.629C1702.57 678.749 1703.1 679.805 1703.58 680.797C1704.06 681.757 1704.48 682.733 1704.83 683.725C1705.18 682.733 1705.58 681.757 1706.03 680.797C1706.48 679.805 1706.97 678.749 1707.52 677.629L1723.21 650.893C1723.5 650.349 1723.9 649.853 1724.41 649.405C1724.92 648.957 1725.58 648.733 1726.38 648.733H1734.59L1709.39 690.109Z" fill="white"/>
<g opacity="0.3">
<path d="M1144 160L1299 160V315H1144V160Z" fill="white"/>
<rect x="1144" y="160" width="155" height="155" fill="#2F4858"/>
<path d="M1250.32 241.958V268.358C1246.87 270.854 1243.17 272.726 1239.23 273.974C1235.33 275.19 1231.04 275.798 1226.37 275.798C1220.83 275.798 1215.84 274.95 1211.39 273.254C1206.95 271.526 1203.14 269.126 1199.97 266.054C1196.83 262.95 1194.42 259.238 1192.72 254.918C1191.03 250.598 1190.18 245.846 1190.18 240.662C1190.18 235.414 1190.99 230.63 1192.63 226.31C1194.29 221.99 1196.64 218.294 1199.68 215.222C1202.72 212.118 1206.42 209.718 1210.77 208.022C1215.12 206.326 1219.99 205.478 1225.36 205.478C1228.08 205.478 1230.61 205.686 1232.95 206.102C1235.28 206.486 1237.44 207.062 1239.43 207.83C1241.41 208.566 1243.25 209.478 1244.95 210.566C1246.64 211.622 1248.23 212.822 1249.7 214.166L1247.06 218.39C1246.64 219.03 1246.1 219.446 1245.43 219.638C1244.79 219.798 1244.07 219.638 1243.27 219.158C1242.5 218.71 1241.62 218.166 1240.63 217.526C1239.63 216.886 1238.42 216.278 1236.98 215.702C1235.57 215.094 1233.89 214.582 1231.94 214.166C1230.02 213.75 1227.73 213.542 1225.07 213.542C1221.2 213.542 1217.7 214.182 1214.56 215.462C1211.43 216.71 1208.75 218.518 1206.55 220.886C1204.34 223.222 1202.64 226.07 1201.46 229.43C1200.27 232.758 1199.68 236.502 1199.68 240.662C1199.68 244.982 1200.29 248.854 1201.51 252.278C1202.75 255.67 1204.51 258.566 1206.79 260.966C1209.09 263.334 1211.87 265.142 1215.14 266.39C1218.4 267.638 1222.07 268.262 1226.13 268.262C1229.33 268.262 1232.16 267.91 1234.63 267.206C1237.12 266.47 1239.55 265.462 1241.92 264.182V249.062H1231.22C1230.61 249.062 1230.11 248.886 1229.73 248.534C1229.38 248.182 1229.2 247.75 1229.2 247.238V241.958H1250.32Z" fill="white"/>
</g>
<g opacity="0.3">
<rect x="1144" y="381" width="155" height="155" fill="#4D8DC9"/>
<path d="M1238.63 437.998C1238.35 438.478 1238.03 438.846 1237.67 439.102C1237.35 439.326 1236.95 439.438 1236.47 439.438C1235.93 439.438 1235.29 439.166 1234.55 438.622C1233.82 438.078 1232.89 437.486 1231.77 436.846C1230.68 436.174 1229.35 435.566 1227.79 435.022C1226.25 434.478 1224.38 434.206 1222.17 434.206C1220.09 434.206 1218.25 434.494 1216.65 435.07C1215.08 435.614 1213.75 436.366 1212.67 437.326C1211.61 438.286 1210.81 439.422 1210.27 440.734C1209.72 442.014 1209.45 443.406 1209.45 444.91C1209.45 446.83 1209.91 448.43 1210.84 449.71C1211.8 450.958 1213.05 452.03 1214.59 452.926C1216.15 453.822 1217.91 454.606 1219.87 455.278C1221.85 455.918 1223.87 456.59 1225.91 457.294C1227.99 457.998 1230.01 458.798 1231.96 459.694C1233.95 460.558 1235.71 461.662 1237.24 463.006C1238.81 464.35 1240.06 465.998 1240.99 467.95C1241.95 469.902 1242.43 472.302 1242.43 475.15C1242.43 478.158 1241.91 480.99 1240.89 483.646C1239.87 486.27 1238.36 488.558 1236.38 490.51C1234.43 492.462 1232.01 493.998 1229.13 495.118C1226.28 496.238 1223.03 496.798 1219.39 496.798C1214.91 496.798 1210.84 495.998 1207.19 494.398C1203.55 492.766 1200.43 490.574 1197.83 487.822L1200.52 483.406C1200.78 483.054 1201.08 482.766 1201.43 482.542C1201.82 482.286 1202.23 482.158 1202.68 482.158C1203.1 482.158 1203.56 482.334 1204.07 482.686C1204.62 483.006 1205.23 483.422 1205.9 483.934C1206.57 484.446 1207.34 485.006 1208.2 485.614C1209.07 486.222 1210.04 486.782 1211.13 487.294C1212.25 487.806 1213.51 488.238 1214.92 488.59C1216.33 488.91 1217.91 489.07 1219.67 489.07C1221.88 489.07 1223.85 488.766 1225.58 488.158C1227.31 487.55 1228.76 486.702 1229.95 485.614C1231.16 484.494 1232.09 483.166 1232.73 481.63C1233.37 480.094 1233.69 478.382 1233.69 476.494C1233.69 474.414 1233.21 472.718 1232.25 471.406C1231.32 470.062 1230.09 468.942 1228.55 468.046C1227.02 467.15 1225.26 466.398 1223.27 465.79C1221.29 465.15 1219.27 464.51 1217.23 463.87C1215.18 463.198 1213.16 462.43 1211.18 461.566C1209.19 460.702 1207.43 459.582 1205.9 458.206C1204.36 456.83 1203.11 455.118 1202.15 453.07C1201.23 450.99 1200.76 448.43 1200.76 445.39C1200.76 442.958 1201.23 440.606 1202.15 438.334C1203.11 436.062 1204.49 434.046 1206.28 432.286C1208.11 430.526 1210.33 429.118 1212.95 428.062C1215.61 427.006 1218.65 426.478 1222.07 426.478C1225.91 426.478 1229.4 427.086 1232.54 428.302C1235.71 429.518 1238.49 431.278 1240.89 433.582L1238.63 437.998Z" fill="white"/>
</g>
<rect x="1144.5" y="602.5" width="154" height="153" fill="#44BC96"/>
<path d="M1225.39 689.109V716.517H1216.08V689.109L1190.88 647.733H1199.04C1199.87 647.733 1200.52 647.941 1201 648.357C1201.48 648.741 1201.9 649.253 1202.25 649.893L1218 676.629C1218.57 677.749 1219.1 678.805 1219.58 679.797C1220.06 680.757 1220.48 681.733 1220.83 682.725C1221.18 681.733 1221.58 680.757 1222.03 679.797C1222.48 678.805 1222.97 677.749 1223.52 676.629L1239.21 649.893C1239.5 649.349 1239.9 648.853 1240.41 648.405C1240.92 647.957 1241.58 647.733 1242.38 647.733H1250.59L1225.39 689.109Z" fill="white"/>
<path d="M114.048 697.768C117.44 697.768 119.488 697.128 122.368 695.912L121.024 692.008C118.912 692.968 116.992 693.416 115.2 693.416C111.488 693.416 109.056 691.496 109.056 686.952V651.432H92.736V655.72H103.808V686.568C103.808 693.928 107.456 697.768 114.048 697.768ZM151.591 697.768C155.495 697.768 158.503 696.936 161.319 695.912L160.167 692.072C157.927 692.904 155.623 693.48 152.679 693.48C146.663 693.48 144.807 690.536 144.807 684.968V670.184H160.103V665.896H144.807V655.912H140.455L139.751 665.896L130.791 666.216V670.184H139.559V684.904C139.559 692.584 142.503 697.768 151.591 697.768ZM174.094 697H179.342V678.76C183.054 672.296 187.47 669.864 192.142 669.864C194.574 669.864 195.726 670.184 197.902 670.952L199.118 666.408C197.198 665.448 195.278 665.128 192.974 665.128C187.214 665.128 182.35 668.264 179.086 673.256H178.894L178.446 665.896H174.094V697ZM222.965 697.768C231.861 697.768 236.789 693.544 236.789 688.488C236.789 683.752 234.293 681.128 223.925 678.888C217.589 677.544 214.901 676.392 214.901 673.704C214.901 671.336 216.757 669.224 222.069 669.224C226.037 669.224 229.621 670.504 232.501 672.488L235.061 669.096C231.989 666.984 227.253 665.128 222.517 665.128C214.005 665.128 209.589 668.968 209.589 673.96C209.589 678.632 213.685 681.384 221.749 683.048C230.197 684.776 231.477 686.44 231.477 688.808C231.477 691.432 228.853 693.672 223.605 693.672C217.845 693.672 213.685 692.008 210.101 689.448L207.669 692.904C211.445 695.528 216.885 697.768 222.965 697.768ZM537.837 708.264L540.717 705.576C532.141 698.344 528.173 689.96 528.173 679.208C528.173 668.456 532.141 660.072 540.717 652.84L537.837 650.152C528.941 657.064 523.437 666.856 523.437 679.208C523.437 691.56 528.941 701.352 537.837 708.264ZM576.212 708.264L579.092 705.576C570.516 698.344 566.548 689.96 566.548 679.208C566.548 668.456 570.516 660.072 579.092 652.84L576.212 650.152C567.316 657.064 561.812 666.856 561.812 679.208C561.812 691.56 567.316 701.352 576.212 708.264ZM789.438 708.264C798.334 701.352 803.838 691.56 803.838 679.208C803.838 666.856 798.334 657.064 789.438 650.152L786.558 652.84C795.134 660.072 799.102 668.456 799.102 679.208C799.102 689.96 795.134 698.344 786.558 705.576L789.438 708.264ZM860.94 671.016H888.46V667.048H860.94V671.016ZM860.94 684.712H888.46V680.744H860.94V684.712ZM900.723 693.928L924.595 677.736V673.768L900.723 657.576V662.632L919.987 675.624V675.88L900.723 688.872V693.928ZM976.577 710.12H981.825V699.624L981.569 693.736H981.761C984.513 696.296 988.161 697.768 991.041 697.768C998.529 697.768 1005.19 691.56 1005.19 681C1005.19 671.336 1000.71 665.128 992.321 665.128C988.481 665.128 984.449 667.112 981.569 669.864H981.377L980.929 665.896H976.577V710.12ZM990.145 693.352C988.033 693.352 984.769 692.328 981.825 689.704V674.216C985.025 671.016 988.225 669.544 990.977 669.544C997.185 669.544 999.745 674.152 999.745 681C999.745 688.68 995.713 693.352 990.145 693.352ZM1034.22 697.768C1038.12 697.768 1041.13 696.936 1043.94 695.912L1042.79 692.072C1040.55 692.904 1038.25 693.48 1035.3 693.48C1029.29 693.48 1027.43 690.536 1027.43 684.968V670.184H1042.73V665.896H1027.43V655.912H1023.08L1022.38 665.896L1013.42 666.216V670.184H1022.18V684.904C1022.18 692.584 1025.13 697.768 1034.22 697.768ZM1067.22 697.768C1076.11 697.768 1081.04 693.544 1081.04 688.488C1081.04 683.752 1078.54 681.128 1068.18 678.888C1061.84 677.544 1059.15 676.392 1059.15 673.704C1059.15 671.336 1061.01 669.224 1066.32 669.224C1070.29 669.224 1073.87 670.504 1076.75 672.488L1079.31 669.096C1076.24 666.984 1071.5 665.128 1066.77 665.128C1058.26 665.128 1053.84 668.968 1053.84 673.96C1053.84 678.632 1057.94 681.384 1066 683.048C1074.45 684.776 1075.73 686.44 1075.73 688.808C1075.73 691.432 1073.1 693.672 1067.86 693.672C1062.1 693.672 1057.94 692.008 1054.35 689.448L1051.92 692.904C1055.7 695.528 1061.14 697.768 1067.22 697.768ZM1100.15 706.728H1117.88V703.72H1104.37V654.696H1117.88V651.688H1100.15V706.728ZM1322.27 706.728H1340V651.688H1322.27V654.696H1335.78V703.72H1322.27V706.728ZM1399.6 693.928L1423.47 677.736V673.768L1399.6 657.576V662.632L1418.86 675.624V675.88L1399.6 688.872V693.928ZM1487.87 697.768C1496 697.768 1502.65 693.352 1502.65 686.12C1502.65 680.488 1497.98 676.904 1492.54 675.752V675.496C1497.6 673.832 1501.24 670.696 1501.24 665.768C1501.24 659.176 1495.42 655.4 1487.74 655.4C1482.49 655.4 1478.08 657.576 1474.68 660.52L1477.5 663.848C1480.19 661.416 1483.71 659.688 1487.55 659.688C1492.54 659.688 1495.87 662.184 1495.87 666.152C1495.87 670.44 1492.16 673.768 1482.49 673.768V677.8C1493.24 677.8 1497.34 681.064 1497.34 685.928C1497.34 690.472 1493.12 693.416 1487.55 693.416C1482.3 693.416 1478.52 691.112 1475.84 688.552L1473.15 692.008C1476.16 695.016 1480.83 697.768 1487.87 697.768ZM1518.56 708.264C1527.46 701.352 1532.96 691.56 1532.96 679.208C1532.96 666.856 1527.46 657.064 1518.56 650.152L1515.68 652.84C1524.26 660.072 1528.23 668.456 1528.23 679.208C1528.23 689.96 1524.26 698.344 1515.68 705.576L1518.56 708.264Z" fill="#2F4858"/>
<path d="M260.7 697.768C263.58 697.768 265.884 695.592 265.884 692.392C265.884 689.128 263.58 686.952 260.7 686.952C257.82 686.952 255.516 689.128 255.516 692.392C255.516 695.592 257.82 697.768 260.7 697.768ZM295.363 697H300.547V670.184H313.603V665.896H300.547V663.08C300.547 658.024 302.851 654.952 308.419 654.952C311.107 654.952 313.091 655.272 315.651 656.424L316.867 652.456C313.923 651.24 310.979 650.664 307.907 650.664C299.331 650.664 295.363 655.656 295.363 663.272V665.896L286.467 666.216V670.184H295.363V697ZM338.474 697H343.722V665.896H324.01V670.184H338.474V697ZM340.522 659.368C342.89 659.368 344.746 657.768 344.746 655.272C344.746 652.84 342.89 651.176 340.522 651.176C338.154 651.176 336.298 652.84 336.298 655.272C336.298 657.768 338.154 659.368 340.522 659.368ZM382.673 697.768C386.065 697.768 388.113 697.128 390.993 695.912L389.649 692.008C387.537 692.968 385.617 693.416 383.825 693.416C380.113 693.416 377.681 691.496 377.681 686.952V651.432H361.361V655.72H372.433V686.568C372.433 693.928 376.081 697.768 382.673 697.768ZM420.216 697.768C424.12 697.768 427.128 696.936 429.944 695.912L428.792 692.072C426.552 692.904 424.248 693.48 421.304 693.48C415.288 693.48 413.432 690.536 413.432 684.968V670.184H428.728V665.896H413.432V655.912H409.08L408.376 665.896L399.416 666.216V670.184H408.184V684.904C408.184 692.584 411.128 697.768 420.216 697.768ZM454.495 697.768C459.487 697.768 463.455 696.104 466.527 694.056L464.607 690.6C461.791 692.392 458.847 693.544 455.135 693.544C448.671 693.544 443.679 689.96 443.039 682.92H467.551C467.679 682.088 467.807 680.936 467.807 679.72C467.807 670.952 462.559 665.128 453.599 665.128C445.279 665.128 437.727 671.272 437.727 681.384C437.727 691.752 445.151 697.768 454.495 697.768ZM453.727 669.288C459.039 669.288 462.559 672.424 463.007 678.824H443.167C444.127 672.68 448.607 669.288 453.727 669.288ZM481.094 697H486.342V678.76C490.054 672.296 494.47 669.864 499.142 669.864C501.574 669.864 502.726 670.184 504.902 670.952L506.118 666.408C504.198 665.448 502.278 665.128 499.974 665.128C494.214 665.128 489.35 668.264 486.086 673.256H485.894L485.446 665.896H481.094V697Z" fill="#B24E72"/>
</svg>
