<svg width="1920" height="1080" viewBox="0 0 1920 1080" fill="none" xmlns="http://www.w3.org/2000/svg">
<rect width="1920" height="1080" fill="white"/>
<path d="M606 161L761 161V316H606V161Z" fill="white"/>
<rect x="606" y="161" width="155" height="155" fill="#2F4858"/>
<path d="M712.321 242.958V269.358C708.865 271.854 705.169 273.726 701.233 274.974C697.329 276.19 693.041 276.798 688.369 276.798C682.833 276.798 677.841 275.95 673.393 274.254C668.945 272.526 665.137 270.126 661.969 267.054C658.833 263.95 656.417 260.238 654.721 255.918C653.025 251.598 652.177 246.846 652.177 241.662C652.177 236.414 652.993 231.63 654.625 227.31C656.289 222.99 658.641 219.294 661.681 216.222C664.721 213.118 668.417 210.718 672.769 209.022C677.121 207.326 681.985 206.478 687.361 206.478C690.081 206.478 692.609 206.686 694.945 207.102C697.281 207.486 699.441 208.062 701.425 208.83C703.409 209.566 705.249 210.478 706.945 211.566C708.641 212.622 710.225 213.822 711.697 215.166L709.057 219.39C708.641 220.03 708.097 220.446 707.425 220.638C706.785 220.798 706.065 220.638 705.265 220.158C704.497 219.71 703.617 219.166 702.625 218.526C701.633 217.886 700.417 217.278 698.977 216.702C697.569 216.094 695.889 215.582 693.937 215.166C692.017 214.75 689.729 214.542 687.073 214.542C683.201 214.542 679.697 215.182 676.561 216.462C673.425 217.71 670.753 219.518 668.545 221.886C666.337 224.222 664.641 227.07 663.457 230.43C662.273 233.758 661.681 237.502 661.681 241.662C661.681 245.982 662.289 249.854 663.505 253.278C664.753 256.67 666.513 259.566 668.785 261.966C671.089 264.334 673.873 266.142 677.137 267.39C680.401 268.638 684.065 269.262 688.129 269.262C691.329 269.262 694.161 268.91 696.625 268.206C699.121 267.47 701.553 266.462 703.921 265.182V250.062H693.217C692.609 250.062 692.113 249.886 691.729 249.534C691.377 249.182 691.201 248.75 691.201 248.238V242.958H712.321Z" fill="white"/>
<rect x="606" y="382" width="155" height="155" fill="#4D8DC9"/>
<path d="M700.633 438.998C700.345 439.478 700.025 439.846 699.673 440.102C699.353 440.326 698.953 440.438 698.473 440.438C697.929 440.438 697.289 440.166 696.553 439.622C695.817 439.078 694.889 438.486 693.769 437.846C692.681 437.174 691.353 436.566 689.785 436.022C688.249 435.478 686.377 435.206 684.169 435.206C682.089 435.206 680.249 435.494 678.649 436.07C677.081 436.614 675.753 437.366 674.665 438.326C673.609 439.286 672.809 440.422 672.265 441.734C671.721 443.014 671.449 444.406 671.449 445.91C671.449 447.83 671.913 449.43 672.841 450.71C673.801 451.958 675.049 453.03 676.585 453.926C678.153 454.822 679.913 455.606 681.865 456.278C683.849 456.918 685.865 457.59 687.913 458.294C689.993 458.998 692.009 459.798 693.961 460.694C695.945 461.558 697.705 462.662 699.241 464.006C700.809 465.35 702.057 466.998 702.985 468.95C703.945 470.902 704.425 473.302 704.425 476.15C704.425 479.158 703.913 481.99 702.889 484.646C701.865 487.27 700.361 489.558 698.377 491.51C696.425 493.462 694.009 494.998 691.129 496.118C688.281 497.238 685.033 497.798 681.385 497.798C676.905 497.798 672.841 496.998 669.193 495.398C665.545 493.766 662.425 491.574 659.833 488.822L662.521 484.406C662.777 484.054 663.081 483.766 663.433 483.542C663.817 483.286 664.233 483.158 664.681 483.158C665.097 483.158 665.561 483.334 666.073 483.686C666.617 484.006 667.225 484.422 667.897 484.934C668.569 485.446 669.337 486.006 670.201 486.614C671.065 487.222 672.041 487.782 673.129 488.294C674.249 488.806 675.513 489.238 676.921 489.59C678.329 489.91 679.913 490.07 681.673 490.07C683.881 490.07 685.849 489.766 687.577 489.158C689.305 488.55 690.761 487.702 691.945 486.614C693.161 485.494 694.089 484.166 694.729 482.63C695.369 481.094 695.689 479.382 695.689 477.494C695.689 475.414 695.209 473.718 694.249 472.406C693.321 471.062 692.089 469.942 690.553 469.046C689.017 468.15 687.257 467.398 685.273 466.79C683.289 466.15 681.273 465.51 679.225 464.87C677.177 464.198 675.161 463.43 673.177 462.566C671.193 461.702 669.433 460.582 667.897 459.206C666.361 457.83 665.113 456.118 664.153 454.07C663.225 451.99 662.761 449.43 662.761 446.39C662.761 443.958 663.225 441.606 664.153 439.334C665.113 437.062 666.489 435.046 668.281 433.286C670.105 431.526 672.329 430.118 674.953 429.062C677.609 428.006 680.649 427.478 684.073 427.478C687.913 427.478 691.401 428.086 694.537 429.302C697.705 430.518 700.489 432.278 702.889 434.582L700.633 438.998Z" fill="white"/>
<rect x="606.5" y="603.5" width="154" height="153" fill="#44BC96"/>
<path d="M687.387 690.109V717.517H678.075V690.109L652.875 648.733H661.035C661.867 648.733 662.523 648.941 663.003 649.357C663.483 649.741 663.899 650.253 664.251 650.893L679.995 677.629C680.571 678.749 681.099 679.805 681.579 680.797C682.059 681.757 682.475 682.733 682.827 683.725C683.179 682.733 683.579 681.757 684.027 680.797C684.475 679.805 684.971 678.749 685.515 677.629L701.211 650.893C701.499 650.349 701.899 649.853 702.411 649.405C702.923 648.957 703.579 648.733 704.379 648.733H712.587L687.387 690.109Z" fill="white"/>
<path d="M606 823H761V978H606V823Z" fill="#E3848B"/>
<rect x="606" y="823" width="155" height="155" fill="#E3848B"/>
<path d="M708.525 872.702C708.525 873.758 708.205 874.782 707.565 875.774L668.637 930.446H707.949V938.03H656.397V934.382C656.397 933.87 656.477 933.39 656.637 932.942C656.829 932.494 657.053 932.062 657.309 931.646L696.333 876.83H658.221V869.246H708.525V872.702Z" fill="white"/>
<path d="M1144 160L1299 160V315H1144V160Z" fill="white"/>
<rect x="1144" y="160" width="155" height="155" fill="#2F4858"/>
<path d="M1250.32 241.958V268.358C1246.87 270.854 1243.17 272.726 1239.23 273.974C1235.33 275.19 1231.04 275.798 1226.37 275.798C1220.83 275.798 1215.84 274.95 1211.39 273.254C1206.95 271.526 1203.14 269.126 1199.97 266.054C1196.83 262.95 1194.42 259.238 1192.72 254.918C1191.03 250.598 1190.18 245.846 1190.18 240.662C1190.18 235.414 1190.99 230.63 1192.63 226.31C1194.29 221.99 1196.64 218.294 1199.68 215.222C1202.72 212.118 1206.42 209.718 1210.77 208.022C1215.12 206.326 1219.99 205.478 1225.36 205.478C1228.08 205.478 1230.61 205.686 1232.95 206.102C1235.28 206.486 1237.44 207.062 1239.43 207.83C1241.41 208.566 1243.25 209.478 1244.95 210.566C1246.64 211.622 1248.23 212.822 1249.7 214.166L1247.06 218.39C1246.64 219.03 1246.1 219.446 1245.43 219.638C1244.79 219.798 1244.07 219.638 1243.27 219.158C1242.5 218.71 1241.62 218.166 1240.63 217.526C1239.63 216.886 1238.42 216.278 1236.98 215.702C1235.57 215.094 1233.89 214.582 1231.94 214.166C1230.02 213.75 1227.73 213.542 1225.07 213.542C1221.2 213.542 1217.7 214.182 1214.56 215.462C1211.43 216.71 1208.75 218.518 1206.55 220.886C1204.34 223.222 1202.64 226.07 1201.46 229.43C1200.27 232.758 1199.68 236.502 1199.68 240.662C1199.68 244.982 1200.29 248.854 1201.51 252.278C1202.75 255.67 1204.51 258.566 1206.79 260.966C1209.09 263.334 1211.87 265.142 1215.14 266.39C1218.4 267.638 1222.07 268.262 1226.13 268.262C1229.33 268.262 1232.16 267.91 1234.63 267.206C1237.12 266.47 1239.55 265.462 1241.92 264.182V249.062H1231.22C1230.61 249.062 1230.11 248.886 1229.73 248.534C1229.38 248.182 1229.2 247.75 1229.2 247.238V241.958H1250.32Z" fill="white"/>
<path d="M114.048 255.768C117.44 255.768 119.488 255.128 122.368 253.912L121.024 250.008C118.912 250.968 116.992 251.416 115.2 251.416C111.488 251.416 109.056 249.496 109.056 244.952V209.432H92.736V213.72H103.808V244.568C103.808 251.928 107.456 255.768 114.048 255.768ZM151.591 255.768C155.495 255.768 158.503 254.936 161.319 253.912L160.167 250.072C157.927 250.904 155.623 251.48 152.679 251.48C146.663 251.48 144.807 248.536 144.807 242.968V228.184H160.103V223.896H144.807V213.912H140.455L139.751 223.896L130.791 224.216V228.184H139.559V242.904C139.559 250.584 142.503 255.768 151.591 255.768ZM174.094 255H179.342V236.76C183.054 230.296 187.47 227.864 192.142 227.864C194.574 227.864 195.726 228.184 197.902 228.952L199.118 224.408C197.198 223.448 195.278 223.128 192.974 223.128C187.214 223.128 182.35 226.264 179.086 231.256H178.894L178.446 223.896H174.094V255ZM222.965 255.768C231.861 255.768 236.789 251.544 236.789 246.488C236.789 241.752 234.293 239.128 223.925 236.888C217.589 235.544 214.901 234.392 214.901 231.704C214.901 229.336 216.757 227.224 222.069 227.224C226.037 227.224 229.621 228.504 232.501 230.488L235.061 227.096C231.989 224.984 227.253 223.128 222.517 223.128C214.005 223.128 209.589 226.968 209.589 231.96C209.589 236.632 213.685 239.384 221.749 241.048C230.197 242.776 231.477 244.44 231.477 246.808C231.477 249.432 228.853 251.672 223.605 251.672C217.845 251.672 213.685 250.008 210.101 247.448L207.669 250.904C211.445 253.528 216.885 255.768 222.965 255.768ZM537.837 266.264L540.717 263.576C532.141 256.344 528.173 247.96 528.173 237.208C528.173 226.456 532.141 218.072 540.717 210.84L537.837 208.152C528.941 215.064 523.437 224.856 523.437 237.208C523.437 249.56 528.941 259.352 537.837 266.264ZM576.212 266.264L579.092 263.576C570.516 256.344 566.548 247.96 566.548 237.208C566.548 226.456 570.516 218.072 579.092 210.84L576.212 208.152C567.316 215.064 561.812 224.856 561.812 237.208C561.812 249.56 567.316 259.352 576.212 266.264ZM789.438 266.264C798.334 259.352 803.838 249.56 803.838 237.208C803.838 224.856 798.334 215.064 789.438 208.152L786.558 210.84C795.134 218.072 799.102 226.456 799.102 237.208C799.102 247.96 795.134 256.344 786.558 263.576L789.438 266.264ZM860.94 229.016H888.46V225.048H860.94V229.016ZM860.94 242.712H888.46V238.744H860.94V242.712ZM900.723 251.928L924.595 235.736V231.768L900.723 215.576V220.632L919.987 233.624V233.88L900.723 246.872V251.928ZM976.577 268.12H981.825V257.624L981.569 251.736H981.761C984.513 254.296 988.161 255.768 991.041 255.768C998.529 255.768 1005.19 249.56 1005.19 239C1005.19 229.336 1000.71 223.128 992.321 223.128C988.481 223.128 984.449 225.112 981.569 227.864H981.377L980.929 223.896H976.577V268.12ZM990.145 251.352C988.033 251.352 984.769 250.328 981.825 247.704V232.216C985.025 229.016 988.225 227.544 990.977 227.544C997.185 227.544 999.745 232.152 999.745 239C999.745 246.68 995.713 251.352 990.145 251.352ZM1034.22 255.768C1038.12 255.768 1041.13 254.936 1043.94 253.912L1042.79 250.072C1040.55 250.904 1038.25 251.48 1035.3 251.48C1029.29 251.48 1027.43 248.536 1027.43 242.968V228.184H1042.73V223.896H1027.43V213.912H1023.08L1022.38 223.896L1013.42 224.216V228.184H1022.18V242.904C1022.18 250.584 1025.13 255.768 1034.22 255.768ZM1067.22 255.768C1076.11 255.768 1081.04 251.544 1081.04 246.488C1081.04 241.752 1078.54 239.128 1068.18 236.888C1061.84 235.544 1059.15 234.392 1059.15 231.704C1059.15 229.336 1061.01 227.224 1066.32 227.224C1070.29 227.224 1073.87 228.504 1076.75 230.488L1079.31 227.096C1076.24 224.984 1071.5 223.128 1066.77 223.128C1058.26 223.128 1053.84 226.968 1053.84 231.96C1053.84 236.632 1057.94 239.384 1066 241.048C1074.45 242.776 1075.73 244.44 1075.73 246.808C1075.73 249.432 1073.1 251.672 1067.86 251.672C1062.1 251.672 1057.94 250.008 1054.35 247.448L1051.92 250.904C1055.7 253.528 1061.14 255.768 1067.22 255.768ZM1100.15 264.728H1117.88V261.72H1104.37V212.696H1117.88V209.688H1100.15V264.728ZM1322.27 264.728H1340V209.688H1322.27V212.696H1335.78V261.72H1322.27V264.728ZM1399.6 251.928L1423.47 235.736V231.768L1399.6 215.576V220.632L1418.86 233.624V233.88L1399.6 246.872V251.928ZM1487.87 255.768C1496 255.768 1502.65 251.352 1502.65 244.12C1502.65 238.488 1497.98 234.904 1492.54 233.752V233.496C1497.6 231.832 1501.24 228.696 1501.24 223.768C1501.24 217.176 1495.42 213.4 1487.74 213.4C1482.49 213.4 1478.08 215.576 1474.68 218.52L1477.5 221.848C1480.19 219.416 1483.71 217.688 1487.55 217.688C1492.54 217.688 1495.87 220.184 1495.87 224.152C1495.87 228.44 1492.16 231.768 1482.49 231.768V235.8C1493.24 235.8 1497.34 239.064 1497.34 243.928C1497.34 248.472 1493.12 251.416 1487.55 251.416C1482.3 251.416 1478.52 249.112 1475.84 246.552L1473.15 250.008C1476.16 253.016 1480.83 255.768 1487.87 255.768ZM1518.56 266.264C1527.46 259.352 1532.96 249.56 1532.96 237.208C1532.96 224.856 1527.46 215.064 1518.56 208.152L1515.68 210.84C1524.26 218.072 1528.23 226.456 1528.23 237.208C1528.23 247.96 1524.26 256.344 1515.68 263.576L1518.56 266.264Z" fill="#2F4858"/>
<path d="M260.7 255.768C263.58 255.768 265.884 253.592 265.884 250.392C265.884 247.128 263.58 244.952 260.7 244.952C257.82 244.952 255.516 247.128 255.516 250.392C255.516 253.592 257.82 255.768 260.7 255.768ZM295.363 255H300.547V228.184H313.603V223.896H300.547V221.08C300.547 216.024 302.851 212.952 308.419 212.952C311.107 212.952 313.091 213.272 315.651 214.424L316.867 210.456C313.923 209.24 310.979 208.664 307.907 208.664C299.331 208.664 295.363 213.656 295.363 221.272V223.896L286.467 224.216V228.184H295.363V255ZM338.474 255H343.722V223.896H324.01V228.184H338.474V255ZM340.522 217.368C342.89 217.368 344.746 215.768 344.746 213.272C344.746 210.84 342.89 209.176 340.522 209.176C338.154 209.176 336.298 210.84 336.298 213.272C336.298 215.768 338.154 217.368 340.522 217.368ZM382.673 255.768C386.065 255.768 388.113 255.128 390.993 253.912L389.649 250.008C387.537 250.968 385.617 251.416 383.825 251.416C380.113 251.416 377.681 249.496 377.681 244.952V209.432H361.361V213.72H372.433V244.568C372.433 251.928 376.081 255.768 382.673 255.768ZM420.216 255.768C424.12 255.768 427.128 254.936 429.944 253.912L428.792 250.072C426.552 250.904 424.248 251.48 421.304 251.48C415.288 251.48 413.432 248.536 413.432 242.968V228.184H428.728V223.896H413.432V213.912H409.08L408.376 223.896L399.416 224.216V228.184H408.184V242.904C408.184 250.584 411.128 255.768 420.216 255.768ZM454.495 255.768C459.487 255.768 463.455 254.104 466.527 252.056L464.607 248.6C461.791 250.392 458.847 251.544 455.135 251.544C448.671 251.544 443.679 247.96 443.039 240.92H467.551C467.679 240.088 467.807 238.936 467.807 237.72C467.807 228.952 462.559 223.128 453.599 223.128C445.279 223.128 437.727 229.272 437.727 239.384C437.727 249.752 445.151 255.768 454.495 255.768ZM453.727 227.288C459.039 227.288 462.559 230.424 463.007 236.824H443.167C444.127 230.68 448.607 227.288 453.727 227.288ZM481.094 255H486.342V236.76C490.054 230.296 494.47 227.864 499.142 227.864C501.574 227.864 502.726 228.184 504.902 228.952L506.118 224.408C504.198 223.448 502.278 223.128 499.974 223.128C494.214 223.128 489.35 226.264 486.086 231.256H485.894L485.446 223.896H481.094V255Z" fill="#B24E72"/>
</svg>
