<svg width="1920" height="1080" viewBox="0 0 1920 1080" fill="none" xmlns="http://www.w3.org/2000/svg">
<rect width="1920" height="1080" fill="white"/>
<rect x="161" y="390" width="301" height="301" fill="#466683"/>
<path d="M347.434 545.448C347.434 554.472 346.45 562.296 344.482 568.92C342.562 575.496 339.922 580.944 336.562 585.264C333.202 589.584 329.218 592.8 324.61 594.912C320.05 597.024 315.154 598.08 309.922 598.08C304.642 598.08 299.722 597.024 295.162 594.912C290.65 592.8 286.714 589.584 283.354 585.264C279.994 580.944 277.354 575.496 275.434 568.92C273.514 562.296 272.554 554.472 272.554 545.448C272.554 536.424 273.514 528.6 275.434 521.976C277.354 515.352 279.994 509.88 283.354 505.56C286.714 501.192 290.65 497.952 295.162 495.84C299.722 493.728 304.642 492.672 309.922 492.672C315.154 492.672 320.05 493.728 324.61 495.84C329.218 497.952 333.202 501.192 336.562 505.56C339.922 509.88 342.562 515.352 344.482 521.976C346.45 528.6 347.434 536.424 347.434 545.448ZM334.114 545.448C334.114 537.576 333.442 530.976 332.098 525.648C330.802 520.272 329.026 515.952 326.77 512.688C324.562 509.424 321.994 507.096 319.066 505.704C316.138 504.264 313.09 503.544 309.922 503.544C306.754 503.544 303.706 504.264 300.778 505.704C297.85 507.096 295.282 509.424 293.074 512.688C290.866 515.952 289.09 520.272 287.746 525.648C286.45 530.976 285.802 537.576 285.802 545.448C285.802 553.32 286.45 559.92 287.746 565.248C289.09 570.576 290.866 574.872 293.074 578.136C295.282 581.4 297.85 583.752 300.778 585.192C303.706 586.584 306.754 587.28 309.922 587.28C313.09 587.28 316.138 586.584 319.066 585.192C321.994 583.752 324.562 581.4 326.77 578.136C329.026 574.872 330.802 570.576 332.098 565.248C333.442 559.92 334.114 553.32 334.114 545.448Z" fill="white"/>
<rect x="593" y="390" width="301" height="301" fill="#466683"/>
<path d="M779.434 545.448C779.434 554.472 778.45 562.296 776.482 568.92C774.562 575.496 771.922 580.944 768.562 585.264C765.202 589.584 761.218 592.8 756.61 594.912C752.05 597.024 747.154 598.08 741.922 598.08C736.642 598.08 731.722 597.024 727.162 594.912C722.65 592.8 718.714 589.584 715.354 585.264C711.994 580.944 709.354 575.496 707.434 568.92C705.514 562.296 704.554 554.472 704.554 545.448C704.554 536.424 705.514 528.6 707.434 521.976C709.354 515.352 711.994 509.88 715.354 505.56C718.714 501.192 722.65 497.952 727.162 495.84C731.722 493.728 736.642 492.672 741.922 492.672C747.154 492.672 752.05 493.728 756.61 495.84C761.218 497.952 765.202 501.192 768.562 505.56C771.922 509.88 774.562 515.352 776.482 521.976C778.45 528.6 779.434 536.424 779.434 545.448ZM766.114 545.448C766.114 537.576 765.442 530.976 764.098 525.648C762.802 520.272 761.026 515.952 758.77 512.688C756.562 509.424 753.994 507.096 751.066 505.704C748.138 504.264 745.09 503.544 741.922 503.544C738.754 503.544 735.706 504.264 732.778 505.704C729.85 507.096 727.282 509.424 725.074 512.688C722.866 515.952 721.09 520.272 719.746 525.648C718.45 530.976 717.802 537.576 717.802 545.448C717.802 553.32 718.45 559.92 719.746 565.248C721.09 570.576 722.866 574.872 725.074 578.136C727.282 581.4 729.85 583.752 732.778 585.192C735.706 586.584 738.754 587.28 741.922 587.28C745.09 587.28 748.138 586.584 751.066 585.192C753.994 583.752 756.562 581.4 758.77 578.136C761.026 574.872 762.802 570.576 764.098 565.248C765.442 559.92 766.114 553.32 766.114 545.448Z" fill="white"/>
<rect x="1025" y="389" width="301" height="301" fill="#466683"/>
<path d="M1211.43 544.448C1211.43 553.472 1210.45 561.296 1208.48 567.92C1206.56 574.496 1203.92 579.944 1200.56 584.264C1197.2 588.584 1193.22 591.8 1188.61 593.912C1184.05 596.024 1179.15 597.08 1173.92 597.08C1168.64 597.08 1163.72 596.024 1159.16 593.912C1154.65 591.8 1150.71 588.584 1147.35 584.264C1143.99 579.944 1141.35 574.496 1139.43 567.92C1137.51 561.296 1136.55 553.472 1136.55 544.448C1136.55 535.424 1137.51 527.6 1139.43 520.976C1141.35 514.352 1143.99 508.88 1147.35 504.56C1150.71 500.192 1154.65 496.952 1159.16 494.84C1163.72 492.728 1168.64 491.672 1173.92 491.672C1179.15 491.672 1184.05 492.728 1188.61 494.84C1193.22 496.952 1197.2 500.192 1200.56 504.56C1203.92 508.88 1206.56 514.352 1208.48 520.976C1210.45 527.6 1211.43 535.424 1211.43 544.448ZM1198.11 544.448C1198.11 536.576 1197.44 529.976 1196.1 524.648C1194.8 519.272 1193.03 514.952 1190.77 511.688C1188.56 508.424 1185.99 506.096 1183.07 504.704C1180.14 503.264 1177.09 502.544 1173.92 502.544C1170.75 502.544 1167.71 503.264 1164.78 504.704C1161.85 506.096 1159.28 508.424 1157.07 511.688C1154.87 514.952 1153.09 519.272 1151.75 524.648C1150.45 529.976 1149.8 536.576 1149.8 544.448C1149.8 552.32 1150.45 558.92 1151.75 564.248C1153.09 569.576 1154.87 573.872 1157.07 577.136C1159.28 580.4 1161.85 582.752 1164.78 584.192C1167.71 585.584 1170.75 586.28 1173.92 586.28C1177.09 586.28 1180.14 585.584 1183.07 584.192C1185.99 582.752 1188.56 580.4 1190.77 577.136C1193.03 573.872 1194.8 569.576 1196.1 564.248C1197.44 558.92 1198.11 552.32 1198.11 544.448Z" fill="white"/>
<rect x="1457" y="390" width="301" height="301" fill="#466683"/>
<path d="M1643.43 545.448C1643.43 554.472 1642.45 562.296 1640.48 568.92C1638.56 575.496 1635.92 580.944 1632.56 585.264C1629.2 589.584 1625.22 592.8 1620.61 594.912C1616.05 597.024 1611.15 598.08 1605.92 598.08C1600.64 598.08 1595.72 597.024 1591.16 594.912C1586.65 592.8 1582.71 589.584 1579.35 585.264C1575.99 580.944 1573.35 575.496 1571.43 568.92C1569.51 562.296 1568.55 554.472 1568.55 545.448C1568.55 536.424 1569.51 528.6 1571.43 521.976C1573.35 515.352 1575.99 509.88 1579.35 505.56C1582.71 501.192 1586.65 497.952 1591.16 495.84C1595.72 493.728 1600.64 492.672 1605.92 492.672C1611.15 492.672 1616.05 493.728 1620.61 495.84C1625.22 497.952 1629.2 501.192 1632.56 505.56C1635.92 509.88 1638.56 515.352 1640.48 521.976C1642.45 528.6 1643.43 536.424 1643.43 545.448ZM1630.11 545.448C1630.11 537.576 1629.44 530.976 1628.1 525.648C1626.8 520.272 1625.03 515.952 1622.77 512.688C1620.56 509.424 1617.99 507.096 1615.07 505.704C1612.14 504.264 1609.09 503.544 1605.92 503.544C1602.75 503.544 1599.71 504.264 1596.78 505.704C1593.85 507.096 1591.28 509.424 1589.07 512.688C1586.87 515.952 1585.09 520.272 1583.75 525.648C1582.45 530.976 1581.8 537.576 1581.8 545.448C1581.8 553.32 1582.45 559.92 1583.75 565.248C1585.09 570.576 1586.87 574.872 1589.07 578.136C1591.28 581.4 1593.85 583.752 1596.78 585.192C1599.71 586.584 1602.75 587.28 1605.92 587.28C1609.09 587.28 1612.14 586.584 1615.07 585.192C1617.99 583.752 1620.56 581.4 1622.77 578.136C1625.03 574.872 1626.8 570.576 1628.1 565.248C1629.44 559.92 1630.11 553.32 1630.11 545.448Z" fill="white"/>
<path d="M172.028 265.584V298H166.332V265.584H172.028ZM173.244 255.408C173.244 255.963 173.127 256.485 172.892 256.976C172.679 257.445 172.38 257.872 171.996 258.256C171.633 258.619 171.196 258.907 170.684 259.12C170.193 259.333 169.671 259.44 169.116 259.44C168.561 259.44 168.039 259.333 167.548 259.12C167.079 258.907 166.663 258.619 166.3 258.256C165.937 257.872 165.649 257.445 165.436 256.976C165.223 256.485 165.116 255.963 165.116 255.408C165.116 254.853 165.223 254.331 165.436 253.84C165.649 253.328 165.937 252.891 166.3 252.528C166.663 252.144 167.079 251.845 167.548 251.632C168.039 251.419 168.561 251.312 169.116 251.312C169.671 251.312 170.193 251.419 170.684 251.632C171.196 251.845 171.633 252.144 171.996 252.528C172.38 252.891 172.679 253.328 172.892 253.84C173.127 254.331 173.244 254.853 173.244 255.408ZM186.763 270.288C187.467 269.499 188.214 268.784 189.003 268.144C189.792 267.504 190.624 266.96 191.499 266.512C192.395 266.043 193.334 265.691 194.315 265.456C195.318 265.2 196.395 265.072 197.547 265.072C199.318 265.072 200.875 265.371 202.219 265.968C203.584 266.544 204.715 267.376 205.611 268.464C206.528 269.531 207.222 270.821 207.691 272.336C208.16 273.851 208.395 275.525 208.395 277.36V298H202.667V277.36C202.667 274.907 202.102 273.008 200.971 271.664C199.862 270.299 198.166 269.616 195.883 269.616C194.198 269.616 192.619 270.021 191.147 270.832C189.696 271.643 188.352 272.741 187.115 274.128V298H181.387V265.584H184.811C185.622 265.584 186.123 265.979 186.315 266.768L186.763 270.288ZM222.963 250.864V298H217.266V250.864H222.963ZM238.216 265.584V298H232.52V265.584H238.216ZM239.432 255.408C239.432 255.963 239.314 256.485 239.08 256.976C238.866 257.445 238.568 257.872 238.184 258.256C237.821 258.619 237.384 258.907 236.872 259.12C236.381 259.333 235.858 259.44 235.304 259.44C234.749 259.44 234.226 259.333 233.736 259.12C233.266 258.907 232.85 258.619 232.488 258.256C232.125 257.872 231.837 257.445 231.624 256.976C231.41 256.485 231.304 255.963 231.304 255.408C231.304 254.853 231.41 254.331 231.624 253.84C231.837 253.328 232.125 252.891 232.488 252.528C232.85 252.144 233.266 251.845 233.736 251.632C234.226 251.419 234.749 251.312 235.304 251.312C235.858 251.312 236.381 251.419 236.872 251.632C237.384 251.845 237.821 252.144 238.184 252.528C238.568 252.891 238.866 253.328 239.08 253.84C239.314 254.331 239.432 254.853 239.432 255.408ZM252.951 270.288C253.655 269.499 254.401 268.784 255.191 268.144C255.98 267.504 256.812 266.96 257.687 266.512C258.583 266.043 259.521 265.691 260.503 265.456C261.505 265.2 262.583 265.072 263.735 265.072C265.505 265.072 267.063 265.371 268.407 265.968C269.772 266.544 270.903 267.376 271.799 268.464C272.716 269.531 273.409 270.821 273.879 272.336C274.348 273.851 274.583 275.525 274.583 277.36V298H268.855V277.36C268.855 274.907 268.289 273.008 267.159 271.664C266.049 270.299 264.353 269.616 262.071 269.616C260.385 269.616 258.807 270.021 257.335 270.832C255.884 271.643 254.54 272.741 253.303 274.128V298H247.575V265.584H250.999C251.809 265.584 252.311 265.979 252.503 266.768L252.951 270.288ZM304.958 278.256C304.958 276.933 304.766 275.728 304.382 274.64C304.019 273.531 303.475 272.581 302.75 271.792C302.046 270.981 301.182 270.363 300.158 269.936C299.134 269.488 297.971 269.264 296.67 269.264C293.939 269.264 291.774 270.064 290.174 271.664C288.595 273.243 287.614 275.44 287.23 278.256H304.958ZM309.566 293.456C308.862 294.309 308.019 295.056 307.038 295.696C306.057 296.315 305.001 296.827 303.87 297.232C302.761 297.637 301.609 297.936 300.414 298.128C299.219 298.341 298.035 298.448 296.862 298.448C294.622 298.448 292.553 298.075 290.654 297.328C288.777 296.56 287.145 295.451 285.758 294C284.393 292.528 283.326 290.715 282.558 288.56C281.79 286.405 281.406 283.931 281.406 281.136C281.406 278.875 281.747 276.763 282.43 274.8C283.134 272.837 284.137 271.141 285.438 269.712C286.739 268.261 288.329 267.131 290.206 266.32C292.083 265.488 294.195 265.072 296.542 265.072C298.483 265.072 300.275 265.403 301.918 266.064C303.582 266.704 305.011 267.643 306.206 268.88C307.422 270.096 308.371 271.611 309.054 273.424C309.737 275.216 310.078 277.264 310.078 279.568C310.078 280.464 309.982 281.061 309.79 281.36C309.598 281.659 309.235 281.808 308.702 281.808H287.038C287.102 283.856 287.379 285.637 287.87 287.152C288.382 288.667 289.086 289.936 289.982 290.96C290.878 291.963 291.945 292.72 293.182 293.232C294.419 293.723 295.806 293.968 297.342 293.968C298.771 293.968 299.998 293.808 301.022 293.488C302.067 293.147 302.963 292.784 303.71 292.4C304.457 292.016 305.075 291.664 305.566 291.344C306.078 291.003 306.515 290.832 306.878 290.832C307.347 290.832 307.71 291.013 307.966 291.376L309.566 293.456ZM352.33 270.928C352.074 271.397 351.679 271.632 351.146 271.632C350.826 271.632 350.463 271.515 350.058 271.28C349.652 271.045 349.151 270.789 348.554 270.512C347.978 270.213 347.284 269.947 346.474 269.712C345.663 269.456 344.703 269.328 343.594 269.328C342.634 269.328 341.77 269.456 341.002 269.712C340.234 269.947 339.572 270.277 339.018 270.704C338.484 271.131 338.068 271.632 337.77 272.208C337.492 272.763 337.354 273.371 337.354 274.032C337.354 274.864 337.588 275.557 338.058 276.112C338.548 276.667 339.188 277.147 339.978 277.552C340.767 277.957 341.663 278.32 342.666 278.64C343.668 278.939 344.692 279.269 345.738 279.632C346.804 279.973 347.839 280.357 348.842 280.784C349.844 281.211 350.74 281.744 351.53 282.384C352.319 283.024 352.948 283.813 353.418 284.752C353.908 285.669 354.154 286.779 354.154 288.08C354.154 289.573 353.887 290.96 353.354 292.24C352.82 293.499 352.031 294.597 350.986 295.536C349.94 296.453 348.66 297.179 347.146 297.712C345.631 298.245 343.882 298.512 341.898 298.512C339.636 298.512 337.588 298.149 335.754 297.424C333.919 296.677 332.362 295.728 331.082 294.576L332.426 292.4C332.596 292.123 332.799 291.909 333.034 291.76C333.268 291.611 333.567 291.536 333.93 291.536C334.314 291.536 334.719 291.685 335.146 291.984C335.572 292.283 336.084 292.613 336.682 292.976C337.3 293.339 338.047 293.669 338.922 293.968C339.796 294.267 340.884 294.416 342.186 294.416C343.295 294.416 344.266 294.277 345.097 294C345.93 293.701 346.623 293.307 347.178 292.816C347.732 292.325 348.138 291.76 348.394 291.12C348.671 290.48 348.81 289.797 348.81 289.072C348.81 288.176 348.564 287.44 348.074 286.864C347.604 286.267 346.975 285.765 346.186 285.36C345.396 284.933 344.49 284.571 343.466 284.272C342.463 283.952 341.428 283.621 340.362 283.28C339.316 282.939 338.282 282.555 337.258 282.128C336.255 281.68 335.359 281.125 334.57 280.464C333.78 279.803 333.14 278.992 332.65 278.032C332.18 277.051 331.946 275.867 331.946 274.48C331.946 273.243 332.202 272.059 332.714 270.928C333.226 269.776 333.972 268.773 334.954 267.92C335.935 267.045 337.14 266.352 338.57 265.84C339.999 265.328 341.631 265.072 343.466 265.072C345.599 265.072 347.508 265.413 349.194 266.096C350.9 266.757 352.372 267.675 353.61 268.848L352.33 270.928ZM371.089 298.512C368.529 298.512 366.556 297.797 365.169 296.368C363.804 294.939 363.121 292.88 363.121 290.192V270.352H359.217C358.876 270.352 358.588 270.256 358.353 270.064C358.118 269.851 358.001 269.531 358.001 269.104V266.832L363.313 266.16L364.625 256.144C364.689 255.824 364.828 255.568 365.041 255.376C365.276 255.163 365.574 255.056 365.937 255.056H368.817V266.224H378.193V270.352H368.817V289.808C368.817 291.173 369.148 292.187 369.809 292.848C370.47 293.509 371.324 293.84 372.369 293.84C372.966 293.84 373.478 293.765 373.905 293.616C374.353 293.445 374.737 293.264 375.057 293.072C375.377 292.88 375.644 292.709 375.857 292.56C376.092 292.389 376.294 292.304 376.465 292.304C376.764 292.304 377.03 292.485 377.265 292.848L378.929 295.568C377.948 296.485 376.764 297.211 375.377 297.744C373.99 298.256 372.561 298.512 371.089 298.512ZM412.043 265.584L393.963 307.568C393.771 307.995 393.525 308.336 393.227 308.592C392.949 308.848 392.512 308.976 391.915 308.976H387.691L393.611 296.112L380.235 265.584H385.163C385.653 265.584 386.037 265.712 386.315 265.968C386.613 266.203 386.816 266.469 386.923 266.768L395.595 287.184C395.936 288.08 396.224 289.019 396.458 290C396.757 288.997 397.077 288.048 397.419 287.152L405.835 266.768C405.963 266.427 406.176 266.149 406.475 265.936C406.795 265.701 407.147 265.584 407.531 265.584H412.043ZM422.963 250.864V298H417.266V250.864H422.963ZM453.896 278.256C453.896 276.933 453.704 275.728 453.32 274.64C452.957 273.531 452.413 272.581 451.688 271.792C450.984 270.981 450.12 270.363 449.096 269.936C448.072 269.488 446.909 269.264 445.608 269.264C442.877 269.264 440.712 270.064 439.112 271.664C437.533 273.243 436.552 275.44 436.168 278.256H453.896ZM458.504 293.456C457.8 294.309 456.957 295.056 455.976 295.696C454.994 296.315 453.938 296.827 452.808 297.232C451.698 297.637 450.546 297.936 449.352 298.128C448.157 298.341 446.973 298.448 445.8 298.448C443.56 298.448 441.49 298.075 439.592 297.328C437.714 296.56 436.082 295.451 434.696 294C433.33 292.528 432.264 290.715 431.496 288.56C430.728 286.405 430.344 283.931 430.344 281.136C430.344 278.875 430.685 276.763 431.368 274.8C432.072 272.837 433.074 271.141 434.376 269.712C435.677 268.261 437.266 267.131 439.144 266.32C441.021 265.488 443.133 265.072 445.48 265.072C447.421 265.072 449.213 265.403 450.856 266.064C452.52 266.704 453.949 267.643 455.144 268.88C456.36 270.096 457.309 271.611 457.992 273.424C458.674 275.216 459.016 277.264 459.016 279.568C459.016 280.464 458.92 281.061 458.728 281.36C458.536 281.659 458.173 281.808 457.64 281.808H435.976C436.04 283.856 436.317 285.637 436.808 287.152C437.32 288.667 438.024 289.936 438.92 290.96C439.816 291.963 440.882 292.72 442.12 293.232C443.357 293.723 444.744 293.968 446.28 293.968C447.709 293.968 448.936 293.808 449.96 293.488C451.005 293.147 451.901 292.784 452.648 292.4C453.394 292.016 454.013 291.664 454.504 291.344C455.016 291.003 455.453 290.832 455.816 290.832C456.285 290.832 456.648 291.013 456.904 291.376L458.504 293.456Z" fill="#2F4858"/>
<path d="M148.123 795.608V830H143.467V814.352H124.915V830H120.259V795.608H124.915V810.944H143.467V795.608H148.123ZM160.044 805.688V830H155.772V805.688H160.044ZM160.956 798.056C160.956 798.472 160.868 798.864 160.692 799.232C160.532 799.584 160.308 799.904 160.02 800.192C159.748 800.464 159.42 800.68 159.036 800.84C158.668 801 158.276 801.08 157.86 801.08C157.444 801.08 157.052 801 156.684 800.84C156.332 800.68 156.02 800.464 155.748 800.192C155.476 799.904 155.26 799.584 155.1 799.232C154.94 798.864 154.86 798.472 154.86 798.056C154.86 797.64 154.94 797.248 155.1 796.88C155.26 796.496 155.476 796.168 155.748 795.896C156.02 795.608 156.332 795.384 156.684 795.224C157.052 795.064 157.444 794.984 157.86 794.984C158.276 794.984 158.668 795.064 159.036 795.224C159.42 795.384 159.748 795.608 160.02 795.896C160.308 796.168 160.532 796.496 160.692 796.88C160.868 797.248 160.956 797.64 160.956 798.056ZM175.536 818.12C176.4 818.12 177.16 818 177.816 817.76C178.472 817.52 179.024 817.184 179.472 816.752C179.92 816.32 180.256 815.808 180.48 815.216C180.704 814.608 180.816 813.944 180.816 813.224C180.816 811.736 180.36 810.552 179.448 809.672C178.552 808.792 177.248 808.352 175.536 808.352C173.808 808.352 172.488 808.792 171.576 809.672C170.68 810.552 170.232 811.736 170.232 813.224C170.232 813.944 170.344 814.608 170.568 815.216C170.808 815.808 171.152 816.32 171.6 816.752C172.048 817.184 172.6 817.52 173.256 817.76C173.912 818 174.672 818.12 175.536 818.12ZM183.24 831.32C183.24 830.728 183.072 830.248 182.736 829.88C182.4 829.512 181.944 829.224 181.368 829.016C180.808 828.808 180.152 828.664 179.4 828.584C178.648 828.488 177.848 828.416 177 828.368C176.168 828.32 175.32 828.272 174.456 828.224C173.592 828.176 172.76 828.096 171.96 827.984C171.064 828.4 170.328 828.928 169.752 829.568C169.192 830.192 168.912 830.928 168.912 831.776C168.912 832.32 169.048 832.824 169.32 833.288C169.608 833.768 170.04 834.176 170.616 834.512C171.192 834.864 171.912 835.136 172.776 835.328C173.656 835.536 174.688 835.64 175.872 835.64C177.024 835.64 178.056 835.536 178.968 835.328C179.88 835.12 180.648 834.824 181.272 834.44C181.912 834.056 182.4 833.6 182.736 833.072C183.072 832.544 183.24 831.96 183.24 831.32ZM187.584 806.648V808.232C187.584 808.76 187.248 809.096 186.576 809.24L183.816 809.6C184.36 810.656 184.632 811.824 184.632 813.104C184.632 814.288 184.4 815.368 183.936 816.344C183.488 817.304 182.864 818.128 182.064 818.816C181.264 819.504 180.304 820.032 179.184 820.4C178.064 820.768 176.848 820.952 175.536 820.952C174.4 820.952 173.328 820.816 172.32 820.544C171.808 820.864 171.416 821.208 171.144 821.576C170.872 821.928 170.736 822.288 170.736 822.656C170.736 823.232 170.968 823.672 171.432 823.976C171.912 824.264 172.536 824.472 173.304 824.6C174.072 824.728 174.944 824.808 175.92 824.84C176.912 824.872 177.92 824.928 178.944 825.008C179.984 825.072 180.992 825.192 181.968 825.368C182.96 825.544 183.84 825.832 184.608 826.232C185.376 826.632 185.992 827.184 186.456 827.888C186.936 828.592 187.176 829.504 187.176 830.624C187.176 831.664 186.912 832.672 186.384 833.648C185.872 834.624 185.128 835.488 184.152 836.24C183.176 837.008 181.976 837.616 180.552 838.064C179.144 838.528 177.552 838.76 175.776 838.76C174 838.76 172.448 838.584 171.12 838.232C169.792 837.88 168.688 837.408 167.808 836.816C166.928 836.224 166.264 835.536 165.816 834.752C165.384 833.984 165.168 833.176 165.168 832.328C165.168 831.128 165.544 830.112 166.296 829.28C167.048 828.448 168.08 827.784 169.392 827.288C168.672 826.968 168.096 826.544 167.664 826.016C167.248 825.472 167.04 824.744 167.04 823.832C167.04 823.48 167.104 823.12 167.232 822.752C167.36 822.368 167.552 821.992 167.808 821.624C168.08 821.24 168.408 820.88 168.792 820.544C169.176 820.208 169.624 819.912 170.136 819.656C168.936 818.984 168 818.096 167.328 816.992C166.656 815.872 166.32 814.576 166.32 813.104C166.32 811.92 166.544 810.848 166.992 809.888C167.456 808.912 168.096 808.088 168.912 807.416C169.728 806.728 170.696 806.2 171.816 805.832C172.952 805.464 174.192 805.28 175.536 805.28C176.592 805.28 177.576 805.4 178.488 805.64C179.4 805.864 180.232 806.2 180.984 806.648H187.584ZM196.297 808.928C197.337 807.824 198.489 806.944 199.753 806.288C201.017 805.632 202.473 805.304 204.121 805.304C205.449 805.304 206.617 805.528 207.625 805.976C208.649 806.408 209.497 807.032 210.169 807.848C210.857 808.648 211.377 809.616 211.729 810.752C212.081 811.888 212.257 813.144 212.257 814.52V830H207.961V814.52C207.961 812.68 207.537 811.256 206.689 810.248C205.857 809.224 204.585 808.712 202.873 808.712C201.609 808.712 200.425 809.016 199.321 809.624C198.233 810.232 197.225 811.056 196.297 812.096V830H192.001V794.648H196.297V808.928ZM235.039 815.192C235.039 814.2 234.895 813.296 234.607 812.48C234.335 811.648 233.927 810.936 233.383 810.344C232.855 809.736 232.207 809.272 231.439 808.952C230.671 808.616 229.799 808.448 228.823 808.448C226.775 808.448 225.151 809.048 223.951 810.248C222.767 811.432 222.031 813.08 221.743 815.192H235.039ZM238.495 826.592C237.967 827.232 237.335 827.792 236.599 828.272C235.863 828.736 235.071 829.12 234.223 829.424C233.391 829.728 232.527 829.952 231.631 830.096C230.735 830.256 229.847 830.336 228.967 830.336C227.287 830.336 225.735 830.056 224.311 829.496C222.903 828.92 221.679 828.088 220.639 827C219.615 825.896 218.815 824.536 218.239 822.92C217.663 821.304 217.375 819.448 217.375 817.352C217.375 815.656 217.631 814.072 218.143 812.6C218.671 811.128 219.423 809.856 220.399 808.784C221.375 807.696 222.567 806.848 223.975 806.24C225.383 805.616 226.967 805.304 228.727 805.304C230.183 805.304 231.527 805.552 232.759 806.048C234.007 806.528 235.079 807.232 235.975 808.16C236.887 809.072 237.599 810.208 238.111 811.568C238.623 812.912 238.879 814.448 238.879 816.176C238.879 816.848 238.807 817.296 238.663 817.52C238.519 817.744 238.247 817.856 237.847 817.856H221.599C221.647 819.392 221.855 820.728 222.223 821.864C222.607 823 223.135 823.952 223.807 824.72C224.479 825.472 225.279 826.04 226.207 826.424C227.135 826.792 228.175 826.976 229.327 826.976C230.399 826.976 231.319 826.856 232.087 826.616C232.871 826.36 233.543 826.088 234.103 825.8C234.663 825.512 235.127 825.248 235.495 825.008C235.879 824.752 236.207 824.624 236.479 824.624C236.831 824.624 237.103 824.76 237.295 825.032L238.495 826.592ZM258.286 809.696C258.094 810.048 257.798 810.224 257.398 810.224C257.158 810.224 256.886 810.136 256.582 809.96C256.278 809.784 255.902 809.592 255.454 809.384C255.022 809.16 254.502 808.96 253.894 808.784C253.286 808.592 252.566 808.496 251.734 808.496C251.014 808.496 250.366 808.592 249.79 808.784C249.214 808.96 248.718 809.208 248.302 809.528C247.902 809.848 247.59 810.224 247.366 810.656C247.158 811.072 247.054 811.528 247.054 812.024C247.054 812.648 247.23 813.168 247.582 813.584C247.95 814 248.43 814.36 249.022 814.664C249.614 814.968 250.286 815.24 251.038 815.48C251.79 815.704 252.558 815.952 253.342 816.224C254.142 816.48 254.918 816.768 255.67 817.088C256.422 817.408 257.094 817.808 257.686 818.288C258.278 818.768 258.75 819.36 259.102 820.064C259.47 820.752 259.654 821.584 259.654 822.56C259.654 823.68 259.454 824.72 259.054 825.68C258.654 826.624 258.062 827.448 257.278 828.152C256.494 828.84 255.534 829.384 254.398 829.784C253.262 830.184 251.95 830.384 250.462 830.384C248.766 830.384 247.23 830.112 245.854 829.568C244.478 829.008 243.31 828.296 242.35 827.432L243.358 825.8C243.486 825.592 243.638 825.432 243.814 825.32C243.99 825.208 244.214 825.152 244.486 825.152C244.774 825.152 245.078 825.264 245.398 825.488C245.718 825.712 246.102 825.96 246.55 826.232C247.014 826.504 247.574 826.752 248.23 826.976C248.886 827.2 249.702 827.312 250.678 827.312C251.51 827.312 252.238 827.208 252.862 827C253.486 826.776 254.006 826.48 254.422 826.112C254.838 825.744 255.142 825.32 255.334 824.84C255.542 824.36 255.646 823.848 255.646 823.304C255.646 822.632 255.462 822.08 255.094 821.648C254.742 821.2 254.27 820.824 253.678 820.52C253.086 820.2 252.406 819.928 251.638 819.704C250.886 819.464 250.11 819.216 249.31 818.96C248.526 818.704 247.75 818.416 246.982 818.096C246.23 817.76 245.558 817.344 244.966 816.848C244.374 816.352 243.894 815.744 243.526 815.024C243.174 814.288 242.998 813.4 242.998 812.36C242.998 811.432 243.19 810.544 243.574 809.696C243.958 808.832 244.518 808.08 245.254 807.44C245.99 806.784 246.894 806.264 247.966 805.88C249.038 805.496 250.262 805.304 251.638 805.304C253.238 805.304 254.67 805.56 255.934 806.072C257.214 806.568 258.318 807.256 259.246 808.136L258.286 809.696ZM272.356 830.384C270.436 830.384 268.956 829.848 267.916 828.776C266.892 827.704 266.38 826.16 266.38 824.144V809.264H263.452C263.196 809.264 262.98 809.192 262.804 809.048C262.628 808.888 262.54 808.648 262.54 808.328V806.624L266.524 806.12L267.508 798.608C267.556 798.368 267.66 798.176 267.82 798.032C267.996 797.872 268.22 797.792 268.492 797.792H270.652V806.168H277.684V809.264H270.652V823.856C270.652 824.88 270.9 825.64 271.396 826.136C271.892 826.632 272.532 826.88 273.316 826.88C273.764 826.88 274.148 826.824 274.468 826.712C274.804 826.584 275.092 826.448 275.332 826.304C275.572 826.16 275.772 826.032 275.932 825.92C276.108 825.792 276.26 825.728 276.388 825.728C276.612 825.728 276.812 825.864 276.988 826.136L278.236 828.176C277.5 828.864 276.612 829.408 275.572 829.808C274.532 830.192 273.46 830.384 272.356 830.384ZM312.976 800.984C312.832 801.224 312.672 801.408 312.496 801.536C312.336 801.648 312.136 801.704 311.896 801.704C311.624 801.704 311.304 801.568 310.936 801.296C310.568 801.024 310.104 800.728 309.544 800.408C309 800.072 308.336 799.768 307.552 799.496C306.784 799.224 305.848 799.088 304.744 799.088C303.704 799.088 302.784 799.232 301.984 799.52C301.2 799.792 300.536 800.168 299.992 800.648C299.464 801.128 299.064 801.696 298.792 802.352C298.52 802.992 298.384 803.688 298.384 804.44C298.384 805.4 298.616 806.2 299.08 806.84C299.56 807.464 300.184 808 300.952 808.448C301.736 808.896 302.616 809.288 303.592 809.624C304.584 809.944 305.592 810.28 306.616 810.632C307.656 810.984 308.664 811.384 309.64 811.832C310.632 812.264 311.512 812.816 312.28 813.488C313.064 814.16 313.688 814.984 314.152 815.96C314.632 816.936 314.872 818.136 314.872 819.56C314.872 821.064 314.616 822.48 314.104 823.808C313.592 825.12 312.84 826.264 311.848 827.24C310.872 828.216 309.664 828.984 308.224 829.544C306.8 830.104 305.176 830.384 303.352 830.384C301.112 830.384 299.08 829.984 297.256 829.184C295.432 828.368 293.872 827.272 292.576 825.896L293.92 823.688C294.048 823.512 294.2 823.368 294.376 823.256C294.568 823.128 294.776 823.064 295 823.064C295.208 823.064 295.44 823.152 295.696 823.328C295.968 823.488 296.272 823.696 296.608 823.952C296.944 824.208 297.328 824.488 297.76 824.792C298.192 825.096 298.68 825.376 299.224 825.632C299.784 825.888 300.416 826.104 301.12 826.28C301.824 826.44 302.616 826.52 303.496 826.52C304.6 826.52 305.584 826.368 306.448 826.064C307.312 825.76 308.04 825.336 308.632 824.792C309.24 824.232 309.704 823.568 310.024 822.8C310.344 822.032 310.504 821.176 310.504 820.232C310.504 819.192 310.264 818.344 309.784 817.688C309.32 817.016 308.704 816.456 307.936 816.008C307.168 815.56 306.288 815.184 305.296 814.88C304.304 814.56 303.296 814.24 302.272 813.92C301.248 813.584 300.24 813.2 299.248 812.768C298.256 812.336 297.376 811.776 296.608 811.088C295.84 810.4 295.216 809.544 294.736 808.52C294.272 807.48 294.04 806.2 294.04 804.68C294.04 803.464 294.272 802.288 294.736 801.152C295.216 800.016 295.904 799.008 296.8 798.128C297.712 797.248 298.824 796.544 300.136 796.016C301.464 795.488 302.984 795.224 304.696 795.224C306.616 795.224 308.36 795.528 309.928 796.136C311.512 796.744 312.904 797.624 314.104 798.776L312.976 800.984ZM324.219 824.144C325.003 825.2 325.859 825.944 326.787 826.376C327.715 826.808 328.755 827.024 329.907 827.024C332.179 827.024 333.923 826.216 335.139 824.6C336.355 822.984 336.963 820.68 336.963 817.688C336.963 816.104 336.819 814.744 336.531 813.608C336.259 812.472 335.859 811.544 335.331 810.824C334.803 810.088 334.155 809.552 333.387 809.216C332.619 808.88 331.747 808.712 330.771 808.712C329.379 808.712 328.155 809.032 327.099 809.672C326.059 810.312 325.099 811.216 324.219 812.384V824.144ZM324.003 809.456C325.027 808.192 326.211 807.176 327.555 806.408C328.899 805.64 330.435 805.256 332.163 805.256C333.571 805.256 334.843 805.528 335.979 806.072C337.115 806.6 338.083 807.392 338.883 808.448C339.683 809.488 340.299 810.784 340.731 812.336C341.163 813.888 341.379 815.672 341.379 817.688C341.379 819.48 341.139 821.152 340.659 822.704C340.179 824.24 339.483 825.576 338.571 826.712C337.675 827.832 336.571 828.72 335.259 829.376C333.963 830.016 332.499 830.336 330.867 830.336C329.379 830.336 328.099 830.088 327.027 829.592C325.971 829.08 325.035 828.376 324.219 827.48V838.232H319.923V805.688H322.491C323.099 805.688 323.475 805.984 323.619 806.576L324.003 809.456ZM363.101 815.192C363.101 814.2 362.957 813.296 362.669 812.48C362.397 811.648 361.989 810.936 361.445 810.344C360.917 809.736 360.269 809.272 359.501 808.952C358.733 808.616 357.861 808.448 356.885 808.448C354.837 808.448 353.213 809.048 352.013 810.248C350.829 811.432 350.093 813.08 349.805 815.192H363.101ZM366.557 826.592C366.029 827.232 365.397 827.792 364.661 828.272C363.925 828.736 363.133 829.12 362.285 829.424C361.453 829.728 360.589 829.952 359.693 830.096C358.797 830.256 357.909 830.336 357.029 830.336C355.349 830.336 353.797 830.056 352.373 829.496C350.965 828.92 349.741 828.088 348.701 827C347.677 825.896 346.877 824.536 346.301 822.92C345.725 821.304 345.437 819.448 345.437 817.352C345.437 815.656 345.693 814.072 346.205 812.6C346.733 811.128 347.485 809.856 348.461 808.784C349.437 807.696 350.629 806.848 352.037 806.24C353.445 805.616 355.029 805.304 356.789 805.304C358.245 805.304 359.589 805.552 360.821 806.048C362.069 806.528 363.141 807.232 364.037 808.16C364.949 809.072 365.661 810.208 366.173 811.568C366.685 812.912 366.941 814.448 366.941 816.176C366.941 816.848 366.869 817.296 366.725 817.52C366.581 817.744 366.309 817.856 365.909 817.856H349.661C349.709 819.392 349.917 820.728 350.285 821.864C350.669 823 351.197 823.952 351.869 824.72C352.541 825.472 353.341 826.04 354.269 826.424C355.197 826.792 356.237 826.976 357.389 826.976C358.461 826.976 359.381 826.856 360.149 826.616C360.933 826.36 361.605 826.088 362.165 825.8C362.725 825.512 363.189 825.248 363.557 825.008C363.941 824.752 364.269 824.624 364.541 824.624C364.893 824.624 365.165 824.76 365.357 825.032L366.557 826.592ZM389.109 810.008C388.981 810.184 388.853 810.32 388.725 810.416C388.597 810.512 388.421 810.56 388.197 810.56C387.957 810.56 387.693 810.464 387.405 810.272C387.117 810.064 386.757 809.84 386.325 809.6C385.909 809.36 385.389 809.144 384.765 808.952C384.157 808.744 383.405 808.64 382.509 808.64C381.309 808.64 380.253 808.856 379.341 809.288C378.429 809.704 377.661 810.312 377.037 811.112C376.429 811.912 375.965 812.88 375.645 814.016C375.341 815.152 375.189 816.424 375.189 817.832C375.189 819.304 375.357 820.616 375.693 821.768C376.029 822.904 376.501 823.864 377.109 824.648C377.733 825.416 378.477 826.008 379.341 826.424C380.221 826.824 381.205 827.024 382.293 827.024C383.333 827.024 384.189 826.904 384.861 826.664C385.533 826.408 386.085 826.128 386.517 825.824C386.965 825.52 387.333 825.248 387.621 825.008C387.925 824.752 388.221 824.624 388.509 824.624C388.861 824.624 389.133 824.76 389.325 825.032L390.525 826.592C389.997 827.248 389.397 827.808 388.725 828.272C388.053 828.736 387.325 829.128 386.541 829.448C385.773 829.752 384.965 829.976 384.117 830.12C383.269 830.264 382.405 830.336 381.525 830.336C380.005 830.336 378.589 830.056 377.277 829.496C375.981 828.936 374.853 828.128 373.893 827.072C372.933 826 372.181 824.688 371.637 823.136C371.093 821.584 370.821 819.816 370.821 817.832C370.821 816.024 371.069 814.352 371.565 812.816C372.077 811.28 372.813 809.96 373.773 808.856C374.749 807.736 375.941 806.864 377.349 806.24C378.773 805.616 380.405 805.304 382.245 805.304C383.957 805.304 385.461 805.584 386.757 806.144C388.069 806.688 389.229 807.464 390.237 808.472L389.109 810.008ZM399.623 805.688V830H395.351V805.688H399.623ZM400.535 798.056C400.535 798.472 400.447 798.864 400.271 799.232C400.111 799.584 399.887 799.904 399.599 800.192C399.327 800.464 398.999 800.68 398.615 800.84C398.247 801 397.855 801.08 397.439 801.08C397.023 801.08 396.631 801 396.263 800.84C395.911 800.68 395.599 800.464 395.327 800.192C395.055 799.904 394.839 799.584 394.679 799.232C394.519 798.864 394.439 798.472 394.439 798.056C394.439 797.64 394.519 797.248 394.679 796.88C394.839 796.496 395.055 796.168 395.327 795.896C395.599 795.608 395.911 795.384 396.263 795.224C396.631 795.064 397.023 794.984 397.439 794.984C397.855 794.984 398.247 795.064 398.615 795.224C398.999 795.384 399.327 795.608 399.599 795.896C399.887 796.168 400.111 796.496 400.271 796.88C400.447 797.248 400.535 797.64 400.535 798.056ZM408.274 830V809.336L405.586 809.024C405.234 808.944 404.954 808.824 404.746 808.664C404.538 808.488 404.434 808.24 404.434 807.92V806.168H408.274V804.824C408.274 803.336 408.506 801.976 408.97 800.744C409.434 799.496 410.13 798.424 411.058 797.528C411.986 796.632 413.138 795.936 414.514 795.44C415.906 794.944 417.514 794.696 419.338 794.696C419.946 794.696 420.57 794.736 421.21 794.816C421.85 794.896 422.402 795.016 422.866 795.176L422.698 797.408C422.682 797.568 422.618 797.68 422.506 797.744C422.41 797.808 422.274 797.848 422.098 797.864C421.922 797.88 421.698 797.888 421.426 797.888C421.17 797.872 420.874 797.864 420.538 797.864C417.69 797.864 415.626 798.456 414.346 799.64C413.066 800.808 412.426 802.576 412.426 804.944V806.168H427.114V830H422.818V809.264H412.546V830H408.274ZM451.031 810.008C450.903 810.184 450.775 810.32 450.647 810.416C450.519 810.512 450.343 810.56 450.119 810.56C449.879 810.56 449.615 810.464 449.327 810.272C449.039 810.064 448.679 809.84 448.247 809.6C447.831 809.36 447.311 809.144 446.687 808.952C446.079 808.744 445.327 808.64 444.431 808.64C443.231 808.64 442.175 808.856 441.263 809.288C440.351 809.704 439.583 810.312 438.959 811.112C438.351 811.912 437.887 812.88 437.567 814.016C437.263 815.152 437.111 816.424 437.111 817.832C437.111 819.304 437.279 820.616 437.615 821.768C437.951 822.904 438.423 823.864 439.031 824.648C439.655 825.416 440.399 826.008 441.263 826.424C442.143 826.824 443.127 827.024 444.215 827.024C445.255 827.024 446.111 826.904 446.783 826.664C447.455 826.408 448.007 826.128 448.439 825.824C448.887 825.52 449.255 825.248 449.543 825.008C449.847 824.752 450.143 824.624 450.431 824.624C450.783 824.624 451.055 824.76 451.247 825.032L452.447 826.592C451.919 827.248 451.319 827.808 450.647 828.272C449.975 828.736 449.247 829.128 448.463 829.448C447.695 829.752 446.887 829.976 446.039 830.12C445.191 830.264 444.327 830.336 443.447 830.336C441.927 830.336 440.511 830.056 439.199 829.496C437.903 828.936 436.775 828.128 435.815 827.072C434.855 826 434.103 824.688 433.559 823.136C433.015 821.584 432.743 819.816 432.743 817.832C432.743 816.024 432.991 814.352 433.487 812.816C433.999 811.28 434.735 809.96 435.695 808.856C436.671 807.736 437.863 806.864 439.271 806.24C440.695 805.616 442.327 805.304 444.167 805.304C445.879 805.304 447.383 805.584 448.679 806.144C449.991 806.688 451.151 807.464 452.159 808.472L451.031 810.008ZM461.544 805.688V830H457.272V805.688H461.544ZM462.456 798.056C462.456 798.472 462.368 798.864 462.192 799.232C462.032 799.584 461.808 799.904 461.52 800.192C461.248 800.464 460.92 800.68 460.536 800.84C460.168 801 459.776 801.08 459.36 801.08C458.944 801.08 458.552 801 458.184 800.84C457.832 800.68 457.52 800.464 457.248 800.192C456.976 799.904 456.76 799.584 456.6 799.232C456.44 798.864 456.36 798.472 456.36 798.056C456.36 797.64 456.44 797.248 456.6 796.88C456.76 796.496 456.976 796.168 457.248 795.896C457.52 795.608 457.832 795.384 458.184 795.224C458.552 795.064 458.944 794.984 459.36 794.984C459.776 794.984 460.168 795.064 460.536 795.224C460.92 795.384 461.248 795.608 461.52 795.896C461.808 796.168 462.032 796.496 462.192 796.88C462.368 797.248 462.456 797.64 462.456 798.056ZM476.028 830.384C474.108 830.384 472.628 829.848 471.588 828.776C470.564 827.704 470.052 826.16 470.052 824.144V809.264H467.124C466.868 809.264 466.652 809.192 466.476 809.048C466.3 808.888 466.212 808.648 466.212 808.328V806.624L470.196 806.12L471.18 798.608C471.228 798.368 471.332 798.176 471.492 798.032C471.668 797.872 471.892 797.792 472.164 797.792H474.324V806.168H481.356V809.264H474.324V823.856C474.324 824.88 474.572 825.64 475.068 826.136C475.564 826.632 476.204 826.88 476.988 826.88C477.436 826.88 477.82 826.824 478.14 826.712C478.476 826.584 478.764 826.448 479.004 826.304C479.244 826.16 479.444 826.032 479.604 825.92C479.78 825.792 479.932 825.728 480.06 825.728C480.284 825.728 480.484 825.864 480.66 826.136L481.908 828.176C481.172 828.864 480.284 829.408 479.244 829.808C478.204 830.192 477.132 830.384 476.028 830.384ZM506.743 805.688L493.183 837.176C493.039 837.496 492.855 837.752 492.631 837.944C492.423 838.136 492.095 838.232 491.647 838.232H488.479L492.919 828.584L482.887 805.688H486.583C486.951 805.688 487.239 805.784 487.447 805.976C487.671 806.152 487.823 806.352 487.903 806.576L494.407 821.888C494.663 822.56 494.879 823.264 495.055 824C495.279 823.248 495.519 822.536 495.775 821.864L502.087 806.576C502.183 806.32 502.343 806.112 502.567 805.952C502.807 805.776 503.071 805.688 503.359 805.688H506.743Z" fill="#2F4858"/>
<path d="M1441.96 826.088V830H1422.45V795.608H1427.08V826.088H1441.96ZM1454.61 805.304C1456.38 805.304 1457.98 805.6 1459.41 806.192C1460.83 806.784 1462.05 807.624 1463.06 808.712C1464.06 809.8 1464.83 811.12 1465.36 812.672C1465.9 814.208 1466.18 815.928 1466.18 817.832C1466.18 819.752 1465.9 821.48 1465.36 823.016C1464.83 824.552 1464.06 825.864 1463.06 826.952C1462.05 828.04 1460.83 828.88 1459.41 829.472C1457.98 830.048 1456.38 830.336 1454.61 830.336C1452.82 830.336 1451.2 830.048 1449.76 829.472C1448.34 828.88 1447.12 828.04 1446.11 826.952C1445.1 825.864 1444.33 824.552 1443.78 823.016C1443.26 821.48 1442.99 819.752 1442.99 817.832C1442.99 815.928 1443.26 814.208 1443.78 812.672C1444.33 811.12 1445.1 809.8 1446.11 808.712C1447.12 807.624 1448.34 806.784 1449.76 806.192C1451.2 805.6 1452.82 805.304 1454.61 805.304ZM1454.61 827C1457.01 827 1458.8 826.2 1459.98 824.6C1461.17 822.984 1461.76 820.736 1461.76 817.856C1461.76 814.96 1461.17 812.704 1459.98 811.088C1458.8 809.472 1457.01 808.664 1454.61 808.664C1453.39 808.664 1452.33 808.872 1451.42 809.288C1450.52 809.704 1449.77 810.304 1449.16 811.088C1448.57 811.872 1448.12 812.84 1447.82 813.992C1447.53 815.128 1447.38 816.416 1447.38 817.856C1447.38 820.736 1447.98 822.984 1449.16 824.6C1450.36 826.2 1452.18 827 1454.61 827ZM1504.75 805.688L1496.88 830H1493.49C1493.08 830 1492.79 829.728 1492.63 829.184L1487.25 812.696C1487.12 812.328 1487.02 811.96 1486.94 811.592C1486.86 811.208 1486.78 810.832 1486.7 810.464C1486.62 810.832 1486.54 811.208 1486.46 811.592C1486.38 811.96 1486.28 812.336 1486.15 812.72L1480.68 829.184C1480.53 829.728 1480.21 830 1479.72 830H1476.5L1468.63 805.688H1471.99C1472.32 805.688 1472.6 805.776 1472.83 805.952C1473.07 806.128 1473.23 806.336 1473.31 806.576L1477.96 822.224C1478.24 823.376 1478.45 824.464 1478.61 825.488C1478.76 824.96 1478.9 824.424 1479.04 823.88C1479.2 823.336 1479.37 822.784 1479.55 822.224L1484.68 806.48C1484.76 806.24 1484.9 806.04 1485.09 805.88C1485.3 805.72 1485.55 805.64 1485.84 805.64H1487.71C1488.03 805.64 1488.29 805.72 1488.5 805.88C1488.71 806.04 1488.85 806.24 1488.93 806.48L1493.95 822.224C1494.12 822.784 1494.28 823.336 1494.43 823.88C1494.57 824.424 1494.71 824.96 1494.84 825.488C1494.92 824.96 1495.01 824.432 1495.12 823.904C1495.25 823.36 1495.39 822.8 1495.53 822.224L1500.28 806.576C1500.36 806.32 1500.52 806.112 1500.74 805.952C1500.96 805.776 1501.23 805.688 1501.53 805.688H1504.75ZM1524.85 815.192C1524.85 814.2 1524.71 813.296 1524.42 812.48C1524.15 811.648 1523.74 810.936 1523.2 810.344C1522.67 809.736 1522.02 809.272 1521.25 808.952C1520.48 808.616 1519.61 808.448 1518.64 808.448C1516.59 808.448 1514.96 809.048 1513.76 810.248C1512.58 811.432 1511.84 813.08 1511.56 815.192H1524.85ZM1528.31 826.592C1527.78 827.232 1527.15 827.792 1526.41 828.272C1525.68 828.736 1524.88 829.12 1524.04 829.424C1523.2 829.728 1522.34 829.952 1521.44 830.096C1520.55 830.256 1519.66 830.336 1518.78 830.336C1517.1 830.336 1515.55 830.056 1514.12 829.496C1512.72 828.92 1511.49 828.088 1510.45 827C1509.43 825.896 1508.63 824.536 1508.05 822.92C1507.48 821.304 1507.19 819.448 1507.19 817.352C1507.19 815.656 1507.44 814.072 1507.96 812.6C1508.48 811.128 1509.24 809.856 1510.21 808.784C1511.19 807.696 1512.38 806.848 1513.79 806.24C1515.2 805.616 1516.78 805.304 1518.54 805.304C1520 805.304 1521.34 805.552 1522.57 806.048C1523.82 806.528 1524.89 807.232 1525.79 808.16C1526.7 809.072 1527.41 810.208 1527.92 811.568C1528.44 812.912 1528.69 814.448 1528.69 816.176C1528.69 816.848 1528.62 817.296 1528.48 817.52C1528.33 817.744 1528.06 817.856 1527.66 817.856H1511.41C1511.46 819.392 1511.67 820.728 1512.04 821.864C1512.42 823 1512.95 823.952 1513.62 824.72C1514.29 825.472 1515.09 826.04 1516.02 826.424C1516.95 826.792 1517.99 826.976 1519.14 826.976C1520.21 826.976 1521.13 826.856 1521.9 826.616C1522.68 826.36 1523.36 826.088 1523.92 825.8C1524.48 825.512 1524.94 825.248 1525.31 825.008C1525.69 824.752 1526.02 824.624 1526.29 824.624C1526.64 824.624 1526.92 824.76 1527.11 825.032L1528.31 826.592ZM1548.1 809.696C1547.91 810.048 1547.61 810.224 1547.21 810.224C1546.97 810.224 1546.7 810.136 1546.39 809.96C1546.09 809.784 1545.71 809.592 1545.27 809.384C1544.83 809.16 1544.31 808.96 1543.71 808.784C1543.1 808.592 1542.38 808.496 1541.55 808.496C1540.83 808.496 1540.18 808.592 1539.6 808.784C1539.03 808.96 1538.53 809.208 1538.11 809.528C1537.71 809.848 1537.4 810.224 1537.18 810.656C1536.97 811.072 1536.87 811.528 1536.87 812.024C1536.87 812.648 1537.04 813.168 1537.39 813.584C1537.76 814 1538.24 814.36 1538.83 814.664C1539.43 814.968 1540.1 815.24 1540.85 815.48C1541.6 815.704 1542.37 815.952 1543.15 816.224C1543.95 816.48 1544.73 816.768 1545.48 817.088C1546.23 817.408 1546.91 817.808 1547.5 818.288C1548.09 818.768 1548.56 819.36 1548.91 820.064C1549.28 820.752 1549.47 821.584 1549.47 822.56C1549.47 823.68 1549.27 824.72 1548.87 825.68C1548.47 826.624 1547.87 827.448 1547.09 828.152C1546.31 828.84 1545.35 829.384 1544.21 829.784C1543.07 830.184 1541.76 830.384 1540.27 830.384C1538.58 830.384 1537.04 830.112 1535.67 829.568C1534.29 829.008 1533.12 828.296 1532.16 827.432L1533.17 825.8C1533.3 825.592 1533.45 825.432 1533.63 825.32C1533.8 825.208 1534.03 825.152 1534.3 825.152C1534.59 825.152 1534.89 825.264 1535.21 825.488C1535.53 825.712 1535.91 825.96 1536.36 826.232C1536.83 826.504 1537.39 826.752 1538.04 826.976C1538.7 827.2 1539.51 827.312 1540.49 827.312C1541.32 827.312 1542.05 827.208 1542.67 827C1543.3 826.776 1543.82 826.48 1544.23 826.112C1544.65 825.744 1544.95 825.32 1545.15 824.84C1545.35 824.36 1545.46 823.848 1545.46 823.304C1545.46 822.632 1545.27 822.08 1544.91 821.648C1544.55 821.2 1544.08 820.824 1543.49 820.52C1542.9 820.2 1542.22 819.928 1541.45 819.704C1540.7 819.464 1539.92 819.216 1539.12 818.96C1538.34 818.704 1537.56 818.416 1536.79 818.096C1536.04 817.76 1535.37 817.344 1534.78 816.848C1534.19 816.352 1533.71 815.744 1533.34 815.024C1532.99 814.288 1532.81 813.4 1532.81 812.36C1532.81 811.432 1533 810.544 1533.39 809.696C1533.77 808.832 1534.33 808.08 1535.07 807.44C1535.8 806.784 1536.71 806.264 1537.78 805.88C1538.85 805.496 1540.07 805.304 1541.45 805.304C1543.05 805.304 1544.48 805.56 1545.75 806.072C1547.03 806.568 1548.13 807.256 1549.06 808.136L1548.1 809.696ZM1562.17 830.384C1560.25 830.384 1558.77 829.848 1557.73 828.776C1556.7 827.704 1556.19 826.16 1556.19 824.144V809.264H1553.26C1553.01 809.264 1552.79 809.192 1552.62 809.048C1552.44 808.888 1552.35 808.648 1552.35 808.328V806.624L1556.34 806.12L1557.32 798.608C1557.37 798.368 1557.47 798.176 1557.63 798.032C1557.81 797.872 1558.03 797.792 1558.3 797.792H1560.46V806.168H1567.5V809.264H1560.46V823.856C1560.46 824.88 1560.71 825.64 1561.21 826.136C1561.7 826.632 1562.34 826.88 1563.13 826.88C1563.58 826.88 1563.96 826.824 1564.28 826.712C1564.62 826.584 1564.9 826.448 1565.14 826.304C1565.38 826.16 1565.58 826.032 1565.74 825.92C1565.92 825.792 1566.07 825.728 1566.2 825.728C1566.42 825.728 1566.62 825.864 1566.8 826.136L1568.05 828.176C1567.31 828.864 1566.42 829.408 1565.38 829.808C1564.34 830.192 1563.27 830.384 1562.17 830.384ZM1602.79 800.984C1602.64 801.224 1602.48 801.408 1602.31 801.536C1602.15 801.648 1601.95 801.704 1601.71 801.704C1601.44 801.704 1601.12 801.568 1600.75 801.296C1600.38 801.024 1599.92 800.728 1599.36 800.408C1598.81 800.072 1598.15 799.768 1597.36 799.496C1596.6 799.224 1595.66 799.088 1594.56 799.088C1593.52 799.088 1592.6 799.232 1591.8 799.52C1591.01 799.792 1590.35 800.168 1589.8 800.648C1589.28 801.128 1588.88 801.696 1588.6 802.352C1588.33 802.992 1588.2 803.688 1588.2 804.44C1588.2 805.4 1588.43 806.2 1588.89 806.84C1589.37 807.464 1590 808 1590.76 808.448C1591.55 808.896 1592.43 809.288 1593.4 809.624C1594.4 809.944 1595.4 810.28 1596.43 810.632C1597.47 810.984 1598.48 811.384 1599.45 811.832C1600.44 812.264 1601.32 812.816 1602.09 813.488C1602.88 814.16 1603.5 814.984 1603.96 815.96C1604.44 816.936 1604.68 818.136 1604.68 819.56C1604.68 821.064 1604.43 822.48 1603.92 823.808C1603.4 825.12 1602.65 826.264 1601.66 827.24C1600.68 828.216 1599.48 828.984 1598.04 829.544C1596.61 830.104 1594.99 830.384 1593.16 830.384C1590.92 830.384 1588.89 829.984 1587.07 829.184C1585.24 828.368 1583.68 827.272 1582.39 825.896L1583.73 823.688C1583.86 823.512 1584.01 823.368 1584.19 823.256C1584.38 823.128 1584.59 823.064 1584.81 823.064C1585.02 823.064 1585.25 823.152 1585.51 823.328C1585.78 823.488 1586.08 823.696 1586.42 823.952C1586.76 824.208 1587.14 824.488 1587.57 824.792C1588 825.096 1588.49 825.376 1589.04 825.632C1589.6 825.888 1590.23 826.104 1590.93 826.28C1591.64 826.44 1592.43 826.52 1593.31 826.52C1594.41 826.52 1595.4 826.368 1596.26 826.064C1597.12 825.76 1597.85 825.336 1598.44 824.792C1599.05 824.232 1599.52 823.568 1599.84 822.8C1600.16 822.032 1600.32 821.176 1600.32 820.232C1600.32 819.192 1600.08 818.344 1599.6 817.688C1599.13 817.016 1598.52 816.456 1597.75 816.008C1596.98 815.56 1596.1 815.184 1595.11 814.88C1594.12 814.56 1593.11 814.24 1592.08 813.92C1591.06 813.584 1590.05 813.2 1589.06 812.768C1588.07 812.336 1587.19 811.776 1586.42 811.088C1585.65 810.4 1585.03 809.544 1584.55 808.52C1584.08 807.48 1583.85 806.2 1583.85 804.68C1583.85 803.464 1584.08 802.288 1584.55 801.152C1585.03 800.016 1585.72 799.008 1586.61 798.128C1587.52 797.248 1588.64 796.544 1589.95 796.016C1591.28 795.488 1592.8 795.224 1594.51 795.224C1596.43 795.224 1598.17 795.528 1599.74 796.136C1601.32 796.744 1602.72 797.624 1603.92 798.776L1602.79 800.984ZM1614.03 824.144C1614.82 825.2 1615.67 825.944 1616.6 826.376C1617.53 826.808 1618.57 827.024 1619.72 827.024C1621.99 827.024 1623.74 826.216 1624.95 824.6C1626.17 822.984 1626.78 820.68 1626.78 817.688C1626.78 816.104 1626.63 814.744 1626.34 813.608C1626.07 812.472 1625.67 811.544 1625.14 810.824C1624.62 810.088 1623.97 809.552 1623.2 809.216C1622.43 808.88 1621.56 808.712 1620.58 808.712C1619.19 808.712 1617.97 809.032 1616.91 809.672C1615.87 810.312 1614.91 811.216 1614.03 812.384V824.144ZM1613.82 809.456C1614.84 808.192 1616.02 807.176 1617.37 806.408C1618.71 805.64 1620.25 805.256 1621.98 805.256C1623.38 805.256 1624.66 805.528 1625.79 806.072C1626.93 806.6 1627.9 807.392 1628.7 808.448C1629.5 809.488 1630.11 810.784 1630.54 812.336C1630.98 813.888 1631.19 815.672 1631.19 817.688C1631.19 819.48 1630.95 821.152 1630.47 822.704C1629.99 824.24 1629.3 825.576 1628.38 826.712C1627.49 827.832 1626.38 828.72 1625.07 829.376C1623.78 830.016 1622.31 830.336 1620.68 830.336C1619.19 830.336 1617.91 830.088 1616.84 829.592C1615.78 829.08 1614.85 828.376 1614.03 827.48V838.232H1609.74V805.688H1612.3C1612.91 805.688 1613.29 805.984 1613.43 806.576L1613.82 809.456ZM1652.91 815.192C1652.91 814.2 1652.77 813.296 1652.48 812.48C1652.21 811.648 1651.8 810.936 1651.26 810.344C1650.73 809.736 1650.08 809.272 1649.31 808.952C1648.55 808.616 1647.67 808.448 1646.7 808.448C1644.65 808.448 1643.03 809.048 1641.83 810.248C1640.64 811.432 1639.91 813.08 1639.62 815.192H1652.91ZM1656.37 826.592C1655.84 827.232 1655.21 827.792 1654.47 828.272C1653.74 828.736 1652.95 829.12 1652.1 829.424C1651.27 829.728 1650.4 829.952 1649.51 830.096C1648.61 830.256 1647.72 830.336 1646.84 830.336C1645.16 830.336 1643.61 830.056 1642.19 829.496C1640.78 828.92 1639.55 828.088 1638.51 827C1637.49 825.896 1636.69 824.536 1636.11 822.92C1635.54 821.304 1635.25 819.448 1635.25 817.352C1635.25 815.656 1635.51 814.072 1636.02 812.6C1636.55 811.128 1637.3 809.856 1638.27 808.784C1639.25 807.696 1640.44 806.848 1641.85 806.24C1643.26 805.616 1644.84 805.304 1646.6 805.304C1648.06 805.304 1649.4 805.552 1650.63 806.048C1651.88 806.528 1652.95 807.232 1653.85 808.16C1654.76 809.072 1655.47 810.208 1655.99 811.568C1656.5 812.912 1656.75 814.448 1656.75 816.176C1656.75 816.848 1656.68 817.296 1656.54 817.52C1656.39 817.744 1656.12 817.856 1655.72 817.856H1639.47C1639.52 819.392 1639.73 820.728 1640.1 821.864C1640.48 823 1641.01 823.952 1641.68 824.72C1642.35 825.472 1643.15 826.04 1644.08 826.424C1645.01 826.792 1646.05 826.976 1647.2 826.976C1648.27 826.976 1649.19 826.856 1649.96 826.616C1650.75 826.36 1651.42 826.088 1651.98 825.8C1652.54 825.512 1653 825.248 1653.37 825.008C1653.75 824.752 1654.08 824.624 1654.35 824.624C1654.71 824.624 1654.98 824.76 1655.17 825.032L1656.37 826.592ZM1678.92 810.008C1678.79 810.184 1678.67 810.32 1678.54 810.416C1678.41 810.512 1678.23 810.56 1678.01 810.56C1677.77 810.56 1677.51 810.464 1677.22 810.272C1676.93 810.064 1676.57 809.84 1676.14 809.6C1675.72 809.36 1675.2 809.144 1674.58 808.952C1673.97 808.744 1673.22 808.64 1672.32 808.64C1671.12 808.64 1670.07 808.856 1669.15 809.288C1668.24 809.704 1667.47 810.312 1666.85 811.112C1666.24 811.912 1665.78 812.88 1665.46 814.016C1665.15 815.152 1665 816.424 1665 817.832C1665 819.304 1665.17 820.616 1665.51 821.768C1665.84 822.904 1666.31 823.864 1666.92 824.648C1667.55 825.416 1668.29 826.008 1669.15 826.424C1670.03 826.824 1671.02 827.024 1672.11 827.024C1673.15 827.024 1674 826.904 1674.67 826.664C1675.35 826.408 1675.9 826.128 1676.33 825.824C1676.78 825.52 1677.15 825.248 1677.43 825.008C1677.74 824.752 1678.03 824.624 1678.32 824.624C1678.67 824.624 1678.95 824.76 1679.14 825.032L1680.34 826.592C1679.81 827.248 1679.21 827.808 1678.54 828.272C1677.87 828.736 1677.14 829.128 1676.35 829.448C1675.59 829.752 1674.78 829.976 1673.93 830.12C1673.08 830.264 1672.22 830.336 1671.34 830.336C1669.82 830.336 1668.4 830.056 1667.09 829.496C1665.79 828.936 1664.67 828.128 1663.71 827.072C1662.75 826 1661.99 824.688 1661.45 823.136C1660.91 821.584 1660.63 819.816 1660.63 817.832C1660.63 816.024 1660.88 814.352 1661.38 812.816C1661.89 811.28 1662.63 809.96 1663.59 808.856C1664.56 807.736 1665.75 806.864 1667.16 806.24C1668.59 805.616 1670.22 805.304 1672.06 805.304C1673.77 805.304 1675.27 805.584 1676.57 806.144C1677.88 806.688 1679.04 807.464 1680.05 808.472L1678.92 810.008ZM1689.44 805.688V830H1685.16V805.688H1689.44ZM1690.35 798.056C1690.35 798.472 1690.26 798.864 1690.08 799.232C1689.92 799.584 1689.7 799.904 1689.41 800.192C1689.14 800.464 1688.81 800.68 1688.43 800.84C1688.06 801 1687.67 801.08 1687.25 801.08C1686.84 801.08 1686.44 801 1686.08 800.84C1685.72 800.68 1685.41 800.464 1685.14 800.192C1684.87 799.904 1684.65 799.584 1684.49 799.232C1684.33 798.864 1684.25 798.472 1684.25 798.056C1684.25 797.64 1684.33 797.248 1684.49 796.88C1684.65 796.496 1684.87 796.168 1685.14 795.896C1685.41 795.608 1685.72 795.384 1686.08 795.224C1686.44 795.064 1686.84 794.984 1687.25 794.984C1687.67 794.984 1688.06 795.064 1688.43 795.224C1688.81 795.384 1689.14 795.608 1689.41 795.896C1689.7 796.168 1689.92 796.496 1690.08 796.88C1690.26 797.248 1690.35 797.64 1690.35 798.056ZM1698.09 830V809.336L1695.4 809.024C1695.05 808.944 1694.77 808.824 1694.56 808.664C1694.35 808.488 1694.25 808.24 1694.25 807.92V806.168H1698.09V804.824C1698.09 803.336 1698.32 801.976 1698.78 800.744C1699.25 799.496 1699.94 798.424 1700.87 797.528C1701.8 796.632 1702.95 795.936 1704.33 795.44C1705.72 794.944 1707.33 794.696 1709.15 794.696C1709.76 794.696 1710.38 794.736 1711.02 794.816C1711.66 794.896 1712.21 795.016 1712.68 795.176L1712.51 797.408C1712.49 797.568 1712.43 797.68 1712.32 797.744C1712.22 797.808 1712.09 797.848 1711.91 797.864C1711.73 797.88 1711.51 797.888 1711.24 797.888C1710.98 797.872 1710.69 797.864 1710.35 797.864C1707.5 797.864 1705.44 798.456 1704.16 799.64C1702.88 800.808 1702.24 802.576 1702.24 804.944V806.168H1716.93V830H1712.63V809.264H1702.36V830H1698.09ZM1740.84 810.008C1740.72 810.184 1740.59 810.32 1740.46 810.416C1740.33 810.512 1740.16 810.56 1739.93 810.56C1739.69 810.56 1739.43 810.464 1739.14 810.272C1738.85 810.064 1738.49 809.84 1738.06 809.6C1737.64 809.36 1737.12 809.144 1736.5 808.952C1735.89 808.744 1735.14 808.64 1734.24 808.64C1733.04 808.64 1731.99 808.856 1731.08 809.288C1730.16 809.704 1729.4 810.312 1728.77 811.112C1728.16 811.912 1727.7 812.88 1727.38 814.016C1727.08 815.152 1726.92 816.424 1726.92 817.832C1726.92 819.304 1727.09 820.616 1727.43 821.768C1727.76 822.904 1728.24 823.864 1728.84 824.648C1729.47 825.416 1730.21 826.008 1731.08 826.424C1731.96 826.824 1732.94 827.024 1734.03 827.024C1735.07 827.024 1735.92 826.904 1736.6 826.664C1737.27 826.408 1737.82 826.128 1738.25 825.824C1738.7 825.52 1739.07 825.248 1739.36 825.008C1739.66 824.752 1739.96 824.624 1740.24 824.624C1740.6 824.624 1740.87 824.76 1741.06 825.032L1742.26 826.592C1741.73 827.248 1741.13 827.808 1740.46 828.272C1739.79 828.736 1739.06 829.128 1738.28 829.448C1737.51 829.752 1736.7 829.976 1735.85 830.12C1735 830.264 1734.14 830.336 1733.26 830.336C1731.74 830.336 1730.32 830.056 1729.01 829.496C1727.72 828.936 1726.59 828.128 1725.63 827.072C1724.67 826 1723.92 824.688 1723.37 823.136C1722.83 821.584 1722.56 819.816 1722.56 817.832C1722.56 816.024 1722.8 814.352 1723.3 812.816C1723.81 811.28 1724.55 809.96 1725.51 808.856C1726.48 807.736 1727.68 806.864 1729.08 806.24C1730.51 805.616 1732.14 805.304 1733.98 805.304C1735.69 805.304 1737.2 805.584 1738.49 806.144C1739.8 806.688 1740.96 807.464 1741.97 808.472L1740.84 810.008ZM1751.36 805.688V830H1747.08V805.688H1751.36ZM1752.27 798.056C1752.27 798.472 1752.18 798.864 1752 799.232C1751.84 799.584 1751.62 799.904 1751.33 800.192C1751.06 800.464 1750.73 800.68 1750.35 800.84C1749.98 801 1749.59 801.08 1749.17 801.08C1748.76 801.08 1748.36 801 1748 800.84C1747.64 800.68 1747.33 800.464 1747.06 800.192C1746.79 799.904 1746.57 799.584 1746.41 799.232C1746.25 798.864 1746.17 798.472 1746.17 798.056C1746.17 797.64 1746.25 797.248 1746.41 796.88C1746.57 796.496 1746.79 796.168 1747.06 795.896C1747.33 795.608 1747.64 795.384 1748 795.224C1748.36 795.064 1748.76 794.984 1749.17 794.984C1749.59 794.984 1749.98 795.064 1750.35 795.224C1750.73 795.384 1751.06 795.608 1751.33 795.896C1751.62 796.168 1751.84 796.496 1752 796.88C1752.18 797.248 1752.27 797.64 1752.27 798.056ZM1765.84 830.384C1763.92 830.384 1762.44 829.848 1761.4 828.776C1760.38 827.704 1759.86 826.16 1759.86 824.144V809.264H1756.94C1756.68 809.264 1756.46 809.192 1756.29 809.048C1756.11 808.888 1756.02 808.648 1756.02 808.328V806.624L1760.01 806.12L1760.99 798.608C1761.04 798.368 1761.14 798.176 1761.3 798.032C1761.48 797.872 1761.7 797.792 1761.98 797.792H1764.14V806.168H1771.17V809.264H1764.14V823.856C1764.14 824.88 1764.38 825.64 1764.88 826.136C1765.38 826.632 1766.02 826.88 1766.8 826.88C1767.25 826.88 1767.63 826.824 1767.95 826.712C1768.29 826.584 1768.58 826.448 1768.82 826.304C1769.06 826.16 1769.26 826.032 1769.42 825.92C1769.59 825.792 1769.74 825.728 1769.87 825.728C1770.1 825.728 1770.3 825.864 1770.47 826.136L1771.72 828.176C1770.98 828.864 1770.1 829.408 1769.06 829.808C1768.02 830.192 1766.94 830.384 1765.84 830.384ZM1796.56 805.688L1783 837.176C1782.85 837.496 1782.67 837.752 1782.44 837.944C1782.24 838.136 1781.91 838.232 1781.46 838.232H1778.29L1782.73 828.584L1772.7 805.688H1776.4C1776.76 805.688 1777.05 805.784 1777.26 805.976C1777.48 806.152 1777.64 806.352 1777.72 806.576L1784.22 821.888C1784.48 822.56 1784.69 823.264 1784.87 824C1785.09 823.248 1785.33 822.536 1785.59 821.864L1791.9 806.576C1792 806.32 1792.16 806.112 1792.38 805.952C1792.62 805.776 1792.88 805.688 1793.17 805.688H1796.56Z" fill="#2F4858"/>
<path d="M720.704 272.84H712.8L710.72 283.272H718.624L720.704 272.84ZM732.8 268.648L732.384 271.048C732.277 271.667 732.021 272.125 731.616 272.424C731.232 272.701 730.634 272.84 729.824 272.84H725.408L723.328 283.272H729.056C729.674 283.272 730.112 283.453 730.368 283.816C730.645 284.157 730.72 284.765 730.592 285.64L730.304 287.464H722.72L720.032 301H717.44C717.162 301 716.906 300.936 716.672 300.808C716.437 300.68 716.234 300.509 716.064 300.296C715.914 300.083 715.808 299.827 715.744 299.528C715.68 299.229 715.68 298.899 715.744 298.536L718.016 287.464H710.112L707.84 298.824C707.712 299.613 707.402 300.179 706.912 300.52C706.421 300.84 705.866 301 705.248 301H702.688L705.408 287.464H700.736C700.138 287.464 699.701 287.293 699.424 286.952C699.168 286.589 699.104 285.971 699.232 285.096L699.488 283.272H706.016L708.096 272.84H700.672L701.088 270.472C701.194 269.853 701.44 269.395 701.824 269.096C702.229 268.797 702.837 268.648 703.648 268.648H708.704L711.008 257.192C711.136 256.552 711.424 256.051 711.872 255.688C712.341 255.325 712.896 255.144 713.536 255.144H716.096L713.408 268.648H721.312L724 255.144H726.528C727.146 255.144 727.626 255.347 727.968 255.752C728.33 256.157 728.458 256.669 728.352 257.288L726.016 268.648H732.8ZM744.997 268.584V301H739.301V268.584H744.997ZM746.213 258.408C746.213 258.963 746.095 259.485 745.861 259.976C745.647 260.445 745.349 260.872 744.965 261.256C744.602 261.619 744.165 261.907 743.653 262.12C743.162 262.333 742.639 262.44 742.085 262.44C741.53 262.44 741.007 262.333 740.517 262.12C740.047 261.907 739.631 261.619 739.269 261.256C738.906 260.872 738.618 260.445 738.405 259.976C738.191 259.485 738.085 258.963 738.085 258.408C738.085 257.853 738.191 257.331 738.405 256.84C738.618 256.328 738.906 255.891 739.269 255.528C739.631 255.144 740.047 254.845 740.517 254.632C741.007 254.419 741.53 254.312 742.085 254.312C742.639 254.312 743.162 254.419 743.653 254.632C744.165 254.845 744.602 255.144 744.965 255.528C745.349 255.891 745.647 256.328 745.861 256.84C746.095 257.331 746.213 257.853 746.213 258.408ZM775.476 276.296C774.409 274.867 773.257 273.875 772.02 273.32C770.782 272.744 769.396 272.456 767.86 272.456C764.852 272.456 762.537 273.533 760.916 275.688C759.294 277.843 758.484 280.915 758.484 284.904C758.484 287.016 758.665 288.829 759.028 290.344C759.39 291.837 759.924 293.075 760.628 294.056C761.332 295.016 762.196 295.72 763.22 296.168C764.244 296.616 765.406 296.84 766.708 296.84C768.585 296.84 770.217 296.413 771.604 295.56C773.012 294.707 774.302 293.501 775.476 291.944V276.296ZM781.172 253.864V301H777.78C776.969 301 776.457 300.605 776.244 299.816L775.732 295.88C774.345 297.544 772.766 298.888 770.996 299.912C769.225 300.936 767.177 301.448 764.852 301.448C762.996 301.448 761.31 301.096 759.796 300.392C758.281 299.667 756.99 298.611 755.924 297.224C754.857 295.837 754.036 294.109 753.46 292.04C752.884 289.971 752.596 287.592 752.596 284.904C752.596 282.515 752.916 280.296 753.556 278.248C754.196 276.179 755.113 274.387 756.308 272.872C757.502 271.357 758.964 270.173 760.692 269.32C762.441 268.445 764.404 268.008 766.58 268.008C768.564 268.008 770.26 268.349 771.668 269.032C773.097 269.693 774.366 270.621 775.476 271.816V253.864H781.172Z" fill="#2F4858"/>
<path d="M1470.09 278.472C1469.66 278.685 1469.2 278.877 1468.71 279.048C1468.24 279.219 1467.73 279.357 1467.18 279.464C1467.73 279.592 1468.24 279.741 1468.71 279.912C1469.2 280.061 1469.66 280.253 1470.09 280.488L1484.46 287.752C1484.88 287.965 1485.18 288.211 1485.35 288.488C1485.52 288.765 1485.61 289.075 1485.61 289.416V293.512L1460.87 280.648V278.28L1485.61 265.448V269.512C1485.61 269.875 1485.52 270.195 1485.35 270.472C1485.18 270.728 1484.88 270.963 1484.46 271.176L1470.09 278.472ZM1519.02 281.256C1519.02 279.933 1518.83 278.728 1518.44 277.64C1518.08 276.531 1517.54 275.581 1516.81 274.792C1516.11 273.981 1515.24 273.363 1514.22 272.936C1513.2 272.488 1512.03 272.264 1510.73 272.264C1508 272.264 1505.84 273.064 1504.24 274.664C1502.66 276.243 1501.68 278.44 1501.29 281.256H1519.02ZM1523.63 296.456C1522.92 297.309 1522.08 298.056 1521.1 298.696C1520.12 299.315 1519.06 299.827 1517.93 300.232C1516.82 300.637 1515.67 300.936 1514.48 301.128C1513.28 301.341 1512.1 301.448 1510.92 301.448C1508.68 301.448 1506.62 301.075 1504.72 300.328C1502.84 299.56 1501.21 298.451 1499.82 297C1498.46 295.528 1497.39 293.715 1496.62 291.56C1495.85 289.405 1495.47 286.931 1495.47 284.136C1495.47 281.875 1495.81 279.763 1496.49 277.8C1497.2 275.837 1498.2 274.141 1499.5 272.712C1500.8 271.261 1502.39 270.131 1504.27 269.32C1506.15 268.488 1508.26 268.072 1510.6 268.072C1512.55 268.072 1514.34 268.403 1515.98 269.064C1517.64 269.704 1519.07 270.643 1520.27 271.88C1521.48 273.096 1522.43 274.611 1523.12 276.424C1523.8 278.216 1524.14 280.264 1524.14 282.568C1524.14 283.464 1524.04 284.061 1523.85 284.36C1523.66 284.659 1523.3 284.808 1522.76 284.808H1501.1C1501.16 286.856 1501.44 288.637 1501.93 290.152C1502.44 291.667 1503.15 292.936 1504.04 293.96C1504.94 294.963 1506.01 295.72 1507.24 296.232C1508.48 296.723 1509.87 296.968 1511.4 296.968C1512.83 296.968 1514.06 296.808 1515.08 296.488C1516.13 296.147 1517.03 295.784 1517.77 295.4C1518.52 295.016 1519.14 294.664 1519.63 294.344C1520.14 294.003 1520.58 293.832 1520.94 293.832C1521.41 293.832 1521.77 294.013 1522.03 294.376L1523.63 296.456ZM1537.03 253.864V301H1531.33V253.864H1537.03ZM1567.96 281.256C1567.96 279.933 1567.77 278.728 1567.38 277.64C1567.02 276.531 1566.48 275.581 1565.75 274.792C1565.05 273.981 1564.18 273.363 1563.16 272.936C1562.13 272.488 1560.97 272.264 1559.67 272.264C1556.94 272.264 1554.77 273.064 1553.17 274.664C1551.6 276.243 1550.61 278.44 1550.23 281.256H1567.96ZM1572.57 296.456C1571.86 297.309 1571.02 298.056 1570.04 298.696C1569.06 299.315 1568 299.827 1566.87 300.232C1565.76 300.637 1564.61 300.936 1563.41 301.128C1562.22 301.341 1561.04 301.448 1559.86 301.448C1557.62 301.448 1555.55 301.075 1553.65 300.328C1551.78 299.56 1550.14 298.451 1548.76 297C1547.39 295.528 1546.33 293.715 1545.56 291.56C1544.79 289.405 1544.41 286.931 1544.41 284.136C1544.41 281.875 1544.75 279.763 1545.43 277.8C1546.13 275.837 1547.14 274.141 1548.44 272.712C1549.74 271.261 1551.33 270.131 1553.21 269.32C1555.08 268.488 1557.2 268.072 1559.54 268.072C1561.48 268.072 1563.28 268.403 1564.92 269.064C1566.58 269.704 1568.01 270.643 1569.21 271.88C1570.42 273.096 1571.37 274.611 1572.05 276.424C1572.74 278.216 1573.08 280.264 1573.08 282.568C1573.08 283.464 1572.98 284.061 1572.79 284.36C1572.6 284.659 1572.24 284.808 1571.7 284.808H1550.04C1550.1 286.856 1550.38 288.637 1550.87 290.152C1551.38 291.667 1552.09 292.936 1552.98 293.96C1553.88 294.963 1554.94 295.72 1556.18 296.232C1557.42 296.723 1558.81 296.968 1560.34 296.968C1561.77 296.968 1563 296.808 1564.02 296.488C1565.07 296.147 1565.96 295.784 1566.71 295.4C1567.46 295.016 1568.08 294.664 1568.57 294.344C1569.08 294.003 1569.52 293.832 1569.88 293.832C1570.35 293.832 1570.71 294.013 1570.97 294.376L1572.57 296.456ZM1580.07 301V268.584H1583.5C1584.31 268.584 1584.81 268.979 1585 269.768L1585.42 273.096C1586.61 271.624 1587.96 270.419 1589.45 269.48C1590.94 268.541 1592.67 268.072 1594.63 268.072C1596.81 268.072 1598.57 268.68 1599.91 269.896C1601.28 271.112 1602.26 272.755 1602.86 274.824C1603.33 273.651 1603.93 272.637 1604.65 271.784C1605.4 270.931 1606.23 270.227 1607.15 269.672C1608.06 269.117 1609.03 268.712 1610.06 268.456C1611.1 268.2 1612.16 268.072 1613.23 268.072C1614.93 268.072 1616.45 268.349 1617.77 268.904C1619.11 269.437 1620.25 270.227 1621.16 271.272C1622.1 272.317 1622.82 273.608 1623.31 275.144C1623.8 276.659 1624.04 278.397 1624.04 280.36V301H1618.31V280.36C1618.31 277.821 1617.76 275.901 1616.65 274.6C1615.54 273.277 1613.94 272.616 1611.85 272.616C1610.91 272.616 1610.02 272.787 1609.16 273.128C1608.33 273.448 1607.59 273.928 1606.95 274.568C1606.31 275.208 1605.8 276.019 1605.42 277C1605.06 277.96 1604.87 279.08 1604.87 280.36V301H1599.15V280.36C1599.15 277.757 1598.62 275.816 1597.58 274.536C1596.53 273.256 1595.01 272.616 1593 272.616C1591.59 272.616 1590.29 273 1589.1 273.768C1587.9 274.515 1586.81 275.539 1585.8 276.84V301H1580.07ZM1654.4 281.256C1654.4 279.933 1654.2 278.728 1653.82 277.64C1653.46 276.531 1652.91 275.581 1652.19 274.792C1651.48 273.981 1650.62 273.363 1649.6 272.936C1648.57 272.488 1647.41 272.264 1646.11 272.264C1643.38 272.264 1641.21 273.064 1639.61 274.664C1638.03 276.243 1637.05 278.44 1636.67 281.256H1654.4ZM1659 296.456C1658.3 297.309 1657.46 298.056 1656.48 298.696C1655.49 299.315 1654.44 299.827 1653.31 300.232C1652.2 300.637 1651.05 300.936 1649.85 301.128C1648.66 301.341 1647.47 301.448 1646.3 301.448C1644.06 301.448 1641.99 301.075 1640.09 300.328C1638.21 299.56 1636.58 298.451 1635.2 297C1633.83 295.528 1632.76 293.715 1632 291.56C1631.23 289.405 1630.84 286.931 1630.84 284.136C1630.84 281.875 1631.18 279.763 1631.87 277.8C1632.57 275.837 1633.57 274.141 1634.88 272.712C1636.18 271.261 1637.77 270.131 1639.64 269.32C1641.52 268.488 1643.63 268.072 1645.98 268.072C1647.92 268.072 1649.71 268.403 1651.36 269.064C1653.02 269.704 1654.45 270.643 1655.64 271.88C1656.86 273.096 1657.81 274.611 1658.49 276.424C1659.17 278.216 1659.52 280.264 1659.52 282.568C1659.52 283.464 1659.42 284.061 1659.23 284.36C1659.04 284.659 1658.67 284.808 1658.14 284.808H1636.48C1636.54 286.856 1636.82 288.637 1637.31 290.152C1637.82 291.667 1638.52 292.936 1639.42 293.96C1640.32 294.963 1641.38 295.72 1642.62 296.232C1643.86 296.723 1645.24 296.968 1646.78 296.968C1648.21 296.968 1649.44 296.808 1650.46 296.488C1651.5 296.147 1652.4 295.784 1653.15 295.4C1653.89 295.016 1654.51 294.664 1655 294.344C1655.52 294.003 1655.95 293.832 1656.32 293.832C1656.78 293.832 1657.15 294.013 1657.4 294.376L1659 296.456ZM1671.89 273.288C1672.59 272.499 1673.34 271.784 1674.13 271.144C1674.92 270.504 1675.75 269.96 1676.62 269.512C1677.52 269.043 1678.46 268.691 1679.44 268.456C1680.44 268.2 1681.52 268.072 1682.67 268.072C1684.44 268.072 1686 268.371 1687.34 268.968C1688.71 269.544 1689.84 270.376 1690.74 271.464C1691.65 272.531 1692.35 273.821 1692.82 275.336C1693.29 276.851 1693.52 278.525 1693.52 280.36V301H1687.79V280.36C1687.79 277.907 1687.23 276.008 1686.1 274.664C1684.99 273.299 1683.29 272.616 1681.01 272.616C1679.32 272.616 1677.74 273.021 1676.27 273.832C1674.82 274.643 1673.48 275.741 1672.24 277.128V301H1666.51V268.584H1669.94C1670.75 268.584 1671.25 268.979 1671.44 269.768L1671.89 273.288ZM1711.71 301.512C1709.15 301.512 1707.18 300.797 1705.79 299.368C1704.43 297.939 1703.75 295.88 1703.75 293.192V273.352H1699.84C1699.5 273.352 1699.21 273.256 1698.98 273.064C1698.74 272.851 1698.63 272.531 1698.63 272.104V269.832L1703.94 269.16L1705.25 259.144C1705.31 258.824 1705.45 258.568 1705.67 258.376C1705.9 258.163 1706.2 258.056 1706.56 258.056H1709.44V269.224H1718.82V273.352H1709.44V292.808C1709.44 294.173 1709.77 295.187 1710.43 295.848C1711.1 296.509 1711.95 296.84 1712.99 296.84C1713.59 296.84 1714.1 296.765 1714.53 296.616C1714.98 296.445 1715.36 296.264 1715.68 296.072C1716 295.88 1716.27 295.709 1716.48 295.56C1716.72 295.389 1716.92 295.304 1717.09 295.304C1717.39 295.304 1717.66 295.485 1717.89 295.848L1719.55 298.568C1718.57 299.485 1717.39 300.211 1716 300.744C1714.62 301.256 1713.19 301.512 1711.71 301.512ZM1752.12 278.28V280.648L1727.39 293.512V289.416C1727.39 289.075 1727.47 288.765 1727.64 288.488C1727.81 288.211 1728.11 287.965 1728.54 287.752L1742.91 280.488C1743.33 280.253 1743.78 280.061 1744.25 279.912C1744.74 279.741 1745.25 279.592 1745.79 279.464C1744.7 279.229 1743.74 278.899 1742.91 278.472L1728.54 271.176C1728.11 270.963 1727.81 270.728 1727.64 270.472C1727.47 270.195 1727.39 269.875 1727.39 269.512V265.448L1752.12 278.28Z" fill="#2F4858"/>
<path d="M1105.05 220.48C1105.05 219.925 1105.15 219.403 1105.34 218.912C1105.55 218.421 1105.83 217.995 1106.17 217.632C1106.53 217.269 1106.96 216.981 1107.45 216.768C1107.94 216.555 1108.47 216.448 1109.02 216.448C1109.57 216.448 1110.1 216.555 1110.59 216.768C1111.08 216.981 1111.51 217.269 1111.87 217.632C1112.23 217.995 1112.52 218.421 1112.73 218.912C1112.95 219.403 1113.05 219.925 1113.05 220.48C1113.05 221.056 1112.95 221.589 1112.73 222.08C1112.52 222.549 1112.23 222.965 1111.87 223.328C1111.51 223.691 1111.08 223.968 1110.59 224.16C1110.1 224.373 1109.57 224.48 1109.02 224.48C1108.47 224.48 1107.94 224.373 1107.45 224.16C1106.96 223.968 1106.53 223.691 1106.17 223.328C1105.83 222.965 1105.55 222.549 1105.34 222.08C1105.15 221.589 1105.05 221.056 1105.05 220.48ZM1143.7 197.344C1143.53 197.579 1143.36 197.76 1143.19 197.888C1143.01 198.016 1142.78 198.08 1142.48 198.08C1142.16 198.08 1141.81 197.952 1141.43 197.696C1141.04 197.419 1140.56 197.12 1139.99 196.8C1139.43 196.48 1138.74 196.192 1137.91 195.936C1137.09 195.659 1136.09 195.52 1134.9 195.52C1133.3 195.52 1131.89 195.808 1130.67 196.384C1129.46 196.939 1128.43 197.749 1127.6 198.816C1126.79 199.883 1126.17 201.173 1125.75 202.688C1125.34 204.203 1125.14 205.899 1125.14 207.776C1125.14 209.739 1125.36 211.488 1125.81 213.024C1126.26 214.539 1126.89 215.819 1127.7 216.864C1128.53 217.888 1129.52 218.677 1130.67 219.232C1131.85 219.765 1133.16 220.032 1134.61 220.032C1136 220.032 1137.14 219.872 1138.03 219.552C1138.93 219.211 1139.67 218.837 1140.24 218.432C1140.84 218.027 1141.33 217.664 1141.71 217.344C1142.12 217.003 1142.51 216.832 1142.9 216.832C1143.37 216.832 1143.73 217.013 1143.99 217.376L1145.59 219.456C1144.88 220.331 1144.08 221.077 1143.19 221.696C1142.29 222.315 1141.32 222.837 1140.27 223.264C1139.25 223.669 1138.17 223.968 1137.04 224.16C1135.91 224.352 1134.76 224.448 1133.59 224.448C1131.56 224.448 1129.67 224.075 1127.92 223.328C1126.19 222.581 1124.69 221.504 1123.41 220.096C1122.13 218.667 1121.13 216.917 1120.4 214.848C1119.68 212.779 1119.31 210.421 1119.31 207.776C1119.31 205.365 1119.64 203.136 1120.31 201.088C1120.99 199.04 1121.97 197.28 1123.25 195.808C1124.55 194.315 1126.14 193.152 1128.02 192.32C1129.92 191.488 1132.09 191.072 1134.55 191.072C1136.83 191.072 1138.83 191.445 1140.56 192.192C1142.31 192.917 1143.86 193.952 1145.2 195.296L1143.7 197.344ZM1157.59 176.864V224H1151.89V176.864H1157.59ZM1184.39 209.408C1181.77 209.493 1179.53 209.707 1177.67 210.048C1175.84 210.368 1174.33 210.795 1173.16 211.328C1172.01 211.861 1171.17 212.491 1170.63 213.216C1170.12 213.941 1169.86 214.752 1169.86 215.648C1169.86 216.501 1170 217.237 1170.28 217.856C1170.56 218.475 1170.93 218.987 1171.4 219.392C1171.89 219.776 1172.46 220.064 1173.1 220.256C1173.76 220.427 1174.46 220.512 1175.21 220.512C1176.21 220.512 1177.13 220.416 1177.96 220.224C1178.79 220.011 1179.57 219.712 1180.3 219.328C1181.04 218.944 1181.75 218.485 1182.41 217.952C1183.09 217.419 1183.75 216.811 1184.39 216.128V209.408ZM1165.99 196.16C1167.78 194.432 1169.72 193.141 1171.78 192.288C1173.85 191.435 1176.15 191.008 1178.66 191.008C1180.48 191.008 1182.09 191.307 1183.5 191.904C1184.9 192.501 1186.09 193.333 1187.05 194.4C1188.01 195.467 1188.73 196.757 1189.22 198.272C1189.72 199.787 1189.96 201.451 1189.96 203.264V224H1187.43C1186.88 224 1186.45 223.915 1186.15 223.744C1185.85 223.552 1185.62 223.189 1185.45 222.656L1184.81 219.584C1183.96 220.373 1183.12 221.077 1182.31 221.696C1181.5 222.293 1180.65 222.805 1179.75 223.232C1178.86 223.637 1177.9 223.947 1176.87 224.16C1175.87 224.395 1174.75 224.512 1173.51 224.512C1172.25 224.512 1171.07 224.341 1169.96 224C1168.85 223.637 1167.88 223.104 1167.05 222.4C1166.24 221.696 1165.59 220.811 1165.1 219.744C1164.63 218.656 1164.39 217.376 1164.39 215.904C1164.39 214.624 1164.74 213.397 1165.45 212.224C1166.15 211.029 1167.29 209.973 1168.87 209.056C1170.45 208.139 1172.51 207.392 1175.05 206.816C1177.59 206.219 1180.7 205.877 1184.39 205.792V203.264C1184.39 200.747 1183.85 198.848 1182.76 197.568C1181.67 196.267 1180.08 195.616 1177.99 195.616C1176.58 195.616 1175.4 195.797 1174.44 196.16C1173.5 196.501 1172.68 196.896 1171.98 197.344C1171.29 197.771 1170.7 198.165 1170.18 198.528C1169.69 198.869 1169.2 199.04 1168.71 199.04C1168.33 199.04 1168 198.944 1167.72 198.752C1167.44 198.539 1167.21 198.283 1167.02 197.984L1165.99 196.16ZM1217.52 196.928C1217.26 197.397 1216.87 197.632 1216.33 197.632C1216.01 197.632 1215.65 197.515 1215.25 197.28C1214.84 197.045 1214.34 196.789 1213.74 196.512C1213.17 196.213 1212.47 195.947 1211.66 195.712C1210.85 195.456 1209.89 195.328 1208.78 195.328C1207.82 195.328 1206.96 195.456 1206.19 195.712C1205.42 195.947 1204.76 196.277 1204.21 196.704C1203.67 197.131 1203.26 197.632 1202.96 198.208C1202.68 198.763 1202.54 199.371 1202.54 200.032C1202.54 200.864 1202.78 201.557 1203.25 202.112C1203.74 202.667 1204.38 203.147 1205.17 203.552C1205.95 203.957 1206.85 204.32 1207.85 204.64C1208.86 204.939 1209.88 205.269 1210.93 205.632C1211.99 205.973 1213.03 206.357 1214.03 206.784C1215.03 207.211 1215.93 207.744 1216.72 208.384C1217.51 209.024 1218.14 209.813 1218.61 210.752C1219.1 211.669 1219.34 212.779 1219.34 214.08C1219.34 215.573 1219.07 216.96 1218.54 218.24C1218.01 219.499 1217.22 220.597 1216.17 221.536C1215.13 222.453 1213.85 223.179 1212.33 223.712C1210.82 224.245 1209.07 224.512 1207.09 224.512C1204.82 224.512 1202.78 224.149 1200.94 223.424C1199.11 222.677 1197.55 221.728 1196.27 220.576L1197.61 218.4C1197.78 218.123 1197.99 217.909 1198.22 217.76C1198.46 217.611 1198.75 217.536 1199.12 217.536C1199.5 217.536 1199.91 217.685 1200.33 217.984C1200.76 218.283 1201.27 218.613 1201.87 218.976C1202.49 219.339 1203.23 219.669 1204.11 219.968C1204.98 220.267 1206.07 220.416 1207.37 220.416C1208.48 220.416 1209.45 220.277 1210.28 220C1211.12 219.701 1211.81 219.307 1212.37 218.816C1212.92 218.325 1213.33 217.76 1213.58 217.12C1213.86 216.48 1214 215.797 1214 215.072C1214 214.176 1213.75 213.44 1213.26 212.864C1212.79 212.267 1212.16 211.765 1211.37 211.36C1210.58 210.933 1209.68 210.571 1208.65 210.272C1207.65 209.952 1206.62 209.621 1205.55 209.28C1204.5 208.939 1203.47 208.555 1202.45 208.128C1201.44 207.68 1200.55 207.125 1199.76 206.464C1198.97 205.803 1198.33 204.992 1197.84 204.032C1197.37 203.051 1197.13 201.867 1197.13 200.48C1197.13 199.243 1197.39 198.059 1197.9 196.928C1198.41 195.776 1199.16 194.773 1200.14 193.92C1201.12 193.045 1202.33 192.352 1203.76 191.84C1205.19 191.328 1206.82 191.072 1208.65 191.072C1210.79 191.072 1212.7 191.413 1214.38 192.096C1216.09 192.757 1217.56 193.675 1218.8 194.848L1217.52 196.928ZM1245.2 196.928C1244.95 197.397 1244.55 197.632 1244.02 197.632C1243.7 197.632 1243.34 197.515 1242.93 197.28C1242.53 197.045 1242.03 196.789 1241.43 196.512C1240.85 196.213 1240.16 195.947 1239.35 195.712C1238.54 195.456 1237.58 195.328 1236.47 195.328C1235.51 195.328 1234.64 195.456 1233.88 195.712C1233.11 195.947 1232.45 196.277 1231.89 196.704C1231.36 197.131 1230.94 197.632 1230.64 198.208C1230.37 198.763 1230.23 199.371 1230.23 200.032C1230.23 200.864 1230.46 201.557 1230.93 202.112C1231.42 202.667 1232.06 203.147 1232.85 203.552C1233.64 203.957 1234.54 204.32 1235.54 204.64C1236.54 204.939 1237.57 205.269 1238.61 205.632C1239.68 205.973 1240.71 206.357 1241.72 206.784C1242.72 207.211 1243.62 207.744 1244.4 208.384C1245.19 209.024 1245.82 209.813 1246.29 210.752C1246.78 211.669 1247.03 212.779 1247.03 214.08C1247.03 215.573 1246.76 216.96 1246.23 218.24C1245.7 219.499 1244.91 220.597 1243.86 221.536C1242.82 222.453 1241.54 223.179 1240.02 223.712C1238.51 224.245 1236.76 224.512 1234.77 224.512C1232.51 224.512 1230.46 224.149 1228.63 223.424C1226.79 222.677 1225.24 221.728 1223.96 220.576L1225.3 218.4C1225.47 218.123 1225.67 217.909 1225.91 217.76C1226.14 217.611 1226.44 217.536 1226.8 217.536C1227.19 217.536 1227.59 217.685 1228.02 217.984C1228.45 218.283 1228.96 218.613 1229.56 218.976C1230.18 219.339 1230.92 219.669 1231.8 219.968C1232.67 220.267 1233.76 220.416 1235.06 220.416C1236.17 220.416 1237.14 220.277 1237.97 220C1238.8 219.701 1239.5 219.307 1240.05 218.816C1240.61 218.325 1241.01 217.76 1241.27 217.12C1241.55 216.48 1241.68 215.797 1241.68 215.072C1241.68 214.176 1241.44 213.44 1240.95 212.864C1240.48 212.267 1239.85 211.765 1239.06 211.36C1238.27 210.933 1237.36 210.571 1236.34 210.272C1235.34 209.952 1234.3 209.621 1233.24 209.28C1232.19 208.939 1231.16 208.555 1230.13 208.128C1229.13 207.68 1228.23 207.125 1227.44 206.464C1226.66 205.803 1226.02 204.992 1225.52 204.032C1225.06 203.051 1224.82 201.867 1224.82 200.48C1224.82 199.243 1225.08 198.059 1225.59 196.928C1226.1 195.776 1226.85 194.773 1227.83 193.92C1228.81 193.045 1230.02 192.352 1231.44 191.84C1232.87 191.328 1234.51 191.072 1236.34 191.072C1238.47 191.072 1240.38 191.413 1242.07 192.096C1243.78 192.757 1245.25 193.675 1246.48 194.848L1245.2 196.928ZM1047.62 255.688V306.472H1053.03C1053.5 306.472 1053.87 306.621 1054.15 306.92C1054.45 307.219 1054.6 307.581 1054.6 308.008V310.248H1042.82V251.944H1054.6V254.184C1054.6 254.611 1054.45 254.973 1054.15 255.272C1053.87 255.549 1053.5 255.688 1053.03 255.688H1047.62ZM1076.71 286.408C1074.08 286.493 1071.84 286.707 1069.99 287.048C1068.15 287.368 1066.65 287.795 1065.47 288.328C1064.32 288.861 1063.48 289.491 1062.95 290.216C1062.43 290.941 1062.18 291.752 1062.18 292.648C1062.18 293.501 1062.32 294.237 1062.59 294.856C1062.87 295.475 1063.24 295.987 1063.71 296.392C1064.2 296.776 1064.77 297.064 1065.41 297.256C1066.07 297.427 1066.77 297.512 1067.52 297.512C1068.52 297.512 1069.44 297.416 1070.27 297.224C1071.11 297.011 1071.88 296.712 1072.61 296.328C1073.36 295.944 1074.06 295.485 1074.72 294.952C1075.4 294.419 1076.07 293.811 1076.71 293.128V286.408ZM1058.31 273.16C1060.1 271.432 1062.03 270.141 1064.1 269.288C1066.17 268.435 1068.46 268.008 1070.98 268.008C1072.79 268.008 1074.4 268.307 1075.81 268.904C1077.22 269.501 1078.4 270.333 1079.36 271.4C1080.32 272.467 1081.05 273.757 1081.54 275.272C1082.03 276.787 1082.27 278.451 1082.27 280.264V301H1079.75C1079.19 301 1078.76 300.915 1078.47 300.744C1078.17 300.552 1077.93 300.189 1077.76 299.656L1077.12 296.584C1076.27 297.373 1075.44 298.077 1074.62 298.696C1073.81 299.293 1072.96 299.805 1072.07 300.232C1071.17 300.637 1070.21 300.947 1069.19 301.16C1068.18 301.395 1067.06 301.512 1065.83 301.512C1064.57 301.512 1063.38 301.341 1062.27 301C1061.16 300.637 1060.19 300.104 1059.36 299.4C1058.55 298.696 1057.9 297.811 1057.41 296.744C1056.94 295.656 1056.71 294.376 1056.71 292.904C1056.71 291.624 1057.06 290.397 1057.76 289.224C1058.47 288.029 1059.61 286.973 1061.19 286.056C1062.76 285.139 1064.82 284.392 1067.36 283.816C1069.9 283.219 1073.01 282.877 1076.71 282.792V280.264C1076.71 277.747 1076.16 275.848 1075.07 274.568C1073.99 273.267 1072.4 272.616 1070.31 272.616C1068.9 272.616 1067.71 272.797 1066.75 273.16C1065.81 273.501 1064.99 273.896 1064.29 274.344C1063.61 274.771 1063.01 275.165 1062.5 275.528C1062.01 275.869 1061.52 276.04 1061.03 276.04C1060.64 276.04 1060.31 275.944 1060.03 275.752C1059.76 275.539 1059.52 275.283 1059.33 274.984L1058.31 273.16ZM1100.46 301.512C1097.9 301.512 1095.93 300.797 1094.54 299.368C1093.18 297.939 1092.5 295.88 1092.5 293.192V273.352H1088.59C1088.25 273.352 1087.96 273.256 1087.73 273.064C1087.49 272.851 1087.38 272.531 1087.38 272.104V269.832L1092.69 269.16L1094 259.144C1094.06 258.824 1094.2 258.568 1094.42 258.376C1094.65 258.163 1094.95 258.056 1095.31 258.056H1098.19V269.224H1113.46L1114.77 259.144C1114.83 258.824 1114.97 258.568 1115.18 258.376C1115.42 258.163 1115.72 258.056 1116.08 258.056H1118.96V269.224H1128.34V273.352H1118.96V292.808C1118.96 294.173 1119.29 295.187 1119.95 295.848C1120.63 296.509 1121.49 296.84 1122.51 296.84C1123.11 296.84 1123.62 296.765 1124.05 296.616C1124.5 296.445 1124.88 296.264 1125.2 296.072C1125.52 295.88 1125.79 295.709 1126 295.56C1126.23 295.389 1126.44 295.304 1126.61 295.304C1126.93 295.304 1127.19 295.485 1127.41 295.848L1129.1 298.568C1128.1 299.485 1126.91 300.211 1125.52 300.744C1124.13 301.256 1122.7 301.512 1121.23 301.512C1118.69 301.512 1116.73 300.797 1115.34 299.368C1113.96 297.939 1113.26 295.88 1113.26 293.192V273.352H1098.19V292.808C1098.19 294.173 1098.52 295.187 1099.18 295.848C1099.85 296.509 1100.7 296.84 1101.74 296.84C1102.34 296.84 1102.85 296.765 1103.28 296.616C1103.73 296.445 1104.11 296.264 1104.43 296.072C1104.75 295.88 1105.02 295.709 1105.23 295.56C1105.47 295.389 1105.67 295.304 1105.84 295.304C1106.14 295.304 1106.41 295.485 1106.64 295.848L1108.3 298.568C1107.32 299.485 1106.14 300.211 1104.75 300.744C1103.37 301.256 1101.94 301.512 1100.46 301.512ZM1139.61 275.08C1140.63 272.861 1141.89 271.133 1143.38 269.896C1144.88 268.637 1146.7 268.008 1148.86 268.008C1149.54 268.008 1150.19 268.083 1150.81 268.232C1151.45 268.381 1152.01 268.616 1152.5 268.936L1152.09 273.192C1151.96 273.725 1151.64 273.992 1151.13 273.992C1150.83 273.992 1150.39 273.928 1149.82 273.8C1149.24 273.672 1148.59 273.608 1147.86 273.608C1146.84 273.608 1145.92 273.757 1145.11 274.056C1144.32 274.355 1143.61 274.803 1142.97 275.4C1142.35 275.976 1141.78 276.701 1141.27 277.576C1140.78 278.429 1140.33 279.411 1139.93 280.52V301H1134.2V268.584H1137.46C1138.08 268.584 1138.51 268.701 1138.74 268.936C1138.98 269.171 1139.14 269.576 1139.22 270.152L1139.61 275.08ZM1163.53 268.584V301H1157.83V268.584H1163.53ZM1164.74 258.408C1164.74 258.963 1164.63 259.485 1164.39 259.976C1164.18 260.445 1163.88 260.872 1163.5 261.256C1163.13 261.619 1162.7 261.907 1162.18 262.12C1161.69 262.333 1161.17 262.44 1160.62 262.44C1160.06 262.44 1159.54 262.333 1159.05 262.12C1158.58 261.907 1158.16 261.619 1157.8 261.256C1157.44 260.872 1157.15 260.445 1156.94 259.976C1156.72 259.485 1156.62 258.963 1156.62 258.408C1156.62 257.853 1156.72 257.331 1156.94 256.84C1157.15 256.328 1157.44 255.891 1157.8 255.528C1158.16 255.144 1158.58 254.845 1159.05 254.632C1159.54 254.419 1160.06 254.312 1160.62 254.312C1161.17 254.312 1161.69 254.419 1162.18 254.632C1162.7 254.845 1163.13 255.144 1163.5 255.528C1163.88 255.891 1164.18 256.328 1164.39 256.84C1164.63 257.331 1164.74 257.853 1164.74 258.408ZM1178.62 293.192C1179.66 294.6 1180.8 295.592 1182.04 296.168C1183.3 296.744 1184.67 297.032 1186.17 297.032C1189.22 297.032 1191.55 295.955 1193.18 293.8C1194.8 291.645 1195.61 288.435 1195.61 284.168C1195.61 280.2 1194.88 277.288 1193.43 275.432C1192 273.555 1189.95 272.616 1187.29 272.616C1185.43 272.616 1183.81 273.043 1182.42 273.896C1181.06 274.749 1179.79 275.955 1178.62 277.512V293.192ZM1178.62 273.256C1179.98 271.677 1181.52 270.419 1183.22 269.48C1184.95 268.541 1186.94 268.072 1189.18 268.072C1191.07 268.072 1192.78 268.435 1194.3 269.16C1195.83 269.885 1197.13 270.941 1198.2 272.328C1199.27 273.693 1200.08 275.357 1200.63 277.32C1201.21 279.283 1201.5 281.491 1201.5 283.944C1201.5 286.568 1201.18 288.957 1200.53 291.112C1199.9 293.267 1198.97 295.112 1197.75 296.648C1196.56 298.163 1195.1 299.347 1193.37 300.2C1191.64 301.032 1189.7 301.448 1187.54 301.448C1185.41 301.448 1183.61 301.053 1182.14 300.264C1180.68 299.453 1179.42 298.312 1178.33 296.84L1178.04 299.784C1177.87 300.595 1177.38 301 1176.57 301H1172.89V253.864H1178.62V273.256ZM1235.36 268.584V301H1231.96C1231.15 301 1230.64 300.605 1230.43 299.816L1229.98 296.328C1228.57 297.885 1226.99 299.144 1225.24 300.104C1223.49 301.043 1221.49 301.512 1219.23 301.512C1217.46 301.512 1215.89 301.224 1214.52 300.648C1213.18 300.051 1212.05 299.219 1211.13 298.152C1210.21 297.085 1209.52 295.795 1209.05 294.28C1208.6 292.765 1208.38 291.091 1208.38 289.256V268.584H1214.08V289.256C1214.08 291.709 1214.63 293.608 1215.74 294.952C1216.87 296.296 1218.59 296.968 1220.89 296.968C1222.58 296.968 1224.14 296.573 1225.6 295.784C1227.07 294.973 1228.42 293.864 1229.66 292.456V268.584H1235.36ZM1254.34 301.512C1251.78 301.512 1249.81 300.797 1248.42 299.368C1247.05 297.939 1246.37 295.88 1246.37 293.192V273.352H1242.47C1242.13 273.352 1241.84 273.256 1241.6 273.064C1241.37 272.851 1241.25 272.531 1241.25 272.104V269.832L1246.56 269.16L1247.88 259.144C1247.94 258.824 1248.08 258.568 1248.29 258.376C1248.53 258.163 1248.82 258.056 1249.19 258.056H1252.07V269.224H1261.44V273.352H1252.07V292.808C1252.07 294.173 1252.4 295.187 1253.06 295.848C1253.72 296.509 1254.57 296.84 1255.62 296.84C1256.22 296.84 1256.73 296.765 1257.16 296.616C1257.6 296.445 1257.99 296.264 1258.31 296.072C1258.63 295.88 1258.89 295.709 1259.11 295.56C1259.34 295.389 1259.54 295.304 1259.72 295.304C1260.01 295.304 1260.28 295.485 1260.52 295.848L1262.18 298.568C1261.2 299.485 1260.01 300.211 1258.63 300.744C1257.24 301.256 1255.81 301.512 1254.34 301.512ZM1288.83 281.256C1288.83 279.933 1288.64 278.728 1288.26 277.64C1287.89 276.531 1287.35 275.581 1286.63 274.792C1285.92 273.981 1285.06 273.363 1284.03 272.936C1283.01 272.488 1281.85 272.264 1280.55 272.264C1277.81 272.264 1275.65 273.064 1274.05 274.664C1272.47 276.243 1271.49 278.44 1271.11 281.256H1288.83ZM1293.44 296.456C1292.74 297.309 1291.89 298.056 1290.91 298.696C1289.93 299.315 1288.88 299.827 1287.75 300.232C1286.64 300.637 1285.48 300.936 1284.29 301.128C1283.09 301.341 1281.91 301.448 1280.74 301.448C1278.5 301.448 1276.43 301.075 1274.53 300.328C1272.65 299.56 1271.02 298.451 1269.63 297C1268.27 295.528 1267.2 293.715 1266.43 291.56C1265.67 289.405 1265.28 286.931 1265.28 284.136C1265.28 281.875 1265.62 279.763 1266.31 277.8C1267.01 275.837 1268.01 274.141 1269.31 272.712C1270.61 271.261 1272.2 270.131 1274.08 269.32C1275.96 268.488 1278.07 268.072 1280.42 268.072C1282.36 268.072 1284.15 268.403 1285.79 269.064C1287.46 269.704 1288.89 270.643 1290.08 271.88C1291.3 273.096 1292.25 274.611 1292.93 276.424C1293.61 278.216 1293.95 280.264 1293.95 282.568C1293.95 283.464 1293.86 284.061 1293.67 284.36C1293.47 284.659 1293.11 284.808 1292.58 284.808H1270.91C1270.98 286.856 1271.25 288.637 1271.75 290.152C1272.26 291.667 1272.96 292.936 1273.86 293.96C1274.75 294.963 1275.82 295.72 1277.06 296.232C1278.29 296.723 1279.68 296.968 1281.22 296.968C1282.65 296.968 1283.87 296.808 1284.9 296.488C1285.94 296.147 1286.84 295.784 1287.59 295.4C1288.33 295.016 1288.95 294.664 1289.44 294.344C1289.95 294.003 1290.39 293.832 1290.75 293.832C1291.22 293.832 1291.59 294.013 1291.84 294.376L1293.44 296.456ZM1308.2 310.248H1296.42V308.008C1296.42 307.581 1296.56 307.219 1296.84 306.92C1297.14 306.621 1297.52 306.472 1297.99 306.472H1303.4V255.688H1297.99C1297.52 255.688 1297.14 255.549 1296.84 255.272C1296.56 254.973 1296.42 254.611 1296.42 254.184V251.944H1308.2V310.248Z" fill="#2F4858"/>
<path d="M1396.41 820.414C1397.2 819.633 1397.2 818.367 1396.41 817.586L1383.69 804.858C1382.91 804.077 1381.64 804.077 1380.86 804.858C1380.08 805.639 1380.08 806.905 1380.86 807.686L1392.17 819L1380.86 830.314C1380.08 831.095 1380.08 832.361 1380.86 833.142C1381.64 833.923 1382.91 833.923 1383.69 833.142L1396.41 820.414ZM538 821H1395V817H538V821Z" fill="#6D7E8A"/>
</svg>
