<svg width="1920" height="1080" viewBox="0 0 1920 1080" fill="none" xmlns="http://www.w3.org/2000/svg">
<rect width="1920" height="1080" fill="white"/>
<rect x="162" y="390" width="301" height="301" fill="#466683"/>
<path d="M348.434 545.448C348.434 554.472 347.45 562.296 345.482 568.92C343.562 575.496 340.922 580.944 337.562 585.264C334.202 589.584 330.218 592.8 325.61 594.912C321.05 597.024 316.154 598.08 310.922 598.08C305.642 598.08 300.722 597.024 296.162 594.912C291.65 592.8 287.714 589.584 284.354 585.264C280.994 580.944 278.354 575.496 276.434 568.92C274.514 562.296 273.554 554.472 273.554 545.448C273.554 536.424 274.514 528.6 276.434 521.976C278.354 515.352 280.994 509.88 284.354 505.56C287.714 501.192 291.65 497.952 296.162 495.84C300.722 493.728 305.642 492.672 310.922 492.672C316.154 492.672 321.05 493.728 325.61 495.84C330.218 497.952 334.202 501.192 337.562 505.56C340.922 509.88 343.562 515.352 345.482 521.976C347.45 528.6 348.434 536.424 348.434 545.448ZM335.114 545.448C335.114 537.576 334.442 530.976 333.098 525.648C331.802 520.272 330.026 515.952 327.77 512.688C325.562 509.424 322.994 507.096 320.066 505.704C317.138 504.264 314.09 503.544 310.922 503.544C307.754 503.544 304.706 504.264 301.778 505.704C298.85 507.096 296.282 509.424 294.074 512.688C291.866 515.952 290.09 520.272 288.746 525.648C287.45 530.976 286.802 537.576 286.802 545.448C286.802 553.32 287.45 559.92 288.746 565.248C290.09 570.576 291.866 574.872 294.074 578.136C296.282 581.4 298.85 583.752 301.778 585.192C304.706 586.584 307.754 587.28 310.922 587.28C314.09 587.28 317.138 586.584 320.066 585.192C322.994 583.752 325.562 581.4 327.77 578.136C330.026 574.872 331.802 570.576 333.098 565.248C334.442 559.92 335.114 553.32 335.114 545.448Z" fill="white"/>
<rect x="594" y="390" width="301" height="301" fill="#466683"/>
<path d="M780.434 545.448C780.434 554.472 779.45 562.296 777.482 568.92C775.562 575.496 772.922 580.944 769.562 585.264C766.202 589.584 762.218 592.8 757.61 594.912C753.05 597.024 748.154 598.08 742.922 598.08C737.642 598.08 732.722 597.024 728.162 594.912C723.65 592.8 719.714 589.584 716.354 585.264C712.994 580.944 710.354 575.496 708.434 568.92C706.514 562.296 705.554 554.472 705.554 545.448C705.554 536.424 706.514 528.6 708.434 521.976C710.354 515.352 712.994 509.88 716.354 505.56C719.714 501.192 723.65 497.952 728.162 495.84C732.722 493.728 737.642 492.672 742.922 492.672C748.154 492.672 753.05 493.728 757.61 495.84C762.218 497.952 766.202 501.192 769.562 505.56C772.922 509.88 775.562 515.352 777.482 521.976C779.45 528.6 780.434 536.424 780.434 545.448ZM767.114 545.448C767.114 537.576 766.442 530.976 765.098 525.648C763.802 520.272 762.026 515.952 759.77 512.688C757.562 509.424 754.994 507.096 752.066 505.704C749.138 504.264 746.09 503.544 742.922 503.544C739.754 503.544 736.706 504.264 733.778 505.704C730.85 507.096 728.282 509.424 726.074 512.688C723.866 515.952 722.09 520.272 720.746 525.648C719.45 530.976 718.802 537.576 718.802 545.448C718.802 553.32 719.45 559.92 720.746 565.248C722.09 570.576 723.866 574.872 726.074 578.136C728.282 581.4 730.85 583.752 733.778 585.192C736.706 586.584 739.754 587.28 742.922 587.28C746.09 587.28 749.138 586.584 752.066 585.192C754.994 583.752 757.562 581.4 759.77 578.136C762.026 574.872 763.802 570.576 765.098 565.248C766.442 559.92 767.114 553.32 767.114 545.448Z" fill="white"/>
<rect x="1026" y="389" width="301" height="301" fill="#466683"/>
<path d="M1212.43 544.448C1212.43 553.472 1211.45 561.296 1209.48 567.92C1207.56 574.496 1204.92 579.944 1201.56 584.264C1198.2 588.584 1194.22 591.8 1189.61 593.912C1185.05 596.024 1180.15 597.08 1174.92 597.08C1169.64 597.08 1164.72 596.024 1160.16 593.912C1155.65 591.8 1151.71 588.584 1148.35 584.264C1144.99 579.944 1142.35 574.496 1140.43 567.92C1138.51 561.296 1137.55 553.472 1137.55 544.448C1137.55 535.424 1138.51 527.6 1140.43 520.976C1142.35 514.352 1144.99 508.88 1148.35 504.56C1151.71 500.192 1155.65 496.952 1160.16 494.84C1164.72 492.728 1169.64 491.672 1174.92 491.672C1180.15 491.672 1185.05 492.728 1189.61 494.84C1194.22 496.952 1198.2 500.192 1201.56 504.56C1204.92 508.88 1207.56 514.352 1209.48 520.976C1211.45 527.6 1212.43 535.424 1212.43 544.448ZM1199.11 544.448C1199.11 536.576 1198.44 529.976 1197.1 524.648C1195.8 519.272 1194.03 514.952 1191.77 511.688C1189.56 508.424 1186.99 506.096 1184.07 504.704C1181.14 503.264 1178.09 502.544 1174.92 502.544C1171.75 502.544 1168.71 503.264 1165.78 504.704C1162.85 506.096 1160.28 508.424 1158.07 511.688C1155.87 514.952 1154.09 519.272 1152.75 524.648C1151.45 529.976 1150.8 536.576 1150.8 544.448C1150.8 552.32 1151.45 558.92 1152.75 564.248C1154.09 569.576 1155.87 573.872 1158.07 577.136C1160.28 580.4 1162.85 582.752 1165.78 584.192C1168.71 585.584 1171.75 586.28 1174.92 586.28C1178.09 586.28 1181.14 585.584 1184.07 584.192C1186.99 582.752 1189.56 580.4 1191.77 577.136C1194.03 573.872 1195.8 569.576 1197.1 564.248C1198.44 558.92 1199.11 552.32 1199.11 544.448Z" fill="white"/>
<rect x="1458" y="390" width="301" height="301" fill="#466683"/>
<path d="M1644.43 545.448C1644.43 554.472 1643.45 562.296 1641.48 568.92C1639.56 575.496 1636.92 580.944 1633.56 585.264C1630.2 589.584 1626.22 592.8 1621.61 594.912C1617.05 597.024 1612.15 598.08 1606.92 598.08C1601.64 598.08 1596.72 597.024 1592.16 594.912C1587.65 592.8 1583.71 589.584 1580.35 585.264C1576.99 580.944 1574.35 575.496 1572.43 568.92C1570.51 562.296 1569.55 554.472 1569.55 545.448C1569.55 536.424 1570.51 528.6 1572.43 521.976C1574.35 515.352 1576.99 509.88 1580.35 505.56C1583.71 501.192 1587.65 497.952 1592.16 495.84C1596.72 493.728 1601.64 492.672 1606.92 492.672C1612.15 492.672 1617.05 493.728 1621.61 495.84C1626.22 497.952 1630.2 501.192 1633.56 505.56C1636.92 509.88 1639.56 515.352 1641.48 521.976C1643.45 528.6 1644.43 536.424 1644.43 545.448ZM1631.11 545.448C1631.11 537.576 1630.44 530.976 1629.1 525.648C1627.8 520.272 1626.03 515.952 1623.77 512.688C1621.56 509.424 1618.99 507.096 1616.07 505.704C1613.14 504.264 1610.09 503.544 1606.92 503.544C1603.75 503.544 1600.71 504.264 1597.78 505.704C1594.85 507.096 1592.28 509.424 1590.07 512.688C1587.87 515.952 1586.09 520.272 1584.75 525.648C1583.45 530.976 1582.8 537.576 1582.8 545.448C1582.8 553.32 1583.45 559.92 1584.75 565.248C1586.09 570.576 1587.87 574.872 1590.07 578.136C1592.28 581.4 1594.85 583.752 1597.78 585.192C1600.71 586.584 1603.75 587.28 1606.92 587.28C1610.09 587.28 1613.14 586.584 1616.07 585.192C1618.99 583.752 1621.56 581.4 1623.77 578.136C1626.03 574.872 1627.8 570.576 1629.1 565.248C1630.44 559.92 1631.11 553.32 1631.11 545.448Z" fill="white"/>
<path d="M173.028 265.584V298H167.332V265.584H173.028ZM174.244 255.408C174.244 255.963 174.127 256.485 173.892 256.976C173.679 257.445 173.38 257.872 172.996 258.256C172.633 258.619 172.196 258.907 171.684 259.12C171.193 259.333 170.671 259.44 170.116 259.44C169.561 259.44 169.039 259.333 168.548 259.12C168.079 258.907 167.663 258.619 167.3 258.256C166.937 257.872 166.649 257.445 166.436 256.976C166.223 256.485 166.116 255.963 166.116 255.408C166.116 254.853 166.223 254.331 166.436 253.84C166.649 253.328 166.937 252.891 167.3 252.528C167.663 252.144 168.079 251.845 168.548 251.632C169.039 251.419 169.561 251.312 170.116 251.312C170.671 251.312 171.193 251.419 171.684 251.632C172.196 251.845 172.633 252.144 172.996 252.528C173.38 252.891 173.679 253.328 173.892 253.84C174.127 254.331 174.244 254.853 174.244 255.408ZM187.763 270.288C188.467 269.499 189.214 268.784 190.003 268.144C190.792 267.504 191.624 266.96 192.499 266.512C193.395 266.043 194.334 265.691 195.315 265.456C196.318 265.2 197.395 265.072 198.547 265.072C200.318 265.072 201.875 265.371 203.219 265.968C204.584 266.544 205.715 267.376 206.611 268.464C207.528 269.531 208.222 270.821 208.691 272.336C209.16 273.851 209.395 275.525 209.395 277.36V298H203.667V277.36C203.667 274.907 203.102 273.008 201.971 271.664C200.862 270.299 199.166 269.616 196.883 269.616C195.198 269.616 193.619 270.021 192.147 270.832C190.696 271.643 189.352 272.741 188.115 274.128V298H182.387V265.584H185.811C186.622 265.584 187.123 265.979 187.315 266.768L187.763 270.288ZM223.963 250.864V298H218.266V250.864H223.963ZM239.216 265.584V298H233.52V265.584H239.216ZM240.432 255.408C240.432 255.963 240.314 256.485 240.08 256.976C239.866 257.445 239.568 257.872 239.184 258.256C238.821 258.619 238.384 258.907 237.872 259.12C237.381 259.333 236.858 259.44 236.304 259.44C235.749 259.44 235.226 259.333 234.736 259.12C234.266 258.907 233.85 258.619 233.488 258.256C233.125 257.872 232.837 257.445 232.624 256.976C232.41 256.485 232.304 255.963 232.304 255.408C232.304 254.853 232.41 254.331 232.624 253.84C232.837 253.328 233.125 252.891 233.488 252.528C233.85 252.144 234.266 251.845 234.736 251.632C235.226 251.419 235.749 251.312 236.304 251.312C236.858 251.312 237.381 251.419 237.872 251.632C238.384 251.845 238.821 252.144 239.184 252.528C239.568 252.891 239.866 253.328 240.08 253.84C240.314 254.331 240.432 254.853 240.432 255.408ZM253.951 270.288C254.655 269.499 255.401 268.784 256.191 268.144C256.98 267.504 257.812 266.96 258.687 266.512C259.583 266.043 260.521 265.691 261.503 265.456C262.505 265.2 263.583 265.072 264.735 265.072C266.505 265.072 268.063 265.371 269.407 265.968C270.772 266.544 271.903 267.376 272.799 268.464C273.716 269.531 274.409 270.821 274.879 272.336C275.348 273.851 275.583 275.525 275.583 277.36V298H269.855V277.36C269.855 274.907 269.289 273.008 268.159 271.664C267.049 270.299 265.353 269.616 263.071 269.616C261.385 269.616 259.807 270.021 258.335 270.832C256.884 271.643 255.54 272.741 254.303 274.128V298H248.575V265.584H251.999C252.809 265.584 253.311 265.979 253.503 266.768L253.951 270.288ZM305.958 278.256C305.958 276.933 305.766 275.728 305.382 274.64C305.019 273.531 304.475 272.581 303.75 271.792C303.046 270.981 302.182 270.363 301.158 269.936C300.134 269.488 298.971 269.264 297.67 269.264C294.939 269.264 292.774 270.064 291.174 271.664C289.595 273.243 288.614 275.44 288.23 278.256H305.958ZM310.566 293.456C309.862 294.309 309.019 295.056 308.038 295.696C307.057 296.315 306.001 296.827 304.87 297.232C303.761 297.637 302.609 297.936 301.414 298.128C300.219 298.341 299.035 298.448 297.862 298.448C295.622 298.448 293.553 298.075 291.654 297.328C289.777 296.56 288.145 295.451 286.758 294C285.393 292.528 284.326 290.715 283.558 288.56C282.79 286.405 282.406 283.931 282.406 281.136C282.406 278.875 282.747 276.763 283.43 274.8C284.134 272.837 285.137 271.141 286.438 269.712C287.739 268.261 289.329 267.131 291.206 266.32C293.083 265.488 295.195 265.072 297.542 265.072C299.483 265.072 301.275 265.403 302.918 266.064C304.582 266.704 306.011 267.643 307.206 268.88C308.422 270.096 309.371 271.611 310.054 273.424C310.737 275.216 311.078 277.264 311.078 279.568C311.078 280.464 310.982 281.061 310.79 281.36C310.598 281.659 310.235 281.808 309.702 281.808H288.038C288.102 283.856 288.379 285.637 288.87 287.152C289.382 288.667 290.086 289.936 290.982 290.96C291.878 291.963 292.945 292.72 294.182 293.232C295.419 293.723 296.806 293.968 298.342 293.968C299.771 293.968 300.998 293.808 302.022 293.488C303.067 293.147 303.963 292.784 304.71 292.4C305.457 292.016 306.075 291.664 306.566 291.344C307.078 291.003 307.515 290.832 307.878 290.832C308.347 290.832 308.71 291.013 308.966 291.376L310.566 293.456ZM353.33 270.928C353.074 271.397 352.679 271.632 352.146 271.632C351.826 271.632 351.463 271.515 351.058 271.28C350.652 271.045 350.151 270.789 349.554 270.512C348.978 270.213 348.284 269.947 347.474 269.712C346.663 269.456 345.703 269.328 344.594 269.328C343.634 269.328 342.77 269.456 342.002 269.712C341.234 269.947 340.572 270.277 340.018 270.704C339.484 271.131 339.068 271.632 338.77 272.208C338.492 272.763 338.354 273.371 338.354 274.032C338.354 274.864 338.588 275.557 339.058 276.112C339.548 276.667 340.188 277.147 340.978 277.552C341.767 277.957 342.663 278.32 343.666 278.64C344.668 278.939 345.692 279.269 346.738 279.632C347.804 279.973 348.839 280.357 349.842 280.784C350.844 281.211 351.74 281.744 352.53 282.384C353.319 283.024 353.948 283.813 354.418 284.752C354.908 285.669 355.154 286.779 355.154 288.08C355.154 289.573 354.887 290.96 354.354 292.24C353.82 293.499 353.031 294.597 351.986 295.536C350.94 296.453 349.66 297.179 348.146 297.712C346.631 298.245 344.882 298.512 342.898 298.512C340.636 298.512 338.588 298.149 336.754 297.424C334.919 296.677 333.362 295.728 332.082 294.576L333.426 292.4C333.596 292.123 333.799 291.909 334.034 291.76C334.268 291.611 334.567 291.536 334.93 291.536C335.314 291.536 335.719 291.685 336.146 291.984C336.572 292.283 337.084 292.613 337.682 292.976C338.3 293.339 339.047 293.669 339.922 293.968C340.796 294.267 341.884 294.416 343.186 294.416C344.295 294.416 345.266 294.277 346.097 294C346.93 293.701 347.623 293.307 348.178 292.816C348.732 292.325 349.138 291.76 349.394 291.12C349.671 290.48 349.81 289.797 349.81 289.072C349.81 288.176 349.564 287.44 349.074 286.864C348.604 286.267 347.975 285.765 347.186 285.36C346.396 284.933 345.49 284.571 344.466 284.272C343.463 283.952 342.428 283.621 341.362 283.28C340.316 282.939 339.282 282.555 338.258 282.128C337.255 281.68 336.359 281.125 335.57 280.464C334.78 279.803 334.14 278.992 333.65 278.032C333.18 277.051 332.946 275.867 332.946 274.48C332.946 273.243 333.202 272.059 333.714 270.928C334.226 269.776 334.972 268.773 335.954 267.92C336.935 267.045 338.14 266.352 339.57 265.84C340.999 265.328 342.631 265.072 344.466 265.072C346.599 265.072 348.508 265.413 350.194 266.096C351.9 266.757 353.372 267.675 354.61 268.848L353.33 270.928ZM372.089 298.512C369.529 298.512 367.556 297.797 366.169 296.368C364.804 294.939 364.121 292.88 364.121 290.192V270.352H360.217C359.876 270.352 359.588 270.256 359.353 270.064C359.118 269.851 359.001 269.531 359.001 269.104V266.832L364.313 266.16L365.625 256.144C365.689 255.824 365.828 255.568 366.041 255.376C366.276 255.163 366.574 255.056 366.937 255.056H369.817V266.224H379.193V270.352H369.817V289.808C369.817 291.173 370.148 292.187 370.809 292.848C371.47 293.509 372.324 293.84 373.369 293.84C373.966 293.84 374.478 293.765 374.905 293.616C375.353 293.445 375.737 293.264 376.057 293.072C376.377 292.88 376.644 292.709 376.857 292.56C377.092 292.389 377.294 292.304 377.465 292.304C377.764 292.304 378.03 292.485 378.265 292.848L379.929 295.568C378.948 296.485 377.764 297.211 376.377 297.744C374.99 298.256 373.561 298.512 372.089 298.512ZM413.043 265.584L394.963 307.568C394.771 307.995 394.525 308.336 394.227 308.592C393.949 308.848 393.512 308.976 392.915 308.976H388.691L394.611 296.112L381.235 265.584H386.163C386.653 265.584 387.037 265.712 387.315 265.968C387.613 266.203 387.816 266.469 387.923 266.768L396.595 287.184C396.936 288.08 397.224 289.019 397.458 290C397.757 288.997 398.077 288.048 398.419 287.152L406.835 266.768C406.963 266.427 407.176 266.149 407.475 265.936C407.795 265.701 408.147 265.584 408.531 265.584H413.043ZM423.963 250.864V298H418.266V250.864H423.963ZM454.896 278.256C454.896 276.933 454.704 275.728 454.32 274.64C453.957 273.531 453.413 272.581 452.688 271.792C451.984 270.981 451.12 270.363 450.096 269.936C449.072 269.488 447.909 269.264 446.608 269.264C443.877 269.264 441.712 270.064 440.112 271.664C438.533 273.243 437.552 275.44 437.168 278.256H454.896ZM459.504 293.456C458.8 294.309 457.957 295.056 456.976 295.696C455.994 296.315 454.938 296.827 453.808 297.232C452.698 297.637 451.546 297.936 450.352 298.128C449.157 298.341 447.973 298.448 446.8 298.448C444.56 298.448 442.49 298.075 440.592 297.328C438.714 296.56 437.082 295.451 435.696 294C434.33 292.528 433.264 290.715 432.496 288.56C431.728 286.405 431.344 283.931 431.344 281.136C431.344 278.875 431.685 276.763 432.368 274.8C433.072 272.837 434.074 271.141 435.376 269.712C436.677 268.261 438.266 267.131 440.144 266.32C442.021 265.488 444.133 265.072 446.48 265.072C448.421 265.072 450.213 265.403 451.856 266.064C453.52 266.704 454.949 267.643 456.144 268.88C457.36 270.096 458.309 271.611 458.992 273.424C459.674 275.216 460.016 277.264 460.016 279.568C460.016 280.464 459.92 281.061 459.728 281.36C459.536 281.659 459.173 281.808 458.64 281.808H436.976C437.04 283.856 437.317 285.637 437.808 287.152C438.32 288.667 439.024 289.936 439.92 290.96C440.816 291.963 441.882 292.72 443.12 293.232C444.357 293.723 445.744 293.968 447.28 293.968C448.709 293.968 449.936 293.808 450.96 293.488C452.005 293.147 452.901 292.784 453.648 292.4C454.394 292.016 455.013 291.664 455.504 291.344C456.016 291.003 456.453 290.832 456.816 290.832C457.285 290.832 457.648 291.013 457.904 291.376L459.504 293.456Z" fill="#2F4858"/>
<path d="M721.704 272.84H713.8L711.72 283.272H719.624L721.704 272.84ZM733.8 268.648L733.384 271.048C733.277 271.667 733.021 272.125 732.616 272.424C732.232 272.701 731.634 272.84 730.824 272.84H726.408L724.328 283.272H730.056C730.674 283.272 731.112 283.453 731.368 283.816C731.645 284.157 731.72 284.765 731.592 285.64L731.304 287.464H723.72L721.032 301H718.44C718.162 301 717.906 300.936 717.672 300.808C717.437 300.68 717.234 300.509 717.064 300.296C716.914 300.083 716.808 299.827 716.744 299.528C716.68 299.229 716.68 298.899 716.744 298.536L719.016 287.464H711.112L708.84 298.824C708.712 299.613 708.402 300.179 707.912 300.52C707.421 300.84 706.866 301 706.248 301H703.688L706.408 287.464H701.736C701.138 287.464 700.701 287.293 700.424 286.952C700.168 286.589 700.104 285.971 700.232 285.096L700.488 283.272H707.016L709.096 272.84H701.672L702.088 270.472C702.194 269.853 702.44 269.395 702.824 269.096C703.229 268.797 703.837 268.648 704.648 268.648H709.704L712.008 257.192C712.136 256.552 712.424 256.051 712.872 255.688C713.341 255.325 713.896 255.144 714.536 255.144H717.096L714.408 268.648H722.312L725 255.144H727.528C728.146 255.144 728.626 255.347 728.968 255.752C729.33 256.157 729.458 256.669 729.352 257.288L727.016 268.648H733.8ZM745.997 268.584V301H740.301V268.584H745.997ZM747.213 258.408C747.213 258.963 747.095 259.485 746.861 259.976C746.647 260.445 746.349 260.872 745.965 261.256C745.602 261.619 745.165 261.907 744.653 262.12C744.162 262.333 743.639 262.44 743.085 262.44C742.53 262.44 742.007 262.333 741.517 262.12C741.047 261.907 740.631 261.619 740.269 261.256C739.906 260.872 739.618 260.445 739.405 259.976C739.191 259.485 739.085 258.963 739.085 258.408C739.085 257.853 739.191 257.331 739.405 256.84C739.618 256.328 739.906 255.891 740.269 255.528C740.631 255.144 741.047 254.845 741.517 254.632C742.007 254.419 742.53 254.312 743.085 254.312C743.639 254.312 744.162 254.419 744.653 254.632C745.165 254.845 745.602 255.144 745.965 255.528C746.349 255.891 746.647 256.328 746.861 256.84C747.095 257.331 747.213 257.853 747.213 258.408ZM776.476 276.296C775.409 274.867 774.257 273.875 773.02 273.32C771.782 272.744 770.396 272.456 768.86 272.456C765.852 272.456 763.537 273.533 761.916 275.688C760.294 277.843 759.484 280.915 759.484 284.904C759.484 287.016 759.665 288.829 760.028 290.344C760.39 291.837 760.924 293.075 761.628 294.056C762.332 295.016 763.196 295.72 764.22 296.168C765.244 296.616 766.406 296.84 767.708 296.84C769.585 296.84 771.217 296.413 772.604 295.56C774.012 294.707 775.302 293.501 776.476 291.944V276.296ZM782.172 253.864V301H778.78C777.969 301 777.457 300.605 777.244 299.816L776.732 295.88C775.345 297.544 773.766 298.888 771.996 299.912C770.225 300.936 768.177 301.448 765.852 301.448C763.996 301.448 762.31 301.096 760.796 300.392C759.281 299.667 757.99 298.611 756.924 297.224C755.857 295.837 755.036 294.109 754.46 292.04C753.884 289.971 753.596 287.592 753.596 284.904C753.596 282.515 753.916 280.296 754.556 278.248C755.196 276.179 756.113 274.387 757.308 272.872C758.502 271.357 759.964 270.173 761.692 269.32C763.441 268.445 765.404 268.008 767.58 268.008C769.564 268.008 771.26 268.349 772.668 269.032C774.097 269.693 775.366 270.621 776.476 271.816V253.864H782.172Z" fill="#2F4858"/>
<path d="M1471.09 278.472C1470.66 278.685 1470.2 278.877 1469.71 279.048C1469.24 279.219 1468.73 279.357 1468.18 279.464C1468.73 279.592 1469.24 279.741 1469.71 279.912C1470.2 280.061 1470.66 280.253 1471.09 280.488L1485.46 287.752C1485.88 287.965 1486.18 288.211 1486.35 288.488C1486.52 288.765 1486.61 289.075 1486.61 289.416V293.512L1461.87 280.648V278.28L1486.61 265.448V269.512C1486.61 269.875 1486.52 270.195 1486.35 270.472C1486.18 270.728 1485.88 270.963 1485.46 271.176L1471.09 278.472ZM1520.02 281.256C1520.02 279.933 1519.83 278.728 1519.44 277.64C1519.08 276.531 1518.54 275.581 1517.81 274.792C1517.11 273.981 1516.24 273.363 1515.22 272.936C1514.2 272.488 1513.03 272.264 1511.73 272.264C1509 272.264 1506.84 273.064 1505.24 274.664C1503.66 276.243 1502.68 278.44 1502.29 281.256H1520.02ZM1524.63 296.456C1523.92 297.309 1523.08 298.056 1522.1 298.696C1521.12 299.315 1520.06 299.827 1518.93 300.232C1517.82 300.637 1516.67 300.936 1515.48 301.128C1514.28 301.341 1513.1 301.448 1511.92 301.448C1509.68 301.448 1507.62 301.075 1505.72 300.328C1503.84 299.56 1502.21 298.451 1500.82 297C1499.46 295.528 1498.39 293.715 1497.62 291.56C1496.85 289.405 1496.47 286.931 1496.47 284.136C1496.47 281.875 1496.81 279.763 1497.49 277.8C1498.2 275.837 1499.2 274.141 1500.5 272.712C1501.8 271.261 1503.39 270.131 1505.27 269.32C1507.15 268.488 1509.26 268.072 1511.6 268.072C1513.55 268.072 1515.34 268.403 1516.98 269.064C1518.64 269.704 1520.07 270.643 1521.27 271.88C1522.48 273.096 1523.43 274.611 1524.12 276.424C1524.8 278.216 1525.14 280.264 1525.14 282.568C1525.14 283.464 1525.04 284.061 1524.85 284.36C1524.66 284.659 1524.3 284.808 1523.76 284.808H1502.1C1502.16 286.856 1502.44 288.637 1502.93 290.152C1503.44 291.667 1504.15 292.936 1505.04 293.96C1505.94 294.963 1507.01 295.72 1508.24 296.232C1509.48 296.723 1510.87 296.968 1512.4 296.968C1513.83 296.968 1515.06 296.808 1516.08 296.488C1517.13 296.147 1518.03 295.784 1518.77 295.4C1519.52 295.016 1520.14 294.664 1520.63 294.344C1521.14 294.003 1521.58 293.832 1521.94 293.832C1522.41 293.832 1522.77 294.013 1523.03 294.376L1524.63 296.456ZM1538.03 253.864V301H1532.33V253.864H1538.03ZM1568.96 281.256C1568.96 279.933 1568.77 278.728 1568.38 277.64C1568.02 276.531 1567.48 275.581 1566.75 274.792C1566.05 273.981 1565.18 273.363 1564.16 272.936C1563.13 272.488 1561.97 272.264 1560.67 272.264C1557.94 272.264 1555.77 273.064 1554.17 274.664C1552.6 276.243 1551.61 278.44 1551.23 281.256H1568.96ZM1573.57 296.456C1572.86 297.309 1572.02 298.056 1571.04 298.696C1570.06 299.315 1569 299.827 1567.87 300.232C1566.76 300.637 1565.61 300.936 1564.41 301.128C1563.22 301.341 1562.04 301.448 1560.86 301.448C1558.62 301.448 1556.55 301.075 1554.65 300.328C1552.78 299.56 1551.14 298.451 1549.76 297C1548.39 295.528 1547.33 293.715 1546.56 291.56C1545.79 289.405 1545.41 286.931 1545.41 284.136C1545.41 281.875 1545.75 279.763 1546.43 277.8C1547.13 275.837 1548.14 274.141 1549.44 272.712C1550.74 271.261 1552.33 270.131 1554.21 269.32C1556.08 268.488 1558.2 268.072 1560.54 268.072C1562.48 268.072 1564.28 268.403 1565.92 269.064C1567.58 269.704 1569.01 270.643 1570.21 271.88C1571.42 273.096 1572.37 274.611 1573.05 276.424C1573.74 278.216 1574.08 280.264 1574.08 282.568C1574.08 283.464 1573.98 284.061 1573.79 284.36C1573.6 284.659 1573.24 284.808 1572.7 284.808H1551.04C1551.1 286.856 1551.38 288.637 1551.87 290.152C1552.38 291.667 1553.09 292.936 1553.98 293.96C1554.88 294.963 1555.94 295.72 1557.18 296.232C1558.42 296.723 1559.81 296.968 1561.34 296.968C1562.77 296.968 1564 296.808 1565.02 296.488C1566.07 296.147 1566.96 295.784 1567.71 295.4C1568.46 295.016 1569.08 294.664 1569.57 294.344C1570.08 294.003 1570.52 293.832 1570.88 293.832C1571.35 293.832 1571.71 294.013 1571.97 294.376L1573.57 296.456ZM1581.07 301V268.584H1584.5C1585.31 268.584 1585.81 268.979 1586 269.768L1586.42 273.096C1587.61 271.624 1588.96 270.419 1590.45 269.48C1591.94 268.541 1593.67 268.072 1595.63 268.072C1597.81 268.072 1599.57 268.68 1600.91 269.896C1602.28 271.112 1603.26 272.755 1603.86 274.824C1604.33 273.651 1604.93 272.637 1605.65 271.784C1606.4 270.931 1607.23 270.227 1608.15 269.672C1609.06 269.117 1610.03 268.712 1611.06 268.456C1612.1 268.2 1613.16 268.072 1614.23 268.072C1615.93 268.072 1617.45 268.349 1618.77 268.904C1620.11 269.437 1621.25 270.227 1622.16 271.272C1623.1 272.317 1623.82 273.608 1624.31 275.144C1624.8 276.659 1625.04 278.397 1625.04 280.36V301H1619.31V280.36C1619.31 277.821 1618.76 275.901 1617.65 274.6C1616.54 273.277 1614.94 272.616 1612.85 272.616C1611.91 272.616 1611.02 272.787 1610.16 273.128C1609.33 273.448 1608.59 273.928 1607.95 274.568C1607.31 275.208 1606.8 276.019 1606.42 277C1606.06 277.96 1605.87 279.08 1605.87 280.36V301H1600.15V280.36C1600.15 277.757 1599.62 275.816 1598.58 274.536C1597.53 273.256 1596.01 272.616 1594 272.616C1592.59 272.616 1591.29 273 1590.1 273.768C1588.9 274.515 1587.81 275.539 1586.8 276.84V301H1581.07ZM1655.4 281.256C1655.4 279.933 1655.2 278.728 1654.82 277.64C1654.46 276.531 1653.91 275.581 1653.19 274.792C1652.48 273.981 1651.62 273.363 1650.6 272.936C1649.57 272.488 1648.41 272.264 1647.11 272.264C1644.38 272.264 1642.21 273.064 1640.61 274.664C1639.03 276.243 1638.05 278.44 1637.67 281.256H1655.4ZM1660 296.456C1659.3 297.309 1658.46 298.056 1657.48 298.696C1656.49 299.315 1655.44 299.827 1654.31 300.232C1653.2 300.637 1652.05 300.936 1650.85 301.128C1649.66 301.341 1648.47 301.448 1647.3 301.448C1645.06 301.448 1642.99 301.075 1641.09 300.328C1639.21 299.56 1637.58 298.451 1636.2 297C1634.83 295.528 1633.76 293.715 1633 291.56C1632.23 289.405 1631.84 286.931 1631.84 284.136C1631.84 281.875 1632.18 279.763 1632.87 277.8C1633.57 275.837 1634.57 274.141 1635.88 272.712C1637.18 271.261 1638.77 270.131 1640.64 269.32C1642.52 268.488 1644.63 268.072 1646.98 268.072C1648.92 268.072 1650.71 268.403 1652.36 269.064C1654.02 269.704 1655.45 270.643 1656.64 271.88C1657.86 273.096 1658.81 274.611 1659.49 276.424C1660.17 278.216 1660.52 280.264 1660.52 282.568C1660.52 283.464 1660.42 284.061 1660.23 284.36C1660.04 284.659 1659.67 284.808 1659.14 284.808H1637.48C1637.54 286.856 1637.82 288.637 1638.31 290.152C1638.82 291.667 1639.52 292.936 1640.42 293.96C1641.32 294.963 1642.38 295.72 1643.62 296.232C1644.86 296.723 1646.24 296.968 1647.78 296.968C1649.21 296.968 1650.44 296.808 1651.46 296.488C1652.5 296.147 1653.4 295.784 1654.15 295.4C1654.89 295.016 1655.51 294.664 1656 294.344C1656.52 294.003 1656.95 293.832 1657.32 293.832C1657.78 293.832 1658.15 294.013 1658.4 294.376L1660 296.456ZM1672.89 273.288C1673.59 272.499 1674.34 271.784 1675.13 271.144C1675.92 270.504 1676.75 269.96 1677.62 269.512C1678.52 269.043 1679.46 268.691 1680.44 268.456C1681.44 268.2 1682.52 268.072 1683.67 268.072C1685.44 268.072 1687 268.371 1688.34 268.968C1689.71 269.544 1690.84 270.376 1691.74 271.464C1692.65 272.531 1693.35 273.821 1693.82 275.336C1694.29 276.851 1694.52 278.525 1694.52 280.36V301H1688.79V280.36C1688.79 277.907 1688.23 276.008 1687.1 274.664C1685.99 273.299 1684.29 272.616 1682.01 272.616C1680.32 272.616 1678.74 273.021 1677.27 273.832C1675.82 274.643 1674.48 275.741 1673.24 277.128V301H1667.51V268.584H1670.94C1671.75 268.584 1672.25 268.979 1672.44 269.768L1672.89 273.288ZM1712.71 301.512C1710.15 301.512 1708.18 300.797 1706.79 299.368C1705.43 297.939 1704.75 295.88 1704.75 293.192V273.352H1700.84C1700.5 273.352 1700.21 273.256 1699.98 273.064C1699.74 272.851 1699.63 272.531 1699.63 272.104V269.832L1704.94 269.16L1706.25 259.144C1706.31 258.824 1706.45 258.568 1706.67 258.376C1706.9 258.163 1707.2 258.056 1707.56 258.056H1710.44V269.224H1719.82V273.352H1710.44V292.808C1710.44 294.173 1710.77 295.187 1711.43 295.848C1712.1 296.509 1712.95 296.84 1713.99 296.84C1714.59 296.84 1715.1 296.765 1715.53 296.616C1715.98 296.445 1716.36 296.264 1716.68 296.072C1717 295.88 1717.27 295.709 1717.48 295.56C1717.72 295.389 1717.92 295.304 1718.09 295.304C1718.39 295.304 1718.66 295.485 1718.89 295.848L1720.55 298.568C1719.57 299.485 1718.39 300.211 1717 300.744C1715.62 301.256 1714.19 301.512 1712.71 301.512ZM1753.12 278.28V280.648L1728.39 293.512V289.416C1728.39 289.075 1728.47 288.765 1728.64 288.488C1728.81 288.211 1729.11 287.965 1729.54 287.752L1743.91 280.488C1744.33 280.253 1744.78 280.061 1745.25 279.912C1745.74 279.741 1746.25 279.592 1746.79 279.464C1745.7 279.229 1744.74 278.899 1743.91 278.472L1729.54 271.176C1729.11 270.963 1728.81 270.728 1728.64 270.472C1728.47 270.195 1728.39 269.875 1728.39 269.512V265.448L1753.12 278.28Z" fill="#2F4858"/>
<path d="M1106.05 220.48C1106.05 219.925 1106.15 219.403 1106.34 218.912C1106.55 218.421 1106.83 217.995 1107.17 217.632C1107.53 217.269 1107.96 216.981 1108.45 216.768C1108.94 216.555 1109.47 216.448 1110.02 216.448C1110.57 216.448 1111.1 216.555 1111.59 216.768C1112.08 216.981 1112.51 217.269 1112.87 217.632C1113.23 217.995 1113.52 218.421 1113.73 218.912C1113.95 219.403 1114.05 219.925 1114.05 220.48C1114.05 221.056 1113.95 221.589 1113.73 222.08C1113.52 222.549 1113.23 222.965 1112.87 223.328C1112.51 223.691 1112.08 223.968 1111.59 224.16C1111.1 224.373 1110.57 224.48 1110.02 224.48C1109.47 224.48 1108.94 224.373 1108.45 224.16C1107.96 223.968 1107.53 223.691 1107.17 223.328C1106.83 222.965 1106.55 222.549 1106.34 222.08C1106.15 221.589 1106.05 221.056 1106.05 220.48ZM1144.7 197.344C1144.53 197.579 1144.36 197.76 1144.19 197.888C1144.01 198.016 1143.78 198.08 1143.48 198.08C1143.16 198.08 1142.81 197.952 1142.43 197.696C1142.04 197.419 1141.56 197.12 1140.99 196.8C1140.43 196.48 1139.74 196.192 1138.91 195.936C1138.09 195.659 1137.09 195.52 1135.9 195.52C1134.3 195.52 1132.89 195.808 1131.67 196.384C1130.46 196.939 1129.43 197.749 1128.6 198.816C1127.79 199.883 1127.17 201.173 1126.75 202.688C1126.34 204.203 1126.14 205.899 1126.14 207.776C1126.14 209.739 1126.36 211.488 1126.81 213.024C1127.26 214.539 1127.89 215.819 1128.7 216.864C1129.53 217.888 1130.52 218.677 1131.67 219.232C1132.85 219.765 1134.16 220.032 1135.61 220.032C1137 220.032 1138.14 219.872 1139.03 219.552C1139.93 219.211 1140.67 218.837 1141.24 218.432C1141.84 218.027 1142.33 217.664 1142.71 217.344C1143.12 217.003 1143.51 216.832 1143.9 216.832C1144.37 216.832 1144.73 217.013 1144.99 217.376L1146.59 219.456C1145.88 220.331 1145.08 221.077 1144.19 221.696C1143.29 222.315 1142.32 222.837 1141.27 223.264C1140.25 223.669 1139.17 223.968 1138.04 224.16C1136.91 224.352 1135.76 224.448 1134.59 224.448C1132.56 224.448 1130.67 224.075 1128.92 223.328C1127.19 222.581 1125.69 221.504 1124.41 220.096C1123.13 218.667 1122.13 216.917 1121.4 214.848C1120.68 212.779 1120.31 210.421 1120.31 207.776C1120.31 205.365 1120.64 203.136 1121.31 201.088C1121.99 199.04 1122.97 197.28 1124.25 195.808C1125.55 194.315 1127.14 193.152 1129.02 192.32C1130.92 191.488 1133.09 191.072 1135.55 191.072C1137.83 191.072 1139.83 191.445 1141.56 192.192C1143.31 192.917 1144.86 193.952 1146.2 195.296L1144.7 197.344ZM1158.59 176.864V224H1152.89V176.864H1158.59ZM1185.39 209.408C1182.77 209.493 1180.53 209.707 1178.67 210.048C1176.84 210.368 1175.33 210.795 1174.16 211.328C1173.01 211.861 1172.17 212.491 1171.63 213.216C1171.12 213.941 1170.86 214.752 1170.86 215.648C1170.86 216.501 1171 217.237 1171.28 217.856C1171.56 218.475 1171.93 218.987 1172.4 219.392C1172.89 219.776 1173.46 220.064 1174.1 220.256C1174.76 220.427 1175.46 220.512 1176.21 220.512C1177.21 220.512 1178.13 220.416 1178.96 220.224C1179.79 220.011 1180.57 219.712 1181.3 219.328C1182.04 218.944 1182.75 218.485 1183.41 217.952C1184.09 217.419 1184.75 216.811 1185.39 216.128V209.408ZM1166.99 196.16C1168.78 194.432 1170.72 193.141 1172.78 192.288C1174.85 191.435 1177.15 191.008 1179.66 191.008C1181.48 191.008 1183.09 191.307 1184.5 191.904C1185.9 192.501 1187.09 193.333 1188.05 194.4C1189.01 195.467 1189.73 196.757 1190.22 198.272C1190.72 199.787 1190.96 201.451 1190.96 203.264V224H1188.43C1187.88 224 1187.45 223.915 1187.15 223.744C1186.85 223.552 1186.62 223.189 1186.45 222.656L1185.81 219.584C1184.96 220.373 1184.12 221.077 1183.31 221.696C1182.5 222.293 1181.65 222.805 1180.75 223.232C1179.86 223.637 1178.9 223.947 1177.87 224.16C1176.87 224.395 1175.75 224.512 1174.51 224.512C1173.25 224.512 1172.07 224.341 1170.96 224C1169.85 223.637 1168.88 223.104 1168.05 222.4C1167.24 221.696 1166.59 220.811 1166.1 219.744C1165.63 218.656 1165.39 217.376 1165.39 215.904C1165.39 214.624 1165.74 213.397 1166.45 212.224C1167.15 211.029 1168.29 209.973 1169.87 209.056C1171.45 208.139 1173.51 207.392 1176.05 206.816C1178.59 206.219 1181.7 205.877 1185.39 205.792V203.264C1185.39 200.747 1184.85 198.848 1183.76 197.568C1182.67 196.267 1181.08 195.616 1178.99 195.616C1177.58 195.616 1176.4 195.797 1175.44 196.16C1174.5 196.501 1173.68 196.896 1172.98 197.344C1172.29 197.771 1171.7 198.165 1171.18 198.528C1170.69 198.869 1170.2 199.04 1169.71 199.04C1169.33 199.04 1169 198.944 1168.72 198.752C1168.44 198.539 1168.21 198.283 1168.02 197.984L1166.99 196.16ZM1218.52 196.928C1218.26 197.397 1217.87 197.632 1217.33 197.632C1217.01 197.632 1216.65 197.515 1216.25 197.28C1215.84 197.045 1215.34 196.789 1214.74 196.512C1214.17 196.213 1213.47 195.947 1212.66 195.712C1211.85 195.456 1210.89 195.328 1209.78 195.328C1208.82 195.328 1207.96 195.456 1207.19 195.712C1206.42 195.947 1205.76 196.277 1205.21 196.704C1204.67 197.131 1204.26 197.632 1203.96 198.208C1203.68 198.763 1203.54 199.371 1203.54 200.032C1203.54 200.864 1203.78 201.557 1204.25 202.112C1204.74 202.667 1205.38 203.147 1206.17 203.552C1206.95 203.957 1207.85 204.32 1208.85 204.64C1209.86 204.939 1210.88 205.269 1211.93 205.632C1212.99 205.973 1214.03 206.357 1215.03 206.784C1216.03 207.211 1216.93 207.744 1217.72 208.384C1218.51 209.024 1219.14 209.813 1219.61 210.752C1220.1 211.669 1220.34 212.779 1220.34 214.08C1220.34 215.573 1220.07 216.96 1219.54 218.24C1219.01 219.499 1218.22 220.597 1217.17 221.536C1216.13 222.453 1214.85 223.179 1213.33 223.712C1211.82 224.245 1210.07 224.512 1208.09 224.512C1205.82 224.512 1203.78 224.149 1201.94 223.424C1200.11 222.677 1198.55 221.728 1197.27 220.576L1198.61 218.4C1198.78 218.123 1198.99 217.909 1199.22 217.76C1199.46 217.611 1199.75 217.536 1200.12 217.536C1200.5 217.536 1200.91 217.685 1201.33 217.984C1201.76 218.283 1202.27 218.613 1202.87 218.976C1203.49 219.339 1204.23 219.669 1205.11 219.968C1205.98 220.267 1207.07 220.416 1208.37 220.416C1209.48 220.416 1210.45 220.277 1211.28 220C1212.12 219.701 1212.81 219.307 1213.37 218.816C1213.92 218.325 1214.33 217.76 1214.58 217.12C1214.86 216.48 1215 215.797 1215 215.072C1215 214.176 1214.75 213.44 1214.26 212.864C1213.79 212.267 1213.16 211.765 1212.37 211.36C1211.58 210.933 1210.68 210.571 1209.65 210.272C1208.65 209.952 1207.62 209.621 1206.55 209.28C1205.5 208.939 1204.47 208.555 1203.45 208.128C1202.44 207.68 1201.55 207.125 1200.76 206.464C1199.97 205.803 1199.33 204.992 1198.84 204.032C1198.37 203.051 1198.13 201.867 1198.13 200.48C1198.13 199.243 1198.39 198.059 1198.9 196.928C1199.41 195.776 1200.16 194.773 1201.14 193.92C1202.12 193.045 1203.33 192.352 1204.76 191.84C1206.19 191.328 1207.82 191.072 1209.65 191.072C1211.79 191.072 1213.7 191.413 1215.38 192.096C1217.09 192.757 1218.56 193.675 1219.8 194.848L1218.52 196.928ZM1246.2 196.928C1245.95 197.397 1245.55 197.632 1245.02 197.632C1244.7 197.632 1244.34 197.515 1243.93 197.28C1243.53 197.045 1243.03 196.789 1242.43 196.512C1241.85 196.213 1241.16 195.947 1240.35 195.712C1239.54 195.456 1238.58 195.328 1237.47 195.328C1236.51 195.328 1235.64 195.456 1234.88 195.712C1234.11 195.947 1233.45 196.277 1232.89 196.704C1232.36 197.131 1231.94 197.632 1231.64 198.208C1231.37 198.763 1231.23 199.371 1231.23 200.032C1231.23 200.864 1231.46 201.557 1231.93 202.112C1232.42 202.667 1233.06 203.147 1233.85 203.552C1234.64 203.957 1235.54 204.32 1236.54 204.64C1237.54 204.939 1238.57 205.269 1239.61 205.632C1240.68 205.973 1241.71 206.357 1242.72 206.784C1243.72 207.211 1244.62 207.744 1245.4 208.384C1246.19 209.024 1246.82 209.813 1247.29 210.752C1247.78 211.669 1248.03 212.779 1248.03 214.08C1248.03 215.573 1247.76 216.96 1247.23 218.24C1246.7 219.499 1245.91 220.597 1244.86 221.536C1243.82 222.453 1242.54 223.179 1241.02 223.712C1239.51 224.245 1237.76 224.512 1235.77 224.512C1233.51 224.512 1231.46 224.149 1229.63 223.424C1227.79 222.677 1226.24 221.728 1224.96 220.576L1226.3 218.4C1226.47 218.123 1226.67 217.909 1226.91 217.76C1227.14 217.611 1227.44 217.536 1227.8 217.536C1228.19 217.536 1228.59 217.685 1229.02 217.984C1229.45 218.283 1229.96 218.613 1230.56 218.976C1231.18 219.339 1231.92 219.669 1232.8 219.968C1233.67 220.267 1234.76 220.416 1236.06 220.416C1237.17 220.416 1238.14 220.277 1238.97 220C1239.8 219.701 1240.5 219.307 1241.05 218.816C1241.61 218.325 1242.01 217.76 1242.27 217.12C1242.55 216.48 1242.68 215.797 1242.68 215.072C1242.68 214.176 1242.44 213.44 1241.95 212.864C1241.48 212.267 1240.85 211.765 1240.06 211.36C1239.27 210.933 1238.36 210.571 1237.34 210.272C1236.34 209.952 1235.3 209.621 1234.24 209.28C1233.19 208.939 1232.16 208.555 1231.13 208.128C1230.13 207.68 1229.23 207.125 1228.44 206.464C1227.66 205.803 1227.02 204.992 1226.52 204.032C1226.06 203.051 1225.82 201.867 1225.82 200.48C1225.82 199.243 1226.08 198.059 1226.59 196.928C1227.1 195.776 1227.85 194.773 1228.83 193.92C1229.81 193.045 1231.02 192.352 1232.44 191.84C1233.87 191.328 1235.51 191.072 1237.34 191.072C1239.47 191.072 1241.38 191.413 1243.07 192.096C1244.78 192.757 1246.25 193.675 1247.48 194.848L1246.2 196.928ZM1048.62 255.688V306.472H1054.03C1054.5 306.472 1054.87 306.621 1055.15 306.92C1055.45 307.219 1055.6 307.581 1055.6 308.008V310.248H1043.82V251.944H1055.6V254.184C1055.6 254.611 1055.45 254.973 1055.15 255.272C1054.87 255.549 1054.5 255.688 1054.03 255.688H1048.62ZM1077.71 286.408C1075.08 286.493 1072.84 286.707 1070.99 287.048C1069.15 287.368 1067.65 287.795 1066.47 288.328C1065.32 288.861 1064.48 289.491 1063.95 290.216C1063.43 290.941 1063.18 291.752 1063.18 292.648C1063.18 293.501 1063.32 294.237 1063.59 294.856C1063.87 295.475 1064.24 295.987 1064.71 296.392C1065.2 296.776 1065.77 297.064 1066.41 297.256C1067.07 297.427 1067.77 297.512 1068.52 297.512C1069.52 297.512 1070.44 297.416 1071.27 297.224C1072.11 297.011 1072.88 296.712 1073.61 296.328C1074.36 295.944 1075.06 295.485 1075.72 294.952C1076.4 294.419 1077.07 293.811 1077.71 293.128V286.408ZM1059.31 273.16C1061.1 271.432 1063.03 270.141 1065.1 269.288C1067.17 268.435 1069.46 268.008 1071.98 268.008C1073.79 268.008 1075.4 268.307 1076.81 268.904C1078.22 269.501 1079.4 270.333 1080.36 271.4C1081.32 272.467 1082.05 273.757 1082.54 275.272C1083.03 276.787 1083.27 278.451 1083.27 280.264V301H1080.75C1080.19 301 1079.76 300.915 1079.47 300.744C1079.17 300.552 1078.93 300.189 1078.76 299.656L1078.12 296.584C1077.27 297.373 1076.44 298.077 1075.62 298.696C1074.81 299.293 1073.96 299.805 1073.07 300.232C1072.17 300.637 1071.21 300.947 1070.19 301.16C1069.18 301.395 1068.06 301.512 1066.83 301.512C1065.57 301.512 1064.38 301.341 1063.27 301C1062.16 300.637 1061.19 300.104 1060.36 299.4C1059.55 298.696 1058.9 297.811 1058.41 296.744C1057.94 295.656 1057.71 294.376 1057.71 292.904C1057.71 291.624 1058.06 290.397 1058.76 289.224C1059.47 288.029 1060.61 286.973 1062.19 286.056C1063.76 285.139 1065.82 284.392 1068.36 283.816C1070.9 283.219 1074.01 282.877 1077.71 282.792V280.264C1077.71 277.747 1077.16 275.848 1076.07 274.568C1074.99 273.267 1073.4 272.616 1071.31 272.616C1069.9 272.616 1068.71 272.797 1067.75 273.16C1066.81 273.501 1065.99 273.896 1065.29 274.344C1064.61 274.771 1064.01 275.165 1063.5 275.528C1063.01 275.869 1062.52 276.04 1062.03 276.04C1061.64 276.04 1061.31 275.944 1061.03 275.752C1060.76 275.539 1060.52 275.283 1060.33 274.984L1059.31 273.16ZM1101.46 301.512C1098.9 301.512 1096.93 300.797 1095.54 299.368C1094.18 297.939 1093.5 295.88 1093.5 293.192V273.352H1089.59C1089.25 273.352 1088.96 273.256 1088.73 273.064C1088.49 272.851 1088.38 272.531 1088.38 272.104V269.832L1093.69 269.16L1095 259.144C1095.06 258.824 1095.2 258.568 1095.42 258.376C1095.65 258.163 1095.95 258.056 1096.31 258.056H1099.19V269.224H1114.46L1115.77 259.144C1115.83 258.824 1115.97 258.568 1116.18 258.376C1116.42 258.163 1116.72 258.056 1117.08 258.056H1119.96V269.224H1129.34V273.352H1119.96V292.808C1119.96 294.173 1120.29 295.187 1120.95 295.848C1121.63 296.509 1122.49 296.84 1123.51 296.84C1124.11 296.84 1124.62 296.765 1125.05 296.616C1125.5 296.445 1125.88 296.264 1126.2 296.072C1126.52 295.88 1126.79 295.709 1127 295.56C1127.23 295.389 1127.44 295.304 1127.61 295.304C1127.93 295.304 1128.19 295.485 1128.41 295.848L1130.1 298.568C1129.1 299.485 1127.91 300.211 1126.52 300.744C1125.13 301.256 1123.7 301.512 1122.23 301.512C1119.69 301.512 1117.73 300.797 1116.34 299.368C1114.96 297.939 1114.26 295.88 1114.26 293.192V273.352H1099.19V292.808C1099.19 294.173 1099.52 295.187 1100.18 295.848C1100.85 296.509 1101.7 296.84 1102.74 296.84C1103.34 296.84 1103.85 296.765 1104.28 296.616C1104.73 296.445 1105.11 296.264 1105.43 296.072C1105.75 295.88 1106.02 295.709 1106.23 295.56C1106.47 295.389 1106.67 295.304 1106.84 295.304C1107.14 295.304 1107.41 295.485 1107.64 295.848L1109.3 298.568C1108.32 299.485 1107.14 300.211 1105.75 300.744C1104.37 301.256 1102.94 301.512 1101.46 301.512ZM1140.61 275.08C1141.63 272.861 1142.89 271.133 1144.38 269.896C1145.88 268.637 1147.7 268.008 1149.86 268.008C1150.54 268.008 1151.19 268.083 1151.81 268.232C1152.45 268.381 1153.01 268.616 1153.5 268.936L1153.09 273.192C1152.96 273.725 1152.64 273.992 1152.13 273.992C1151.83 273.992 1151.39 273.928 1150.82 273.8C1150.24 273.672 1149.59 273.608 1148.86 273.608C1147.84 273.608 1146.92 273.757 1146.11 274.056C1145.32 274.355 1144.61 274.803 1143.97 275.4C1143.35 275.976 1142.78 276.701 1142.27 277.576C1141.78 278.429 1141.33 279.411 1140.93 280.52V301H1135.2V268.584H1138.46C1139.08 268.584 1139.51 268.701 1139.74 268.936C1139.98 269.171 1140.14 269.576 1140.22 270.152L1140.61 275.08ZM1164.53 268.584V301H1158.83V268.584H1164.53ZM1165.74 258.408C1165.74 258.963 1165.63 259.485 1165.39 259.976C1165.18 260.445 1164.88 260.872 1164.5 261.256C1164.13 261.619 1163.7 261.907 1163.18 262.12C1162.69 262.333 1162.17 262.44 1161.62 262.44C1161.06 262.44 1160.54 262.333 1160.05 262.12C1159.58 261.907 1159.16 261.619 1158.8 261.256C1158.44 260.872 1158.15 260.445 1157.94 259.976C1157.72 259.485 1157.62 258.963 1157.62 258.408C1157.62 257.853 1157.72 257.331 1157.94 256.84C1158.15 256.328 1158.44 255.891 1158.8 255.528C1159.16 255.144 1159.58 254.845 1160.05 254.632C1160.54 254.419 1161.06 254.312 1161.62 254.312C1162.17 254.312 1162.69 254.419 1163.18 254.632C1163.7 254.845 1164.13 255.144 1164.5 255.528C1164.88 255.891 1165.18 256.328 1165.39 256.84C1165.63 257.331 1165.74 257.853 1165.74 258.408ZM1179.62 293.192C1180.66 294.6 1181.8 295.592 1183.04 296.168C1184.3 296.744 1185.67 297.032 1187.17 297.032C1190.22 297.032 1192.55 295.955 1194.18 293.8C1195.8 291.645 1196.61 288.435 1196.61 284.168C1196.61 280.2 1195.88 277.288 1194.43 275.432C1193 273.555 1190.95 272.616 1188.29 272.616C1186.43 272.616 1184.81 273.043 1183.42 273.896C1182.06 274.749 1180.79 275.955 1179.62 277.512V293.192ZM1179.62 273.256C1180.98 271.677 1182.52 270.419 1184.22 269.48C1185.95 268.541 1187.94 268.072 1190.18 268.072C1192.07 268.072 1193.78 268.435 1195.3 269.16C1196.83 269.885 1198.13 270.941 1199.2 272.328C1200.27 273.693 1201.08 275.357 1201.63 277.32C1202.21 279.283 1202.5 281.491 1202.5 283.944C1202.5 286.568 1202.18 288.957 1201.53 291.112C1200.9 293.267 1199.97 295.112 1198.75 296.648C1197.56 298.163 1196.1 299.347 1194.37 300.2C1192.64 301.032 1190.7 301.448 1188.54 301.448C1186.41 301.448 1184.61 301.053 1183.14 300.264C1181.68 299.453 1180.42 298.312 1179.33 296.84L1179.04 299.784C1178.87 300.595 1178.38 301 1177.57 301H1173.89V253.864H1179.62V273.256ZM1236.36 268.584V301H1232.96C1232.15 301 1231.64 300.605 1231.43 299.816L1230.98 296.328C1229.57 297.885 1227.99 299.144 1226.24 300.104C1224.49 301.043 1222.49 301.512 1220.23 301.512C1218.46 301.512 1216.89 301.224 1215.52 300.648C1214.18 300.051 1213.05 299.219 1212.13 298.152C1211.21 297.085 1210.52 295.795 1210.05 294.28C1209.6 292.765 1209.38 291.091 1209.38 289.256V268.584H1215.08V289.256C1215.08 291.709 1215.63 293.608 1216.74 294.952C1217.87 296.296 1219.59 296.968 1221.89 296.968C1223.58 296.968 1225.14 296.573 1226.6 295.784C1228.07 294.973 1229.42 293.864 1230.66 292.456V268.584H1236.36ZM1255.34 301.512C1252.78 301.512 1250.81 300.797 1249.42 299.368C1248.05 297.939 1247.37 295.88 1247.37 293.192V273.352H1243.47C1243.13 273.352 1242.84 273.256 1242.6 273.064C1242.37 272.851 1242.25 272.531 1242.25 272.104V269.832L1247.56 269.16L1248.88 259.144C1248.94 258.824 1249.08 258.568 1249.29 258.376C1249.53 258.163 1249.82 258.056 1250.19 258.056H1253.07V269.224H1262.44V273.352H1253.07V292.808C1253.07 294.173 1253.4 295.187 1254.06 295.848C1254.72 296.509 1255.57 296.84 1256.62 296.84C1257.22 296.84 1257.73 296.765 1258.16 296.616C1258.6 296.445 1258.99 296.264 1259.31 296.072C1259.63 295.88 1259.89 295.709 1260.11 295.56C1260.34 295.389 1260.54 295.304 1260.72 295.304C1261.01 295.304 1261.28 295.485 1261.52 295.848L1263.18 298.568C1262.2 299.485 1261.01 300.211 1259.63 300.744C1258.24 301.256 1256.81 301.512 1255.34 301.512ZM1289.83 281.256C1289.83 279.933 1289.64 278.728 1289.26 277.64C1288.89 276.531 1288.35 275.581 1287.63 274.792C1286.92 273.981 1286.06 273.363 1285.03 272.936C1284.01 272.488 1282.85 272.264 1281.55 272.264C1278.81 272.264 1276.65 273.064 1275.05 274.664C1273.47 276.243 1272.49 278.44 1272.11 281.256H1289.83ZM1294.44 296.456C1293.74 297.309 1292.89 298.056 1291.91 298.696C1290.93 299.315 1289.88 299.827 1288.75 300.232C1287.64 300.637 1286.48 300.936 1285.29 301.128C1284.09 301.341 1282.91 301.448 1281.74 301.448C1279.5 301.448 1277.43 301.075 1275.53 300.328C1273.65 299.56 1272.02 298.451 1270.63 297C1269.27 295.528 1268.2 293.715 1267.43 291.56C1266.67 289.405 1266.28 286.931 1266.28 284.136C1266.28 281.875 1266.62 279.763 1267.31 277.8C1268.01 275.837 1269.01 274.141 1270.31 272.712C1271.61 271.261 1273.2 270.131 1275.08 269.32C1276.96 268.488 1279.07 268.072 1281.42 268.072C1283.36 268.072 1285.15 268.403 1286.79 269.064C1288.46 269.704 1289.89 270.643 1291.08 271.88C1292.3 273.096 1293.25 274.611 1293.93 276.424C1294.61 278.216 1294.95 280.264 1294.95 282.568C1294.95 283.464 1294.86 284.061 1294.67 284.36C1294.47 284.659 1294.11 284.808 1293.58 284.808H1271.91C1271.98 286.856 1272.25 288.637 1272.75 290.152C1273.26 291.667 1273.96 292.936 1274.86 293.96C1275.75 294.963 1276.82 295.72 1278.06 296.232C1279.29 296.723 1280.68 296.968 1282.22 296.968C1283.65 296.968 1284.87 296.808 1285.9 296.488C1286.94 296.147 1287.84 295.784 1288.59 295.4C1289.33 295.016 1289.95 294.664 1290.44 294.344C1290.95 294.003 1291.39 293.832 1291.75 293.832C1292.22 293.832 1292.59 294.013 1292.84 294.376L1294.44 296.456ZM1309.2 310.248H1297.42V308.008C1297.42 307.581 1297.56 307.219 1297.84 306.92C1298.14 306.621 1298.52 306.472 1298.99 306.472H1304.4V255.688H1298.99C1298.52 255.688 1298.14 255.549 1297.84 255.272C1297.56 254.973 1297.42 254.611 1297.42 254.184V251.944H1309.2V310.248Z" fill="#2F4858"/>
</svg>
