<svg width="1920" height="1080" viewBox="0 0 1920 1080" fill="none" xmlns="http://www.w3.org/2000/svg">
<rect width="1920" height="1080" fill="white"/>
<rect x="162" y="390" width="301" height="301" fill="#466683"/>
<path d="M348.434 545.448C348.434 554.472 347.45 562.296 345.482 568.92C343.562 575.496 340.922 580.944 337.562 585.264C334.202 589.584 330.218 592.8 325.61 594.912C321.05 597.024 316.154 598.08 310.922 598.08C305.642 598.08 300.722 597.024 296.162 594.912C291.65 592.8 287.714 589.584 284.354 585.264C280.994 580.944 278.354 575.496 276.434 568.92C274.514 562.296 273.554 554.472 273.554 545.448C273.554 536.424 274.514 528.6 276.434 521.976C278.354 515.352 280.994 509.88 284.354 505.56C287.714 501.192 291.65 497.952 296.162 495.84C300.722 493.728 305.642 492.672 310.922 492.672C316.154 492.672 321.05 493.728 325.61 495.84C330.218 497.952 334.202 501.192 337.562 505.56C340.922 509.88 343.562 515.352 345.482 521.976C347.45 528.6 348.434 536.424 348.434 545.448ZM335.114 545.448C335.114 537.576 334.442 530.976 333.098 525.648C331.802 520.272 330.026 515.952 327.77 512.688C325.562 509.424 322.994 507.096 320.066 505.704C317.138 504.264 314.09 503.544 310.922 503.544C307.754 503.544 304.706 504.264 301.778 505.704C298.85 507.096 296.282 509.424 294.074 512.688C291.866 515.952 290.09 520.272 288.746 525.648C287.45 530.976 286.802 537.576 286.802 545.448C286.802 553.32 287.45 559.92 288.746 565.248C290.09 570.576 291.866 574.872 294.074 578.136C296.282 581.4 298.85 583.752 301.778 585.192C304.706 586.584 307.754 587.28 310.922 587.28C314.09 587.28 317.138 586.584 320.066 585.192C322.994 583.752 325.562 581.4 327.77 578.136C330.026 574.872 331.802 570.576 333.098 565.248C334.442 559.92 335.114 553.32 335.114 545.448Z" fill="white"/>
<rect x="594" y="390" width="301" height="301" fill="#466683"/>
<path d="M780.434 545.448C780.434 554.472 779.45 562.296 777.482 568.92C775.562 575.496 772.922 580.944 769.562 585.264C766.202 589.584 762.218 592.8 757.61 594.912C753.05 597.024 748.154 598.08 742.922 598.08C737.642 598.08 732.722 597.024 728.162 594.912C723.65 592.8 719.714 589.584 716.354 585.264C712.994 580.944 710.354 575.496 708.434 568.92C706.514 562.296 705.554 554.472 705.554 545.448C705.554 536.424 706.514 528.6 708.434 521.976C710.354 515.352 712.994 509.88 716.354 505.56C719.714 501.192 723.65 497.952 728.162 495.84C732.722 493.728 737.642 492.672 742.922 492.672C748.154 492.672 753.05 493.728 757.61 495.84C762.218 497.952 766.202 501.192 769.562 505.56C772.922 509.88 775.562 515.352 777.482 521.976C779.45 528.6 780.434 536.424 780.434 545.448ZM767.114 545.448C767.114 537.576 766.442 530.976 765.098 525.648C763.802 520.272 762.026 515.952 759.77 512.688C757.562 509.424 754.994 507.096 752.066 505.704C749.138 504.264 746.09 503.544 742.922 503.544C739.754 503.544 736.706 504.264 733.778 505.704C730.85 507.096 728.282 509.424 726.074 512.688C723.866 515.952 722.09 520.272 720.746 525.648C719.45 530.976 718.802 537.576 718.802 545.448C718.802 553.32 719.45 559.92 720.746 565.248C722.09 570.576 723.866 574.872 726.074 578.136C728.282 581.4 730.85 583.752 733.778 585.192C736.706 586.584 739.754 587.28 742.922 587.28C746.09 587.28 749.138 586.584 752.066 585.192C754.994 583.752 757.562 581.4 759.77 578.136C762.026 574.872 763.802 570.576 765.098 565.248C766.442 559.92 767.114 553.32 767.114 545.448Z" fill="white"/>
<rect x="1026" y="389" width="301" height="301" fill="#44BC96"/>
<path d="M1206.53 586.208V596H1151.23V586.208H1173.34V515.864C1173.34 513.752 1173.41 511.616 1173.55 509.456L1155.19 525.224C1154.57 525.752 1153.95 526.088 1153.32 526.232C1152.7 526.328 1152.12 526.328 1151.59 526.232C1151.07 526.136 1150.56 525.944 1150.08 525.656C1149.65 525.368 1149.31 525.056 1149.07 524.72L1145.04 519.176L1175.79 492.608H1186.23V586.208H1206.53Z" fill="white"/>
<path d="M1458 390H1759V691H1458V390Z" fill="#E3848B"/>
<rect x="1458" y="390" width="301" height="301" fill="#E3848B"/>
<path d="M1636.3 584.832C1637.69 584.832 1638.79 585.24 1639.61 586.056C1640.43 586.872 1640.83 587.928 1640.83 589.224V597H1572V592.608C1572 591.696 1572.19 590.76 1572.58 589.8C1572.96 588.84 1573.56 587.952 1574.38 587.136L1607.43 553.944C1610.16 551.16 1612.66 548.496 1614.91 545.952C1617.17 543.36 1619.09 540.768 1620.67 538.176C1622.26 535.584 1623.48 532.968 1624.35 530.328C1625.21 527.64 1625.64 524.784 1625.64 521.76C1625.64 518.736 1625.16 516.096 1624.2 513.84C1623.24 511.536 1621.92 509.64 1620.24 508.152C1618.61 506.664 1616.67 505.56 1614.41 504.84C1612.15 504.072 1609.73 503.688 1607.14 503.688C1604.5 503.688 1602.07 504.072 1599.87 504.84C1597.66 505.608 1595.69 506.688 1593.96 508.08C1592.28 509.424 1590.87 511.032 1589.71 512.904C1588.56 514.776 1587.75 516.84 1587.27 519.096C1586.69 520.776 1585.9 521.904 1584.89 522.48C1583.93 523.008 1582.56 523.152 1580.79 522.912L1574.09 521.76C1574.76 517.056 1576.06 512.904 1577.98 509.304C1579.95 505.656 1582.39 502.608 1585.32 500.16C1588.3 497.712 1591.68 495.864 1595.47 494.616C1599.27 493.32 1603.37 492.672 1607.79 492.672C1612.15 492.672 1616.23 493.32 1620.03 494.616C1623.82 495.912 1627.11 497.808 1629.89 500.304C1632.67 502.752 1634.86 505.752 1636.44 509.304C1638.03 512.856 1638.82 516.888 1638.82 521.4C1638.82 525.24 1638.24 528.816 1637.09 532.128C1635.94 535.392 1634.38 538.512 1632.41 541.488C1630.44 544.464 1628.16 547.368 1625.57 550.2C1623.03 553.032 1620.31 555.888 1617.43 558.768L1590.22 586.56C1592.14 586.032 1594.08 585.624 1596.05 585.336C1598.02 585 1599.91 584.832 1601.74 584.832H1636.3Z" fill="white"/>
<path d="M173.028 765.584V798H167.332V765.584H173.028ZM174.244 755.408C174.244 755.963 174.127 756.485 173.892 756.976C173.679 757.445 173.38 757.872 172.996 758.256C172.633 758.619 172.196 758.907 171.684 759.12C171.193 759.333 170.671 759.44 170.116 759.44C169.561 759.44 169.039 759.333 168.548 759.12C168.079 758.907 167.663 758.619 167.3 758.256C166.937 757.872 166.649 757.445 166.436 756.976C166.223 756.485 166.116 755.963 166.116 755.408C166.116 754.853 166.223 754.331 166.436 753.84C166.649 753.328 166.937 752.891 167.3 752.528C167.663 752.144 168.079 751.845 168.548 751.632C169.039 751.419 169.561 751.312 170.116 751.312C170.671 751.312 171.193 751.419 171.684 751.632C172.196 751.845 172.633 752.144 172.996 752.528C173.38 752.891 173.679 753.328 173.892 753.84C174.127 754.331 174.244 754.853 174.244 755.408ZM187.763 770.288C188.467 769.499 189.214 768.784 190.003 768.144C190.792 767.504 191.624 766.96 192.499 766.512C193.395 766.043 194.334 765.691 195.315 765.456C196.318 765.2 197.395 765.072 198.547 765.072C200.318 765.072 201.875 765.371 203.219 765.968C204.584 766.544 205.715 767.376 206.611 768.464C207.528 769.531 208.222 770.821 208.691 772.336C209.16 773.851 209.395 775.525 209.395 777.36V798H203.667V777.36C203.667 774.907 203.102 773.008 201.971 771.664C200.862 770.299 199.166 769.616 196.883 769.616C195.198 769.616 193.619 770.021 192.147 770.832C190.696 771.643 189.352 772.741 188.115 774.128V798H182.387V765.584H185.811C186.622 765.584 187.123 765.979 187.315 766.768L187.763 770.288ZM223.963 750.864V798H218.266V750.864H223.963ZM239.216 765.584V798H233.52V765.584H239.216ZM240.432 755.408C240.432 755.963 240.314 756.485 240.08 756.976C239.866 757.445 239.568 757.872 239.184 758.256C238.821 758.619 238.384 758.907 237.872 759.12C237.381 759.333 236.858 759.44 236.304 759.44C235.749 759.44 235.226 759.333 234.736 759.12C234.266 758.907 233.85 758.619 233.488 758.256C233.125 757.872 232.837 757.445 232.624 756.976C232.41 756.485 232.304 755.963 232.304 755.408C232.304 754.853 232.41 754.331 232.624 753.84C232.837 753.328 233.125 752.891 233.488 752.528C233.85 752.144 234.266 751.845 234.736 751.632C235.226 751.419 235.749 751.312 236.304 751.312C236.858 751.312 237.381 751.419 237.872 751.632C238.384 751.845 238.821 752.144 239.184 752.528C239.568 752.891 239.866 753.328 240.08 753.84C240.314 754.331 240.432 754.853 240.432 755.408ZM253.951 770.288C254.655 769.499 255.401 768.784 256.191 768.144C256.98 767.504 257.812 766.96 258.687 766.512C259.583 766.043 260.521 765.691 261.503 765.456C262.505 765.2 263.583 765.072 264.735 765.072C266.505 765.072 268.063 765.371 269.407 765.968C270.772 766.544 271.903 767.376 272.799 768.464C273.716 769.531 274.409 770.821 274.879 772.336C275.348 773.851 275.583 775.525 275.583 777.36V798H269.855V777.36C269.855 774.907 269.289 773.008 268.159 771.664C267.049 770.299 265.353 769.616 263.071 769.616C261.385 769.616 259.807 770.021 258.335 770.832C256.884 771.643 255.54 772.741 254.303 774.128V798H248.575V765.584H251.999C252.809 765.584 253.311 765.979 253.503 766.768L253.951 770.288ZM305.958 778.256C305.958 776.933 305.766 775.728 305.382 774.64C305.019 773.531 304.475 772.581 303.75 771.792C303.046 770.981 302.182 770.363 301.158 769.936C300.134 769.488 298.971 769.264 297.67 769.264C294.939 769.264 292.774 770.064 291.174 771.664C289.595 773.243 288.614 775.44 288.23 778.256H305.958ZM310.566 793.456C309.862 794.309 309.019 795.056 308.038 795.696C307.057 796.315 306.001 796.827 304.87 797.232C303.761 797.637 302.609 797.936 301.414 798.128C300.219 798.341 299.035 798.448 297.862 798.448C295.622 798.448 293.553 798.075 291.654 797.328C289.777 796.56 288.145 795.451 286.758 794C285.393 792.528 284.326 790.715 283.558 788.56C282.79 786.405 282.406 783.931 282.406 781.136C282.406 778.875 282.747 776.763 283.43 774.8C284.134 772.837 285.137 771.141 286.438 769.712C287.739 768.261 289.329 767.131 291.206 766.32C293.083 765.488 295.195 765.072 297.542 765.072C299.483 765.072 301.275 765.403 302.918 766.064C304.582 766.704 306.011 767.643 307.206 768.88C308.422 770.096 309.371 771.611 310.054 773.424C310.737 775.216 311.078 777.264 311.078 779.568C311.078 780.464 310.982 781.061 310.79 781.36C310.598 781.659 310.235 781.808 309.702 781.808H288.038C288.102 783.856 288.379 785.637 288.87 787.152C289.382 788.667 290.086 789.936 290.982 790.96C291.878 791.963 292.945 792.72 294.182 793.232C295.419 793.723 296.806 793.968 298.342 793.968C299.771 793.968 300.998 793.808 302.022 793.488C303.067 793.147 303.963 792.784 304.71 792.4C305.457 792.016 306.075 791.664 306.566 791.344C307.078 791.003 307.515 790.832 307.878 790.832C308.347 790.832 308.71 791.013 308.966 791.376L310.566 793.456ZM353.33 770.928C353.074 771.397 352.679 771.632 352.146 771.632C351.826 771.632 351.463 771.515 351.058 771.28C350.652 771.045 350.151 770.789 349.554 770.512C348.978 770.213 348.284 769.947 347.474 769.712C346.663 769.456 345.703 769.328 344.594 769.328C343.634 769.328 342.77 769.456 342.002 769.712C341.234 769.947 340.572 770.277 340.018 770.704C339.484 771.131 339.068 771.632 338.77 772.208C338.492 772.763 338.354 773.371 338.354 774.032C338.354 774.864 338.588 775.557 339.058 776.112C339.548 776.667 340.188 777.147 340.978 777.552C341.767 777.957 342.663 778.32 343.666 778.64C344.668 778.939 345.692 779.269 346.738 779.632C347.804 779.973 348.839 780.357 349.842 780.784C350.844 781.211 351.74 781.744 352.53 782.384C353.319 783.024 353.948 783.813 354.418 784.752C354.908 785.669 355.154 786.779 355.154 788.08C355.154 789.573 354.887 790.96 354.354 792.24C353.82 793.499 353.031 794.597 351.986 795.536C350.94 796.453 349.66 797.179 348.146 797.712C346.631 798.245 344.882 798.512 342.898 798.512C340.636 798.512 338.588 798.149 336.754 797.424C334.919 796.677 333.362 795.728 332.082 794.576L333.426 792.4C333.596 792.123 333.799 791.909 334.034 791.76C334.268 791.611 334.567 791.536 334.93 791.536C335.314 791.536 335.719 791.685 336.146 791.984C336.572 792.283 337.084 792.613 337.682 792.976C338.3 793.339 339.047 793.669 339.922 793.968C340.796 794.267 341.884 794.416 343.186 794.416C344.295 794.416 345.266 794.277 346.097 794C346.93 793.701 347.623 793.307 348.178 792.816C348.732 792.325 349.138 791.76 349.394 791.12C349.671 790.48 349.81 789.797 349.81 789.072C349.81 788.176 349.564 787.44 349.074 786.864C348.604 786.267 347.975 785.765 347.186 785.36C346.396 784.933 345.49 784.571 344.466 784.272C343.463 783.952 342.428 783.621 341.362 783.28C340.316 782.939 339.282 782.555 338.258 782.128C337.255 781.68 336.359 781.125 335.57 780.464C334.78 779.803 334.14 778.992 333.65 778.032C333.18 777.051 332.946 775.867 332.946 774.48C332.946 773.243 333.202 772.059 333.714 770.928C334.226 769.776 334.972 768.773 335.954 767.92C336.935 767.045 338.14 766.352 339.57 765.84C340.999 765.328 342.631 765.072 344.466 765.072C346.599 765.072 348.508 765.413 350.194 766.096C351.9 766.757 353.372 767.675 354.61 768.848L353.33 770.928ZM372.089 798.512C369.529 798.512 367.556 797.797 366.169 796.368C364.804 794.939 364.121 792.88 364.121 790.192V770.352H360.217C359.876 770.352 359.588 770.256 359.353 770.064C359.118 769.851 359.001 769.531 359.001 769.104V766.832L364.313 766.16L365.625 756.144C365.689 755.824 365.828 755.568 366.041 755.376C366.276 755.163 366.574 755.056 366.937 755.056H369.817V766.224H379.193V770.352H369.817V789.808C369.817 791.173 370.148 792.187 370.809 792.848C371.47 793.509 372.324 793.84 373.369 793.84C373.966 793.84 374.478 793.765 374.905 793.616C375.353 793.445 375.737 793.264 376.057 793.072C376.377 792.88 376.644 792.709 376.857 792.56C377.092 792.389 377.294 792.304 377.465 792.304C377.764 792.304 378.03 792.485 378.265 792.848L379.929 795.568C378.948 796.485 377.764 797.211 376.377 797.744C374.99 798.256 373.561 798.512 372.089 798.512ZM413.043 765.584L394.963 807.568C394.771 807.995 394.525 808.336 394.227 808.592C393.949 808.848 393.512 808.976 392.915 808.976H388.691L394.611 796.112L381.235 765.584H386.163C386.653 765.584 387.037 765.712 387.315 765.968C387.613 766.203 387.816 766.469 387.923 766.768L396.595 787.184C396.936 788.08 397.224 789.019 397.458 790C397.757 788.997 398.077 788.048 398.419 787.152L406.835 766.768C406.963 766.427 407.176 766.149 407.475 765.936C407.795 765.701 408.147 765.584 408.531 765.584H413.043ZM423.963 750.864V798H418.266V750.864H423.963ZM454.896 778.256C454.896 776.933 454.704 775.728 454.32 774.64C453.957 773.531 453.413 772.581 452.688 771.792C451.984 770.981 451.12 770.363 450.096 769.936C449.072 769.488 447.909 769.264 446.608 769.264C443.877 769.264 441.712 770.064 440.112 771.664C438.533 773.243 437.552 775.44 437.168 778.256H454.896ZM459.504 793.456C458.8 794.309 457.957 795.056 456.976 795.696C455.994 796.315 454.938 796.827 453.808 797.232C452.698 797.637 451.546 797.936 450.352 798.128C449.157 798.341 447.973 798.448 446.8 798.448C444.56 798.448 442.49 798.075 440.592 797.328C438.714 796.56 437.082 795.451 435.696 794C434.33 792.528 433.264 790.715 432.496 788.56C431.728 786.405 431.344 783.931 431.344 781.136C431.344 778.875 431.685 776.763 432.368 774.8C433.072 772.837 434.074 771.141 435.376 769.712C436.677 768.261 438.266 767.131 440.144 766.32C442.021 765.488 444.133 765.072 446.48 765.072C448.421 765.072 450.213 765.403 451.856 766.064C453.52 766.704 454.949 767.643 456.144 768.88C457.36 770.096 458.309 771.611 458.992 773.424C459.674 775.216 460.016 777.264 460.016 779.568C460.016 780.464 459.92 781.061 459.728 781.36C459.536 781.659 459.173 781.808 458.64 781.808H436.976C437.04 783.856 437.317 785.637 437.808 787.152C438.32 788.667 439.024 789.936 439.92 790.96C440.816 791.963 441.882 792.72 443.12 793.232C444.357 793.723 445.744 793.968 447.28 793.968C448.709 793.968 449.936 793.808 450.96 793.488C452.005 793.147 452.901 792.784 453.648 792.4C454.394 792.016 455.013 791.664 455.504 791.344C456.016 791.003 456.453 790.832 456.816 790.832C457.285 790.832 457.648 791.013 457.904 791.376L459.504 793.456Z" fill="#6D7E8A"/>
<path d="M721.704 769.84H713.8L711.72 780.272H719.624L721.704 769.84ZM733.8 765.648L733.384 768.048C733.277 768.667 733.021 769.125 732.616 769.424C732.232 769.701 731.634 769.84 730.824 769.84H726.408L724.328 780.272H730.056C730.674 780.272 731.112 780.453 731.368 780.816C731.645 781.157 731.72 781.765 731.592 782.64L731.304 784.464H723.72L721.032 798H718.44C718.162 798 717.906 797.936 717.672 797.808C717.437 797.68 717.234 797.509 717.064 797.296C716.914 797.083 716.808 796.827 716.744 796.528C716.68 796.229 716.68 795.899 716.744 795.536L719.016 784.464H711.112L708.84 795.824C708.712 796.613 708.402 797.179 707.912 797.52C707.421 797.84 706.866 798 706.248 798H703.688L706.408 784.464H701.736C701.138 784.464 700.701 784.293 700.424 783.952C700.168 783.589 700.104 782.971 700.232 782.096L700.488 780.272H707.016L709.096 769.84H701.672L702.088 767.472C702.194 766.853 702.44 766.395 702.824 766.096C703.229 765.797 703.837 765.648 704.648 765.648H709.704L712.008 754.192C712.136 753.552 712.424 753.051 712.872 752.688C713.341 752.325 713.896 752.144 714.536 752.144H717.096L714.408 765.648H722.312L725 752.144H727.528C728.146 752.144 728.626 752.347 728.968 752.752C729.33 753.157 729.458 753.669 729.352 754.288L727.016 765.648H733.8ZM745.997 765.584V798H740.301V765.584H745.997ZM747.213 755.408C747.213 755.963 747.095 756.485 746.861 756.976C746.647 757.445 746.349 757.872 745.965 758.256C745.602 758.619 745.165 758.907 744.653 759.12C744.162 759.333 743.639 759.44 743.085 759.44C742.53 759.44 742.007 759.333 741.517 759.12C741.047 758.907 740.631 758.619 740.269 758.256C739.906 757.872 739.618 757.445 739.405 756.976C739.191 756.485 739.085 755.963 739.085 755.408C739.085 754.853 739.191 754.331 739.405 753.84C739.618 753.328 739.906 752.891 740.269 752.528C740.631 752.144 741.047 751.845 741.517 751.632C742.007 751.419 742.53 751.312 743.085 751.312C743.639 751.312 744.162 751.419 744.653 751.632C745.165 751.845 745.602 752.144 745.965 752.528C746.349 752.891 746.647 753.328 746.861 753.84C747.095 754.331 747.213 754.853 747.213 755.408ZM776.476 773.296C775.409 771.867 774.257 770.875 773.02 770.32C771.782 769.744 770.396 769.456 768.86 769.456C765.852 769.456 763.537 770.533 761.916 772.688C760.294 774.843 759.484 777.915 759.484 781.904C759.484 784.016 759.665 785.829 760.028 787.344C760.39 788.837 760.924 790.075 761.628 791.056C762.332 792.016 763.196 792.72 764.22 793.168C765.244 793.616 766.406 793.84 767.708 793.84C769.585 793.84 771.217 793.413 772.604 792.56C774.012 791.707 775.302 790.501 776.476 788.944V773.296ZM782.172 750.864V798H778.78C777.969 798 777.457 797.605 777.244 796.816L776.732 792.88C775.345 794.544 773.766 795.888 771.996 796.912C770.225 797.936 768.177 798.448 765.852 798.448C763.996 798.448 762.31 798.096 760.796 797.392C759.281 796.667 757.99 795.611 756.924 794.224C755.857 792.837 755.036 791.109 754.46 789.04C753.884 786.971 753.596 784.592 753.596 781.904C753.596 779.515 753.916 777.296 754.556 775.248C755.196 773.179 756.113 771.387 757.308 769.872C758.502 768.357 759.964 767.173 761.692 766.32C763.441 765.445 765.404 765.008 767.58 765.008C769.564 765.008 771.26 765.349 772.668 766.032C774.097 766.693 775.366 767.621 776.476 768.816V750.864H782.172Z" fill="#6D7E8A"/>
<path d="M1520.02 778.256C1520.02 776.933 1519.83 775.728 1519.44 774.64C1519.08 773.531 1518.54 772.581 1517.81 771.792C1517.11 770.981 1516.24 770.363 1515.22 769.936C1514.2 769.488 1513.03 769.264 1511.73 769.264C1509 769.264 1506.84 770.064 1505.24 771.664C1503.66 773.243 1502.68 775.44 1502.29 778.256H1520.02ZM1524.63 793.456C1523.92 794.309 1523.08 795.056 1522.1 795.696C1521.12 796.315 1520.06 796.827 1518.93 797.232C1517.82 797.637 1516.67 797.936 1515.48 798.128C1514.28 798.341 1513.1 798.448 1511.92 798.448C1509.68 798.448 1507.62 798.075 1505.72 797.328C1503.84 796.56 1502.21 795.451 1500.82 794C1499.46 792.528 1498.39 790.715 1497.62 788.56C1496.85 786.405 1496.47 783.931 1496.47 781.136C1496.47 778.875 1496.81 776.763 1497.49 774.8C1498.2 772.837 1499.2 771.141 1500.5 769.712C1501.8 768.261 1503.39 767.131 1505.27 766.32C1507.15 765.488 1509.26 765.072 1511.6 765.072C1513.55 765.072 1515.34 765.403 1516.98 766.064C1518.64 766.704 1520.07 767.643 1521.27 768.88C1522.48 770.096 1523.43 771.611 1524.12 773.424C1524.8 775.216 1525.14 777.264 1525.14 779.568C1525.14 780.464 1525.04 781.061 1524.85 781.36C1524.66 781.659 1524.3 781.808 1523.76 781.808H1502.1C1502.16 783.856 1502.44 785.637 1502.93 787.152C1503.44 788.667 1504.15 789.936 1505.04 790.96C1505.94 791.963 1507.01 792.72 1508.24 793.232C1509.48 793.723 1510.87 793.968 1512.4 793.968C1513.83 793.968 1515.06 793.808 1516.08 793.488C1517.13 793.147 1518.03 792.784 1518.77 792.4C1519.52 792.016 1520.14 791.664 1520.63 791.344C1521.14 791.003 1521.58 790.832 1521.94 790.832C1522.41 790.832 1522.77 791.013 1523.03 791.376L1524.63 793.456ZM1538.03 750.864V798H1532.33V750.864H1538.03ZM1568.96 778.256C1568.96 776.933 1568.77 775.728 1568.38 774.64C1568.02 773.531 1567.48 772.581 1566.75 771.792C1566.05 770.981 1565.18 770.363 1564.16 769.936C1563.13 769.488 1561.97 769.264 1560.67 769.264C1557.94 769.264 1555.77 770.064 1554.17 771.664C1552.6 773.243 1551.61 775.44 1551.23 778.256H1568.96ZM1573.57 793.456C1572.86 794.309 1572.02 795.056 1571.04 795.696C1570.06 796.315 1569 796.827 1567.87 797.232C1566.76 797.637 1565.61 797.936 1564.41 798.128C1563.22 798.341 1562.04 798.448 1560.86 798.448C1558.62 798.448 1556.55 798.075 1554.65 797.328C1552.78 796.56 1551.14 795.451 1549.76 794C1548.39 792.528 1547.33 790.715 1546.56 788.56C1545.79 786.405 1545.41 783.931 1545.41 781.136C1545.41 778.875 1545.75 776.763 1546.43 774.8C1547.13 772.837 1548.14 771.141 1549.44 769.712C1550.74 768.261 1552.33 767.131 1554.21 766.32C1556.08 765.488 1558.2 765.072 1560.54 765.072C1562.48 765.072 1564.28 765.403 1565.92 766.064C1567.58 766.704 1569.01 767.643 1570.21 768.88C1571.42 770.096 1572.37 771.611 1573.05 773.424C1573.74 775.216 1574.08 777.264 1574.08 779.568C1574.08 780.464 1573.98 781.061 1573.79 781.36C1573.6 781.659 1573.24 781.808 1572.7 781.808H1551.04C1551.1 783.856 1551.38 785.637 1551.87 787.152C1552.38 788.667 1553.09 789.936 1553.98 790.96C1554.88 791.963 1555.94 792.72 1557.18 793.232C1558.42 793.723 1559.81 793.968 1561.34 793.968C1562.77 793.968 1564 793.808 1565.02 793.488C1566.07 793.147 1566.96 792.784 1567.71 792.4C1568.46 792.016 1569.08 791.664 1569.57 791.344C1570.08 791.003 1570.52 790.832 1570.88 790.832C1571.35 790.832 1571.71 791.013 1571.97 791.376L1573.57 793.456ZM1581.07 798V765.584H1584.5C1585.31 765.584 1585.81 765.979 1586 766.768L1586.42 770.096C1587.61 768.624 1588.96 767.419 1590.45 766.48C1591.94 765.541 1593.67 765.072 1595.63 765.072C1597.81 765.072 1599.57 765.68 1600.91 766.896C1602.28 768.112 1603.26 769.755 1603.86 771.824C1604.33 770.651 1604.93 769.637 1605.65 768.784C1606.4 767.931 1607.23 767.227 1608.15 766.672C1609.06 766.117 1610.03 765.712 1611.06 765.456C1612.1 765.2 1613.16 765.072 1614.23 765.072C1615.93 765.072 1617.45 765.349 1618.77 765.904C1620.11 766.437 1621.25 767.227 1622.16 768.272C1623.1 769.317 1623.82 770.608 1624.31 772.144C1624.8 773.659 1625.04 775.397 1625.04 777.36V798H1619.31V777.36C1619.31 774.821 1618.76 772.901 1617.65 771.6C1616.54 770.277 1614.94 769.616 1612.85 769.616C1611.91 769.616 1611.02 769.787 1610.16 770.128C1609.33 770.448 1608.59 770.928 1607.95 771.568C1607.31 772.208 1606.8 773.019 1606.42 774C1606.06 774.96 1605.87 776.08 1605.87 777.36V798H1600.15V777.36C1600.15 774.757 1599.62 772.816 1598.58 771.536C1597.53 770.256 1596.01 769.616 1594 769.616C1592.59 769.616 1591.29 770 1590.1 770.768C1588.9 771.515 1587.81 772.539 1586.8 773.84V798H1581.07ZM1655.4 778.256C1655.4 776.933 1655.2 775.728 1654.82 774.64C1654.46 773.531 1653.91 772.581 1653.19 771.792C1652.48 770.981 1651.62 770.363 1650.6 769.936C1649.57 769.488 1648.41 769.264 1647.11 769.264C1644.38 769.264 1642.21 770.064 1640.61 771.664C1639.03 773.243 1638.05 775.44 1637.67 778.256H1655.4ZM1660 793.456C1659.3 794.309 1658.46 795.056 1657.48 795.696C1656.49 796.315 1655.44 796.827 1654.31 797.232C1653.2 797.637 1652.05 797.936 1650.85 798.128C1649.66 798.341 1648.47 798.448 1647.3 798.448C1645.06 798.448 1642.99 798.075 1641.09 797.328C1639.21 796.56 1637.58 795.451 1636.2 794C1634.83 792.528 1633.76 790.715 1633 788.56C1632.23 786.405 1631.84 783.931 1631.84 781.136C1631.84 778.875 1632.18 776.763 1632.87 774.8C1633.57 772.837 1634.57 771.141 1635.88 769.712C1637.18 768.261 1638.77 767.131 1640.64 766.32C1642.52 765.488 1644.63 765.072 1646.98 765.072C1648.92 765.072 1650.71 765.403 1652.36 766.064C1654.02 766.704 1655.45 767.643 1656.64 768.88C1657.86 770.096 1658.81 771.611 1659.49 773.424C1660.17 775.216 1660.52 777.264 1660.52 779.568C1660.52 780.464 1660.42 781.061 1660.23 781.36C1660.04 781.659 1659.67 781.808 1659.14 781.808H1637.48C1637.54 783.856 1637.82 785.637 1638.31 787.152C1638.82 788.667 1639.52 789.936 1640.42 790.96C1641.32 791.963 1642.38 792.72 1643.62 793.232C1644.86 793.723 1646.24 793.968 1647.78 793.968C1649.21 793.968 1650.44 793.808 1651.46 793.488C1652.5 793.147 1653.4 792.784 1654.15 792.4C1654.89 792.016 1655.51 791.664 1656 791.344C1656.52 791.003 1656.95 790.832 1657.32 790.832C1657.78 790.832 1658.15 791.013 1658.4 791.376L1660 793.456ZM1672.89 770.288C1673.59 769.499 1674.34 768.784 1675.13 768.144C1675.92 767.504 1676.75 766.96 1677.62 766.512C1678.52 766.043 1679.46 765.691 1680.44 765.456C1681.44 765.2 1682.52 765.072 1683.67 765.072C1685.44 765.072 1687 765.371 1688.34 765.968C1689.71 766.544 1690.84 767.376 1691.74 768.464C1692.65 769.531 1693.35 770.821 1693.82 772.336C1694.29 773.851 1694.52 775.525 1694.52 777.36V798H1688.79V777.36C1688.79 774.907 1688.23 773.008 1687.1 771.664C1685.99 770.299 1684.29 769.616 1682.01 769.616C1680.32 769.616 1678.74 770.021 1677.27 770.832C1675.82 771.643 1674.48 772.741 1673.24 774.128V798H1667.51V765.584H1670.94C1671.75 765.584 1672.25 765.979 1672.44 766.768L1672.89 770.288ZM1712.71 798.512C1710.15 798.512 1708.18 797.797 1706.79 796.368C1705.43 794.939 1704.75 792.88 1704.75 790.192V770.352H1700.84C1700.5 770.352 1700.21 770.256 1699.98 770.064C1699.74 769.851 1699.63 769.531 1699.63 769.104V766.832L1704.94 766.16L1706.25 756.144C1706.31 755.824 1706.45 755.568 1706.67 755.376C1706.9 755.163 1707.2 755.056 1707.56 755.056H1710.44V766.224H1719.82V770.352H1710.44V789.808C1710.44 791.173 1710.77 792.187 1711.43 792.848C1712.1 793.509 1712.95 793.84 1713.99 793.84C1714.59 793.84 1715.1 793.765 1715.53 793.616C1715.98 793.445 1716.36 793.264 1716.68 793.072C1717 792.88 1717.27 792.709 1717.48 792.56C1717.72 792.389 1717.92 792.304 1718.09 792.304C1718.39 792.304 1718.66 792.485 1718.89 792.848L1720.55 795.568C1719.57 796.485 1718.39 797.211 1717 797.744C1715.62 798.256 1714.19 798.512 1712.71 798.512Z" fill="#6D7E8A"/>
<path d="M1106.05 794.48C1106.05 793.925 1106.15 793.403 1106.34 792.912C1106.55 792.421 1106.83 791.995 1107.17 791.632C1107.53 791.269 1107.96 790.981 1108.45 790.768C1108.94 790.555 1109.47 790.448 1110.02 790.448C1110.57 790.448 1111.1 790.555 1111.59 790.768C1112.08 790.981 1112.51 791.269 1112.87 791.632C1113.23 791.995 1113.52 792.421 1113.73 792.912C1113.95 793.403 1114.05 793.925 1114.05 794.48C1114.05 795.056 1113.95 795.589 1113.73 796.08C1113.52 796.549 1113.23 796.965 1112.87 797.328C1112.51 797.691 1112.08 797.968 1111.59 798.16C1111.1 798.373 1110.57 798.48 1110.02 798.48C1109.47 798.48 1108.94 798.373 1108.45 798.16C1107.96 797.968 1107.53 797.691 1107.17 797.328C1106.83 796.965 1106.55 796.549 1106.34 796.08C1106.15 795.589 1106.05 795.056 1106.05 794.48ZM1144.7 771.344C1144.53 771.579 1144.36 771.76 1144.19 771.888C1144.01 772.016 1143.78 772.08 1143.48 772.08C1143.16 772.08 1142.81 771.952 1142.43 771.696C1142.04 771.419 1141.56 771.12 1140.99 770.8C1140.43 770.48 1139.74 770.192 1138.91 769.936C1138.09 769.659 1137.09 769.52 1135.9 769.52C1134.3 769.52 1132.89 769.808 1131.67 770.384C1130.46 770.939 1129.43 771.749 1128.6 772.816C1127.79 773.883 1127.17 775.173 1126.75 776.688C1126.34 778.203 1126.14 779.899 1126.14 781.776C1126.14 783.739 1126.36 785.488 1126.81 787.024C1127.26 788.539 1127.89 789.819 1128.7 790.864C1129.53 791.888 1130.52 792.677 1131.67 793.232C1132.85 793.765 1134.16 794.032 1135.61 794.032C1137 794.032 1138.14 793.872 1139.03 793.552C1139.93 793.211 1140.67 792.837 1141.24 792.432C1141.84 792.027 1142.33 791.664 1142.71 791.344C1143.12 791.003 1143.51 790.832 1143.9 790.832C1144.37 790.832 1144.73 791.013 1144.99 791.376L1146.59 793.456C1145.88 794.331 1145.08 795.077 1144.19 795.696C1143.29 796.315 1142.32 796.837 1141.27 797.264C1140.25 797.669 1139.17 797.968 1138.04 798.16C1136.91 798.352 1135.76 798.448 1134.59 798.448C1132.56 798.448 1130.67 798.075 1128.92 797.328C1127.19 796.581 1125.69 795.504 1124.41 794.096C1123.13 792.667 1122.13 790.917 1121.4 788.848C1120.68 786.779 1120.31 784.421 1120.31 781.776C1120.31 779.365 1120.64 777.136 1121.31 775.088C1121.99 773.04 1122.97 771.28 1124.25 769.808C1125.55 768.315 1127.14 767.152 1129.02 766.32C1130.92 765.488 1133.09 765.072 1135.55 765.072C1137.83 765.072 1139.83 765.445 1141.56 766.192C1143.31 766.917 1144.86 767.952 1146.2 769.296L1144.7 771.344ZM1158.59 750.864V798H1152.89V750.864H1158.59ZM1185.39 783.408C1182.77 783.493 1180.53 783.707 1178.67 784.048C1176.84 784.368 1175.33 784.795 1174.16 785.328C1173.01 785.861 1172.17 786.491 1171.63 787.216C1171.12 787.941 1170.86 788.752 1170.86 789.648C1170.86 790.501 1171 791.237 1171.28 791.856C1171.56 792.475 1171.93 792.987 1172.4 793.392C1172.89 793.776 1173.46 794.064 1174.1 794.256C1174.76 794.427 1175.46 794.512 1176.21 794.512C1177.21 794.512 1178.13 794.416 1178.96 794.224C1179.79 794.011 1180.57 793.712 1181.3 793.328C1182.04 792.944 1182.75 792.485 1183.41 791.952C1184.09 791.419 1184.75 790.811 1185.39 790.128V783.408ZM1166.99 770.16C1168.78 768.432 1170.72 767.141 1172.78 766.288C1174.85 765.435 1177.15 765.008 1179.66 765.008C1181.48 765.008 1183.09 765.307 1184.5 765.904C1185.9 766.501 1187.09 767.333 1188.05 768.4C1189.01 769.467 1189.73 770.757 1190.22 772.272C1190.72 773.787 1190.96 775.451 1190.96 777.264V798H1188.43C1187.88 798 1187.45 797.915 1187.15 797.744C1186.85 797.552 1186.62 797.189 1186.45 796.656L1185.81 793.584C1184.96 794.373 1184.12 795.077 1183.31 795.696C1182.5 796.293 1181.65 796.805 1180.75 797.232C1179.86 797.637 1178.9 797.947 1177.87 798.16C1176.87 798.395 1175.75 798.512 1174.51 798.512C1173.25 798.512 1172.07 798.341 1170.96 798C1169.85 797.637 1168.88 797.104 1168.05 796.4C1167.24 795.696 1166.59 794.811 1166.1 793.744C1165.63 792.656 1165.39 791.376 1165.39 789.904C1165.39 788.624 1165.74 787.397 1166.45 786.224C1167.15 785.029 1168.29 783.973 1169.87 783.056C1171.45 782.139 1173.51 781.392 1176.05 780.816C1178.59 780.219 1181.7 779.877 1185.39 779.792V777.264C1185.39 774.747 1184.85 772.848 1183.76 771.568C1182.67 770.267 1181.08 769.616 1178.99 769.616C1177.58 769.616 1176.4 769.797 1175.44 770.16C1174.5 770.501 1173.68 770.896 1172.98 771.344C1172.29 771.771 1171.7 772.165 1171.18 772.528C1170.69 772.869 1170.2 773.04 1169.71 773.04C1169.33 773.04 1169 772.944 1168.72 772.752C1168.44 772.539 1168.21 772.283 1168.02 771.984L1166.99 770.16ZM1218.52 770.928C1218.26 771.397 1217.87 771.632 1217.33 771.632C1217.01 771.632 1216.65 771.515 1216.25 771.28C1215.84 771.045 1215.34 770.789 1214.74 770.512C1214.17 770.213 1213.47 769.947 1212.66 769.712C1211.85 769.456 1210.89 769.328 1209.78 769.328C1208.82 769.328 1207.96 769.456 1207.19 769.712C1206.42 769.947 1205.76 770.277 1205.21 770.704C1204.67 771.131 1204.26 771.632 1203.96 772.208C1203.68 772.763 1203.54 773.371 1203.54 774.032C1203.54 774.864 1203.78 775.557 1204.25 776.112C1204.74 776.667 1205.38 777.147 1206.17 777.552C1206.95 777.957 1207.85 778.32 1208.85 778.64C1209.86 778.939 1210.88 779.269 1211.93 779.632C1212.99 779.973 1214.03 780.357 1215.03 780.784C1216.03 781.211 1216.93 781.744 1217.72 782.384C1218.51 783.024 1219.14 783.813 1219.61 784.752C1220.1 785.669 1220.34 786.779 1220.34 788.08C1220.34 789.573 1220.07 790.96 1219.54 792.24C1219.01 793.499 1218.22 794.597 1217.17 795.536C1216.13 796.453 1214.85 797.179 1213.33 797.712C1211.82 798.245 1210.07 798.512 1208.09 798.512C1205.82 798.512 1203.78 798.149 1201.94 797.424C1200.11 796.677 1198.55 795.728 1197.27 794.576L1198.61 792.4C1198.78 792.123 1198.99 791.909 1199.22 791.76C1199.46 791.611 1199.75 791.536 1200.12 791.536C1200.5 791.536 1200.91 791.685 1201.33 791.984C1201.76 792.283 1202.27 792.613 1202.87 792.976C1203.49 793.339 1204.23 793.669 1205.11 793.968C1205.98 794.267 1207.07 794.416 1208.37 794.416C1209.48 794.416 1210.45 794.277 1211.28 794C1212.12 793.701 1212.81 793.307 1213.37 792.816C1213.92 792.325 1214.33 791.76 1214.58 791.12C1214.86 790.48 1215 789.797 1215 789.072C1215 788.176 1214.75 787.44 1214.26 786.864C1213.79 786.267 1213.16 785.765 1212.37 785.36C1211.58 784.933 1210.68 784.571 1209.65 784.272C1208.65 783.952 1207.62 783.621 1206.55 783.28C1205.5 782.939 1204.47 782.555 1203.45 782.128C1202.44 781.68 1201.55 781.125 1200.76 780.464C1199.97 779.803 1199.33 778.992 1198.84 778.032C1198.37 777.051 1198.13 775.867 1198.13 774.48C1198.13 773.243 1198.39 772.059 1198.9 770.928C1199.41 769.776 1200.16 768.773 1201.14 767.92C1202.12 767.045 1203.33 766.352 1204.76 765.84C1206.19 765.328 1207.82 765.072 1209.65 765.072C1211.79 765.072 1213.7 765.413 1215.38 766.096C1217.09 766.757 1218.56 767.675 1219.8 768.848L1218.52 770.928ZM1246.2 770.928C1245.95 771.397 1245.55 771.632 1245.02 771.632C1244.7 771.632 1244.34 771.515 1243.93 771.28C1243.53 771.045 1243.03 770.789 1242.43 770.512C1241.85 770.213 1241.16 769.947 1240.35 769.712C1239.54 769.456 1238.58 769.328 1237.47 769.328C1236.51 769.328 1235.64 769.456 1234.88 769.712C1234.11 769.947 1233.45 770.277 1232.89 770.704C1232.36 771.131 1231.94 771.632 1231.64 772.208C1231.37 772.763 1231.23 773.371 1231.23 774.032C1231.23 774.864 1231.46 775.557 1231.93 776.112C1232.42 776.667 1233.06 777.147 1233.85 777.552C1234.64 777.957 1235.54 778.32 1236.54 778.64C1237.54 778.939 1238.57 779.269 1239.61 779.632C1240.68 779.973 1241.71 780.357 1242.72 780.784C1243.72 781.211 1244.62 781.744 1245.4 782.384C1246.19 783.024 1246.82 783.813 1247.29 784.752C1247.78 785.669 1248.03 786.779 1248.03 788.08C1248.03 789.573 1247.76 790.96 1247.23 792.24C1246.7 793.499 1245.91 794.597 1244.86 795.536C1243.82 796.453 1242.54 797.179 1241.02 797.712C1239.51 798.245 1237.76 798.512 1235.77 798.512C1233.51 798.512 1231.46 798.149 1229.63 797.424C1227.79 796.677 1226.24 795.728 1224.96 794.576L1226.3 792.4C1226.47 792.123 1226.67 791.909 1226.91 791.76C1227.14 791.611 1227.44 791.536 1227.8 791.536C1228.19 791.536 1228.59 791.685 1229.02 791.984C1229.45 792.283 1229.96 792.613 1230.56 792.976C1231.18 793.339 1231.92 793.669 1232.8 793.968C1233.67 794.267 1234.76 794.416 1236.06 794.416C1237.17 794.416 1238.14 794.277 1238.97 794C1239.8 793.701 1240.5 793.307 1241.05 792.816C1241.61 792.325 1242.01 791.76 1242.27 791.12C1242.55 790.48 1242.68 789.797 1242.68 789.072C1242.68 788.176 1242.44 787.44 1241.95 786.864C1241.48 786.267 1240.85 785.765 1240.06 785.36C1239.27 784.933 1238.36 784.571 1237.34 784.272C1236.34 783.952 1235.3 783.621 1234.24 783.28C1233.19 782.939 1232.16 782.555 1231.13 782.128C1230.13 781.68 1229.23 781.125 1228.44 780.464C1227.66 779.803 1227.02 778.992 1226.52 778.032C1226.06 777.051 1225.82 775.867 1225.82 774.48C1225.82 773.243 1226.08 772.059 1226.59 770.928C1227.1 769.776 1227.85 768.773 1228.83 767.92C1229.81 767.045 1231.02 766.352 1232.44 765.84C1233.87 765.328 1235.51 765.072 1237.34 765.072C1239.47 765.072 1241.38 765.413 1243.07 766.096C1244.78 766.757 1246.25 767.675 1247.48 768.848L1246.2 770.928ZM1048.62 829.688V880.472H1054.03C1054.5 880.472 1054.87 880.621 1055.15 880.92C1055.45 881.219 1055.6 881.581 1055.6 882.008V884.248H1043.82V825.944H1055.6V828.184C1055.6 828.611 1055.45 828.973 1055.15 829.272C1054.87 829.549 1054.5 829.688 1054.03 829.688H1048.62ZM1077.71 860.408C1075.08 860.493 1072.84 860.707 1070.99 861.048C1069.15 861.368 1067.65 861.795 1066.47 862.328C1065.32 862.861 1064.48 863.491 1063.95 864.216C1063.43 864.941 1063.18 865.752 1063.18 866.648C1063.18 867.501 1063.32 868.237 1063.59 868.856C1063.87 869.475 1064.24 869.987 1064.71 870.392C1065.2 870.776 1065.77 871.064 1066.41 871.256C1067.07 871.427 1067.77 871.512 1068.52 871.512C1069.52 871.512 1070.44 871.416 1071.27 871.224C1072.11 871.011 1072.88 870.712 1073.61 870.328C1074.36 869.944 1075.06 869.485 1075.72 868.952C1076.4 868.419 1077.07 867.811 1077.71 867.128V860.408ZM1059.31 847.16C1061.1 845.432 1063.03 844.141 1065.1 843.288C1067.17 842.435 1069.46 842.008 1071.98 842.008C1073.79 842.008 1075.4 842.307 1076.81 842.904C1078.22 843.501 1079.4 844.333 1080.36 845.4C1081.32 846.467 1082.05 847.757 1082.54 849.272C1083.03 850.787 1083.27 852.451 1083.27 854.264V875H1080.75C1080.19 875 1079.76 874.915 1079.47 874.744C1079.17 874.552 1078.93 874.189 1078.76 873.656L1078.12 870.584C1077.27 871.373 1076.44 872.077 1075.62 872.696C1074.81 873.293 1073.96 873.805 1073.07 874.232C1072.17 874.637 1071.21 874.947 1070.19 875.16C1069.18 875.395 1068.06 875.512 1066.83 875.512C1065.57 875.512 1064.38 875.341 1063.27 875C1062.16 874.637 1061.19 874.104 1060.36 873.4C1059.55 872.696 1058.9 871.811 1058.41 870.744C1057.94 869.656 1057.71 868.376 1057.71 866.904C1057.71 865.624 1058.06 864.397 1058.76 863.224C1059.47 862.029 1060.61 860.973 1062.19 860.056C1063.76 859.139 1065.82 858.392 1068.36 857.816C1070.9 857.219 1074.01 856.877 1077.71 856.792V854.264C1077.71 851.747 1077.16 849.848 1076.07 848.568C1074.99 847.267 1073.4 846.616 1071.31 846.616C1069.9 846.616 1068.71 846.797 1067.75 847.16C1066.81 847.501 1065.99 847.896 1065.29 848.344C1064.61 848.771 1064.01 849.165 1063.5 849.528C1063.01 849.869 1062.52 850.04 1062.03 850.04C1061.64 850.04 1061.31 849.944 1061.03 849.752C1060.76 849.539 1060.52 849.283 1060.33 848.984L1059.31 847.16ZM1101.46 875.512C1098.9 875.512 1096.93 874.797 1095.54 873.368C1094.18 871.939 1093.5 869.88 1093.5 867.192V847.352H1089.59C1089.25 847.352 1088.96 847.256 1088.73 847.064C1088.49 846.851 1088.38 846.531 1088.38 846.104V843.832L1093.69 843.16L1095 833.144C1095.06 832.824 1095.2 832.568 1095.42 832.376C1095.65 832.163 1095.95 832.056 1096.31 832.056H1099.19V843.224H1114.46L1115.77 833.144C1115.83 832.824 1115.97 832.568 1116.18 832.376C1116.42 832.163 1116.72 832.056 1117.08 832.056H1119.96V843.224H1129.34V847.352H1119.96V866.808C1119.96 868.173 1120.29 869.187 1120.95 869.848C1121.63 870.509 1122.49 870.84 1123.51 870.84C1124.11 870.84 1124.62 870.765 1125.05 870.616C1125.5 870.445 1125.88 870.264 1126.2 870.072C1126.52 869.88 1126.79 869.709 1127 869.56C1127.23 869.389 1127.44 869.304 1127.61 869.304C1127.93 869.304 1128.19 869.485 1128.41 869.848L1130.1 872.568C1129.1 873.485 1127.91 874.211 1126.52 874.744C1125.13 875.256 1123.7 875.512 1122.23 875.512C1119.69 875.512 1117.73 874.797 1116.34 873.368C1114.96 871.939 1114.26 869.88 1114.26 867.192V847.352H1099.19V866.808C1099.19 868.173 1099.52 869.187 1100.18 869.848C1100.85 870.509 1101.7 870.84 1102.74 870.84C1103.34 870.84 1103.85 870.765 1104.28 870.616C1104.73 870.445 1105.11 870.264 1105.43 870.072C1105.75 869.88 1106.02 869.709 1106.23 869.56C1106.47 869.389 1106.67 869.304 1106.84 869.304C1107.14 869.304 1107.41 869.485 1107.64 869.848L1109.3 872.568C1108.32 873.485 1107.14 874.211 1105.75 874.744C1104.37 875.256 1102.94 875.512 1101.46 875.512ZM1140.61 849.08C1141.63 846.861 1142.89 845.133 1144.38 843.896C1145.88 842.637 1147.7 842.008 1149.86 842.008C1150.54 842.008 1151.19 842.083 1151.81 842.232C1152.45 842.381 1153.01 842.616 1153.5 842.936L1153.09 847.192C1152.96 847.725 1152.64 847.992 1152.13 847.992C1151.83 847.992 1151.39 847.928 1150.82 847.8C1150.24 847.672 1149.59 847.608 1148.86 847.608C1147.84 847.608 1146.92 847.757 1146.11 848.056C1145.32 848.355 1144.61 848.803 1143.97 849.4C1143.35 849.976 1142.78 850.701 1142.27 851.576C1141.78 852.429 1141.33 853.411 1140.93 854.52V875H1135.2V842.584H1138.46C1139.08 842.584 1139.51 842.701 1139.74 842.936C1139.98 843.171 1140.14 843.576 1140.22 844.152L1140.61 849.08ZM1164.53 842.584V875H1158.83V842.584H1164.53ZM1165.74 832.408C1165.74 832.963 1165.63 833.485 1165.39 833.976C1165.18 834.445 1164.88 834.872 1164.5 835.256C1164.13 835.619 1163.7 835.907 1163.18 836.12C1162.69 836.333 1162.17 836.44 1161.62 836.44C1161.06 836.44 1160.54 836.333 1160.05 836.12C1159.58 835.907 1159.16 835.619 1158.8 835.256C1158.44 834.872 1158.15 834.445 1157.94 833.976C1157.72 833.485 1157.62 832.963 1157.62 832.408C1157.62 831.853 1157.72 831.331 1157.94 830.84C1158.15 830.328 1158.44 829.891 1158.8 829.528C1159.16 829.144 1159.58 828.845 1160.05 828.632C1160.54 828.419 1161.06 828.312 1161.62 828.312C1162.17 828.312 1162.69 828.419 1163.18 828.632C1163.7 828.845 1164.13 829.144 1164.5 829.528C1164.88 829.891 1165.18 830.328 1165.39 830.84C1165.63 831.331 1165.74 831.853 1165.74 832.408ZM1179.62 867.192C1180.66 868.6 1181.8 869.592 1183.04 870.168C1184.3 870.744 1185.67 871.032 1187.17 871.032C1190.22 871.032 1192.55 869.955 1194.18 867.8C1195.8 865.645 1196.61 862.435 1196.61 858.168C1196.61 854.2 1195.88 851.288 1194.43 849.432C1193 847.555 1190.95 846.616 1188.29 846.616C1186.43 846.616 1184.81 847.043 1183.42 847.896C1182.06 848.749 1180.79 849.955 1179.62 851.512V867.192ZM1179.62 847.256C1180.98 845.677 1182.52 844.419 1184.22 843.48C1185.95 842.541 1187.94 842.072 1190.18 842.072C1192.07 842.072 1193.78 842.435 1195.3 843.16C1196.83 843.885 1198.13 844.941 1199.2 846.328C1200.27 847.693 1201.08 849.357 1201.63 851.32C1202.21 853.283 1202.5 855.491 1202.5 857.944C1202.5 860.568 1202.18 862.957 1201.53 865.112C1200.9 867.267 1199.97 869.112 1198.75 870.648C1197.56 872.163 1196.1 873.347 1194.37 874.2C1192.64 875.032 1190.7 875.448 1188.54 875.448C1186.41 875.448 1184.61 875.053 1183.14 874.264C1181.68 873.453 1180.42 872.312 1179.33 870.84L1179.04 873.784C1178.87 874.595 1178.38 875 1177.57 875H1173.89V827.864H1179.62V847.256ZM1236.36 842.584V875H1232.96C1232.15 875 1231.64 874.605 1231.43 873.816L1230.98 870.328C1229.57 871.885 1227.99 873.144 1226.24 874.104C1224.49 875.043 1222.49 875.512 1220.23 875.512C1218.46 875.512 1216.89 875.224 1215.52 874.648C1214.18 874.051 1213.05 873.219 1212.13 872.152C1211.21 871.085 1210.52 869.795 1210.05 868.28C1209.6 866.765 1209.38 865.091 1209.38 863.256V842.584H1215.08V863.256C1215.08 865.709 1215.63 867.608 1216.74 868.952C1217.87 870.296 1219.59 870.968 1221.89 870.968C1223.58 870.968 1225.14 870.573 1226.6 869.784C1228.07 868.973 1229.42 867.864 1230.66 866.456V842.584H1236.36ZM1255.34 875.512C1252.78 875.512 1250.81 874.797 1249.42 873.368C1248.05 871.939 1247.37 869.88 1247.37 867.192V847.352H1243.47C1243.13 847.352 1242.84 847.256 1242.6 847.064C1242.37 846.851 1242.25 846.531 1242.25 846.104V843.832L1247.56 843.16L1248.88 833.144C1248.94 832.824 1249.08 832.568 1249.29 832.376C1249.53 832.163 1249.82 832.056 1250.19 832.056H1253.07V843.224H1262.44V847.352H1253.07V866.808C1253.07 868.173 1253.4 869.187 1254.06 869.848C1254.72 870.509 1255.57 870.84 1256.62 870.84C1257.22 870.84 1257.73 870.765 1258.16 870.616C1258.6 870.445 1258.99 870.264 1259.31 870.072C1259.63 869.88 1259.89 869.709 1260.11 869.56C1260.34 869.389 1260.54 869.304 1260.72 869.304C1261.01 869.304 1261.28 869.485 1261.52 869.848L1263.18 872.568C1262.2 873.485 1261.01 874.211 1259.63 874.744C1258.24 875.256 1256.81 875.512 1255.34 875.512ZM1289.83 855.256C1289.83 853.933 1289.64 852.728 1289.26 851.64C1288.89 850.531 1288.35 849.581 1287.63 848.792C1286.92 847.981 1286.06 847.363 1285.03 846.936C1284.01 846.488 1282.85 846.264 1281.55 846.264C1278.81 846.264 1276.65 847.064 1275.05 848.664C1273.47 850.243 1272.49 852.44 1272.11 855.256H1289.83ZM1294.44 870.456C1293.74 871.309 1292.89 872.056 1291.91 872.696C1290.93 873.315 1289.88 873.827 1288.75 874.232C1287.64 874.637 1286.48 874.936 1285.29 875.128C1284.09 875.341 1282.91 875.448 1281.74 875.448C1279.5 875.448 1277.43 875.075 1275.53 874.328C1273.65 873.56 1272.02 872.451 1270.63 871C1269.27 869.528 1268.2 867.715 1267.43 865.56C1266.67 863.405 1266.28 860.931 1266.28 858.136C1266.28 855.875 1266.62 853.763 1267.31 851.8C1268.01 849.837 1269.01 848.141 1270.31 846.712C1271.61 845.261 1273.2 844.131 1275.08 843.32C1276.96 842.488 1279.07 842.072 1281.42 842.072C1283.36 842.072 1285.15 842.403 1286.79 843.064C1288.46 843.704 1289.89 844.643 1291.08 845.88C1292.3 847.096 1293.25 848.611 1293.93 850.424C1294.61 852.216 1294.95 854.264 1294.95 856.568C1294.95 857.464 1294.86 858.061 1294.67 858.36C1294.47 858.659 1294.11 858.808 1293.58 858.808H1271.91C1271.98 860.856 1272.25 862.637 1272.75 864.152C1273.26 865.667 1273.96 866.936 1274.86 867.96C1275.75 868.963 1276.82 869.72 1278.06 870.232C1279.29 870.723 1280.68 870.968 1282.22 870.968C1283.65 870.968 1284.87 870.808 1285.9 870.488C1286.94 870.147 1287.84 869.784 1288.59 869.4C1289.33 869.016 1289.95 868.664 1290.44 868.344C1290.95 868.003 1291.39 867.832 1291.75 867.832C1292.22 867.832 1292.59 868.013 1292.84 868.376L1294.44 870.456ZM1309.2 884.248H1297.42V882.008C1297.42 881.581 1297.56 881.219 1297.84 880.92C1298.14 880.621 1298.52 880.472 1298.99 880.472H1304.4V829.688H1298.99C1298.52 829.688 1298.14 829.549 1297.84 829.272C1297.56 828.973 1297.42 828.611 1297.42 828.184V825.944H1309.2V884.248Z" fill="#6D7E8A"/>
<path d="M633.15 179.216C631.998 178.747 630.867 178.405 629.757 178.192C628.691 177.979 627.518 177.872 626.238 177.872C623.806 177.872 622.035 178.469 620.926 179.664C619.859 180.816 619.326 182.501 619.326 184.72V186.576H631.294V192.4H619.326V218H612.03V192.4H603.326V186.896L612.03 186.576V184.848C612.03 183.013 612.286 181.307 612.798 179.728C613.31 178.149 614.099 176.805 615.166 175.696C616.275 174.544 617.662 173.648 619.326 173.008C621.032 172.368 623.038 172.048 625.342 172.048C627.048 172.048 628.67 172.197 630.206 172.496C631.784 172.795 633.278 173.221 634.686 173.776L633.15 179.216ZM639.205 202.32C639.205 199.717 639.631 197.392 640.485 195.344C641.381 193.296 642.554 191.568 644.005 190.16C645.455 188.752 647.141 187.685 649.061 186.96C650.981 186.192 652.965 185.808 655.013 185.808C657.061 185.808 659.045 186.192 660.965 186.96C662.885 187.685 664.57 188.752 666.021 190.16C667.471 191.568 668.623 193.296 669.477 195.344C670.373 197.392 670.821 199.717 670.821 202.32C670.821 204.923 670.373 207.248 669.477 209.296C668.623 211.344 667.471 213.072 666.021 214.48C664.57 215.888 662.885 216.955 660.965 217.68C659.045 218.405 657.061 218.768 655.013 218.768C652.965 218.768 650.981 218.405 649.061 217.68C647.141 216.955 645.455 215.888 644.005 214.48C642.554 213.072 641.381 211.344 640.485 209.296C639.631 207.248 639.205 204.923 639.205 202.32ZM646.821 202.32C646.821 205.477 647.546 208.016 648.997 209.936C650.447 211.813 652.453 212.752 655.013 212.752C657.573 212.752 659.578 211.813 661.029 209.936C662.479 208.016 663.205 205.477 663.205 202.32C663.205 199.12 662.479 196.581 661.029 194.704C659.578 192.784 657.573 191.824 655.013 191.824C652.453 191.824 650.447 192.784 648.997 194.704C647.546 196.581 646.821 199.12 646.821 202.32ZM677.58 202.32C677.58 199.717 678.006 197.392 678.86 195.344C679.756 193.296 680.929 191.568 682.38 190.16C683.83 188.752 685.516 187.685 687.436 186.96C689.356 186.192 691.34 185.808 693.388 185.808C695.436 185.808 697.42 186.192 699.34 186.96C701.26 187.685 702.945 188.752 704.396 190.16C705.846 191.568 706.998 193.296 707.852 195.344C708.748 197.392 709.196 199.717 709.196 202.32C709.196 204.923 708.748 207.248 707.852 209.296C706.998 211.344 705.846 213.072 704.396 214.48C702.945 215.888 701.26 216.955 699.34 217.68C697.42 218.405 695.436 218.768 693.388 218.768C691.34 218.768 689.356 218.405 687.436 217.68C685.516 216.955 683.83 215.888 682.38 214.48C680.929 213.072 679.756 211.344 678.86 209.296C678.006 207.248 677.58 204.923 677.58 202.32ZM685.196 202.32C685.196 205.477 685.921 208.016 687.372 209.936C688.822 211.813 690.828 212.752 693.388 212.752C695.948 212.752 697.953 211.813 699.404 209.936C700.854 208.016 701.58 205.477 701.58 202.32C701.58 199.12 700.854 196.581 699.404 194.704C697.953 192.784 695.948 191.824 693.388 191.824C690.828 191.824 688.822 192.784 687.372 194.704C685.921 196.581 685.196 199.12 685.196 202.32ZM724.723 192.4H716.339V186.896L725.043 186.576L726.003 178H732.083V186.576H746.419V192.4H732.083V205.328C732.083 207.931 732.616 209.851 733.683 211.088C734.749 212.283 736.627 212.88 739.315 212.88C740.68 212.88 741.917 212.773 743.027 212.56C744.136 212.304 745.203 211.984 746.227 211.6L747.635 216.976C746.227 217.445 744.669 217.851 742.963 218.192C741.256 218.576 739.443 218.768 737.523 218.768C735.133 218.768 733.128 218.448 731.507 217.808C729.885 217.168 728.563 216.272 727.539 215.12C726.557 213.925 725.832 212.496 725.363 210.832C724.936 209.168 724.723 207.333 724.723 205.328V192.4ZM754.906 202.32C754.906 199.76 755.354 197.456 756.25 195.408C757.188 193.36 758.404 191.632 759.898 190.224C761.391 188.773 763.098 187.685 765.018 186.96C766.98 186.192 768.986 185.808 771.034 185.808C773.38 185.808 775.45 186.192 777.242 186.96C779.076 187.685 780.612 188.709 781.85 190.032C783.087 191.312 784.026 192.869 784.666 194.704C785.306 196.539 785.626 198.544 785.626 200.72C785.626 201.445 785.583 202.128 785.498 202.768C785.455 203.408 785.391 203.92 785.306 204.304H762.458C762.714 207.12 763.823 209.296 765.786 210.832C767.748 212.325 770.159 213.072 773.018 213.072C774.639 213.072 776.154 212.859 777.562 212.432C778.97 211.963 780.399 211.323 781.85 210.512L784.346 215.12C782.639 216.187 780.74 217.061 778.65 217.744C776.559 218.427 774.362 218.768 772.058 218.768C769.668 218.768 767.428 218.405 765.338 217.68C763.247 216.912 761.434 215.824 759.898 214.416C758.362 213.008 757.146 211.301 756.25 209.296C755.354 207.248 754.906 204.923 754.906 202.32ZM778.842 199.312C778.842 196.88 778.202 194.981 776.922 193.616C775.642 192.208 773.743 191.504 771.226 191.504C769.092 191.504 767.194 192.165 765.53 193.488C763.866 194.811 762.82 196.752 762.394 199.312H778.842ZM797.633 186.576H803.713L804.353 193.68H804.545C806.166 191.12 808.107 189.179 810.369 187.856C812.673 186.491 815.19 185.808 817.921 185.808C819.201 185.808 820.289 185.915 821.185 186.128C822.123 186.299 823.062 186.619 824.001 187.088L822.465 193.296C821.441 192.955 820.523 192.72 819.713 192.592C818.945 192.421 817.963 192.336 816.769 192.336C814.593 192.336 812.502 192.955 810.497 194.192C808.491 195.429 806.678 197.584 805.057 200.656V218H797.633V186.576ZM948.061 172.816H955.485V184.464L955.229 189.968C956.594 188.688 958.13 187.685 959.837 186.96C961.543 186.192 963.25 185.808 964.957 185.808C967.005 185.808 968.818 186.192 970.397 186.96C971.975 187.685 973.319 188.752 974.429 190.16C975.538 191.525 976.37 193.189 976.925 195.152C977.522 197.115 977.821 199.312 977.821 201.744C977.821 204.432 977.437 206.843 976.669 208.976C975.901 211.067 974.855 212.837 973.533 214.288C972.253 215.739 970.759 216.848 969.053 217.616C967.389 218.384 965.661 218.768 963.869 218.768C962.375 218.768 960.818 218.405 959.197 217.68C957.575 216.955 956.082 215.909 954.717 214.544H954.525L953.885 218H948.061V172.816ZM955.485 209.808C956.637 210.875 957.831 211.621 959.069 212.048C960.306 212.475 961.415 212.688 962.397 212.688C964.615 212.688 966.471 211.792 967.965 210C969.458 208.165 970.205 205.456 970.205 201.872C970.205 198.715 969.629 196.261 968.477 194.512C967.325 192.763 965.469 191.888 962.909 191.888C961.714 191.888 960.498 192.187 959.26 192.784C958.023 193.381 956.765 194.341 955.485 195.664V209.808ZM1014.15 218H1008.13L1007.56 213.008H1007.3C1005.81 214.757 1004.16 216.165 1002.37 217.232C1000.58 218.256 998.51 218.768 996.164 218.768C992.494 218.768 989.828 217.68 988.164 215.504C986.5 213.285 985.668 210.128 985.668 206.032V186.576H993.028V205.072C993.028 207.632 993.454 209.509 994.308 210.704C995.204 211.856 996.74 212.432 998.916 212.432C1000.41 212.432 1001.73 212.091 1002.88 211.408C1004.08 210.725 1005.38 209.509 1006.79 207.76V186.576H1014.15V218ZM1031.72 192.4H1023.34V186.896L1032.04 186.576L1033 178H1039.08V186.576H1053.42V192.4H1039.08V205.328C1039.08 207.931 1039.62 209.851 1040.68 211.088C1041.75 212.283 1043.63 212.88 1046.31 212.88C1047.68 212.88 1048.92 212.773 1050.03 212.56C1051.14 212.304 1052.2 211.984 1053.23 211.6L1054.63 216.976C1053.23 217.445 1051.67 217.851 1049.96 218.192C1048.26 218.576 1046.44 218.768 1044.52 218.768C1042.13 218.768 1040.13 218.448 1038.51 217.808C1036.89 217.168 1035.56 216.272 1034.54 215.12C1033.56 213.925 1032.83 212.496 1032.36 210.832C1031.94 209.168 1031.72 207.333 1031.72 205.328V192.4ZM1070.1 192.4H1061.71V186.896L1070.42 186.576L1071.38 178H1077.46V186.576H1091.79V192.4H1077.46V205.328C1077.46 207.931 1077.99 209.851 1079.06 211.088C1080.12 212.283 1082 212.88 1084.69 212.88C1086.05 212.88 1087.29 212.773 1088.4 212.56C1089.51 212.304 1090.58 211.984 1091.6 211.6L1093.01 216.976C1091.6 217.445 1090.04 217.851 1088.34 218.192C1086.63 218.576 1084.82 218.768 1082.9 218.768C1080.51 218.768 1078.5 218.448 1076.88 217.808C1075.26 217.168 1073.94 216.272 1072.91 215.12C1071.93 213.925 1071.21 212.496 1070.74 210.832C1070.31 209.168 1070.1 207.333 1070.1 205.328V192.4ZM1099.7 202.32C1099.7 199.717 1100.13 197.392 1100.98 195.344C1101.88 193.296 1103.05 191.568 1104.5 190.16C1105.96 188.752 1107.64 187.685 1109.56 186.96C1111.48 186.192 1113.46 185.808 1115.51 185.808C1117.56 185.808 1119.54 186.192 1121.46 186.96C1123.38 187.685 1125.07 188.752 1126.52 190.16C1127.97 191.568 1129.12 193.296 1129.98 195.344C1130.87 197.392 1131.32 199.717 1131.32 202.32C1131.32 204.923 1130.87 207.248 1129.98 209.296C1129.12 211.344 1127.97 213.072 1126.52 214.48C1125.07 215.888 1123.38 216.955 1121.46 217.68C1119.54 218.405 1117.56 218.768 1115.51 218.768C1113.46 218.768 1111.48 218.405 1109.56 217.68C1107.64 216.955 1105.96 215.888 1104.5 214.48C1103.05 213.072 1101.88 211.344 1100.98 209.296C1100.13 207.248 1099.7 204.923 1099.7 202.32ZM1107.32 202.32C1107.32 205.477 1108.05 208.016 1109.5 209.936C1110.95 211.813 1112.95 212.752 1115.51 212.752C1118.07 212.752 1120.08 211.813 1121.53 209.936C1122.98 208.016 1123.7 205.477 1123.7 202.32C1123.7 199.12 1122.98 196.581 1121.53 194.704C1120.08 192.784 1118.07 191.824 1115.51 191.824C1112.95 191.824 1110.95 192.784 1109.5 194.704C1108.05 196.581 1107.32 199.12 1107.32 202.32ZM1139.94 186.576H1146.02L1146.59 191.312H1146.85C1148.34 189.819 1149.98 188.539 1151.78 187.472C1153.61 186.363 1155.74 185.808 1158.18 185.808C1161.8 185.808 1164.47 186.917 1166.18 189.136C1167.88 191.312 1168.74 194.448 1168.74 198.544V218H1161.31V199.504C1161.31 196.944 1160.86 195.088 1159.97 193.936C1159.11 192.741 1157.6 192.144 1155.42 192.144C1153.89 192.144 1152.52 192.507 1151.33 193.232C1150.13 193.957 1148.81 195.067 1147.36 196.56V218H1139.94V186.576Z" fill="#E3848B"/>
<path d="M896.911 199.376L872.591 215.504V208.656L890.703 196.88V196.624L872.591 184.848V178L896.911 194.128V199.376Z" fill="#466683"/>
<path d="M1185.93 212.304C1185.93 210.427 1186.52 208.891 1187.72 207.696C1188.91 206.459 1190.43 205.84 1192.26 205.84C1194.1 205.84 1195.61 206.459 1196.81 207.696C1198 208.891 1198.6 210.427 1198.6 212.304C1198.6 214.181 1198 215.739 1196.81 216.976C1195.61 218.171 1194.1 218.768 1192.26 218.768C1190.43 218.768 1188.91 218.171 1187.72 216.976C1186.52 215.739 1185.93 214.181 1185.93 212.304ZM1216.69 172.816H1224.11V184.464L1223.85 189.968C1225.22 188.688 1226.75 187.685 1228.46 186.96C1230.17 186.192 1231.87 185.808 1233.58 185.808C1235.63 185.808 1237.44 186.192 1239.02 186.96C1240.6 187.685 1241.94 188.752 1243.05 190.16C1244.16 191.525 1244.99 193.189 1245.55 195.152C1246.15 197.115 1246.45 199.312 1246.45 201.744C1246.45 204.432 1246.06 206.843 1245.29 208.976C1244.53 211.067 1243.48 212.837 1242.16 214.288C1240.88 215.739 1239.38 216.848 1237.68 217.616C1236.01 218.384 1234.29 218.768 1232.49 218.768C1231 218.768 1229.44 218.405 1227.82 217.68C1226.2 216.955 1224.71 215.909 1223.34 214.544H1223.15L1222.51 218H1216.69V172.816ZM1224.11 209.808C1225.26 210.875 1226.46 211.621 1227.69 212.048C1228.93 212.475 1230.04 212.688 1231.02 212.688C1233.24 212.688 1235.1 211.792 1236.59 210C1238.08 208.165 1238.83 205.456 1238.83 201.872C1238.83 198.715 1238.25 196.261 1237.1 194.512C1235.95 192.763 1234.09 191.888 1231.53 191.888C1230.34 191.888 1229.12 192.187 1227.89 192.784C1226.65 193.381 1225.39 194.341 1224.11 195.664V209.808ZM1261.97 192.4H1253.59V186.896L1262.29 186.576L1263.25 178H1269.33V186.576H1283.67V192.4H1269.33V205.328C1269.33 207.931 1269.87 209.851 1270.93 211.088C1272 212.283 1273.88 212.88 1276.56 212.88C1277.93 212.88 1279.17 212.773 1280.28 212.56C1281.39 212.304 1282.45 211.984 1283.48 211.6L1284.88 216.976C1283.48 217.445 1281.92 217.851 1280.21 218.192C1278.51 218.576 1276.69 218.768 1274.77 218.768C1272.38 218.768 1270.38 218.448 1268.76 217.808C1267.14 217.168 1265.81 216.272 1264.79 215.12C1263.81 213.925 1263.08 212.496 1262.61 210.832C1262.19 209.168 1261.97 207.333 1261.97 205.328V192.4ZM1293.44 186.576H1299.52L1300.09 191.312H1300.35C1301.84 189.819 1303.48 188.539 1305.28 187.472C1307.11 186.363 1309.24 185.808 1311.68 185.808C1315.3 185.808 1317.97 186.917 1319.68 189.136C1321.38 191.312 1322.24 194.448 1322.24 198.544V218H1314.81V199.504C1314.81 196.944 1314.36 195.088 1313.47 193.936C1312.61 192.741 1311.1 192.144 1308.92 192.144C1307.39 192.144 1306.02 192.507 1304.83 193.232C1303.63 193.957 1302.31 195.067 1300.86 196.56V218H1293.44V186.576Z" fill="#44BC96"/>
<path d="M597.438 224.4H827.712V227.6H597.438V224.4ZM942.812 224.4H1173.09V227.6H942.812V224.4Z" fill="#E3848B"/>
<path d="M1173.06 224.4H1326.59V227.6H1173.06V224.4Z" fill="#44BC96"/>
</svg>
