<svg width="1920" height="1080" viewBox="0 0 1920 1080" fill="none" xmlns="http://www.w3.org/2000/svg">
<rect width="1920" height="1080" fill="white"/>
<rect y="457" width="1920" height="229" fill="#C4C4C4" fill-opacity="0.2"/>
<g opacity="0.4">
<path d="M1032 259H1187V414H1032V259Z" fill="white"/>
<rect x="1032" y="259" width="155" height="155" fill="#2F4858"/>
<path d="M1133.68 339.662C1133.68 345.678 1133.03 350.894 1131.72 355.31C1130.44 359.694 1128.68 363.326 1126.44 366.206C1124.2 369.086 1121.54 371.23 1118.47 372.638C1115.43 374.046 1112.16 374.75 1108.68 374.75C1105.16 374.75 1101.88 374.046 1098.84 372.638C1095.83 371.23 1093.2 369.086 1090.96 366.206C1088.72 363.326 1086.96 359.694 1085.68 355.31C1084.4 350.894 1083.76 345.678 1083.76 339.662C1083.76 333.646 1084.4 328.43 1085.68 324.014C1086.96 319.598 1088.72 315.95 1090.96 313.07C1093.2 310.158 1095.83 307.998 1098.84 306.59C1101.88 305.182 1105.16 304.478 1108.68 304.478C1112.16 304.478 1115.43 305.182 1118.47 306.59C1121.54 307.998 1124.2 310.158 1126.44 313.07C1128.68 315.95 1130.44 319.598 1131.72 324.014C1133.03 328.43 1133.68 333.646 1133.68 339.662ZM1124.8 339.662C1124.8 334.414 1124.36 330.014 1123.46 326.462C1122.6 322.878 1121.41 319.998 1119.91 317.822C1118.44 315.646 1116.72 314.094 1114.77 313.166C1112.82 312.206 1110.79 311.726 1108.68 311.726C1106.56 311.726 1104.53 312.206 1102.58 313.166C1100.63 314.094 1098.92 315.646 1097.44 317.822C1095.97 319.998 1094.79 322.878 1093.89 326.462C1093.03 330.014 1092.6 334.414 1092.6 339.662C1092.6 344.91 1093.03 349.31 1093.89 352.862C1094.79 356.414 1095.97 359.278 1097.44 361.454C1098.92 363.63 1100.63 365.198 1102.58 366.158C1104.53 367.086 1106.56 367.55 1108.68 367.55C1110.79 367.55 1112.82 367.086 1114.77 366.158C1116.72 365.198 1118.44 363.63 1119.91 361.454C1121.41 359.278 1122.6 356.414 1123.46 352.862C1124.36 349.31 1124.8 344.91 1124.8 339.662Z" fill="white"/>
</g>
<g opacity="0.4">
<rect x="1253" y="259" width="155" height="155" fill="#4D8DC9"/>
<path d="M1354.68 339.662C1354.68 345.678 1354.03 350.894 1352.72 355.31C1351.44 359.694 1349.68 363.326 1347.44 366.206C1345.2 369.086 1342.54 371.23 1339.47 372.638C1336.43 374.046 1333.16 374.75 1329.68 374.75C1326.16 374.75 1322.88 374.046 1319.84 372.638C1316.83 371.23 1314.2 369.086 1311.96 366.206C1309.72 363.326 1307.96 359.694 1306.68 355.31C1305.4 350.894 1304.76 345.678 1304.76 339.662C1304.76 333.646 1305.4 328.43 1306.68 324.014C1307.96 319.598 1309.72 315.95 1311.96 313.07C1314.2 310.158 1316.83 307.998 1319.84 306.59C1322.88 305.182 1326.16 304.478 1329.68 304.478C1333.16 304.478 1336.43 305.182 1339.47 306.59C1342.54 307.998 1345.2 310.158 1347.44 313.07C1349.68 315.95 1351.44 319.598 1352.72 324.014C1354.03 328.43 1354.68 333.646 1354.68 339.662ZM1345.8 339.662C1345.8 334.414 1345.36 330.014 1344.46 326.462C1343.6 322.878 1342.41 319.998 1340.91 317.822C1339.44 315.646 1337.72 314.094 1335.77 313.166C1333.82 312.206 1331.79 311.726 1329.68 311.726C1327.56 311.726 1325.53 312.206 1323.58 313.166C1321.63 314.094 1319.92 315.646 1318.44 317.822C1316.97 319.998 1315.79 322.878 1314.89 326.462C1314.03 330.014 1313.6 334.414 1313.6 339.662C1313.6 344.91 1314.03 349.31 1314.89 352.862C1315.79 356.414 1316.97 359.278 1318.44 361.454C1319.92 363.63 1321.63 365.198 1323.58 366.158C1325.53 367.086 1327.56 367.55 1329.68 367.55C1331.79 367.55 1333.82 367.086 1335.77 366.158C1337.72 365.198 1339.44 363.63 1340.91 361.454C1342.41 359.278 1343.6 356.414 1344.46 352.862C1345.36 349.31 1345.8 344.91 1345.8 339.662Z" fill="white"/>
</g>
<rect x="1474" y="260" width="154" height="153" fill="#44BC96"/>
<path d="M1575.19 339.649C1575.19 345.665 1574.53 350.881 1573.22 355.297C1571.94 359.681 1570.18 363.313 1567.94 366.193C1565.7 369.073 1563.04 371.217 1559.97 372.625C1556.93 374.033 1553.67 374.737 1550.18 374.737C1546.66 374.737 1543.38 374.033 1540.34 372.625C1537.33 371.217 1534.71 369.073 1532.47 366.193C1530.23 363.313 1528.47 359.681 1527.19 355.297C1525.91 350.881 1525.27 345.665 1525.27 339.649C1525.27 333.633 1525.91 328.417 1527.19 324.001C1528.47 319.585 1530.23 315.937 1532.47 313.057C1534.71 310.145 1537.33 307.985 1540.34 306.577C1543.38 305.169 1546.66 304.465 1550.18 304.465C1553.67 304.465 1556.93 305.169 1559.97 306.577C1563.04 307.985 1565.7 310.145 1567.94 313.057C1570.18 315.937 1571.94 319.585 1573.22 324.001C1574.53 328.417 1575.19 333.633 1575.19 339.649ZM1566.31 339.649C1566.31 334.401 1565.86 330.001 1564.96 326.449C1564.1 322.865 1562.92 319.985 1561.41 317.809C1559.94 315.633 1558.23 314.081 1556.28 313.153C1554.32 312.193 1552.29 311.713 1550.18 311.713C1548.07 311.713 1546.04 312.193 1544.08 313.153C1542.13 314.081 1540.42 315.633 1538.95 317.809C1537.48 319.985 1536.29 322.865 1535.4 326.449C1534.53 330.001 1534.1 334.401 1534.1 339.649C1534.1 344.897 1534.53 349.297 1535.4 352.849C1536.29 356.401 1537.48 359.265 1538.95 361.441C1540.42 363.617 1542.13 365.185 1544.08 366.145C1546.04 367.073 1548.07 367.537 1550.18 367.537C1552.29 367.537 1554.32 367.073 1556.28 366.145C1558.23 365.185 1559.94 363.617 1561.41 361.441C1562.92 359.265 1564.1 356.401 1564.96 352.849C1565.86 349.297 1566.31 344.897 1566.31 339.649Z" fill="white"/>
<g opacity="0.4">
<path d="M1694 259H1849V414H1694V259Z" fill="#E3848B"/>
<rect x="1694" y="259" width="155" height="155" fill="#E3848B"/>
<path d="M1791.75 367.502V374.03H1754.88V367.502H1769.62V320.606C1769.62 319.198 1769.67 317.774 1769.76 316.334L1757.52 326.846C1757.11 327.198 1756.69 327.422 1756.28 327.518C1755.86 327.582 1755.48 327.582 1755.12 327.518C1754.77 327.454 1754.44 327.326 1754.12 327.134C1753.83 326.942 1753.6 326.734 1753.44 326.51L1750.76 322.814L1771.25 305.102H1778.21V367.502H1791.75Z" fill="white"/>
</g>
<path d="M1072.94 165.766V184H1069.73V165.766H1072.94ZM1073.62 160.042C1073.62 160.354 1073.55 160.648 1073.42 160.924C1073.3 161.188 1073.13 161.428 1072.92 161.644C1072.71 161.848 1072.47 162.01 1072.18 162.13C1071.9 162.25 1071.61 162.31 1071.3 162.31C1070.99 162.31 1070.69 162.25 1070.42 162.13C1070.15 162.01 1069.92 161.848 1069.71 161.644C1069.51 161.428 1069.35 161.188 1069.23 160.924C1069.11 160.648 1069.05 160.354 1069.05 160.042C1069.05 159.73 1069.11 159.436 1069.23 159.16C1069.35 158.872 1069.51 158.626 1069.71 158.422C1069.92 158.206 1070.15 158.038 1070.42 157.918C1070.69 157.798 1070.99 157.738 1071.3 157.738C1071.61 157.738 1071.9 157.798 1072.18 157.918C1072.47 158.038 1072.71 158.206 1072.92 158.422C1073.13 158.626 1073.3 158.872 1073.42 159.16C1073.55 159.436 1073.62 159.73 1073.62 160.042ZM1081.22 168.412C1081.62 167.968 1082.04 167.566 1082.48 167.206C1082.93 166.846 1083.4 166.54 1083.89 166.288C1084.39 166.024 1084.92 165.826 1085.47 165.694C1086.04 165.55 1086.64 165.478 1087.29 165.478C1088.29 165.478 1089.16 165.646 1089.92 165.982C1090.69 166.306 1091.32 166.774 1091.83 167.386C1092.34 167.986 1092.73 168.712 1093 169.564C1093.26 170.416 1093.39 171.358 1093.39 172.39V184H1090.17V172.39C1090.17 171.01 1089.85 169.942 1089.22 169.186C1088.59 168.418 1087.64 168.034 1086.35 168.034C1085.41 168.034 1084.52 168.262 1083.69 168.718C1082.87 169.174 1082.12 169.792 1081.42 170.572V184H1078.2V165.766H1080.13C1080.58 165.766 1080.86 165.988 1080.97 166.432L1081.22 168.412ZM1101.59 157.486V184H1098.38V157.486H1101.59ZM1110.17 165.766V184H1106.96V165.766H1110.17ZM1110.85 160.042C1110.85 160.354 1110.78 160.648 1110.65 160.924C1110.53 161.188 1110.36 161.428 1110.15 161.644C1109.94 161.848 1109.7 162.01 1109.41 162.13C1109.13 162.25 1108.84 162.31 1108.53 162.31C1108.22 162.31 1107.92 162.25 1107.65 162.13C1107.38 162.01 1107.15 161.848 1106.94 161.644C1106.74 161.428 1106.58 161.188 1106.46 160.924C1106.34 160.648 1106.28 160.354 1106.28 160.042C1106.28 159.73 1106.34 159.436 1106.46 159.16C1106.58 158.872 1106.74 158.626 1106.94 158.422C1107.15 158.206 1107.38 158.038 1107.65 157.918C1107.92 157.798 1108.22 157.738 1108.53 157.738C1108.84 157.738 1109.13 157.798 1109.41 157.918C1109.7 158.038 1109.94 158.206 1110.15 158.422C1110.36 158.626 1110.53 158.872 1110.65 159.16C1110.78 159.436 1110.85 159.73 1110.85 160.042ZM1118.45 168.412C1118.85 167.968 1119.27 167.566 1119.71 167.206C1120.16 166.846 1120.63 166.54 1121.12 166.288C1121.62 166.024 1122.15 165.826 1122.7 165.694C1123.27 165.55 1123.87 165.478 1124.52 165.478C1125.52 165.478 1126.39 165.646 1127.15 165.982C1127.92 166.306 1128.55 166.774 1129.06 167.386C1129.57 167.986 1129.96 168.712 1130.23 169.564C1130.49 170.416 1130.62 171.358 1130.62 172.39V184H1127.4V172.39C1127.4 171.01 1127.08 169.942 1126.45 169.186C1125.82 168.418 1124.87 168.034 1123.58 168.034C1122.64 168.034 1121.75 168.262 1120.92 168.718C1120.1 169.174 1119.35 169.792 1118.65 170.572V184H1115.43V165.766H1117.36C1117.81 165.766 1118.09 165.988 1118.2 166.432L1118.45 168.412ZM1147.71 172.894C1147.71 172.15 1147.6 171.472 1147.38 170.86C1147.18 170.236 1146.87 169.702 1146.47 169.258C1146.07 168.802 1145.58 168.454 1145.01 168.214C1144.43 167.962 1143.78 167.836 1143.05 167.836C1141.51 167.836 1140.29 168.286 1139.39 169.186C1138.5 170.074 1137.95 171.31 1137.74 172.894H1147.71ZM1150.3 181.444C1149.9 181.924 1149.43 182.344 1148.88 182.704C1148.33 183.052 1147.73 183.34 1147.1 183.568C1146.47 183.796 1145.82 183.964 1145.15 184.072C1144.48 184.192 1143.81 184.252 1143.15 184.252C1141.89 184.252 1140.73 184.042 1139.66 183.622C1138.61 183.19 1137.69 182.566 1136.91 181.75C1136.14 180.922 1135.54 179.902 1135.11 178.69C1134.68 177.478 1134.46 176.086 1134.46 174.514C1134.46 173.242 1134.65 172.054 1135.04 170.95C1135.43 169.846 1136 168.892 1136.73 168.088C1137.46 167.272 1138.35 166.636 1139.41 166.18C1140.47 165.712 1141.65 165.478 1142.97 165.478C1144.07 165.478 1145.07 165.664 1146 166.036C1146.93 166.396 1147.74 166.924 1148.41 167.62C1149.09 168.304 1149.63 169.156 1150.01 170.176C1150.4 171.184 1150.59 172.336 1150.59 173.632C1150.59 174.136 1150.53 174.472 1150.43 174.64C1150.32 174.808 1150.11 174.892 1149.81 174.892H1137.63C1137.66 176.044 1137.82 177.046 1138.1 177.898C1138.38 178.75 1138.78 179.464 1139.28 180.04C1139.79 180.604 1140.39 181.03 1141.08 181.318C1141.78 181.594 1142.56 181.732 1143.42 181.732C1144.23 181.732 1144.92 181.642 1145.49 181.462C1146.08 181.27 1146.59 181.066 1147.01 180.85C1147.43 180.634 1147.77 180.436 1148.05 180.256C1148.34 180.064 1148.58 179.968 1148.79 179.968C1149.05 179.968 1149.26 180.07 1149.4 180.274L1150.3 181.444Z" fill="#6D7E8A"/>
<path d="M1316.8 168.16H1312.36L1311.19 174.028H1315.63L1316.8 168.16ZM1323.61 165.802L1323.37 167.152C1323.31 167.5 1323.17 167.758 1322.94 167.926C1322.72 168.082 1322.39 168.16 1321.93 168.16H1319.45L1318.28 174.028H1321.5C1321.85 174.028 1322.09 174.13 1322.24 174.334C1322.39 174.526 1322.44 174.868 1322.36 175.36L1322.2 176.386H1317.94L1316.42 184H1314.97C1314.81 184 1314.67 183.964 1314.53 183.892C1314.4 183.82 1314.29 183.724 1314.19 183.604C1314.11 183.484 1314.05 183.34 1314.01 183.172C1313.98 183.004 1313.98 182.818 1314.01 182.614L1315.29 176.386H1310.84L1309.57 182.776C1309.49 183.22 1309.32 183.538 1309.04 183.73C1308.77 183.91 1308.46 184 1308.11 184H1306.67L1308.2 176.386H1305.57C1305.23 176.386 1304.99 176.29 1304.83 176.098C1304.69 175.894 1304.65 175.546 1304.72 175.054L1304.87 174.028H1308.54L1309.71 168.16H1305.53L1305.77 166.828C1305.83 166.48 1305.97 166.222 1306.18 166.054C1306.41 165.886 1306.75 165.802 1307.21 165.802H1310.05L1311.35 159.358C1311.42 158.998 1311.58 158.716 1311.83 158.512C1312.1 158.308 1312.41 158.206 1312.77 158.206H1314.21L1312.7 165.802H1317.14L1318.66 158.206H1320.08C1320.43 158.206 1320.7 158.32 1320.89 158.548C1321.09 158.776 1321.16 159.064 1321.1 159.412L1319.79 165.802H1323.61ZM1330.47 165.766V184H1327.26V165.766H1330.47ZM1331.15 160.042C1331.15 160.354 1331.08 160.648 1330.95 160.924C1330.83 161.188 1330.66 161.428 1330.45 161.644C1330.24 161.848 1330 162.01 1329.71 162.13C1329.43 162.25 1329.14 162.31 1328.83 162.31C1328.52 162.31 1328.22 162.25 1327.95 162.13C1327.68 162.01 1327.45 161.848 1327.24 161.644C1327.04 161.428 1326.88 161.188 1326.76 160.924C1326.64 160.648 1326.58 160.354 1326.58 160.042C1326.58 159.73 1326.64 159.436 1326.76 159.16C1326.88 158.872 1327.04 158.626 1327.24 158.422C1327.45 158.206 1327.68 158.038 1327.95 157.918C1328.22 157.798 1328.52 157.738 1328.83 157.738C1329.14 157.738 1329.43 157.798 1329.71 157.918C1330 158.038 1330.24 158.206 1330.45 158.422C1330.66 158.626 1330.83 158.872 1330.95 159.16C1331.08 159.436 1331.15 159.73 1331.15 160.042ZM1347.61 170.104C1347.01 169.3 1346.36 168.742 1345.67 168.43C1344.97 168.106 1344.19 167.944 1343.33 167.944C1341.64 167.944 1340.33 168.55 1339.42 169.762C1338.51 170.974 1338.05 172.702 1338.05 174.946C1338.05 176.134 1338.16 177.154 1338.36 178.006C1338.56 178.846 1338.86 179.542 1339.26 180.094C1339.66 180.634 1340.14 181.03 1340.72 181.282C1341.29 181.534 1341.95 181.66 1342.68 181.66C1343.74 181.66 1344.65 181.42 1345.43 180.94C1346.23 180.46 1346.95 179.782 1347.61 178.906V170.104ZM1350.82 157.486V184H1348.91C1348.45 184 1348.16 183.778 1348.04 183.334L1347.76 181.12C1346.98 182.056 1346.09 182.812 1345.09 183.388C1344.1 183.964 1342.94 184.252 1341.64 184.252C1340.59 184.252 1339.64 184.054 1338.79 183.658C1337.94 183.25 1337.21 182.656 1336.61 181.876C1336.01 181.096 1335.55 180.124 1335.23 178.96C1334.9 177.796 1334.74 176.458 1334.74 174.946C1334.74 173.602 1334.92 172.354 1335.28 171.202C1335.64 170.038 1336.16 169.03 1336.83 168.178C1337.5 167.326 1338.32 166.66 1339.3 166.18C1340.28 165.688 1341.38 165.442 1342.61 165.442C1343.72 165.442 1344.68 165.634 1345.47 166.018C1346.27 166.39 1346.99 166.912 1347.61 167.584V157.486H1350.82Z" fill="#6D7E8A"/>
<path d="M1693.27 171.328C1693.03 171.448 1692.77 171.556 1692.49 171.652C1692.23 171.748 1691.94 171.826 1691.63 171.886C1691.94 171.958 1692.23 172.042 1692.49 172.138C1692.77 172.222 1693.03 172.33 1693.27 172.462L1701.35 176.548C1701.59 176.668 1701.76 176.806 1701.85 176.962C1701.95 177.118 1702 177.292 1702 177.484V179.788L1688.08 172.552V171.22L1702 164.002V166.288C1702 166.492 1701.95 166.672 1701.85 166.828C1701.76 166.972 1701.59 167.104 1701.35 167.224L1693.27 171.328ZM1720.79 172.894C1720.79 172.15 1720.68 171.472 1720.47 170.86C1720.26 170.236 1719.96 169.702 1719.55 169.258C1719.15 168.802 1718.67 168.454 1718.09 168.214C1717.52 167.962 1716.86 167.836 1716.13 167.836C1714.59 167.836 1713.38 168.286 1712.48 169.186C1711.59 170.074 1711.04 171.31 1710.82 172.894H1720.79ZM1723.38 181.444C1722.99 181.924 1722.51 182.344 1721.96 182.704C1721.41 183.052 1720.82 183.34 1720.18 183.568C1719.56 183.796 1718.91 183.964 1718.24 184.072C1717.56 184.192 1716.9 184.252 1716.24 184.252C1714.98 184.252 1713.81 184.042 1712.75 183.622C1711.69 183.19 1710.77 182.566 1709.99 181.75C1709.22 180.922 1708.62 179.902 1708.19 178.69C1707.76 177.478 1707.54 176.086 1707.54 174.514C1707.54 173.242 1707.74 172.054 1708.12 170.95C1708.52 169.846 1709.08 168.892 1709.81 168.088C1710.54 167.272 1711.44 166.636 1712.49 166.18C1713.55 165.712 1714.74 165.478 1716.06 165.478C1717.15 165.478 1718.16 165.664 1719.08 166.036C1720.02 166.396 1720.82 166.924 1721.49 167.62C1722.18 168.304 1722.71 169.156 1723.1 170.176C1723.48 171.184 1723.67 172.336 1723.67 173.632C1723.67 174.136 1723.62 174.472 1723.51 174.64C1723.4 174.808 1723.2 174.892 1722.9 174.892H1710.71C1710.75 176.044 1710.9 177.046 1711.18 177.898C1711.47 178.75 1711.86 179.464 1712.37 180.04C1712.87 180.604 1713.47 181.03 1714.17 181.318C1714.86 181.594 1715.64 181.732 1716.51 181.732C1717.31 181.732 1718 181.642 1718.58 181.462C1719.17 181.27 1719.67 181.066 1720.09 180.85C1720.51 180.634 1720.86 180.436 1721.13 180.256C1721.42 180.064 1721.67 179.968 1721.87 179.968C1722.14 179.968 1722.34 180.07 1722.48 180.274L1723.38 181.444ZM1730.92 157.486V184H1727.72V157.486H1730.92ZM1748.32 172.894C1748.32 172.15 1748.21 171.472 1748 170.86C1747.79 170.236 1747.49 169.702 1747.08 169.258C1746.68 168.802 1746.2 168.454 1745.62 168.214C1745.04 167.962 1744.39 167.836 1743.66 167.836C1742.12 167.836 1740.9 168.286 1740 169.186C1739.12 170.074 1738.56 171.31 1738.35 172.894H1748.32ZM1750.91 181.444C1750.52 181.924 1750.04 182.344 1749.49 182.704C1748.94 183.052 1748.34 183.34 1747.71 183.568C1747.08 183.796 1746.44 183.964 1745.76 184.072C1745.09 184.192 1744.43 184.252 1743.77 184.252C1742.51 184.252 1741.34 184.042 1740.27 183.622C1739.22 183.19 1738.3 182.566 1737.52 181.75C1736.75 180.922 1736.15 179.902 1735.72 178.69C1735.29 177.478 1735.07 176.086 1735.07 174.514C1735.07 173.242 1735.26 172.054 1735.65 170.95C1736.04 169.846 1736.61 168.892 1737.34 168.088C1738.07 167.272 1738.97 166.636 1740.02 166.18C1741.08 165.712 1742.27 165.478 1743.59 165.478C1744.68 165.478 1745.69 165.664 1746.61 166.036C1747.55 166.396 1748.35 166.924 1749.02 167.62C1749.71 168.304 1750.24 169.156 1750.62 170.176C1751.01 171.184 1751.2 172.336 1751.2 173.632C1751.2 174.136 1751.15 174.472 1751.04 174.64C1750.93 174.808 1750.73 174.892 1750.43 174.892H1738.24C1738.28 176.044 1738.43 177.046 1738.71 177.898C1739 178.75 1739.39 179.464 1739.9 180.04C1740.4 180.604 1741 181.03 1741.7 181.318C1742.39 181.594 1743.17 181.732 1744.04 181.732C1744.84 181.732 1745.53 181.642 1746.11 181.462C1746.69 181.27 1747.2 181.066 1747.62 180.85C1748.04 180.634 1748.39 180.436 1748.66 180.256C1748.95 180.064 1749.2 179.968 1749.4 179.968C1749.66 179.968 1749.87 180.07 1750.01 180.274L1750.91 181.444ZM1755.14 184V165.766H1757.06C1757.52 165.766 1757.8 165.988 1757.91 166.432L1758.14 168.304C1758.81 167.476 1759.57 166.798 1760.41 166.27C1761.25 165.742 1762.22 165.478 1763.33 165.478C1764.55 165.478 1765.54 165.82 1766.3 166.504C1767.06 167.188 1767.62 168.112 1767.95 169.276C1768.22 168.616 1768.55 168.046 1768.96 167.566C1769.38 167.086 1769.85 166.69 1770.36 166.378C1770.88 166.066 1771.43 165.838 1772 165.694C1772.59 165.55 1773.18 165.478 1773.78 165.478C1774.74 165.478 1775.6 165.634 1776.34 165.946C1777.1 166.246 1777.73 166.69 1778.25 167.278C1778.78 167.866 1779.18 168.592 1779.45 169.456C1779.73 170.308 1779.87 171.286 1779.87 172.39V184H1776.65V172.39C1776.65 170.962 1776.33 169.882 1775.71 169.15C1775.09 168.406 1774.19 168.034 1773.01 168.034C1772.48 168.034 1771.98 168.13 1771.5 168.322C1771.03 168.502 1770.62 168.772 1770.26 169.132C1769.9 169.492 1769.61 169.948 1769.39 170.5C1769.19 171.04 1769.09 171.67 1769.09 172.39V184H1765.86V172.39C1765.86 170.926 1765.57 169.834 1764.98 169.114C1764.39 168.394 1763.54 168.034 1762.41 168.034C1761.62 168.034 1760.88 168.25 1760.21 168.682C1759.54 169.102 1758.92 169.678 1758.36 170.41V184H1755.14ZM1796.94 172.894C1796.94 172.15 1796.83 171.472 1796.62 170.86C1796.41 170.236 1796.11 169.702 1795.7 169.258C1795.3 168.802 1794.82 168.454 1794.24 168.214C1793.67 167.962 1793.01 167.836 1792.28 167.836C1790.74 167.836 1789.53 168.286 1788.63 169.186C1787.74 170.074 1787.19 171.31 1786.97 172.894H1796.94ZM1799.53 181.444C1799.14 181.924 1798.66 182.344 1798.11 182.704C1797.56 183.052 1796.97 183.34 1796.33 183.568C1795.71 183.796 1795.06 183.964 1794.39 184.072C1793.71 184.192 1793.05 184.252 1792.39 184.252C1791.13 184.252 1789.96 184.042 1788.9 183.622C1787.84 183.19 1786.92 182.566 1786.14 181.75C1785.37 180.922 1784.77 179.902 1784.34 178.69C1783.91 177.478 1783.69 176.086 1783.69 174.514C1783.69 173.242 1783.89 172.054 1784.27 170.95C1784.67 169.846 1785.23 168.892 1785.96 168.088C1786.69 167.272 1787.59 166.636 1788.64 166.18C1789.7 165.712 1790.89 165.478 1792.21 165.478C1793.3 165.478 1794.31 165.664 1795.23 166.036C1796.17 166.396 1796.97 166.924 1797.64 167.62C1798.33 168.304 1798.86 169.156 1799.25 170.176C1799.63 171.184 1799.82 172.336 1799.82 173.632C1799.82 174.136 1799.77 174.472 1799.66 174.64C1799.55 174.808 1799.35 174.892 1799.05 174.892H1786.86C1786.9 176.044 1787.05 177.046 1787.33 177.898C1787.62 178.75 1788.01 179.464 1788.52 180.04C1789.02 180.604 1789.62 181.03 1790.32 181.318C1791.01 181.594 1791.79 181.732 1792.66 181.732C1793.46 181.732 1794.15 181.642 1794.73 181.462C1795.32 181.27 1795.82 181.066 1796.24 180.85C1796.66 180.634 1797.01 180.436 1797.28 180.256C1797.57 180.064 1797.82 179.968 1798.02 179.968C1798.29 179.968 1798.49 180.07 1798.63 180.274L1799.53 181.444ZM1806.78 168.412C1807.18 167.968 1807.6 167.566 1808.04 167.206C1808.48 166.846 1808.95 166.54 1809.44 166.288C1809.95 166.024 1810.48 165.826 1811.03 165.694C1811.59 165.55 1812.2 165.478 1812.85 165.478C1813.84 165.478 1814.72 165.646 1815.47 165.982C1816.24 166.306 1816.88 166.774 1817.38 167.386C1817.9 167.986 1818.29 168.712 1818.55 169.564C1818.82 170.416 1818.95 171.358 1818.95 172.39V184H1815.73V172.39C1815.73 171.01 1815.41 169.942 1814.77 169.186C1814.15 168.418 1813.19 168.034 1811.91 168.034C1810.96 168.034 1810.07 168.262 1809.25 168.718C1808.43 169.174 1807.67 169.792 1806.98 170.572V184H1803.76V165.766H1805.68C1806.14 165.766 1806.42 165.988 1806.53 166.432L1806.78 168.412ZM1829.18 184.288C1827.74 184.288 1826.63 183.886 1825.85 183.082C1825.08 182.278 1824.7 181.12 1824.7 179.608V168.448H1822.5C1822.31 168.448 1822.15 168.394 1822.02 168.286C1821.89 168.166 1821.82 167.986 1821.82 167.746V166.468L1824.81 166.09L1825.55 160.456C1825.58 160.276 1825.66 160.132 1825.78 160.024C1825.91 159.904 1826.08 159.844 1826.28 159.844H1827.9V166.126H1833.18V168.448H1827.9V179.392C1827.9 180.16 1828.09 180.73 1828.46 181.102C1828.83 181.474 1829.31 181.66 1829.9 181.66C1830.24 181.66 1830.53 181.618 1830.77 181.534C1831.02 181.438 1831.23 181.336 1831.41 181.228C1831.59 181.12 1831.74 181.024 1831.86 180.94C1832 180.844 1832.11 180.796 1832.21 180.796C1832.37 180.796 1832.52 180.898 1832.66 181.102L1833.59 182.632C1833.04 183.148 1832.37 183.556 1831.59 183.856C1830.81 184.144 1830.01 184.288 1829.18 184.288ZM1851.91 171.22V172.552L1838 179.788V177.484C1838 177.292 1838.05 177.118 1838.14 176.962C1838.24 176.806 1838.41 176.668 1838.65 176.548L1846.73 172.462C1846.97 172.33 1847.22 172.222 1847.49 172.138C1847.76 172.042 1848.05 171.958 1848.35 171.886C1847.74 171.754 1847.2 171.568 1846.73 171.328L1838.65 167.224C1838.41 167.104 1838.24 166.972 1838.14 166.828C1838.05 166.672 1838 166.492 1838 166.288V164.002L1851.91 171.22Z" fill="#6D7E8A"/>
<path d="M1510.87 139.02C1510.87 138.708 1510.93 138.414 1511.04 138.138C1511.16 137.862 1511.31 137.622 1511.5 137.418C1511.71 137.214 1511.95 137.052 1512.22 136.932C1512.5 136.812 1512.79 136.752 1513.11 136.752C1513.42 136.752 1513.71 136.812 1513.99 136.932C1514.26 137.052 1514.5 137.214 1514.71 137.418C1514.91 137.622 1515.07 137.862 1515.19 138.138C1515.31 138.414 1515.37 138.708 1515.37 139.02C1515.37 139.344 1515.31 139.644 1515.19 139.92C1515.07 140.184 1514.91 140.418 1514.71 140.622C1514.5 140.826 1514.26 140.982 1513.99 141.09C1513.71 141.21 1513.42 141.27 1513.11 141.27C1512.79 141.27 1512.5 141.21 1512.22 141.09C1511.95 140.982 1511.71 140.826 1511.5 140.622C1511.31 140.418 1511.16 140.184 1511.04 139.92C1510.93 139.644 1510.87 139.344 1510.87 139.02ZM1532.61 126.006C1532.51 126.138 1532.42 126.24 1532.32 126.312C1532.23 126.384 1532.09 126.42 1531.93 126.42C1531.75 126.42 1531.55 126.348 1531.33 126.204C1531.12 126.048 1530.85 125.88 1530.52 125.7C1530.21 125.52 1529.82 125.358 1529.35 125.214C1528.9 125.058 1528.33 124.98 1527.66 124.98C1526.76 124.98 1525.97 125.142 1525.28 125.466C1524.6 125.778 1524.02 126.234 1523.56 126.834C1523.1 127.434 1522.75 128.16 1522.51 129.012C1522.28 129.864 1522.17 130.818 1522.17 131.874C1522.17 132.978 1522.3 133.962 1522.55 134.826C1522.8 135.678 1523.15 136.398 1523.61 136.986C1524.08 137.562 1524.64 138.006 1525.28 138.318C1525.94 138.618 1526.68 138.768 1527.5 138.768C1528.28 138.768 1528.92 138.678 1529.42 138.498C1529.93 138.306 1530.34 138.096 1530.67 137.868C1531 137.64 1531.28 137.436 1531.49 137.256C1531.72 137.064 1531.94 136.968 1532.16 136.968C1532.42 136.968 1532.63 137.07 1532.77 137.274L1533.67 138.444C1533.28 138.936 1532.83 139.356 1532.32 139.704C1531.82 140.052 1531.27 140.346 1530.68 140.586C1530.11 140.814 1529.5 140.982 1528.87 141.09C1528.23 141.198 1527.58 141.252 1526.92 141.252C1525.78 141.252 1524.72 141.042 1523.74 140.622C1522.76 140.202 1521.92 139.596 1521.2 138.804C1520.48 138 1519.91 137.016 1519.51 135.852C1519.1 134.688 1518.89 133.362 1518.89 131.874C1518.89 130.518 1519.08 129.264 1519.45 128.112C1519.84 126.96 1520.39 125.97 1521.11 125.142C1521.84 124.302 1522.73 123.648 1523.79 123.18C1524.86 122.712 1526.08 122.478 1527.46 122.478C1528.75 122.478 1529.87 122.688 1530.85 123.108C1531.83 123.516 1532.7 124.098 1533.46 124.854L1532.61 126.006ZM1540.42 114.486V141H1537.22V114.486H1540.42ZM1555.5 132.792C1554.03 132.84 1552.77 132.96 1551.72 133.152C1550.69 133.332 1549.84 133.572 1549.18 133.872C1548.54 134.172 1548.06 134.526 1547.76 134.934C1547.47 135.342 1547.33 135.798 1547.33 136.302C1547.33 136.782 1547.41 137.196 1547.56 137.544C1547.72 137.892 1547.93 138.18 1548.19 138.408C1548.47 138.624 1548.79 138.786 1549.15 138.894C1549.52 138.99 1549.92 139.038 1550.34 139.038C1550.9 139.038 1551.42 138.984 1551.88 138.876C1552.35 138.756 1552.79 138.588 1553.2 138.372C1553.62 138.156 1554.01 137.898 1554.39 137.598C1554.77 137.298 1555.14 136.956 1555.5 136.572V132.792ZM1545.15 125.34C1546.16 124.368 1547.25 123.642 1548.41 123.162C1549.57 122.682 1550.86 122.442 1552.28 122.442C1553.3 122.442 1554.21 122.61 1555 122.946C1555.79 123.282 1556.46 123.75 1557 124.35C1557.54 124.95 1557.94 125.676 1558.22 126.528C1558.5 127.38 1558.63 128.316 1558.63 129.336V141H1557.21C1556.9 141 1556.66 140.952 1556.49 140.856C1556.32 140.748 1556.19 140.544 1556.1 140.244L1555.74 138.516C1555.26 138.96 1554.79 139.356 1554.33 139.704C1553.88 140.04 1553.4 140.328 1552.89 140.568C1552.39 140.796 1551.85 140.97 1551.27 141.09C1550.71 141.222 1550.08 141.288 1549.38 141.288C1548.67 141.288 1548.01 141.192 1547.38 141C1546.76 140.796 1546.21 140.496 1545.75 140.1C1545.29 139.704 1544.92 139.206 1544.65 138.606C1544.38 137.994 1544.25 137.274 1544.25 136.446C1544.25 135.726 1544.45 135.036 1544.85 134.376C1545.24 133.704 1545.88 133.11 1546.77 132.594C1547.66 132.078 1548.82 131.658 1550.25 131.334C1551.67 130.998 1553.43 130.806 1555.5 130.758V129.336C1555.5 127.92 1555.2 126.852 1554.58 126.132C1553.97 125.4 1553.08 125.034 1551.9 125.034C1551.11 125.034 1550.44 125.136 1549.9 125.34C1549.38 125.532 1548.91 125.754 1548.52 126.006C1548.13 126.246 1547.8 126.468 1547.51 126.672C1547.23 126.864 1546.96 126.96 1546.68 126.96C1546.47 126.96 1546.28 126.906 1546.12 126.798C1545.97 126.678 1545.84 126.534 1545.73 126.366L1545.15 125.34ZM1574.13 125.772C1573.99 126.036 1573.77 126.168 1573.47 126.168C1573.29 126.168 1573.08 126.102 1572.86 125.97C1572.63 125.838 1572.35 125.694 1572.01 125.538C1571.69 125.37 1571.3 125.22 1570.84 125.088C1570.38 124.944 1569.84 124.872 1569.22 124.872C1568.68 124.872 1568.19 124.944 1567.76 125.088C1567.33 125.22 1566.96 125.406 1566.65 125.646C1566.35 125.886 1566.11 126.168 1565.94 126.492C1565.79 126.804 1565.71 127.146 1565.71 127.518C1565.71 127.986 1565.84 128.376 1566.11 128.688C1566.38 129 1566.74 129.27 1567.19 129.498C1567.63 129.726 1568.13 129.93 1568.7 130.11C1569.26 130.278 1569.84 130.464 1570.43 130.668C1571.03 130.86 1571.61 131.076 1572.17 131.316C1572.74 131.556 1573.24 131.856 1573.68 132.216C1574.13 132.576 1574.48 133.02 1574.75 133.548C1575.02 134.064 1575.16 134.688 1575.16 135.42C1575.16 136.26 1575.01 137.04 1574.71 137.76C1574.41 138.468 1573.97 139.086 1573.38 139.614C1572.79 140.13 1572.07 140.538 1571.22 140.838C1570.37 141.138 1569.38 141.288 1568.27 141.288C1566.99 141.288 1565.84 141.084 1564.81 140.676C1563.78 140.256 1562.9 139.722 1562.18 139.074L1562.94 137.85C1563.03 137.694 1563.15 137.574 1563.28 137.49C1563.41 137.406 1563.58 137.364 1563.78 137.364C1564 137.364 1564.23 137.448 1564.47 137.616C1564.71 137.784 1565 137.97 1565.33 138.174C1565.68 138.378 1566.1 138.564 1566.59 138.732C1567.08 138.9 1567.7 138.984 1568.43 138.984C1569.05 138.984 1569.6 138.906 1570.07 138.75C1570.53 138.582 1570.92 138.36 1571.24 138.084C1571.55 137.808 1571.78 137.49 1571.92 137.13C1572.08 136.77 1572.15 136.386 1572.15 135.978C1572.15 135.474 1572.02 135.06 1571.74 134.736C1571.48 134.4 1571.12 134.118 1570.68 133.89C1570.23 133.65 1569.72 133.446 1569.15 133.278C1568.58 133.098 1568 132.912 1567.4 132.72C1566.81 132.528 1566.23 132.312 1565.66 132.072C1565.09 131.82 1564.59 131.508 1564.14 131.136C1563.7 130.764 1563.34 130.308 1563.06 129.768C1562.8 129.216 1562.67 128.55 1562.67 127.77C1562.67 127.074 1562.81 126.408 1563.1 125.772C1563.39 125.124 1563.81 124.56 1564.36 124.08C1564.91 123.588 1565.59 123.198 1566.39 122.91C1567.2 122.622 1568.12 122.478 1569.15 122.478C1570.35 122.478 1571.42 122.67 1572.37 123.054C1573.33 123.426 1574.16 123.942 1574.85 124.602L1574.13 125.772ZM1589.71 125.772C1589.56 126.036 1589.34 126.168 1589.04 126.168C1588.86 126.168 1588.66 126.102 1588.43 125.97C1588.2 125.838 1587.92 125.694 1587.58 125.538C1587.26 125.37 1586.87 125.22 1586.41 125.088C1585.96 124.944 1585.42 124.872 1584.79 124.872C1584.25 124.872 1583.77 124.944 1583.34 125.088C1582.9 125.22 1582.53 125.406 1582.22 125.646C1581.92 125.886 1581.69 126.168 1581.52 126.492C1581.36 126.804 1581.28 127.146 1581.28 127.518C1581.28 127.986 1581.42 128.376 1581.68 128.688C1581.96 129 1582.32 129.27 1582.76 129.498C1583.2 129.726 1583.71 129.93 1584.27 130.11C1584.84 130.278 1585.41 130.464 1586 130.668C1586.6 130.86 1587.18 131.076 1587.75 131.316C1588.31 131.556 1588.81 131.856 1589.26 132.216C1589.7 132.576 1590.06 133.02 1590.32 133.548C1590.6 134.064 1590.73 134.688 1590.73 135.42C1590.73 136.26 1590.58 137.04 1590.28 137.76C1589.98 138.468 1589.54 139.086 1588.95 139.614C1588.36 140.13 1587.64 140.538 1586.79 140.838C1585.94 141.138 1584.96 141.288 1583.84 141.288C1582.57 141.288 1581.42 141.084 1580.38 140.676C1579.35 140.256 1578.48 139.722 1577.76 139.074L1578.51 137.85C1578.61 137.694 1578.72 137.574 1578.85 137.49C1578.99 137.406 1579.15 137.364 1579.36 137.364C1579.57 137.364 1579.8 137.448 1580.04 137.616C1580.28 137.784 1580.57 137.97 1580.91 138.174C1581.25 138.378 1581.67 138.564 1582.17 138.732C1582.66 138.9 1583.27 138.984 1584 138.984C1584.63 138.984 1585.17 138.906 1585.64 138.75C1586.11 138.582 1586.5 138.36 1586.81 138.084C1587.12 137.808 1587.35 137.49 1587.49 137.13C1587.65 136.77 1587.73 136.386 1587.73 135.978C1587.73 135.474 1587.59 135.06 1587.31 134.736C1587.05 134.4 1586.7 134.118 1586.25 133.89C1585.81 133.65 1585.3 133.446 1584.72 133.278C1584.16 133.098 1583.58 132.912 1582.98 132.72C1582.39 132.528 1581.81 132.312 1581.23 132.072C1580.67 131.82 1580.16 131.508 1579.72 131.136C1579.27 130.764 1578.91 130.308 1578.64 129.768C1578.37 129.216 1578.24 128.55 1578.24 127.77C1578.24 127.074 1578.39 126.408 1578.67 125.772C1578.96 125.124 1579.38 124.56 1579.93 124.08C1580.49 123.588 1581.16 123.198 1581.97 122.91C1582.77 122.622 1583.69 122.478 1584.72 122.478C1585.92 122.478 1587 122.67 1587.94 123.054C1588.9 123.426 1589.73 123.942 1590.43 124.602L1589.71 125.772ZM1478.57 158.512V187.078H1481.61C1481.88 187.078 1482.09 187.162 1482.24 187.33C1482.41 187.498 1482.49 187.702 1482.49 187.942V189.202H1475.87V156.406H1482.49V157.666C1482.49 157.906 1482.41 158.11 1482.24 158.278C1482.09 158.434 1481.88 158.512 1481.61 158.512H1478.57ZM1494.93 175.792C1493.45 175.84 1492.19 175.96 1491.15 176.152C1490.12 176.332 1489.27 176.572 1488.61 176.872C1487.96 177.172 1487.49 177.526 1487.19 177.934C1486.9 178.342 1486.76 178.798 1486.76 179.302C1486.76 179.782 1486.83 180.196 1486.99 180.544C1487.15 180.892 1487.36 181.18 1487.62 181.408C1487.9 181.624 1488.21 181.786 1488.57 181.894C1488.95 181.99 1489.34 182.038 1489.76 182.038C1490.33 182.038 1490.84 181.984 1491.31 181.876C1491.78 181.756 1492.22 181.588 1492.62 181.372C1493.04 181.156 1493.44 180.898 1493.81 180.598C1494.2 180.298 1494.57 179.956 1494.93 179.572V175.792ZM1484.58 168.34C1485.59 167.368 1486.67 166.642 1487.84 166.162C1489 165.682 1490.29 165.442 1491.71 165.442C1492.73 165.442 1493.63 165.61 1494.42 165.946C1495.22 166.282 1495.88 166.75 1496.42 167.35C1496.96 167.95 1497.37 168.676 1497.65 169.528C1497.92 170.38 1498.06 171.316 1498.06 172.336V184H1496.64C1496.33 184 1496.09 183.952 1495.92 183.856C1495.75 183.748 1495.62 183.544 1495.52 183.244L1495.16 181.516C1494.68 181.96 1494.21 182.356 1493.76 182.704C1493.3 183.04 1492.82 183.328 1492.32 183.568C1491.81 183.796 1491.27 183.97 1490.7 184.09C1490.13 184.222 1489.5 184.288 1488.81 184.288C1488.1 184.288 1487.43 184.192 1486.81 184C1486.19 183.796 1485.64 183.496 1485.17 183.1C1484.72 182.704 1484.35 182.206 1484.07 181.606C1483.81 180.994 1483.68 180.274 1483.68 179.446C1483.68 178.726 1483.88 178.036 1484.27 177.376C1484.67 176.704 1485.31 176.11 1486.2 175.594C1487.09 175.078 1488.24 174.658 1489.67 174.334C1491.1 173.998 1492.85 173.806 1494.93 173.758V172.336C1494.93 170.92 1494.62 169.852 1494.01 169.132C1493.4 168.4 1492.5 168.034 1491.33 168.034C1490.54 168.034 1489.87 168.136 1489.33 168.34C1488.8 168.532 1488.34 168.754 1487.94 169.006C1487.56 169.246 1487.22 169.468 1486.94 169.672C1486.66 169.864 1486.38 169.96 1486.11 169.96C1485.89 169.96 1485.71 169.906 1485.55 169.798C1485.39 169.678 1485.26 169.534 1485.15 169.366L1484.58 168.34ZM1508.29 184.288C1506.85 184.288 1505.74 183.886 1504.96 183.082C1504.19 182.278 1503.81 181.12 1503.81 179.608V168.448H1501.61C1501.42 168.448 1501.26 168.394 1501.13 168.286C1501 168.166 1500.93 167.986 1500.93 167.746V166.468L1503.92 166.09L1504.66 160.456C1504.69 160.276 1504.77 160.132 1504.89 160.024C1505.02 159.904 1505.19 159.844 1505.39 159.844H1507.01V166.126H1515.6L1516.34 160.456C1516.37 160.276 1516.45 160.132 1516.57 160.024C1516.7 159.904 1516.87 159.844 1517.08 159.844H1518.7V166.126H1523.97V168.448H1518.7V179.392C1518.7 180.16 1518.88 180.73 1519.25 181.102C1519.64 181.474 1520.12 181.66 1520.69 181.66C1521.03 181.66 1521.32 181.618 1521.56 181.534C1521.81 181.438 1522.03 181.336 1522.21 181.228C1522.39 181.12 1522.54 181.024 1522.66 180.94C1522.79 180.844 1522.9 180.796 1523 180.796C1523.18 180.796 1523.33 180.898 1523.45 181.102L1524.4 182.632C1523.84 183.148 1523.17 183.556 1522.39 183.856C1521.61 184.144 1520.8 184.288 1519.97 184.288C1518.55 184.288 1517.44 183.886 1516.66 183.082C1515.88 182.278 1515.49 181.12 1515.49 179.608V168.448H1507.01V179.392C1507.01 180.16 1507.2 180.73 1507.57 181.102C1507.94 181.474 1508.42 181.66 1509.01 181.66C1509.35 181.66 1509.64 181.618 1509.88 181.534C1510.13 181.438 1510.34 181.336 1510.52 181.228C1510.7 181.12 1510.85 181.024 1510.97 180.94C1511.11 180.844 1511.22 180.796 1511.32 180.796C1511.48 180.796 1511.63 180.898 1511.77 181.102L1512.7 182.632C1512.15 183.148 1511.48 183.556 1510.7 183.856C1509.92 184.144 1509.12 184.288 1508.29 184.288ZM1530.31 169.42C1530.89 168.172 1531.59 167.2 1532.43 166.504C1533.27 165.796 1534.3 165.442 1535.51 165.442C1535.9 165.442 1536.26 165.484 1536.61 165.568C1536.97 165.652 1537.29 165.784 1537.56 165.964L1537.33 168.358C1537.26 168.658 1537.08 168.808 1536.79 168.808C1536.62 168.808 1536.38 168.772 1536.05 168.7C1535.73 168.628 1535.36 168.592 1534.95 168.592C1534.38 168.592 1533.86 168.676 1533.41 168.844C1532.96 169.012 1532.56 169.264 1532.2 169.6C1531.85 169.924 1531.53 170.332 1531.25 170.824C1530.97 171.304 1530.72 171.856 1530.49 172.48V184H1527.27V165.766H1529.1C1529.45 165.766 1529.69 165.832 1529.82 165.964C1529.96 166.096 1530.05 166.324 1530.09 166.648L1530.31 169.42ZM1543.77 165.766V184H1540.56V165.766H1543.77ZM1544.45 160.042C1544.45 160.354 1544.38 160.648 1544.25 160.924C1544.13 161.188 1543.96 161.428 1543.75 161.644C1543.54 161.848 1543.3 162.01 1543.01 162.13C1542.73 162.25 1542.44 162.31 1542.13 162.31C1541.82 162.31 1541.52 162.25 1541.25 162.13C1540.98 162.01 1540.75 161.848 1540.54 161.644C1540.34 161.428 1540.18 161.188 1540.06 160.924C1539.94 160.648 1539.88 160.354 1539.88 160.042C1539.88 159.73 1539.94 159.436 1540.06 159.16C1540.18 158.872 1540.34 158.626 1540.54 158.422C1540.75 158.206 1540.98 158.038 1541.25 157.918C1541.52 157.798 1541.82 157.738 1542.13 157.738C1542.44 157.738 1542.73 157.798 1543.01 157.918C1543.3 158.038 1543.54 158.206 1543.75 158.422C1543.96 158.626 1544.13 158.872 1544.25 159.16C1544.38 159.436 1544.45 159.73 1544.45 160.042ZM1552.25 179.608C1552.84 180.4 1553.48 180.958 1554.18 181.282C1554.89 181.606 1555.66 181.768 1556.5 181.768C1558.22 181.768 1559.53 181.162 1560.44 179.95C1561.35 178.738 1561.81 176.932 1561.81 174.532C1561.81 172.3 1561.4 170.662 1560.59 169.618C1559.78 168.562 1558.63 168.034 1557.13 168.034C1556.09 168.034 1555.17 168.274 1554.39 168.754C1553.63 169.234 1552.91 169.912 1552.25 170.788V179.608ZM1552.25 168.394C1553.02 167.506 1553.88 166.798 1554.84 166.27C1555.82 165.742 1556.93 165.478 1558.19 165.478C1559.26 165.478 1560.22 165.682 1561.07 166.09C1561.94 166.498 1562.67 167.092 1563.27 167.872C1563.87 168.64 1564.32 169.576 1564.64 170.68C1564.96 171.784 1565.12 173.026 1565.12 174.406C1565.12 175.882 1564.94 177.226 1564.58 178.438C1564.22 179.65 1563.7 180.688 1563.02 181.552C1562.34 182.404 1561.52 183.07 1560.55 183.55C1559.58 184.018 1558.49 184.252 1557.27 184.252C1556.07 184.252 1555.06 184.03 1554.23 183.586C1553.42 183.13 1552.7 182.488 1552.09 181.66L1551.93 183.316C1551.83 183.772 1551.56 184 1551.1 184H1549.03V157.486H1552.25V168.394ZM1584.17 165.766V184H1582.26C1581.8 184 1581.52 183.778 1581.4 183.334L1581.14 181.372C1580.35 182.248 1579.46 182.956 1578.48 183.496C1577.5 184.024 1576.37 184.288 1575.1 184.288C1574.1 184.288 1573.22 184.126 1572.45 183.802C1571.69 183.466 1571.06 182.998 1570.54 182.398C1570.03 181.798 1569.64 181.072 1569.37 180.22C1569.12 179.368 1568.99 178.426 1568.99 177.394V165.766H1572.2V177.394C1572.2 178.774 1572.51 179.842 1573.13 180.598C1573.77 181.354 1574.74 181.732 1576.03 181.732C1576.98 181.732 1577.86 181.51 1578.68 181.066C1579.51 180.61 1580.27 179.986 1580.96 179.194V165.766H1584.17ZM1594.85 184.288C1593.41 184.288 1592.3 183.886 1591.52 183.082C1590.75 182.278 1590.36 181.12 1590.36 179.608V168.448H1588.17C1587.98 168.448 1587.81 168.394 1587.68 168.286C1587.55 168.166 1587.48 167.986 1587.48 167.746V166.468L1590.47 166.09L1591.21 160.456C1591.25 160.276 1591.32 160.132 1591.44 160.024C1591.58 159.904 1591.74 159.844 1591.95 159.844H1593.57V166.126H1598.84V168.448H1593.57V179.392C1593.57 180.16 1593.75 180.73 1594.13 181.102C1594.5 181.474 1594.98 181.66 1595.57 181.66C1595.9 181.66 1596.19 181.618 1596.43 181.534C1596.68 181.438 1596.9 181.336 1597.08 181.228C1597.26 181.12 1597.41 181.024 1597.53 180.94C1597.66 180.844 1597.77 180.796 1597.87 180.796C1598.04 180.796 1598.19 180.898 1598.32 181.102L1599.26 182.632C1598.7 183.148 1598.04 183.556 1597.26 183.856C1596.48 184.144 1595.67 184.288 1594.85 184.288ZM1614.25 172.894C1614.25 172.15 1614.14 171.472 1613.93 170.86C1613.72 170.236 1613.42 169.702 1613.01 169.258C1612.61 168.802 1612.13 168.454 1611.55 168.214C1610.97 167.962 1610.32 167.836 1609.59 167.836C1608.05 167.836 1606.83 168.286 1605.93 169.186C1605.05 170.074 1604.49 171.31 1604.28 172.894H1614.25ZM1616.84 181.444C1616.45 181.924 1615.97 182.344 1615.42 182.704C1614.87 183.052 1614.27 183.34 1613.64 183.568C1613.01 183.796 1612.37 183.964 1611.69 184.072C1611.02 184.192 1610.36 184.252 1609.7 184.252C1608.44 184.252 1607.27 184.042 1606.2 183.622C1605.15 183.19 1604.23 182.566 1603.45 181.75C1602.68 180.922 1602.08 179.902 1601.65 178.69C1601.22 177.478 1601 176.086 1601 174.514C1601 173.242 1601.19 172.054 1601.58 170.95C1601.97 169.846 1602.54 168.892 1603.27 168.088C1604 167.272 1604.9 166.636 1605.95 166.18C1607.01 165.712 1608.2 165.478 1609.52 165.478C1610.61 165.478 1611.62 165.664 1612.54 166.036C1613.48 166.396 1614.28 166.924 1614.95 167.62C1615.64 168.304 1616.17 169.156 1616.55 170.176C1616.94 171.184 1617.13 172.336 1617.13 173.632C1617.13 174.136 1617.08 174.472 1616.97 174.64C1616.86 174.808 1616.66 174.892 1616.36 174.892H1604.17C1604.21 176.044 1604.36 177.046 1604.64 177.898C1604.93 178.75 1605.32 179.464 1605.83 180.04C1606.33 180.604 1606.93 181.03 1607.63 181.318C1608.32 181.594 1609.1 181.732 1609.97 181.732C1610.77 181.732 1611.46 181.642 1612.04 181.462C1612.62 181.27 1613.13 181.066 1613.55 180.85C1613.97 180.634 1614.32 180.436 1614.59 180.256C1614.88 180.064 1615.13 179.968 1615.33 179.968C1615.59 179.968 1615.8 180.07 1615.94 180.274L1616.84 181.444ZM1625.14 189.202H1618.52V187.942C1618.52 187.702 1618.6 187.498 1618.75 187.33C1618.92 187.162 1619.14 187.078 1619.4 187.078H1622.44V158.512H1619.4C1619.14 158.512 1618.92 158.434 1618.75 158.278C1618.6 158.11 1618.52 157.906 1618.52 157.666V156.406H1625.14V189.202Z" fill="#6D7E8A"/>
<path d="M447.577 314.432H452.825V326.848L452.569 334.208C454.233 332.459 456.004 331.008 457.881 329.856C459.758 328.704 461.913 328.128 464.345 328.128C468.057 328.128 470.766 329.195 472.473 331.328C474.222 333.419 475.097 336.533 475.097 340.672V360H469.849V341.376C469.849 338.432 469.294 336.256 468.185 334.848C467.076 333.397 465.241 332.672 462.681 332.672C461.742 332.672 460.868 332.8 460.057 333.056C459.289 333.269 458.521 333.611 457.753 334.08C456.985 334.549 456.196 335.147 455.385 335.872C454.574 336.555 453.721 337.365 452.825 338.304V360H447.577V314.432ZM484.672 356.864C488.128 353.792 491.179 351.019 493.824 348.544C496.512 346.069 498.752 343.808 500.544 341.76C502.379 339.669 503.765 337.728 504.704 335.936C505.643 334.144 506.112 332.395 506.112 330.688C506.112 328.341 505.387 326.421 503.936 324.928C502.485 323.435 500.245 322.688 497.216 322.688C495.296 322.688 493.504 323.179 491.84 324.16C490.219 325.099 488.747 326.251 487.424 327.616L484.416 324.608C486.251 322.731 488.213 321.237 490.304 320.128C492.437 318.976 494.955 318.4 497.856 318.4C499.904 318.4 501.739 318.699 503.36 319.296C505.024 319.851 506.432 320.661 507.584 321.728C508.736 322.752 509.611 324.011 510.208 325.504C510.848 326.997 511.168 328.64 511.168 330.432C511.168 332.352 510.699 334.293 509.76 336.256C508.864 338.176 507.584 340.181 505.92 342.272C504.256 344.32 502.272 346.475 499.968 348.736C497.664 350.955 495.125 353.323 492.352 355.84C493.589 355.755 494.848 355.669 496.128 355.584C497.451 355.499 498.731 355.456 499.968 355.456H513.408V360H484.672V356.864Z" fill="#2F4858"/>
<g opacity="0.4">
<path d="M1032 494H1187V649H1032V494Z" fill="white"/>
<rect x="1032" y="494" width="155" height="155" fill="#2F4858"/>
<path d="M1133.68 574.662C1133.68 580.678 1133.03 585.894 1131.72 590.31C1130.44 594.694 1128.68 598.326 1126.44 601.206C1124.2 604.086 1121.54 606.23 1118.47 607.638C1115.43 609.046 1112.16 609.75 1108.68 609.75C1105.16 609.75 1101.88 609.046 1098.84 607.638C1095.83 606.23 1093.2 604.086 1090.96 601.206C1088.72 598.326 1086.96 594.694 1085.68 590.31C1084.4 585.894 1083.76 580.678 1083.76 574.662C1083.76 568.646 1084.4 563.43 1085.68 559.014C1086.96 554.598 1088.72 550.95 1090.96 548.07C1093.2 545.158 1095.83 542.998 1098.84 541.59C1101.88 540.182 1105.16 539.478 1108.68 539.478C1112.16 539.478 1115.43 540.182 1118.47 541.59C1121.54 542.998 1124.2 545.158 1126.44 548.07C1128.68 550.95 1130.44 554.598 1131.72 559.014C1133.03 563.43 1133.68 568.646 1133.68 574.662ZM1124.8 574.662C1124.8 569.414 1124.36 565.014 1123.46 561.462C1122.6 557.878 1121.41 554.998 1119.91 552.822C1118.44 550.646 1116.72 549.094 1114.77 548.166C1112.82 547.206 1110.79 546.726 1108.68 546.726C1106.56 546.726 1104.53 547.206 1102.58 548.166C1100.63 549.094 1098.92 550.646 1097.44 552.822C1095.97 554.998 1094.79 557.878 1093.89 561.462C1093.03 565.014 1092.6 569.414 1092.6 574.662C1092.6 579.91 1093.03 584.31 1093.89 587.862C1094.79 591.414 1095.97 594.278 1097.44 596.454C1098.92 598.63 1100.63 600.198 1102.58 601.158C1104.53 602.086 1106.56 602.55 1108.68 602.55C1110.79 602.55 1112.82 602.086 1114.77 601.158C1116.72 600.198 1118.44 598.63 1119.91 596.454C1121.41 594.278 1122.6 591.414 1123.46 587.862C1124.36 584.31 1124.8 579.91 1124.8 574.662Z" fill="white"/>
</g>
<g opacity="0.4">
<rect x="1253" y="494" width="155" height="155" fill="#4D8DC9"/>
<path d="M1354.68 574.662C1354.68 580.678 1354.03 585.894 1352.72 590.31C1351.44 594.694 1349.68 598.326 1347.44 601.206C1345.2 604.086 1342.54 606.23 1339.47 607.638C1336.43 609.046 1333.16 609.75 1329.68 609.75C1326.16 609.75 1322.88 609.046 1319.84 607.638C1316.83 606.23 1314.2 604.086 1311.96 601.206C1309.72 598.326 1307.96 594.694 1306.68 590.31C1305.4 585.894 1304.76 580.678 1304.76 574.662C1304.76 568.646 1305.4 563.43 1306.68 559.014C1307.96 554.598 1309.72 550.95 1311.96 548.07C1314.2 545.158 1316.83 542.998 1319.84 541.59C1322.88 540.182 1326.16 539.478 1329.68 539.478C1333.16 539.478 1336.43 540.182 1339.47 541.59C1342.54 542.998 1345.2 545.158 1347.44 548.07C1349.68 550.95 1351.44 554.598 1352.72 559.014C1354.03 563.43 1354.68 568.646 1354.68 574.662ZM1345.8 574.662C1345.8 569.414 1345.36 565.014 1344.46 561.462C1343.6 557.878 1342.41 554.998 1340.91 552.822C1339.44 550.646 1337.72 549.094 1335.77 548.166C1333.82 547.206 1331.79 546.726 1329.68 546.726C1327.56 546.726 1325.53 547.206 1323.58 548.166C1321.63 549.094 1319.92 550.646 1318.44 552.822C1316.97 554.998 1315.79 557.878 1314.89 561.462C1314.03 565.014 1313.6 569.414 1313.6 574.662C1313.6 579.91 1314.03 584.31 1314.89 587.862C1315.79 591.414 1316.97 594.278 1318.44 596.454C1319.92 598.63 1321.63 600.198 1323.58 601.158C1325.53 602.086 1327.56 602.55 1329.68 602.55C1331.79 602.55 1333.82 602.086 1335.77 601.158C1337.72 600.198 1339.44 598.63 1340.91 596.454C1342.41 594.278 1343.6 591.414 1344.46 587.862C1345.36 584.31 1345.8 579.91 1345.8 574.662Z" fill="white"/>
</g>
<rect x="1474" y="495" width="154" height="153" fill="#44BC96"/>
<path d="M1571.25 602.489V609.017H1534.39V602.489H1549.12V555.593C1549.12 554.185 1549.17 552.761 1549.27 551.321L1537.03 561.833C1536.61 562.185 1536.2 562.409 1535.78 562.505C1535.36 562.569 1534.98 562.569 1534.63 562.505C1534.28 562.441 1533.94 562.313 1533.62 562.121C1533.33 561.929 1533.11 561.721 1532.95 561.497L1530.26 557.801L1550.76 540.089H1557.72V602.489H1571.25Z" fill="white"/>
<g opacity="0.4">
<path d="M1694 494H1849V649H1694V494Z" fill="#E3848B"/>
<rect x="1694" y="494" width="155" height="155" fill="#E3848B"/>
<path d="M1791.75 602.502V609.03H1754.88V602.502H1769.62V555.606C1769.62 554.198 1769.67 552.774 1769.76 551.334L1757.52 561.846C1757.11 562.198 1756.69 562.422 1756.28 562.518C1755.86 562.582 1755.48 562.582 1755.12 562.518C1754.77 562.454 1754.44 562.326 1754.12 562.134C1753.83 561.942 1753.6 561.734 1753.44 561.51L1750.76 557.814L1771.25 540.102H1778.21V602.502H1791.75Z" fill="white"/>
</g>
<path d="M282.954 589.392C282.954 587.771 283.444 586.469 284.426 585.488C285.45 584.464 286.687 583.952 288.138 583.952C289.588 583.952 290.804 584.464 291.786 585.488C292.81 586.469 293.322 587.771 293.322 589.392C293.322 591.013 292.81 592.315 291.786 593.296C290.804 594.277 289.588 594.768 288.138 594.768C286.687 594.768 285.45 594.277 284.426 593.296C283.444 592.315 282.954 591.013 282.954 589.392ZM314.481 586.448C316.23 587.728 318.107 588.752 320.113 589.52C322.118 590.288 324.529 590.672 327.345 590.672C330.161 590.672 332.251 590.203 333.617 589.264C334.982 588.325 335.665 587.173 335.665 585.808C335.665 584.613 334.918 583.547 333.425 582.608C331.974 581.669 329.35 580.731 325.553 579.792C323.931 579.408 322.395 578.939 320.945 578.384C319.537 577.829 318.299 577.189 317.233 576.464C316.166 575.696 315.313 574.864 314.673 573.968C314.033 573.072 313.713 572.069 313.713 570.96C313.713 569.723 313.99 568.571 314.545 567.504C315.099 566.395 315.91 565.456 316.977 564.688C318.086 563.877 319.451 563.259 321.073 562.832C322.737 562.363 324.635 562.128 326.769 562.128C329.115 562.128 331.398 562.533 333.617 563.344C335.835 564.112 337.713 565.029 339.249 566.096L336.689 569.488C335.323 568.507 333.809 567.717 332.145 567.12C330.481 566.523 328.689 566.224 326.769 566.224C325.318 566.224 324.102 566.352 323.121 566.608C322.139 566.821 321.35 567.141 320.753 567.568C320.155 567.952 319.729 568.421 319.473 568.976C319.217 569.531 319.089 570.107 319.089 570.704C319.089 571.984 319.963 573.051 321.713 573.904C323.462 574.715 325.745 575.483 328.561 576.208C332.785 577.275 335.899 578.491 337.905 579.856C339.953 581.221 340.977 583.099 340.977 585.488C340.977 586.768 340.678 587.963 340.081 589.072C339.483 590.181 338.587 591.163 337.393 592.016C336.241 592.869 334.79 593.531 333.041 594C331.334 594.512 329.371 594.768 327.153 594.768C324.081 594.768 321.243 594.299 318.641 593.36C316.081 592.379 313.841 591.227 311.921 589.904L314.481 586.448ZM356.888 596.624V607.12H351.64V562.896H355.992L356.44 566.864H356.632C358.082 565.499 359.746 564.368 361.624 563.472C363.544 562.576 365.464 562.128 367.384 562.128C369.474 562.128 371.309 562.512 372.888 563.28C374.509 564.005 375.853 565.072 376.92 566.48C378.029 567.845 378.861 569.509 379.416 571.472C379.97 573.392 380.248 575.568 380.248 578C380.248 580.645 379.864 583.013 379.096 585.104C378.328 587.152 377.282 588.901 375.96 590.352C374.68 591.803 373.186 592.912 371.48 593.68C369.773 594.405 367.981 594.768 366.104 594.768C364.653 594.768 363.074 594.427 361.368 593.744C359.704 593.019 358.168 592.016 356.76 590.736L356.888 596.624ZM356.888 586.704C358.381 588.027 359.874 588.965 361.368 589.52C362.861 590.075 364.141 590.352 365.208 590.352C368.024 590.352 370.328 589.264 372.12 587.088C373.912 584.912 374.808 581.883 374.808 578C374.808 576.293 374.637 574.736 374.296 573.328C373.954 571.92 373.421 570.725 372.696 569.744C372.013 568.72 371.117 567.931 370.008 567.376C368.898 566.821 367.576 566.544 366.04 566.544C364.674 566.544 363.202 566.928 361.624 567.696C360.088 568.421 358.509 569.595 356.888 571.216V586.704ZM388.479 578.512C388.479 575.952 388.927 573.669 389.823 571.664C390.719 569.616 391.892 567.888 393.343 566.48C394.836 565.072 396.521 564.005 398.399 563.28C400.319 562.512 402.281 562.128 404.287 562.128C406.505 562.128 408.489 562.491 410.239 563.216C411.988 563.899 413.46 564.88 414.655 566.16C415.892 567.44 416.831 568.976 417.471 570.768C418.111 572.56 418.431 574.544 418.431 576.72C418.431 577.275 418.409 577.829 418.367 578.384C418.367 578.896 418.324 579.344 418.239 579.728H393.919C393.961 581.392 394.281 582.885 394.879 584.208C395.519 585.531 396.351 586.661 397.375 587.6C398.441 588.539 399.679 589.264 401.087 589.776C402.537 590.288 404.116 590.544 405.823 590.544C407.657 590.544 409.321 590.288 410.815 589.776C412.351 589.264 413.844 588.56 415.295 587.664L417.151 591.12C415.615 592.101 413.865 592.955 411.903 593.68C409.94 594.405 407.7 594.768 405.183 594.768C402.879 594.768 400.703 594.405 398.655 593.68C396.649 592.912 394.879 591.845 393.343 590.48C391.849 589.072 390.655 587.365 389.759 585.36C388.905 583.355 388.479 581.072 388.479 578.512ZM413.567 575.952C413.567 572.837 412.756 570.448 411.135 568.784C409.513 567.12 407.252 566.288 404.351 566.288C403.071 566.288 401.833 566.501 400.639 566.928C399.487 567.355 398.441 567.995 397.503 568.848C396.564 569.659 395.775 570.661 395.135 571.856C394.495 573.051 394.068 574.416 393.855 575.952H413.567ZM427.558 578.512C427.558 575.909 428.006 573.605 428.902 571.6C429.84 569.552 431.099 567.824 432.678 566.416C434.256 565.008 436.091 563.941 438.182 563.216C440.315 562.491 442.555 562.128 444.902 562.128C447.462 562.128 449.659 562.576 451.494 563.472C453.371 564.368 454.95 565.435 456.229 566.672L453.606 570.064C452.326 568.955 450.982 568.08 449.574 567.44C448.208 566.8 446.715 566.48 445.094 566.48C443.302 566.48 441.659 566.779 440.166 567.376C438.672 567.931 437.392 568.741 436.326 569.808C435.302 570.875 434.491 572.155 433.894 573.648C433.296 575.099 432.998 576.72 432.998 578.512C432.998 580.304 433.275 581.925 433.83 583.376C434.427 584.827 435.238 586.085 436.262 587.152C437.328 588.176 438.587 588.987 440.038 589.584C441.531 590.139 443.174 590.416 444.966 590.416C446.886 590.416 448.635 590.053 450.214 589.328C451.835 588.56 453.307 587.621 454.63 586.512L456.934 589.904C455.227 591.44 453.307 592.635 451.174 593.488C449.083 594.341 446.886 594.768 444.582 594.768C442.15 594.768 439.888 594.405 437.798 593.68C435.75 592.955 433.958 591.909 432.422 590.544C430.886 589.136 429.691 587.429 428.838 585.424C427.984 583.376 427.558 581.072 427.558 578.512ZM466.573 562.896H486.285V594H481.037V567.184H466.573V562.896ZM483.085 556.496C481.847 556.496 480.823 556.133 480.013 555.408C479.245 554.683 478.861 553.701 478.861 552.464C478.861 551.227 479.245 550.245 480.013 549.52C480.823 548.752 481.847 548.368 483.085 548.368C484.279 548.368 485.282 548.752 486.093 549.52C486.903 550.245 487.309 551.227 487.309 552.464C487.309 553.701 486.903 554.683 486.093 555.408C485.282 556.133 484.279 556.496 483.085 556.496ZM504.372 585.936C504.372 584.187 504.777 582.672 505.588 581.392C506.441 580.069 507.764 578.939 509.556 578C511.39 577.061 513.737 576.293 516.596 575.696C519.454 575.099 522.889 574.629 526.9 574.288C526.857 573.221 526.686 572.219 526.388 571.28C526.089 570.341 525.62 569.531 524.98 568.848C524.34 568.123 523.486 567.547 522.42 567.12C521.396 566.693 520.137 566.48 518.644 566.48C516.596 566.48 514.633 566.885 512.756 567.696C510.878 568.464 509.214 569.296 507.764 570.192L505.716 566.608C506.484 566.096 507.38 565.584 508.404 565.072C509.47 564.517 510.58 564.027 511.732 563.6C512.926 563.173 514.185 562.832 515.508 562.576C516.83 562.277 518.174 562.128 519.54 562.128C523.806 562.128 526.964 563.301 529.012 565.648C531.102 567.952 532.148 571.045 532.148 574.928V594H527.86L527.412 589.776H527.22C525.47 591.141 523.529 592.315 521.396 593.296C519.305 594.277 517.15 594.768 514.932 594.768C513.481 594.768 512.116 594.555 510.836 594.128C509.556 593.744 508.425 593.189 507.444 592.464C506.505 591.696 505.758 590.779 505.204 589.712C504.649 588.603 504.372 587.344 504.372 585.936ZM509.492 585.552C509.492 586.448 509.684 587.216 510.068 587.856C510.452 588.453 510.942 588.965 511.54 589.392C512.18 589.776 512.905 590.075 513.716 590.288C514.569 590.459 515.444 590.544 516.34 590.544C518.132 590.544 519.881 590.16 521.588 589.392C523.337 588.581 525.108 587.429 526.9 585.936V577.744C523.572 578 520.777 578.363 518.516 578.832C516.297 579.301 514.505 579.877 513.14 580.56C511.817 581.2 510.878 581.947 510.324 582.8C509.769 583.611 509.492 584.528 509.492 585.552ZM542.747 548.432H558.619V583.952C558.619 586.256 559.152 587.92 560.219 588.944C561.328 589.925 562.821 590.416 564.699 590.416C566.405 590.416 568.368 589.925 570.587 588.944L571.931 592.912C570.523 593.424 569.2 593.851 567.963 594.192C566.725 594.576 565.253 594.768 563.547 594.768C560.219 594.768 557.68 593.829 555.931 591.952C554.224 590.075 553.371 587.28 553.371 583.568V552.72H542.747V548.432ZM620.265 548.432H625.513V560.848L625.257 568.208C626.921 566.459 628.691 565.008 630.569 563.856C632.446 562.704 634.601 562.128 637.033 562.128C640.745 562.128 643.454 563.195 645.161 565.328C646.91 567.419 647.785 570.533 647.785 574.672V594H642.537V575.376C642.537 572.432 641.982 570.256 640.873 568.848C639.763 567.397 637.929 566.672 635.369 566.672C634.43 566.672 633.555 566.8 632.745 567.056C631.977 567.269 631.209 567.611 630.441 568.08C629.673 568.549 628.883 569.147 628.073 569.872C627.262 570.555 626.409 571.365 625.513 572.304V594H620.265V548.432ZM657.36 590.864C660.816 587.792 663.866 585.019 666.512 582.544C669.2 580.069 671.44 577.808 673.232 575.76C675.066 573.669 676.453 571.728 677.392 569.936C678.33 568.144 678.8 566.395 678.8 564.688C678.8 562.341 678.074 560.421 676.624 558.928C675.173 557.435 672.933 556.688 669.904 556.688C667.984 556.688 666.192 557.179 664.528 558.16C662.906 559.099 661.434 560.251 660.112 561.616L657.104 558.608C658.938 556.731 660.901 555.237 662.992 554.128C665.125 552.976 667.642 552.4 670.544 552.4C672.592 552.4 674.426 552.699 676.048 553.296C677.712 553.851 679.12 554.661 680.272 555.728C681.424 556.752 682.298 558.011 682.896 559.504C683.536 560.997 683.856 562.64 683.856 564.432C683.856 566.352 683.386 568.293 682.448 570.256C681.552 572.176 680.272 574.181 678.608 576.272C676.944 578.32 674.96 580.475 672.656 582.736C670.352 584.955 667.813 587.323 665.04 589.84C666.277 589.755 667.536 589.669 668.816 589.584C670.138 589.499 671.418 589.456 672.656 589.456H686.096V594H657.36V590.864Z" fill="#2F4858"/>
<g opacity="0.4">
<path d="M1032 729H1187V884H1032V729Z" fill="white"/>
<rect x="1032" y="729" width="155" height="155" fill="#2F4858"/>
<path d="M1133.68 809.662C1133.68 815.678 1133.03 820.894 1131.72 825.31C1130.44 829.694 1128.68 833.326 1126.44 836.206C1124.2 839.086 1121.54 841.23 1118.47 842.638C1115.43 844.046 1112.16 844.75 1108.68 844.75C1105.16 844.75 1101.88 844.046 1098.84 842.638C1095.83 841.23 1093.2 839.086 1090.96 836.206C1088.72 833.326 1086.96 829.694 1085.68 825.31C1084.4 820.894 1083.76 815.678 1083.76 809.662C1083.76 803.646 1084.4 798.43 1085.68 794.014C1086.96 789.598 1088.72 785.95 1090.96 783.07C1093.2 780.158 1095.83 777.998 1098.84 776.59C1101.88 775.182 1105.16 774.478 1108.68 774.478C1112.16 774.478 1115.43 775.182 1118.47 776.59C1121.54 777.998 1124.2 780.158 1126.44 783.07C1128.68 785.95 1130.44 789.598 1131.72 794.014C1133.03 798.43 1133.68 803.646 1133.68 809.662ZM1124.8 809.662C1124.8 804.414 1124.36 800.014 1123.46 796.462C1122.6 792.878 1121.41 789.998 1119.91 787.822C1118.44 785.646 1116.72 784.094 1114.77 783.166C1112.82 782.206 1110.79 781.726 1108.68 781.726C1106.56 781.726 1104.53 782.206 1102.58 783.166C1100.63 784.094 1098.92 785.646 1097.44 787.822C1095.97 789.998 1094.79 792.878 1093.89 796.462C1093.03 800.014 1092.6 804.414 1092.6 809.662C1092.6 814.91 1093.03 819.31 1093.89 822.862C1094.79 826.414 1095.97 829.278 1097.44 831.454C1098.92 833.63 1100.63 835.198 1102.58 836.158C1104.53 837.086 1106.56 837.55 1108.68 837.55C1110.79 837.55 1112.82 837.086 1114.77 836.158C1116.72 835.198 1118.44 833.63 1119.91 831.454C1121.41 829.278 1122.6 826.414 1123.46 822.862C1124.36 819.31 1124.8 814.91 1124.8 809.662Z" fill="white"/>
</g>
<g opacity="0.4">
<rect x="1253" y="729" width="155" height="155" fill="#4D8DC9"/>
<path d="M1354.68 809.662C1354.68 815.678 1354.03 820.894 1352.72 825.31C1351.44 829.694 1349.68 833.326 1347.44 836.206C1345.2 839.086 1342.54 841.23 1339.47 842.638C1336.43 844.046 1333.16 844.75 1329.68 844.75C1326.16 844.75 1322.88 844.046 1319.84 842.638C1316.83 841.23 1314.2 839.086 1311.96 836.206C1309.72 833.326 1307.96 829.694 1306.68 825.31C1305.4 820.894 1304.76 815.678 1304.76 809.662C1304.76 803.646 1305.4 798.43 1306.68 794.014C1307.96 789.598 1309.72 785.95 1311.96 783.07C1314.2 780.158 1316.83 777.998 1319.84 776.59C1322.88 775.182 1326.16 774.478 1329.68 774.478C1333.16 774.478 1336.43 775.182 1339.47 776.59C1342.54 777.998 1345.2 780.158 1347.44 783.07C1349.68 785.95 1351.44 789.598 1352.72 794.014C1354.03 798.43 1354.68 803.646 1354.68 809.662ZM1345.8 809.662C1345.8 804.414 1345.36 800.014 1344.46 796.462C1343.6 792.878 1342.41 789.998 1340.91 787.822C1339.44 785.646 1337.72 784.094 1335.77 783.166C1333.82 782.206 1331.79 781.726 1329.68 781.726C1327.56 781.726 1325.53 782.206 1323.58 783.166C1321.63 784.094 1319.92 785.646 1318.44 787.822C1316.97 789.998 1315.79 792.878 1314.89 796.462C1314.03 800.014 1313.6 804.414 1313.6 809.662C1313.6 814.91 1314.03 819.31 1314.89 822.862C1315.79 826.414 1316.97 829.278 1318.44 831.454C1319.92 833.63 1321.63 835.198 1323.58 836.158C1325.53 837.086 1327.56 837.55 1329.68 837.55C1331.79 837.55 1333.82 837.086 1335.77 836.158C1337.72 835.198 1339.44 833.63 1340.91 831.454C1342.41 829.278 1343.6 826.414 1344.46 822.862C1345.36 819.31 1345.8 814.91 1345.8 809.662Z" fill="white"/>
</g>
<rect x="1474" y="730" width="154" height="153" fill="#44BC96"/>
<path d="M1571.25 837.489V844.017H1534.39V837.489H1549.12V790.593C1549.12 789.185 1549.17 787.761 1549.27 786.321L1537.03 796.833C1536.61 797.185 1536.2 797.409 1535.78 797.505C1535.36 797.569 1534.98 797.569 1534.63 797.505C1534.28 797.441 1533.94 797.313 1533.62 797.121C1533.33 796.929 1533.11 796.721 1532.95 796.497L1530.26 792.801L1550.76 775.089H1557.72V837.489H1571.25Z" fill="white"/>
<g opacity="0.4">
<path d="M1694 729H1849V884H1694V729Z" fill="#E3848B"/>
<rect x="1694" y="729" width="155" height="155" fill="#E3848B"/>
<path d="M1791.75 837.502V844.03H1754.88V837.502H1769.62V790.606C1769.62 789.198 1769.67 787.774 1769.76 786.334L1757.52 796.846C1757.11 797.198 1756.69 797.422 1756.28 797.518C1755.86 797.582 1755.48 797.582 1755.12 797.518C1754.77 797.454 1754.44 797.326 1754.12 797.134C1753.83 796.942 1753.6 796.734 1753.44 796.51L1750.76 792.814L1771.25 775.102H1778.21V837.502H1791.75Z" fill="white"/>
</g>
<path d="M332.452 783.432H337.7V795.848L337.444 803.208C339.108 801.459 340.879 800.008 342.756 798.856C344.633 797.704 346.788 797.128 349.22 797.128C352.932 797.128 355.641 798.195 357.348 800.328C359.097 802.419 359.972 805.533 359.972 809.672V829H354.724V810.376C354.724 807.432 354.169 805.256 353.06 803.848C351.951 802.397 350.116 801.672 347.556 801.672C346.617 801.672 345.743 801.8 344.932 802.056C344.164 802.269 343.396 802.611 342.628 803.08C341.86 803.549 341.071 804.147 340.26 804.872C339.449 805.555 338.596 806.365 337.7 807.304V829H332.452V783.432ZM369.547 825.864C373.003 822.792 376.054 820.019 378.699 817.544C381.387 815.069 383.627 812.808 385.419 810.76C387.254 808.669 388.64 806.728 389.579 804.936C390.518 803.144 390.987 801.395 390.987 799.688C390.987 797.341 390.262 795.421 388.811 793.928C387.36 792.435 385.12 791.688 382.091 791.688C380.171 791.688 378.379 792.179 376.715 793.16C375.094 794.099 373.622 795.251 372.299 796.616L369.291 793.608C371.126 791.731 373.088 790.237 375.179 789.128C377.312 787.976 379.83 787.4 382.731 787.4C384.779 787.4 386.614 787.699 388.235 788.296C389.899 788.851 391.307 789.661 392.459 790.728C393.611 791.752 394.486 793.011 395.083 794.504C395.723 795.997 396.043 797.64 396.043 799.432C396.043 801.352 395.574 803.293 394.635 805.256C393.739 807.176 392.459 809.181 390.795 811.272C389.131 813.32 387.147 815.475 384.843 817.736C382.539 819.955 380 822.323 377.227 824.84C378.464 824.755 379.723 824.669 381.003 824.584C382.326 824.499 383.606 824.456 384.843 824.456H398.283V829H369.547V825.864ZM417.266 824.392C417.266 822.771 417.757 821.469 418.738 820.488C419.762 819.464 420.999 818.952 422.45 818.952C423.901 818.952 425.117 819.464 426.098 820.488C427.122 821.469 427.634 822.771 427.634 824.392C427.634 826.013 427.122 827.315 426.098 828.296C425.117 829.277 423.901 829.768 422.45 829.768C420.999 829.768 419.762 829.277 418.738 828.296C417.757 827.315 417.266 826.013 417.266 824.392ZM477.401 788.424C476.121 787.827 474.926 787.443 473.817 787.272C472.75 787.059 471.534 786.952 470.169 786.952C467.353 786.952 465.326 787.677 464.089 789.128C462.894 790.536 462.297 792.52 462.297 795.08V797.896H475.353V802.184H462.297V829H457.113V802.184H448.217V798.216L457.113 797.896V795.272C457.113 791.475 458.116 788.424 460.121 786.12C462.169 783.816 465.348 782.664 469.657 782.664C472.729 782.664 475.716 783.261 478.617 784.456L477.401 788.424ZM485.184 820.936C485.184 819.187 485.589 817.672 486.4 816.392C487.253 815.069 488.576 813.939 490.368 813C492.203 812.061 494.549 811.293 497.408 810.696C500.267 810.099 503.701 809.629 507.712 809.288C507.669 808.221 507.499 807.219 507.2 806.28C506.901 805.341 506.432 804.531 505.792 803.848C505.152 803.123 504.299 802.547 503.232 802.12C502.208 801.693 500.949 801.48 499.456 801.48C497.408 801.48 495.445 801.885 493.568 802.696C491.691 803.464 490.027 804.296 488.576 805.192L486.528 801.608C487.296 801.096 488.192 800.584 489.216 800.072C490.283 799.517 491.392 799.027 492.544 798.6C493.739 798.173 494.997 797.832 496.32 797.576C497.643 797.277 498.987 797.128 500.352 797.128C504.619 797.128 507.776 798.301 509.824 800.648C511.915 802.952 512.96 806.045 512.96 809.928V829H508.672L508.224 824.776H508.032C506.283 826.141 504.341 827.315 502.208 828.296C500.117 829.277 497.963 829.768 495.744 829.768C494.293 829.768 492.928 829.555 491.648 829.128C490.368 828.744 489.237 828.189 488.256 827.464C487.317 826.696 486.571 825.779 486.016 824.712C485.461 823.603 485.184 822.344 485.184 820.936ZM490.304 820.552C490.304 821.448 490.496 822.216 490.88 822.856C491.264 823.453 491.755 823.965 492.352 824.392C492.992 824.776 493.717 825.075 494.528 825.288C495.381 825.459 496.256 825.544 497.152 825.544C498.944 825.544 500.693 825.16 502.4 824.392C504.149 823.581 505.92 822.429 507.712 820.936V812.744C504.384 813 501.589 813.363 499.328 813.832C497.109 814.301 495.317 814.877 493.952 815.56C492.629 816.2 491.691 816.947 491.136 817.8C490.581 818.611 490.304 819.528 490.304 820.552ZM524.327 797.896H528.679L529.127 803.208H529.383C531.004 801.459 532.754 800.008 534.631 798.856C536.508 797.704 538.663 797.128 541.095 797.128C544.807 797.128 547.516 798.195 549.223 800.328C550.972 802.419 551.847 805.533 551.847 809.672V829H546.599V810.376C546.599 807.432 546.044 805.256 544.935 803.848C543.826 802.397 541.991 801.672 539.431 801.672C538.492 801.672 537.618 801.8 536.807 802.056C536.039 802.269 535.271 802.611 534.503 803.08C533.735 803.549 532.946 804.147 532.135 804.872C531.324 805.555 530.471 806.365 529.575 807.304V829H524.327V797.896ZM561.87 813.512C561.87 810.909 562.318 808.605 563.214 806.6C564.153 804.552 565.411 802.824 566.99 801.416C568.569 800.008 570.403 798.941 572.494 798.216C574.627 797.491 576.867 797.128 579.214 797.128C581.774 797.128 583.971 797.576 585.806 798.472C587.683 799.368 589.262 800.435 590.542 801.672L587.918 805.064C586.638 803.955 585.294 803.08 583.886 802.44C582.521 801.8 581.027 801.48 579.406 801.48C577.614 801.48 575.971 801.779 574.478 802.376C572.985 802.931 571.705 803.741 570.638 804.808C569.614 805.875 568.803 807.155 568.206 808.648C567.609 810.099 567.31 811.72 567.31 813.512C567.31 815.304 567.587 816.925 568.142 818.376C568.739 819.827 569.55 821.085 570.574 822.152C571.641 823.176 572.899 823.987 574.35 824.584C575.843 825.139 577.486 825.416 579.278 825.416C581.198 825.416 582.947 825.053 584.526 824.328C586.147 823.56 587.619 822.621 588.942 821.512L591.246 824.904C589.539 826.44 587.619 827.635 585.486 828.488C583.395 829.341 581.198 829.768 578.894 829.768C576.462 829.768 574.201 829.405 572.11 828.68C570.062 827.955 568.27 826.909 566.734 825.544C565.198 824.136 564.003 822.429 563.15 820.424C562.297 818.376 561.87 816.072 561.87 813.512ZM600.501 837.576C600.928 837.704 601.376 837.811 601.845 837.896C602.357 837.981 602.848 838.024 603.317 838.024C605.493 838.024 607.264 837.384 608.629 836.104C609.994 834.867 611.061 833.288 611.829 831.368L612.789 829.064L598.261 797.896H603.573L611.189 815.112C611.786 816.477 612.405 817.949 613.045 819.528C613.728 821.107 614.389 822.643 615.029 824.136H615.285C615.84 822.643 616.394 821.128 616.949 819.592C617.546 818.013 618.101 816.52 618.613 815.112L625.397 797.896H630.389L616.693 831.56C616.096 833.096 615.413 834.525 614.645 835.848C613.877 837.171 612.96 838.301 611.893 839.24C610.826 840.221 609.589 840.989 608.181 841.544C606.816 842.099 605.258 842.376 603.509 842.376C601.973 842.376 600.608 842.163 599.413 841.736L600.501 837.576Z" fill="#2F4858"/>
<path d="M1453.42 584C1444.96 584 1436.98 585.996 1429.85 589.462C1427.89 589.111 1425.91 588.928 1423.92 588.917C1414.79 588.917 1406.03 592.543 1399.58 598.997C1393.13 605.451 1389.5 614.205 1389.5 623.333V682.333H1389.59C1390.49 714.129 1416.49 739.642 1448.5 739.642C1480.51 739.642 1506.51 714.129 1507.41 682.333H1507.5V638.083C1507.5 608.215 1483.29 584 1453.42 584Z" fill="#292F33"/>
<path d="M1492.75 687.25H1404.25C1399.03 687.25 1394.03 689.322 1390.34 693.01C1386.66 696.698 1384.58 701.701 1384.58 706.917V761H1512.42V706.917C1512.42 701.701 1510.34 696.698 1506.66 693.01C1502.97 689.322 1497.97 687.25 1492.75 687.25Z" fill="#9268CA"/>
<path d="M1428.83 608.583C1428.83 608.583 1428.82 634.681 1404.25 637.769V667.583C1404.25 692.024 1424.06 711.833 1448.5 711.833C1472.94 711.833 1492.75 692.024 1492.75 667.583V642.907C1438.13 641.058 1428.83 608.583 1428.83 608.583Z" fill="#F7DECE"/>
<path d="M1409.17 716.75H1414.08V761H1409.17V716.75Z" fill="#7450A8"/>
<path d="M1383.12 714.267L1381.73 713.977H1379.21C1379.21 713.692 1379.33 713.427 1379.39 713.146C1378.53 712.624 1377.85 711.849 1377.44 710.926C1377.04 710.004 1376.93 708.98 1377.13 707.994C1377.68 705.329 1380.29 703.618 1382.96 704.164L1393.25 706.293H1401.49C1405.73 706.293 1409.17 709.734 1409.17 713.982V721.667H1390.74C1390.74 721.667 1383.46 718.378 1383.12 714.267Z" fill="#E0AA94"/>
<path d="M1360 710.137C1360 708.013 1361.72 706.292 1363.84 706.292L1386.9 710.137H1405.32C1407.45 710.137 1409.16 711.863 1409.16 713.977V721.667H1384.58L1363.84 713.982C1363.84 713.982 1360 712.261 1360 710.137Z" fill="#F7DECE"/>
<path d="M1379.67 761H1409.17V721.667H1384.58L1379.67 761Z" fill="#9268CA"/>
<path d="M1482.92 716.75H1487.83V761H1482.92V716.75Z" fill="#7450A8"/>
<path d="M1513.89 714.268L1515.28 713.978H1517.79C1517.79 713.693 1517.68 713.427 1517.62 713.147C1518.48 712.624 1519.16 711.849 1519.56 710.927C1519.96 710.005 1520.07 708.98 1519.87 707.994C1519.6 706.714 1518.84 705.591 1517.75 704.873C1516.66 704.155 1515.32 703.9 1514.04 704.164L1503.76 706.293H1495.52C1491.28 706.293 1487.84 709.735 1487.84 713.983V721.667H1506.27C1506.26 721.667 1513.54 718.378 1513.89 714.268V714.268Z" fill="#E0AA94"/>
<path d="M1537 710.137C1537 709.118 1536.6 708.141 1535.88 707.42C1535.16 706.699 1534.18 706.294 1533.16 706.292L1510.1 710.137H1491.67C1490.65 710.137 1489.68 710.542 1488.96 711.262C1488.24 711.982 1487.83 712.959 1487.83 713.977V721.667H1512.42L1533.16 713.982C1533.16 713.982 1537 712.261 1537 710.137Z" fill="#F7DECE"/>
<path d="M1517.33 761H1487.83V721.667H1512.42L1517.33 761Z" fill="#9268CA"/>
<path d="M1453.42 679.875H1443.58C1442.93 679.875 1442.31 679.616 1441.85 679.155C1441.38 678.694 1441.12 678.069 1441.12 677.417C1441.12 676.765 1441.38 676.139 1441.85 675.678C1442.31 675.217 1442.93 674.958 1443.58 674.958H1453.42C1454.07 674.958 1454.69 675.217 1455.15 675.678C1455.62 676.139 1455.87 676.765 1455.87 677.417C1455.87 678.069 1455.62 678.694 1455.15 679.155C1454.69 679.616 1454.07 679.875 1453.42 679.875Z" fill="#C1694F"/>
<path d="M1460.79 697.083H1458.33C1457.68 697.083 1457.06 696.824 1456.6 696.363C1456.13 695.902 1455.88 695.277 1455.88 694.625C1455.88 693.973 1456.13 693.348 1456.6 692.887C1457.06 692.426 1457.68 692.167 1458.33 692.167H1460.79C1461.44 692.167 1462.07 692.426 1462.53 692.887C1462.99 693.348 1463.25 693.973 1463.25 694.625C1463.25 695.277 1462.99 695.902 1462.53 696.363C1462.07 696.824 1461.44 697.083 1460.79 697.083Z" fill="#DF1F32"/>
<path d="M1428.83 662.667C1427.53 662.667 1426.28 662.149 1425.36 661.227C1424.43 660.305 1423.92 659.054 1423.92 657.75V652.833C1423.92 651.529 1424.43 650.279 1425.36 649.357C1426.28 648.435 1427.53 647.917 1428.83 647.917C1430.14 647.917 1431.39 648.435 1432.31 649.357C1433.23 650.279 1433.75 651.529 1433.75 652.833V657.75C1433.75 659.054 1433.23 660.305 1432.31 661.227C1431.39 662.149 1430.14 662.667 1428.83 662.667ZM1468.17 662.667C1466.86 662.667 1465.61 662.149 1464.69 661.227C1463.77 660.305 1463.25 659.054 1463.25 657.75V652.833C1463.25 651.529 1463.77 650.279 1464.69 649.357C1465.61 648.435 1466.86 647.917 1468.17 647.917C1469.47 647.917 1470.72 648.435 1471.64 649.357C1472.57 650.279 1473.08 651.529 1473.08 652.833V657.75C1473.08 659.054 1472.57 660.305 1471.64 661.227C1470.72 662.149 1469.47 662.667 1468.17 662.667Z" fill="#662113"/>
</svg>
