<svg width="1920" height="1080" viewBox="0 0 1920 1080" fill="none" xmlns="http://www.w3.org/2000/svg">
<rect width="1920" height="1080" fill="white"/>
<path d="M608 173L763 173V328H608V173Z" fill="white"/>
<rect x="608" y="173" width="155" height="155" fill="#2F4858"/>
<path d="M714.321 254.958V281.358C710.865 283.854 707.169 285.726 703.233 286.974C699.329 288.19 695.041 288.798 690.369 288.798C684.833 288.798 679.841 287.95 675.393 286.254C670.945 284.526 667.137 282.126 663.969 279.054C660.833 275.95 658.417 272.238 656.721 267.918C655.025 263.598 654.177 258.846 654.177 253.662C654.177 248.414 654.993 243.63 656.625 239.31C658.289 234.99 660.641 231.294 663.681 228.222C666.721 225.118 670.417 222.718 674.769 221.022C679.121 219.326 683.985 218.478 689.361 218.478C692.081 218.478 694.609 218.686 696.945 219.102C699.281 219.486 701.441 220.062 703.425 220.83C705.409 221.566 707.249 222.478 708.945 223.566C710.641 224.622 712.225 225.822 713.697 227.166L711.057 231.39C710.641 232.03 710.097 232.446 709.425 232.638C708.785 232.798 708.065 232.638 707.265 232.158C706.497 231.71 705.617 231.166 704.625 230.526C703.633 229.886 702.417 229.278 700.977 228.702C699.569 228.094 697.889 227.582 695.937 227.166C694.017 226.75 691.729 226.542 689.073 226.542C685.201 226.542 681.697 227.182 678.561 228.462C675.425 229.71 672.753 231.518 670.545 233.886C668.337 236.222 666.641 239.07 665.457 242.43C664.273 245.758 663.681 249.502 663.681 253.662C663.681 257.982 664.289 261.854 665.505 265.278C666.753 268.67 668.513 271.566 670.785 273.966C673.089 276.334 675.873 278.142 679.137 279.39C682.401 280.638 686.065 281.262 690.129 281.262C693.329 281.262 696.161 280.91 698.625 280.206C701.121 279.47 703.553 278.462 705.921 277.182V262.062H695.217C694.609 262.062 694.113 261.886 693.729 261.534C693.377 261.182 693.201 260.75 693.201 260.238V254.958H714.321Z" fill="white"/>
<rect x="608" y="394" width="155" height="155" fill="#4D8DC9"/>
<path d="M702.633 450.998C702.345 451.478 702.025 451.846 701.673 452.102C701.353 452.326 700.953 452.438 700.473 452.438C699.929 452.438 699.289 452.166 698.553 451.622C697.817 451.078 696.889 450.486 695.769 449.846C694.681 449.174 693.353 448.566 691.785 448.022C690.249 447.478 688.377 447.206 686.169 447.206C684.089 447.206 682.249 447.494 680.649 448.07C679.081 448.614 677.753 449.366 676.665 450.326C675.609 451.286 674.809 452.422 674.265 453.734C673.721 455.014 673.449 456.406 673.449 457.91C673.449 459.83 673.913 461.43 674.841 462.71C675.801 463.958 677.049 465.03 678.585 465.926C680.153 466.822 681.913 467.606 683.865 468.278C685.849 468.918 687.865 469.59 689.913 470.294C691.993 470.998 694.009 471.798 695.961 472.694C697.945 473.558 699.705 474.662 701.241 476.006C702.809 477.35 704.057 478.998 704.985 480.95C705.945 482.902 706.425 485.302 706.425 488.15C706.425 491.158 705.913 493.99 704.889 496.646C703.865 499.27 702.361 501.558 700.377 503.51C698.425 505.462 696.009 506.998 693.129 508.118C690.281 509.238 687.033 509.798 683.385 509.798C678.905 509.798 674.841 508.998 671.193 507.398C667.545 505.766 664.425 503.574 661.833 500.822L664.521 496.406C664.777 496.054 665.081 495.766 665.433 495.542C665.817 495.286 666.233 495.158 666.681 495.158C667.097 495.158 667.561 495.334 668.073 495.686C668.617 496.006 669.225 496.422 669.897 496.934C670.569 497.446 671.337 498.006 672.201 498.614C673.065 499.222 674.041 499.782 675.129 500.294C676.249 500.806 677.513 501.238 678.921 501.59C680.329 501.91 681.913 502.07 683.673 502.07C685.881 502.07 687.849 501.766 689.577 501.158C691.305 500.55 692.761 499.702 693.945 498.614C695.161 497.494 696.089 496.166 696.729 494.63C697.369 493.094 697.689 491.382 697.689 489.494C697.689 487.414 697.209 485.718 696.249 484.406C695.321 483.062 694.089 481.942 692.553 481.046C691.017 480.15 689.257 479.398 687.273 478.79C685.289 478.15 683.273 477.51 681.225 476.87C679.177 476.198 677.161 475.43 675.177 474.566C673.193 473.702 671.433 472.582 669.897 471.206C668.361 469.83 667.113 468.118 666.153 466.07C665.225 463.99 664.761 461.43 664.761 458.39C664.761 455.958 665.225 453.606 666.153 451.334C667.113 449.062 668.489 447.046 670.281 445.286C672.105 443.526 674.329 442.118 676.953 441.062C679.609 440.006 682.649 439.478 686.073 439.478C689.913 439.478 693.401 440.086 696.537 441.302C699.705 442.518 702.489 444.278 704.889 446.582L702.633 450.998Z" fill="white"/>
<rect x="608.5" y="615.5" width="154" height="153" fill="#44BC96"/>
<path d="M689.387 702.109V729.517H680.075V702.109L654.875 660.733H663.035C663.867 660.733 664.523 660.941 665.003 661.357C665.483 661.741 665.899 662.253 666.251 662.893L681.995 689.629C682.571 690.749 683.099 691.805 683.579 692.797C684.059 693.757 684.475 694.733 684.827 695.725C685.179 694.733 685.579 693.757 686.027 692.797C686.475 691.805 686.971 690.749 687.515 689.629L703.211 662.893C703.499 662.349 703.899 661.853 704.411 661.405C704.923 660.957 705.579 660.733 706.379 660.733H714.587L689.387 702.109Z" fill="white"/>
<path d="M608 835H763V990H608V835Z" fill="#E3848B"/>
<rect x="608" y="835" width="155" height="155" fill="#E3848B"/>
<path d="M710.525 884.702C710.525 885.758 710.205 886.782 709.565 887.774L670.637 942.446H709.949V950.03H658.397V946.382C658.397 945.87 658.477 945.39 658.637 944.942C658.829 944.494 659.053 944.062 659.309 943.646L698.333 888.83H660.221V881.246H710.525V884.702Z" fill="white"/>
<path d="M114.048 140.768C117.44 140.768 119.488 140.128 122.368 138.912L121.024 135.008C118.912 135.968 116.992 136.416 115.2 136.416C111.488 136.416 109.056 134.496 109.056 129.952V94.432H92.736V98.72H103.808V129.568C103.808 136.928 107.456 140.768 114.048 140.768ZM147.495 140.768C152.487 140.768 156.455 139.104 159.527 137.056L157.607 133.6C154.791 135.392 151.847 136.544 148.135 136.544C141.671 136.544 136.679 132.96 136.039 125.92H160.551C160.679 125.088 160.807 123.936 160.807 122.72C160.807 113.952 155.559 108.128 146.599 108.128C138.279 108.128 130.727 114.272 130.727 124.384C130.727 134.752 138.151 140.768 147.495 140.768ZM146.727 112.288C152.039 112.288 155.559 115.424 156.007 121.824H136.167C137.127 115.68 141.607 112.288 146.727 112.288ZM189.966 140.768C193.87 140.768 196.878 139.936 199.694 138.912L198.542 135.072C196.302 135.904 193.998 136.48 191.054 136.48C185.038 136.48 183.182 133.536 183.182 127.968V113.184H198.478V108.896H183.182V98.912H178.83L178.126 108.896L169.166 109.216V113.184H177.934V127.904C177.934 135.584 180.878 140.768 189.966 140.768ZM228.341 140.768C232.245 140.768 235.253 139.936 238.069 138.912L236.917 135.072C234.677 135.904 232.373 136.48 229.429 136.48C223.413 136.48 221.557 133.536 221.557 127.968V113.184H236.853V108.896H221.557V98.912H217.205L216.501 108.896L207.541 109.216V113.184H216.309V127.904C216.309 135.584 219.253 140.768 228.341 140.768ZM262.62 140.768C267.612 140.768 271.58 139.104 274.652 137.056L272.732 133.6C269.916 135.392 266.972 136.544 263.26 136.544C256.796 136.544 251.804 132.96 251.164 125.92H275.676C275.804 125.088 275.932 123.936 275.932 122.72C275.932 113.952 270.684 108.128 261.724 108.128C253.404 108.128 245.852 114.272 245.852 124.384C245.852 134.752 253.276 140.768 262.62 140.768ZM261.852 112.288C267.164 112.288 270.684 115.424 271.132 121.824H251.292C252.252 115.68 256.732 112.288 261.852 112.288ZM289.219 140H294.467V121.76C298.179 115.296 302.595 112.864 307.267 112.864C309.699 112.864 310.851 113.184 313.027 113.952L314.243 109.408C312.323 108.448 310.403 108.128 308.099 108.128C302.339 108.128 297.475 111.264 294.211 116.256H294.019L293.571 108.896H289.219V140ZM338.09 140.768C346.986 140.768 351.914 136.544 351.914 131.488C351.914 126.752 349.418 124.128 339.05 121.888C332.714 120.544 330.026 119.392 330.026 116.704C330.026 114.336 331.882 112.224 337.194 112.224C341.162 112.224 344.746 113.504 347.626 115.488L350.186 112.096C347.114 109.984 342.378 108.128 337.642 108.128C329.13 108.128 324.714 111.968 324.714 116.96C324.714 121.632 328.81 124.384 336.874 126.048C345.322 127.776 346.602 129.44 346.602 131.808C346.602 134.432 343.978 136.672 338.73 136.672C332.97 136.672 328.81 135.008 325.226 132.448L322.794 135.904C326.57 138.528 332.01 140.768 338.09 140.768ZM537.837 151.264L540.717 148.576C532.141 141.344 528.173 132.96 528.173 122.208C528.173 111.456 532.141 103.072 540.717 95.84L537.837 93.152C528.941 100.064 523.437 109.856 523.437 122.208C523.437 134.56 528.941 144.352 537.837 151.264ZM576.212 151.264L579.092 148.576C570.516 141.344 566.548 132.96 566.548 122.208C566.548 111.456 570.516 103.072 579.092 95.84L576.212 93.152C567.316 100.064 561.812 109.856 561.812 122.208C561.812 134.56 567.316 144.352 576.212 151.264ZM689.673 140.768C693.065 140.768 695.113 140.128 697.993 138.912L696.649 135.008C694.537 135.968 692.617 136.416 690.825 136.416C687.113 136.416 684.681 134.496 684.681 129.952V94.432H668.361V98.72H679.433V129.568C679.433 136.928 683.081 140.768 689.673 140.768ZM789.438 151.264C798.334 144.352 803.838 134.56 803.838 122.208C803.838 109.856 798.334 100.064 789.438 93.152L786.558 95.84C795.134 103.072 799.102 111.456 799.102 122.208C799.102 132.96 795.134 141.344 786.558 148.576L789.438 151.264ZM860.94 114.016H888.46V110.048H860.94V114.016ZM860.94 127.712H888.46V123.744H860.94V127.712ZM900.723 136.928L924.595 120.736V116.768L900.723 100.576V105.632L919.987 118.624V118.88L900.723 131.872V136.928ZM976.577 153.12H981.825V142.624L981.569 136.736H981.761C984.513 139.296 988.161 140.768 991.041 140.768C998.529 140.768 1005.19 134.56 1005.19 124C1005.19 114.336 1000.71 108.128 992.321 108.128C988.481 108.128 984.449 110.112 981.569 112.864H981.377L980.929 108.896H976.577V153.12ZM990.145 136.352C988.033 136.352 984.769 135.328 981.825 132.704V117.216C985.025 114.016 988.225 112.544 990.977 112.544C997.185 112.544 999.745 117.152 999.745 124C999.745 131.68 995.713 136.352 990.145 136.352ZM1034.22 140.768C1038.12 140.768 1041.13 139.936 1043.94 138.912L1042.79 135.072C1040.55 135.904 1038.25 136.48 1035.3 136.48C1029.29 136.48 1027.43 133.536 1027.43 127.968V113.184H1042.73V108.896H1027.43V98.912H1023.08L1022.38 108.896L1013.42 109.216V113.184H1022.18V127.904C1022.18 135.584 1025.13 140.768 1034.22 140.768ZM1067.22 140.768C1076.11 140.768 1081.04 136.544 1081.04 131.488C1081.04 126.752 1078.54 124.128 1068.18 121.888C1061.84 120.544 1059.15 119.392 1059.15 116.704C1059.15 114.336 1061.01 112.224 1066.32 112.224C1070.29 112.224 1073.87 113.504 1076.75 115.488L1079.31 112.096C1076.24 109.984 1071.5 108.128 1066.77 108.128C1058.26 108.128 1053.84 111.968 1053.84 116.96C1053.84 121.632 1057.94 124.384 1066 126.048C1074.45 127.776 1075.73 129.44 1075.73 131.808C1075.73 134.432 1073.1 136.672 1067.86 136.672C1062.1 136.672 1057.94 135.008 1054.35 132.448L1051.92 135.904C1055.7 138.528 1061.14 140.768 1067.22 140.768ZM1100.15 149.728H1117.88V146.72H1104.37V97.696H1117.88V94.688H1100.15V149.728ZM1226.92 140.768C1230.32 140.768 1232.36 140.128 1235.24 138.912L1233.9 135.008C1231.79 135.968 1229.87 136.416 1228.08 136.416C1224.36 136.416 1221.93 134.496 1221.93 129.952V94.432H1205.61V98.72H1216.68V129.568C1216.68 136.928 1220.33 140.768 1226.92 140.768ZM1322.27 149.728H1340V94.688H1322.27V97.696H1335.78V146.72H1322.27V149.728ZM1365.06 151.264C1373.96 144.352 1379.46 134.56 1379.46 122.208C1379.46 109.856 1373.96 100.064 1365.06 93.152L1362.18 95.84C1370.76 103.072 1374.73 111.456 1374.73 122.208C1374.73 132.96 1370.76 141.344 1362.18 148.576L1365.06 151.264Z" fill="#2F4858"/>
<path d="M375.825 140.768C378.705 140.768 381.009 138.592 381.009 135.392C381.009 132.128 378.705 129.952 375.825 129.952C372.945 129.952 370.641 132.128 370.641 135.392C370.641 138.592 372.945 140.768 375.825 140.768ZM398.712 140H403.96V117.472C405.496 114.272 406.904 112.672 409.08 112.672C411.384 112.672 412.28 114.528 412.28 118.112V140H417.144V117.472C418.808 114.272 419.96 112.672 422.136 112.672C424.44 112.672 425.464 114.528 425.464 118.112V140H430.712V117.728C430.712 111.52 428.152 108.128 423.8 108.128C420.216 108.128 418.296 110.176 416.504 113.504C415.608 109.92 413.688 108.128 410.616 108.128C407.032 108.128 405.112 110.112 403.512 112.992H403.384L402.936 108.896H398.712V140ZM449.119 140.768C453.535 140.768 457.951 138.464 461.407 135.776H461.599L462.047 140H466.335V120.928C466.335 113.184 462.239 108.128 453.727 108.128C448.287 108.128 443.039 110.56 439.903 112.608L441.951 116.192C444.831 114.4 448.799 112.48 452.831 112.48C458.847 112.48 460.959 116.064 461.087 120.288C445.023 121.568 438.559 124.96 438.559 131.936C438.559 137.504 443.295 140.768 449.119 140.768ZM450.527 136.544C446.943 136.544 443.679 135.072 443.679 131.552C443.679 127.456 447.775 124.832 461.087 123.744V131.936C457.567 134.88 454.047 136.544 450.527 136.544ZM477.702 153.12H482.95V142.624L482.694 136.736H482.886C485.638 139.296 489.286 140.768 492.166 140.768C499.654 140.768 506.31 134.56 506.31 124C506.31 114.336 501.83 108.128 493.446 108.128C489.606 108.128 485.574 110.112 482.694 112.864H482.502L482.054 108.896H477.702V153.12ZM491.27 136.352C489.158 136.352 485.894 135.328 482.95 132.704V117.216C486.15 114.016 489.35 112.544 492.102 112.544C498.31 112.544 500.87 117.152 500.87 124C500.87 131.68 496.838 136.352 491.27 136.352Z" fill="#B24E72"/>
</svg>
