<svg width="1920" height="1080" viewBox="0 0 1920 1080" fill="none" xmlns="http://www.w3.org/2000/svg">
<rect width="1920" height="1080" fill="white"/>
<path d="M114.048 140.768C117.44 140.768 119.488 140.128 122.368 138.912L121.024 135.008C118.912 135.968 116.992 136.416 115.2 136.416C111.488 136.416 109.056 134.496 109.056 129.952V94.432H92.736V98.72H103.808V129.568C103.808 136.928 107.456 140.768 114.048 140.768ZM147.495 140.768C152.487 140.768 156.455 139.104 159.527 137.056L157.607 133.6C154.791 135.392 151.847 136.544 148.135 136.544C141.671 136.544 136.679 132.96 136.039 125.92H160.551C160.679 125.088 160.807 123.936 160.807 122.72C160.807 113.952 155.559 108.128 146.599 108.128C138.279 108.128 130.727 114.272 130.727 124.384C130.727 134.752 138.151 140.768 147.495 140.768ZM146.727 112.288C152.039 112.288 155.559 115.424 156.007 121.824H136.167C137.127 115.68 141.607 112.288 146.727 112.288ZM189.966 140.768C193.87 140.768 196.878 139.936 199.694 138.912L198.542 135.072C196.302 135.904 193.998 136.48 191.054 136.48C185.038 136.48 183.182 133.536 183.182 127.968V113.184H198.478V108.896H183.182V98.912H178.83L178.126 108.896L169.166 109.216V113.184H177.934V127.904C177.934 135.584 180.878 140.768 189.966 140.768ZM228.341 140.768C232.245 140.768 235.253 139.936 238.069 138.912L236.917 135.072C234.677 135.904 232.373 136.48 229.429 136.48C223.413 136.48 221.557 133.536 221.557 127.968V113.184H236.853V108.896H221.557V98.912H217.205L216.501 108.896L207.541 109.216V113.184H216.309V127.904C216.309 135.584 219.253 140.768 228.341 140.768ZM262.62 140.768C267.612 140.768 271.58 139.104 274.652 137.056L272.732 133.6C269.916 135.392 266.972 136.544 263.26 136.544C256.796 136.544 251.804 132.96 251.164 125.92H275.676C275.804 125.088 275.932 123.936 275.932 122.72C275.932 113.952 270.684 108.128 261.724 108.128C253.404 108.128 245.852 114.272 245.852 124.384C245.852 134.752 253.276 140.768 262.62 140.768ZM261.852 112.288C267.164 112.288 270.684 115.424 271.132 121.824H251.292C252.252 115.68 256.732 112.288 261.852 112.288ZM289.219 140H294.467V121.76C298.179 115.296 302.595 112.864 307.267 112.864C309.699 112.864 310.851 113.184 313.027 113.952L314.243 109.408C312.323 108.448 310.403 108.128 308.099 108.128C302.339 108.128 297.475 111.264 294.211 116.256H294.019L293.571 108.896H289.219V140ZM338.09 140.768C346.986 140.768 351.914 136.544 351.914 131.488C351.914 126.752 349.418 124.128 339.05 121.888C332.714 120.544 330.026 119.392 330.026 116.704C330.026 114.336 331.882 112.224 337.194 112.224C341.162 112.224 344.746 113.504 347.626 115.488L350.186 112.096C347.114 109.984 342.378 108.128 337.642 108.128C329.13 108.128 324.714 111.968 324.714 116.96C324.714 121.632 328.81 124.384 336.874 126.048C345.322 127.776 346.602 129.44 346.602 131.808C346.602 134.432 343.978 136.672 338.73 136.672C332.97 136.672 328.81 135.008 325.226 132.448L322.794 135.904C326.57 138.528 332.01 140.768 338.09 140.768ZM537.837 151.264L540.717 148.576C532.141 141.344 528.173 132.96 528.173 122.208C528.173 111.456 532.141 103.072 540.717 95.84L537.837 93.152C528.941 100.064 523.437 109.856 523.437 122.208C523.437 134.56 528.941 144.352 537.837 151.264ZM576.212 151.264L579.092 148.576C570.516 141.344 566.548 132.96 566.548 122.208C566.548 111.456 570.516 103.072 579.092 95.84L576.212 93.152C567.316 100.064 561.812 109.856 561.812 122.208C561.812 134.56 567.316 144.352 576.212 151.264ZM612.923 140.768C616.315 140.768 618.363 140.128 621.243 138.912L619.899 135.008C617.787 135.968 615.867 136.416 614.075 136.416C610.363 136.416 607.931 134.496 607.931 129.952V94.432H591.611V98.72H602.683V129.568C602.683 136.928 606.331 140.768 612.923 140.768ZM635.938 151.264C644.834 144.352 650.338 134.56 650.338 122.208C650.338 109.856 644.834 100.064 635.938 93.152L633.058 95.84C641.634 103.072 645.602 111.456 645.602 122.208C645.602 132.96 641.634 141.344 633.058 148.576L635.938 151.264ZM707.44 114.016H734.96V110.048H707.44V114.016ZM707.44 127.712H734.96V123.744H707.44V127.712ZM747.223 136.928L771.095 120.736V116.768L747.223 100.576V105.632L766.487 118.624V118.88L747.223 131.872V136.928ZM823.077 153.12H828.325V142.624L828.069 136.736H828.261C831.013 139.296 834.661 140.768 837.541 140.768C845.029 140.768 851.685 134.56 851.685 124C851.685 114.336 847.205 108.128 838.821 108.128C834.981 108.128 830.949 110.112 828.069 112.864H827.877L827.429 108.896H823.077V153.12ZM836.645 136.352C834.533 136.352 831.269 135.328 828.325 132.704V117.216C831.525 114.016 834.725 112.544 837.477 112.544C843.685 112.544 846.245 117.152 846.245 124C846.245 131.68 842.213 136.352 836.645 136.352ZM880.716 140.768C884.62 140.768 887.628 139.936 890.444 138.912L889.292 135.072C887.052 135.904 884.748 136.48 881.804 136.48C875.788 136.48 873.932 133.536 873.932 127.968V113.184H889.228V108.896H873.932V98.912H869.58L868.876 108.896L859.916 109.216V113.184H868.684V127.904C868.684 135.584 871.628 140.768 880.716 140.768ZM913.715 140.768C922.611 140.768 927.539 136.544 927.539 131.488C927.539 126.752 925.043 124.128 914.675 121.888C908.339 120.544 905.651 119.392 905.651 116.704C905.651 114.336 907.507 112.224 912.819 112.224C916.787 112.224 920.371 113.504 923.251 115.488L925.811 112.096C922.739 109.984 918.003 108.128 913.267 108.128C904.755 108.128 900.339 111.968 900.339 116.96C900.339 121.632 904.435 124.384 912.499 126.048C920.947 127.776 922.227 129.44 922.227 131.808C922.227 134.432 919.603 136.672 914.355 136.672C908.595 136.672 904.435 135.008 900.851 132.448L898.419 135.904C902.195 138.528 907.635 140.768 913.715 140.768ZM946.65 149.728H964.378V146.72H950.874V97.696H964.378V94.688H946.65V149.728ZM996.673 140.768C1000.07 140.768 1002.11 140.128 1004.99 138.912L1003.65 135.008C1001.54 135.968 999.617 136.416 997.825 136.416C994.113 136.416 991.681 134.496 991.681 129.952V94.432H975.361V98.72H986.433V129.568C986.433 136.928 990.081 140.768 996.673 140.768ZM1015.27 149.728H1033V94.688H1015.27V97.696H1028.78V146.72H1015.27V149.728ZM1058.06 151.264C1066.96 144.352 1072.46 134.56 1072.46 122.208C1072.46 109.856 1066.96 100.064 1058.06 93.152L1055.18 95.84C1063.76 103.072 1067.73 111.456 1067.73 122.208C1067.73 132.96 1063.76 141.344 1055.18 148.576L1058.06 151.264Z" fill="#2F4858"/>
<path d="M375.825 140.768C378.705 140.768 381.009 138.592 381.009 135.392C381.009 132.128 378.705 129.952 375.825 129.952C372.945 129.952 370.641 132.128 370.641 135.392C370.641 138.592 372.945 140.768 375.825 140.768ZM398.712 140H403.96V117.472C405.496 114.272 406.904 112.672 409.08 112.672C411.384 112.672 412.28 114.528 412.28 118.112V140H417.144V117.472C418.808 114.272 419.96 112.672 422.136 112.672C424.44 112.672 425.464 114.528 425.464 118.112V140H430.712V117.728C430.712 111.52 428.152 108.128 423.8 108.128C420.216 108.128 418.296 110.176 416.504 113.504C415.608 109.92 413.688 108.128 410.616 108.128C407.032 108.128 405.112 110.112 403.512 112.992H403.384L402.936 108.896H398.712V140ZM449.119 140.768C453.535 140.768 457.951 138.464 461.407 135.776H461.599L462.047 140H466.335V120.928C466.335 113.184 462.239 108.128 453.727 108.128C448.287 108.128 443.039 110.56 439.903 112.608L441.951 116.192C444.831 114.4 448.799 112.48 452.831 112.48C458.847 112.48 460.959 116.064 461.087 120.288C445.023 121.568 438.559 124.96 438.559 131.936C438.559 137.504 443.295 140.768 449.119 140.768ZM450.527 136.544C446.943 136.544 443.679 135.072 443.679 131.552C443.679 127.456 447.775 124.832 461.087 123.744V131.936C457.567 134.88 454.047 136.544 450.527 136.544ZM477.702 153.12H482.95V142.624L482.694 136.736H482.886C485.638 139.296 489.286 140.768 492.166 140.768C499.654 140.768 506.31 134.56 506.31 124C506.31 114.336 501.83 108.128 493.446 108.128C489.606 108.128 485.574 110.112 482.694 112.864H482.502L482.054 108.896H477.702V153.12ZM491.27 136.352C489.158 136.352 485.894 135.328 482.95 132.704V117.216C486.15 114.016 489.35 112.544 492.102 112.544C498.31 112.544 500.87 117.152 500.87 124C500.87 131.68 496.838 136.352 491.27 136.352Z" fill="#B24E72"/>
</svg>
