<svg width="1920" height="1080" viewBox="0 0 1920 1080" fill="none" xmlns="http://www.w3.org/2000/svg">
<rect width="1920" height="1080" fill="white"/>
<path d="M608 173L763 173V328H608V173Z" fill="white"/>
<rect x="608" y="173" width="155" height="155" fill="#2F4858"/>
<path d="M714.321 254.958V281.358C710.865 283.854 707.169 285.726 703.233 286.974C699.329 288.19 695.041 288.798 690.369 288.798C684.833 288.798 679.841 287.95 675.393 286.254C670.945 284.526 667.137 282.126 663.969 279.054C660.833 275.95 658.417 272.238 656.721 267.918C655.025 263.598 654.177 258.846 654.177 253.662C654.177 248.414 654.993 243.63 656.625 239.31C658.289 234.99 660.641 231.294 663.681 228.222C666.721 225.118 670.417 222.718 674.769 221.022C679.121 219.326 683.985 218.478 689.361 218.478C692.081 218.478 694.609 218.686 696.945 219.102C699.281 219.486 701.441 220.062 703.425 220.83C705.409 221.566 707.249 222.478 708.945 223.566C710.641 224.622 712.225 225.822 713.697 227.166L711.057 231.39C710.641 232.03 710.097 232.446 709.425 232.638C708.785 232.798 708.065 232.638 707.265 232.158C706.497 231.71 705.617 231.166 704.625 230.526C703.633 229.886 702.417 229.278 700.977 228.702C699.569 228.094 697.889 227.582 695.937 227.166C694.017 226.75 691.729 226.542 689.073 226.542C685.201 226.542 681.697 227.182 678.561 228.462C675.425 229.71 672.753 231.518 670.545 233.886C668.337 236.222 666.641 239.07 665.457 242.43C664.273 245.758 663.681 249.502 663.681 253.662C663.681 257.982 664.289 261.854 665.505 265.278C666.753 268.67 668.513 271.566 670.785 273.966C673.089 276.334 675.873 278.142 679.137 279.39C682.401 280.638 686.065 281.262 690.129 281.262C693.329 281.262 696.161 280.91 698.625 280.206C701.121 279.47 703.553 278.462 705.921 277.182V262.062H695.217C694.609 262.062 694.113 261.886 693.729 261.534C693.377 261.182 693.201 260.75 693.201 260.238V254.958H714.321Z" fill="white"/>
<rect x="608" y="394" width="155" height="155" fill="#4D8DC9"/>
<path d="M702.633 450.998C702.345 451.478 702.025 451.846 701.673 452.102C701.353 452.326 700.953 452.438 700.473 452.438C699.929 452.438 699.289 452.166 698.553 451.622C697.817 451.078 696.889 450.486 695.769 449.846C694.681 449.174 693.353 448.566 691.785 448.022C690.249 447.478 688.377 447.206 686.169 447.206C684.089 447.206 682.249 447.494 680.649 448.07C679.081 448.614 677.753 449.366 676.665 450.326C675.609 451.286 674.809 452.422 674.265 453.734C673.721 455.014 673.449 456.406 673.449 457.91C673.449 459.83 673.913 461.43 674.841 462.71C675.801 463.958 677.049 465.03 678.585 465.926C680.153 466.822 681.913 467.606 683.865 468.278C685.849 468.918 687.865 469.59 689.913 470.294C691.993 470.998 694.009 471.798 695.961 472.694C697.945 473.558 699.705 474.662 701.241 476.006C702.809 477.35 704.057 478.998 704.985 480.95C705.945 482.902 706.425 485.302 706.425 488.15C706.425 491.158 705.913 493.99 704.889 496.646C703.865 499.27 702.361 501.558 700.377 503.51C698.425 505.462 696.009 506.998 693.129 508.118C690.281 509.238 687.033 509.798 683.385 509.798C678.905 509.798 674.841 508.998 671.193 507.398C667.545 505.766 664.425 503.574 661.833 500.822L664.521 496.406C664.777 496.054 665.081 495.766 665.433 495.542C665.817 495.286 666.233 495.158 666.681 495.158C667.097 495.158 667.561 495.334 668.073 495.686C668.617 496.006 669.225 496.422 669.897 496.934C670.569 497.446 671.337 498.006 672.201 498.614C673.065 499.222 674.041 499.782 675.129 500.294C676.249 500.806 677.513 501.238 678.921 501.59C680.329 501.91 681.913 502.07 683.673 502.07C685.881 502.07 687.849 501.766 689.577 501.158C691.305 500.55 692.761 499.702 693.945 498.614C695.161 497.494 696.089 496.166 696.729 494.63C697.369 493.094 697.689 491.382 697.689 489.494C697.689 487.414 697.209 485.718 696.249 484.406C695.321 483.062 694.089 481.942 692.553 481.046C691.017 480.15 689.257 479.398 687.273 478.79C685.289 478.15 683.273 477.51 681.225 476.87C679.177 476.198 677.161 475.43 675.177 474.566C673.193 473.702 671.433 472.582 669.897 471.206C668.361 469.83 667.113 468.118 666.153 466.07C665.225 463.99 664.761 461.43 664.761 458.39C664.761 455.958 665.225 453.606 666.153 451.334C667.113 449.062 668.489 447.046 670.281 445.286C672.105 443.526 674.329 442.118 676.953 441.062C679.609 440.006 682.649 439.478 686.073 439.478C689.913 439.478 693.401 440.086 696.537 441.302C699.705 442.518 702.489 444.278 704.889 446.582L702.633 450.998Z" fill="white"/>
<rect x="608.5" y="615.5" width="154" height="153" fill="#44BC96"/>
<path d="M689.387 702.109V729.517H680.075V702.109L654.875 660.733H663.035C663.867 660.733 664.523 660.941 665.003 661.357C665.483 661.741 665.899 662.253 666.251 662.893L681.995 689.629C682.571 690.749 683.099 691.805 683.579 692.797C684.059 693.757 684.475 694.733 684.827 695.725C685.179 694.733 685.579 693.757 686.027 692.797C686.475 691.805 686.971 690.749 687.515 689.629L703.211 662.893C703.499 662.349 703.899 661.853 704.411 661.405C704.923 660.957 705.579 660.733 706.379 660.733H714.587L689.387 702.109Z" fill="white"/>
<path d="M608 835H763V990H608V835Z" fill="#E3848B"/>
<rect x="608" y="835" width="155" height="155" fill="#E3848B"/>
<path d="M710.525 884.702C710.525 885.758 710.205 886.782 709.565 887.774L670.637 942.446H709.949V950.03H658.397V946.382C658.397 945.87 658.477 945.39 658.637 944.942C658.829 944.494 659.053 944.062 659.309 943.646L698.333 888.83H660.221V881.246H710.525V884.702Z" fill="white"/>
<path d="M1147 173L1302 173V328H1147V173Z" fill="white"/>
<rect x="1147" y="173" width="155" height="155" fill="#2F4858"/>
<path d="M1253.32 254.958V281.358C1249.87 283.854 1246.17 285.726 1242.23 286.974C1238.33 288.19 1234.04 288.798 1229.37 288.798C1223.83 288.798 1218.84 287.95 1214.39 286.254C1209.95 284.526 1206.14 282.126 1202.97 279.054C1199.83 275.95 1197.42 272.238 1195.72 267.918C1194.03 263.598 1193.18 258.846 1193.18 253.662C1193.18 248.414 1193.99 243.63 1195.63 239.31C1197.29 234.99 1199.64 231.294 1202.68 228.222C1205.72 225.118 1209.42 222.718 1213.77 221.022C1218.12 219.326 1222.99 218.478 1228.36 218.478C1231.08 218.478 1233.61 218.686 1235.95 219.102C1238.28 219.486 1240.44 220.062 1242.43 220.83C1244.41 221.566 1246.25 222.478 1247.95 223.566C1249.64 224.622 1251.23 225.822 1252.7 227.166L1250.06 231.39C1249.64 232.03 1249.1 232.446 1248.43 232.638C1247.79 232.798 1247.07 232.638 1246.27 232.158C1245.5 231.71 1244.62 231.166 1243.63 230.526C1242.63 229.886 1241.42 229.278 1239.98 228.702C1238.57 228.094 1236.89 227.582 1234.94 227.166C1233.02 226.75 1230.73 226.542 1228.07 226.542C1224.2 226.542 1220.7 227.182 1217.56 228.462C1214.43 229.71 1211.75 231.518 1209.55 233.886C1207.34 236.222 1205.64 239.07 1204.46 242.43C1203.27 245.758 1202.68 249.502 1202.68 253.662C1202.68 257.982 1203.29 261.854 1204.51 265.278C1205.75 268.67 1207.51 271.566 1209.79 273.966C1212.09 276.334 1214.87 278.142 1218.14 279.39C1221.4 280.638 1225.07 281.262 1229.13 281.262C1232.33 281.262 1235.16 280.91 1237.63 280.206C1240.12 279.47 1242.55 278.462 1244.92 277.182V262.062H1234.22C1233.61 262.062 1233.11 261.886 1232.73 261.534C1232.38 261.182 1232.2 260.75 1232.2 260.238V254.958H1253.32Z" fill="white"/>
<path d="M1551 174L1706 174V329H1551V174Z" fill="white"/>
<rect x="1551" y="174" width="155" height="155" fill="#2F4858"/>
<path d="M1647.26 280.918C1648.19 280.918 1648.92 281.19 1649.47 281.734C1650.01 282.278 1650.28 282.982 1650.28 283.846V289.03H1604.4V286.102C1604.4 285.494 1604.52 284.87 1604.78 284.23C1605.04 283.59 1605.44 282.998 1605.98 282.454L1628.01 260.326C1629.84 258.47 1631.5 256.694 1633 254.998C1634.51 253.27 1635.79 251.542 1636.84 249.814C1637.9 248.086 1638.72 246.342 1639.29 244.582C1639.87 242.79 1640.16 240.886 1640.16 238.87C1640.16 236.854 1639.84 235.094 1639.2 233.59C1638.56 232.054 1637.68 230.79 1636.56 229.798C1635.47 228.806 1634.17 228.07 1632.67 227.59C1631.16 227.078 1629.55 226.822 1627.82 226.822C1626.06 226.822 1624.44 227.078 1622.97 227.59C1621.5 228.102 1620.19 228.822 1619.04 229.75C1617.92 230.646 1616.97 231.718 1616.2 232.966C1615.44 234.214 1614.89 235.59 1614.57 237.094C1614.19 238.214 1613.66 238.966 1612.99 239.35C1612.35 239.702 1611.44 239.798 1610.25 239.638L1605.79 238.87C1606.24 235.734 1607.1 232.966 1608.38 230.566C1609.69 228.134 1611.32 226.102 1613.28 224.47C1615.26 222.838 1617.52 221.606 1620.04 220.774C1622.57 219.91 1625.31 219.478 1628.25 219.478C1631.16 219.478 1633.88 219.91 1636.41 220.774C1638.94 221.638 1641.13 222.902 1642.99 224.566C1644.84 226.198 1646.3 228.198 1647.36 230.566C1648.41 232.934 1648.94 235.622 1648.94 238.63C1648.94 241.19 1648.56 243.574 1647.79 245.782C1647.02 247.958 1645.98 250.038 1644.67 252.022C1643.36 254.006 1641.84 255.942 1640.11 257.83C1638.41 259.718 1636.6 261.622 1634.68 263.542L1616.54 282.07C1617.82 281.718 1619.12 281.446 1620.43 281.254C1621.74 281.03 1623 280.918 1624.22 280.918H1647.26Z" fill="white"/>
<path d="M114.048 269.768C117.44 269.768 119.488 269.128 122.368 267.912L121.024 264.008C118.912 264.968 116.992 265.416 115.2 265.416C111.488 265.416 109.056 263.496 109.056 258.952V223.432H92.736V227.72H103.808V258.568C103.808 265.928 107.456 269.768 114.048 269.768ZM147.495 269.768C152.487 269.768 156.455 268.104 159.527 266.056L157.607 262.6C154.791 264.392 151.847 265.544 148.135 265.544C141.671 265.544 136.679 261.96 136.039 254.92H160.551C160.679 254.088 160.807 252.936 160.807 251.72C160.807 242.952 155.559 237.128 146.599 237.128C138.279 237.128 130.727 243.272 130.727 253.384C130.727 263.752 138.151 269.768 147.495 269.768ZM146.727 241.288C152.039 241.288 155.559 244.424 156.007 250.824H136.167C137.127 244.68 141.607 241.288 146.727 241.288ZM189.966 269.768C193.87 269.768 196.878 268.936 199.694 267.912L198.542 264.072C196.302 264.904 193.998 265.48 191.054 265.48C185.038 265.48 183.182 262.536 183.182 256.968V242.184H198.478V237.896H183.182V227.912H178.83L178.126 237.896L169.166 238.216V242.184H177.934V256.904C177.934 264.584 180.878 269.768 189.966 269.768ZM228.341 269.768C232.245 269.768 235.253 268.936 238.069 267.912L236.917 264.072C234.677 264.904 232.373 265.48 229.429 265.48C223.413 265.48 221.557 262.536 221.557 256.968V242.184H236.853V237.896H221.557V227.912H217.205L216.501 237.896L207.541 238.216V242.184H216.309V256.904C216.309 264.584 219.253 269.768 228.341 269.768ZM262.62 269.768C267.612 269.768 271.58 268.104 274.652 266.056L272.732 262.6C269.916 264.392 266.972 265.544 263.26 265.544C256.796 265.544 251.804 261.96 251.164 254.92H275.676C275.804 254.088 275.932 252.936 275.932 251.72C275.932 242.952 270.684 237.128 261.724 237.128C253.404 237.128 245.852 243.272 245.852 253.384C245.852 263.752 253.276 269.768 262.62 269.768ZM261.852 241.288C267.164 241.288 270.684 244.424 271.132 250.824H251.292C252.252 244.68 256.732 241.288 261.852 241.288ZM289.219 269H294.467V250.76C298.179 244.296 302.595 241.864 307.267 241.864C309.699 241.864 310.851 242.184 313.027 242.952L314.243 238.408C312.323 237.448 310.403 237.128 308.099 237.128C302.339 237.128 297.475 240.264 294.211 245.256H294.019L293.571 237.896H289.219V269ZM338.09 269.768C346.986 269.768 351.914 265.544 351.914 260.488C351.914 255.752 349.418 253.128 339.05 250.888C332.714 249.544 330.026 248.392 330.026 245.704C330.026 243.336 331.882 241.224 337.194 241.224C341.162 241.224 344.746 242.504 347.626 244.488L350.186 241.096C347.114 238.984 342.378 237.128 337.642 237.128C329.13 237.128 324.714 240.968 324.714 245.96C324.714 250.632 328.81 253.384 336.874 255.048C345.322 256.776 346.602 258.44 346.602 260.808C346.602 263.432 343.978 265.672 338.73 265.672C332.97 265.672 328.81 264.008 325.226 261.448L322.794 264.904C326.57 267.528 332.01 269.768 338.09 269.768ZM537.837 280.264L540.717 277.576C532.141 270.344 528.173 261.96 528.173 251.208C528.173 240.456 532.141 232.072 540.717 224.84L537.837 222.152C528.941 229.064 523.437 238.856 523.437 251.208C523.437 263.56 528.941 273.352 537.837 280.264ZM576.212 280.264L579.092 277.576C570.516 270.344 566.548 261.96 566.548 251.208C566.548 240.456 570.516 232.072 579.092 224.84L576.212 222.152C567.316 229.064 561.812 238.856 561.812 251.208C561.812 263.56 567.316 273.352 576.212 280.264ZM789.438 280.264C798.334 273.352 803.838 263.56 803.838 251.208C803.838 238.856 798.334 229.064 789.438 222.152L786.558 224.84C795.134 232.072 799.102 240.456 799.102 251.208C799.102 261.96 795.134 270.344 786.558 277.576L789.438 280.264ZM860.94 243.016H888.46V239.048H860.94V243.016ZM860.94 256.712H888.46V252.744H860.94V256.712ZM900.723 265.928L924.595 249.736V245.768L900.723 229.576V234.632L919.987 247.624V247.88L900.723 260.872V265.928ZM976.577 282.12H981.825V271.624L981.569 265.736H981.761C984.513 268.296 988.161 269.768 991.041 269.768C998.529 269.768 1005.19 263.56 1005.19 253C1005.19 243.336 1000.71 237.128 992.321 237.128C988.481 237.128 984.449 239.112 981.569 241.864H981.377L980.929 237.896H976.577V282.12ZM990.145 265.352C988.033 265.352 984.769 264.328 981.825 261.704V246.216C985.025 243.016 988.225 241.544 990.977 241.544C997.185 241.544 999.745 246.152 999.745 253C999.745 260.68 995.713 265.352 990.145 265.352ZM1034.22 269.768C1038.12 269.768 1041.13 268.936 1043.94 267.912L1042.79 264.072C1040.55 264.904 1038.25 265.48 1035.3 265.48C1029.29 265.48 1027.43 262.536 1027.43 256.968V242.184H1042.73V237.896H1027.43V227.912H1023.08L1022.38 237.896L1013.42 238.216V242.184H1022.18V256.904C1022.18 264.584 1025.13 269.768 1034.22 269.768ZM1067.22 269.768C1076.11 269.768 1081.04 265.544 1081.04 260.488C1081.04 255.752 1078.54 253.128 1068.18 250.888C1061.84 249.544 1059.15 248.392 1059.15 245.704C1059.15 243.336 1061.01 241.224 1066.32 241.224C1070.29 241.224 1073.87 242.504 1076.75 244.488L1079.31 241.096C1076.24 238.984 1071.5 237.128 1066.77 237.128C1058.26 237.128 1053.84 240.968 1053.84 245.96C1053.84 250.632 1057.94 253.384 1066 255.048C1074.45 256.776 1075.73 258.44 1075.73 260.808C1075.73 263.432 1073.1 265.672 1067.86 265.672C1062.1 265.672 1057.94 264.008 1054.35 261.448L1051.92 264.904C1055.7 267.528 1061.14 269.768 1067.22 269.768ZM1100.15 278.728H1117.88V275.72H1104.37V226.696H1117.88V223.688H1100.15V278.728ZM1322.27 278.728H1340V223.688H1322.27V226.696H1335.78V275.72H1322.27V278.728ZM1365.06 280.264C1373.96 273.352 1379.46 263.56 1379.46 251.208C1379.46 238.856 1373.96 229.064 1365.06 222.152L1362.18 224.84C1370.76 232.072 1374.73 240.456 1374.73 251.208C1374.73 261.96 1370.76 270.344 1362.18 277.576L1365.06 280.264ZM1436.57 243.016H1464.09V239.048H1436.57V243.016ZM1436.57 256.712H1464.09V252.744H1436.57V256.712Z" fill="#2F4858"/>
<path d="M375.825 269.768C378.705 269.768 381.009 267.592 381.009 264.392C381.009 261.128 378.705 258.952 375.825 258.952C372.945 258.952 370.641 261.128 370.641 264.392C370.641 267.592 372.945 269.768 375.825 269.768ZM398.712 269H403.96V246.472C405.496 243.272 406.904 241.672 409.08 241.672C411.384 241.672 412.28 243.528 412.28 247.112V269H417.144V246.472C418.808 243.272 419.96 241.672 422.136 241.672C424.44 241.672 425.464 243.528 425.464 247.112V269H430.712V246.728C430.712 240.52 428.152 237.128 423.8 237.128C420.216 237.128 418.296 239.176 416.504 242.504C415.608 238.92 413.688 237.128 410.616 237.128C407.032 237.128 405.112 239.112 403.512 241.992H403.384L402.936 237.896H398.712V269ZM449.119 269.768C453.535 269.768 457.951 267.464 461.407 264.776H461.599L462.047 269H466.335V249.928C466.335 242.184 462.239 237.128 453.727 237.128C448.287 237.128 443.039 239.56 439.903 241.608L441.951 245.192C444.831 243.4 448.799 241.48 452.831 241.48C458.847 241.48 460.959 245.064 461.087 249.288C445.023 250.568 438.559 253.96 438.559 260.936C438.559 266.504 443.295 269.768 449.119 269.768ZM450.527 265.544C446.943 265.544 443.679 264.072 443.679 260.552C443.679 256.456 447.775 253.832 461.087 252.744V260.936C457.567 263.88 454.047 265.544 450.527 265.544ZM477.702 282.12H482.95V271.624L482.694 265.736H482.886C485.638 268.296 489.286 269.768 492.166 269.768C499.654 269.768 506.31 263.56 506.31 253C506.31 243.336 501.83 237.128 493.446 237.128C489.606 237.128 485.574 239.112 482.694 241.864H482.502L482.054 237.896H477.702V282.12ZM491.27 265.352C489.158 265.352 485.894 264.328 482.95 261.704V246.216C486.15 243.016 489.35 241.544 492.102 241.544C498.31 241.544 500.87 246.152 500.87 253C500.87 260.68 496.838 265.352 491.27 265.352Z" fill="#B24E72"/>
</svg>
