<svg width="1920" height="1080" viewBox="0 0 1920 1080" fill="none" xmlns="http://www.w3.org/2000/svg">
<rect width="1920" height="1080" fill="white"/>
<g opacity="0.3">
<path d="M608 173L763 173V328H608V173Z" fill="white"/>
<rect x="608" y="173" width="155" height="155" fill="#2F4858"/>
<path d="M714.321 254.958V281.358C710.865 283.854 707.169 285.726 703.233 286.974C699.329 288.19 695.041 288.798 690.369 288.798C684.833 288.798 679.841 287.95 675.393 286.254C670.945 284.526 667.137 282.126 663.969 279.054C660.833 275.95 658.417 272.238 656.721 267.918C655.025 263.598 654.177 258.846 654.177 253.662C654.177 248.414 654.993 243.63 656.625 239.31C658.289 234.99 660.641 231.294 663.681 228.222C666.721 225.118 670.417 222.718 674.769 221.022C679.121 219.326 683.985 218.478 689.361 218.478C692.081 218.478 694.609 218.686 696.945 219.102C699.281 219.486 701.441 220.062 703.425 220.83C705.409 221.566 707.249 222.478 708.945 223.566C710.641 224.622 712.225 225.822 713.697 227.166L711.057 231.39C710.641 232.03 710.097 232.446 709.425 232.638C708.785 232.798 708.065 232.638 707.265 232.158C706.497 231.71 705.617 231.166 704.625 230.526C703.633 229.886 702.417 229.278 700.977 228.702C699.569 228.094 697.889 227.582 695.937 227.166C694.017 226.75 691.729 226.542 689.073 226.542C685.201 226.542 681.697 227.182 678.561 228.462C675.425 229.71 672.753 231.518 670.545 233.886C668.337 236.222 666.641 239.07 665.457 242.43C664.273 245.758 663.681 249.502 663.681 253.662C663.681 257.982 664.289 261.854 665.505 265.278C666.753 268.67 668.513 271.566 670.785 273.966C673.089 276.334 675.873 278.142 679.137 279.39C682.401 280.638 686.065 281.262 690.129 281.262C693.329 281.262 696.161 280.91 698.625 280.206C701.121 279.47 703.553 278.462 705.921 277.182V262.062H695.217C694.609 262.062 694.113 261.886 693.729 261.534C693.377 261.182 693.201 260.75 693.201 260.238V254.958H714.321Z" fill="white"/>
</g>
<g opacity="0.3">
<rect x="608" y="394" width="155" height="155" fill="#4D8DC9"/>
<path d="M702.633 450.998C702.345 451.478 702.025 451.846 701.673 452.102C701.353 452.326 700.953 452.438 700.473 452.438C699.929 452.438 699.289 452.166 698.553 451.622C697.817 451.078 696.889 450.486 695.769 449.846C694.681 449.174 693.353 448.566 691.785 448.022C690.249 447.478 688.377 447.206 686.169 447.206C684.089 447.206 682.249 447.494 680.649 448.07C679.081 448.614 677.753 449.366 676.665 450.326C675.609 451.286 674.809 452.422 674.265 453.734C673.721 455.014 673.449 456.406 673.449 457.91C673.449 459.83 673.913 461.43 674.841 462.71C675.801 463.958 677.049 465.03 678.585 465.926C680.153 466.822 681.913 467.606 683.865 468.278C685.849 468.918 687.865 469.59 689.913 470.294C691.993 470.998 694.009 471.798 695.961 472.694C697.945 473.558 699.705 474.662 701.241 476.006C702.809 477.35 704.057 478.998 704.985 480.95C705.945 482.902 706.425 485.302 706.425 488.15C706.425 491.158 705.913 493.99 704.889 496.646C703.865 499.27 702.361 501.558 700.377 503.51C698.425 505.462 696.009 506.998 693.129 508.118C690.281 509.238 687.033 509.798 683.385 509.798C678.905 509.798 674.841 508.998 671.193 507.398C667.545 505.766 664.425 503.574 661.833 500.822L664.521 496.406C664.777 496.054 665.081 495.766 665.433 495.542C665.817 495.286 666.233 495.158 666.681 495.158C667.097 495.158 667.561 495.334 668.073 495.686C668.617 496.006 669.225 496.422 669.897 496.934C670.569 497.446 671.337 498.006 672.201 498.614C673.065 499.222 674.041 499.782 675.129 500.294C676.249 500.806 677.513 501.238 678.921 501.59C680.329 501.91 681.913 502.07 683.673 502.07C685.881 502.07 687.849 501.766 689.577 501.158C691.305 500.55 692.761 499.702 693.945 498.614C695.161 497.494 696.089 496.166 696.729 494.63C697.369 493.094 697.689 491.382 697.689 489.494C697.689 487.414 697.209 485.718 696.249 484.406C695.321 483.062 694.089 481.942 692.553 481.046C691.017 480.15 689.257 479.398 687.273 478.79C685.289 478.15 683.273 477.51 681.225 476.87C679.177 476.198 677.161 475.43 675.177 474.566C673.193 473.702 671.433 472.582 669.897 471.206C668.361 469.83 667.113 468.118 666.153 466.07C665.225 463.99 664.761 461.43 664.761 458.39C664.761 455.958 665.225 453.606 666.153 451.334C667.113 449.062 668.489 447.046 670.281 445.286C672.105 443.526 674.329 442.118 676.953 441.062C679.609 440.006 682.649 439.478 686.073 439.478C689.913 439.478 693.401 440.086 696.537 441.302C699.705 442.518 702.489 444.278 704.889 446.582L702.633 450.998Z" fill="white"/>
</g>
<rect x="608.5" y="615.5" width="154" height="153" fill="#44BC96"/>
<path d="M689.387 702.109V729.517H680.075V702.109L654.875 660.733H663.035C663.867 660.733 664.523 660.941 665.003 661.357C665.483 661.741 665.899 662.253 666.251 662.893L681.995 689.629C682.571 690.749 683.099 691.805 683.579 692.797C684.059 693.757 684.475 694.733 684.827 695.725C685.179 694.733 685.579 693.757 686.027 692.797C686.475 691.805 686.971 690.749 687.515 689.629L703.211 662.893C703.499 662.349 703.899 661.853 704.411 661.405C704.923 660.957 705.579 660.733 706.379 660.733H714.587L689.387 702.109Z" fill="white"/>
<path d="M608 835H763V990H608V835Z" fill="#E3848B"/>
<rect x="608" y="835" width="155" height="155" fill="#E3848B"/>
<path d="M710.525 884.702C710.525 885.758 710.205 886.782 709.565 887.774L670.637 942.446H709.949V950.03H658.397V946.382C658.397 945.87 658.477 945.39 658.637 944.942C658.829 944.494 659.053 944.062 659.309 943.646L698.333 888.83H660.221V881.246H710.525V884.702Z" fill="white"/>
<g opacity="0.3">
<path d="M1147 173L1302 173V328H1147V173Z" fill="white"/>
<rect x="1147" y="173" width="155" height="155" fill="#2F4858"/>
<path d="M1253.32 254.958V281.358C1249.87 283.854 1246.17 285.726 1242.23 286.974C1238.33 288.19 1234.04 288.798 1229.37 288.798C1223.83 288.798 1218.84 287.95 1214.39 286.254C1209.95 284.526 1206.14 282.126 1202.97 279.054C1199.83 275.95 1197.42 272.238 1195.72 267.918C1194.03 263.598 1193.18 258.846 1193.18 253.662C1193.18 248.414 1193.99 243.63 1195.63 239.31C1197.29 234.99 1199.64 231.294 1202.68 228.222C1205.72 225.118 1209.42 222.718 1213.77 221.022C1218.12 219.326 1222.99 218.478 1228.36 218.478C1231.08 218.478 1233.61 218.686 1235.95 219.102C1238.28 219.486 1240.44 220.062 1242.43 220.83C1244.41 221.566 1246.25 222.478 1247.95 223.566C1249.64 224.622 1251.23 225.822 1252.7 227.166L1250.06 231.39C1249.64 232.03 1249.1 232.446 1248.43 232.638C1247.79 232.798 1247.07 232.638 1246.27 232.158C1245.5 231.71 1244.62 231.166 1243.63 230.526C1242.63 229.886 1241.42 229.278 1239.98 228.702C1238.57 228.094 1236.89 227.582 1234.94 227.166C1233.02 226.75 1230.73 226.542 1228.07 226.542C1224.2 226.542 1220.7 227.182 1217.56 228.462C1214.43 229.71 1211.75 231.518 1209.55 233.886C1207.34 236.222 1205.64 239.07 1204.46 242.43C1203.27 245.758 1202.68 249.502 1202.68 253.662C1202.68 257.982 1203.29 261.854 1204.51 265.278C1205.75 268.67 1207.51 271.566 1209.79 273.966C1212.09 276.334 1214.87 278.142 1218.14 279.39C1221.4 280.638 1225.07 281.262 1229.13 281.262C1232.33 281.262 1235.16 280.91 1237.63 280.206C1240.12 279.47 1242.55 278.462 1244.92 277.182V262.062H1234.22C1233.61 262.062 1233.11 261.886 1232.73 261.534C1232.38 261.182 1232.2 260.75 1232.2 260.238V254.958H1253.32Z" fill="white"/>
</g>
<g opacity="0.3">
<rect x="1147" y="394" width="155" height="155" fill="#4D8DC9"/>
<path d="M1241.63 450.998C1241.35 451.478 1241.03 451.846 1240.67 452.102C1240.35 452.326 1239.95 452.438 1239.47 452.438C1238.93 452.438 1238.29 452.166 1237.55 451.622C1236.82 451.078 1235.89 450.486 1234.77 449.846C1233.68 449.174 1232.35 448.566 1230.79 448.022C1229.25 447.478 1227.38 447.206 1225.17 447.206C1223.09 447.206 1221.25 447.494 1219.65 448.07C1218.08 448.614 1216.75 449.366 1215.67 450.326C1214.61 451.286 1213.81 452.422 1213.27 453.734C1212.72 455.014 1212.45 456.406 1212.45 457.91C1212.45 459.83 1212.91 461.43 1213.84 462.71C1214.8 463.958 1216.05 465.03 1217.59 465.926C1219.15 466.822 1220.91 467.606 1222.87 468.278C1224.85 468.918 1226.87 469.59 1228.91 470.294C1230.99 470.998 1233.01 471.798 1234.96 472.694C1236.95 473.558 1238.71 474.662 1240.24 476.006C1241.81 477.35 1243.06 478.998 1243.99 480.95C1244.95 482.902 1245.43 485.302 1245.43 488.15C1245.43 491.158 1244.91 493.99 1243.89 496.646C1242.87 499.27 1241.36 501.558 1239.38 503.51C1237.43 505.462 1235.01 506.998 1232.13 508.118C1229.28 509.238 1226.03 509.798 1222.39 509.798C1217.91 509.798 1213.84 508.998 1210.19 507.398C1206.55 505.766 1203.43 503.574 1200.83 500.822L1203.52 496.406C1203.78 496.054 1204.08 495.766 1204.43 495.542C1204.82 495.286 1205.23 495.158 1205.68 495.158C1206.1 495.158 1206.56 495.334 1207.07 495.686C1207.62 496.006 1208.23 496.422 1208.9 496.934C1209.57 497.446 1210.34 498.006 1211.2 498.614C1212.07 499.222 1213.04 499.782 1214.13 500.294C1215.25 500.806 1216.51 501.238 1217.92 501.59C1219.33 501.91 1220.91 502.07 1222.67 502.07C1224.88 502.07 1226.85 501.766 1228.58 501.158C1230.31 500.55 1231.76 499.702 1232.95 498.614C1234.16 497.494 1235.09 496.166 1235.73 494.63C1236.37 493.094 1236.69 491.382 1236.69 489.494C1236.69 487.414 1236.21 485.718 1235.25 484.406C1234.32 483.062 1233.09 481.942 1231.55 481.046C1230.02 480.15 1228.26 479.398 1226.27 478.79C1224.29 478.15 1222.27 477.51 1220.23 476.87C1218.18 476.198 1216.16 475.43 1214.18 474.566C1212.19 473.702 1210.43 472.582 1208.9 471.206C1207.36 469.83 1206.11 468.118 1205.15 466.07C1204.23 463.99 1203.76 461.43 1203.76 458.39C1203.76 455.958 1204.23 453.606 1205.15 451.334C1206.11 449.062 1207.49 447.046 1209.28 445.286C1211.11 443.526 1213.33 442.118 1215.95 441.062C1218.61 440.006 1221.65 439.478 1225.07 439.478C1228.91 439.478 1232.4 440.086 1235.54 441.302C1238.71 442.518 1241.49 444.278 1243.89 446.582L1241.63 450.998Z" fill="white"/>
</g>
<rect x="1147.5" y="615.5" width="154" height="153" fill="#44BC96"/>
<path d="M1228.39 702.109V729.517H1219.08V702.109L1193.88 660.733H1202.04C1202.87 660.733 1203.52 660.941 1204 661.357C1204.48 661.741 1204.9 662.253 1205.25 662.893L1221 689.629C1221.57 690.749 1222.1 691.805 1222.58 692.797C1223.06 693.757 1223.48 694.733 1223.83 695.725C1224.18 694.733 1224.58 693.757 1225.03 692.797C1225.48 691.805 1225.97 690.749 1226.52 689.629L1242.21 662.893C1242.5 662.349 1242.9 661.853 1243.41 661.405C1243.92 660.957 1244.58 660.733 1245.38 660.733H1253.59L1228.39 702.109Z" fill="white"/>
<path d="M1551 174L1706 174V329H1551V174Z" fill="white"/>
<rect x="1551" y="174" width="155" height="155" fill="#2F4858"/>
<path d="M1647.26 280.918C1648.19 280.918 1648.92 281.19 1649.47 281.734C1650.01 282.278 1650.28 282.982 1650.28 283.846V289.03H1604.4V286.102C1604.4 285.494 1604.52 284.87 1604.78 284.23C1605.04 283.59 1605.44 282.998 1605.98 282.454L1628.01 260.326C1629.84 258.47 1631.5 256.694 1633 254.998C1634.51 253.27 1635.79 251.542 1636.84 249.814C1637.9 248.086 1638.72 246.342 1639.29 244.582C1639.87 242.79 1640.16 240.886 1640.16 238.87C1640.16 236.854 1639.84 235.094 1639.2 233.59C1638.56 232.054 1637.68 230.79 1636.56 229.798C1635.47 228.806 1634.17 228.07 1632.67 227.59C1631.16 227.078 1629.55 226.822 1627.82 226.822C1626.06 226.822 1624.44 227.078 1622.97 227.59C1621.5 228.102 1620.19 228.822 1619.04 229.75C1617.92 230.646 1616.97 231.718 1616.2 232.966C1615.44 234.214 1614.89 235.59 1614.57 237.094C1614.19 238.214 1613.66 238.966 1612.99 239.35C1612.35 239.702 1611.44 239.798 1610.25 239.638L1605.79 238.87C1606.24 235.734 1607.1 232.966 1608.38 230.566C1609.69 228.134 1611.32 226.102 1613.28 224.47C1615.26 222.838 1617.52 221.606 1620.04 220.774C1622.57 219.91 1625.31 219.478 1628.25 219.478C1631.16 219.478 1633.88 219.91 1636.41 220.774C1638.94 221.638 1641.13 222.902 1642.99 224.566C1644.84 226.198 1646.3 228.198 1647.36 230.566C1648.41 232.934 1648.94 235.622 1648.94 238.63C1648.94 241.19 1648.56 243.574 1647.79 245.782C1647.02 247.958 1645.98 250.038 1644.67 252.022C1643.36 254.006 1641.84 255.942 1640.11 257.83C1638.41 259.718 1636.6 261.622 1634.68 263.542L1616.54 282.07C1617.82 281.718 1619.12 281.446 1620.43 281.254C1621.74 281.03 1623 280.918 1624.22 280.918H1647.26Z" fill="white"/>
<rect x="1551" y="395" width="155" height="155" fill="#4D8DC9"/>
<path d="M1648.75 503.502V510.03H1611.88V503.502H1626.62V456.606C1626.62 455.198 1626.67 453.774 1626.76 452.334L1614.52 462.846C1614.11 463.198 1613.69 463.422 1613.28 463.518C1612.86 463.582 1612.48 463.582 1612.12 463.518C1611.77 463.454 1611.44 463.326 1611.12 463.134C1610.83 462.942 1610.6 462.734 1610.44 462.51L1607.76 458.814L1628.25 441.102H1635.21V503.502H1648.75Z" fill="white"/>
<rect x="1551.5" y="616.5" width="154" height="153" fill="#44BC96"/>
<path d="M1634.93 705.701V677.333C1634.93 676.501 1634.96 675.589 1635.02 674.597C1635.09 673.605 1635.18 672.597 1635.31 671.573L1610.26 705.701H1634.93ZM1652.83 705.701V710.597C1652.83 711.109 1652.67 711.541 1652.35 711.893C1652.06 712.245 1651.6 712.421 1650.96 712.421H1642.42V730.517H1634.93V712.421H1604.4C1603.76 712.421 1603.2 712.245 1602.72 711.893C1602.27 711.509 1601.98 711.045 1601.86 710.501L1600.99 706.133L1634.45 661.733H1642.42V705.701H1652.83Z" fill="white"/>
<path d="M114.048 716.768C117.44 716.768 119.488 716.128 122.368 714.912L121.024 711.008C118.912 711.968 116.992 712.416 115.2 712.416C111.488 712.416 109.056 710.496 109.056 705.952V670.432H92.736V674.72H103.808V705.568C103.808 712.928 107.456 716.768 114.048 716.768ZM147.495 716.768C152.487 716.768 156.455 715.104 159.527 713.056L157.607 709.6C154.791 711.392 151.847 712.544 148.135 712.544C141.671 712.544 136.679 708.96 136.039 701.92H160.551C160.679 701.088 160.807 699.936 160.807 698.72C160.807 689.952 155.559 684.128 146.599 684.128C138.279 684.128 130.727 690.272 130.727 700.384C130.727 710.752 138.151 716.768 147.495 716.768ZM146.727 688.288C152.039 688.288 155.559 691.424 156.007 697.824H136.167C137.127 691.68 141.607 688.288 146.727 688.288ZM189.966 716.768C193.87 716.768 196.878 715.936 199.694 714.912L198.542 711.072C196.302 711.904 193.998 712.48 191.054 712.48C185.038 712.48 183.182 709.536 183.182 703.968V689.184H198.478V684.896H183.182V674.912H178.83L178.126 684.896L169.166 685.216V689.184H177.934V703.904C177.934 711.584 180.878 716.768 189.966 716.768ZM228.341 716.768C232.245 716.768 235.253 715.936 238.069 714.912L236.917 711.072C234.677 711.904 232.373 712.48 229.429 712.48C223.413 712.48 221.557 709.536 221.557 703.968V689.184H236.853V684.896H221.557V674.912H217.205L216.501 684.896L207.541 685.216V689.184H216.309V703.904C216.309 711.584 219.253 716.768 228.341 716.768ZM262.62 716.768C267.612 716.768 271.58 715.104 274.652 713.056L272.732 709.6C269.916 711.392 266.972 712.544 263.26 712.544C256.796 712.544 251.804 708.96 251.164 701.92H275.676C275.804 701.088 275.932 699.936 275.932 698.72C275.932 689.952 270.684 684.128 261.724 684.128C253.404 684.128 245.852 690.272 245.852 700.384C245.852 710.752 253.276 716.768 262.62 716.768ZM261.852 688.288C267.164 688.288 270.684 691.424 271.132 697.824H251.292C252.252 691.68 256.732 688.288 261.852 688.288ZM289.219 716H294.467V697.76C298.179 691.296 302.595 688.864 307.267 688.864C309.699 688.864 310.851 689.184 313.027 689.952L314.243 685.408C312.323 684.448 310.403 684.128 308.099 684.128C302.339 684.128 297.475 687.264 294.211 692.256H294.019L293.571 684.896H289.219V716ZM338.09 716.768C346.986 716.768 351.914 712.544 351.914 707.488C351.914 702.752 349.418 700.128 339.05 697.888C332.714 696.544 330.026 695.392 330.026 692.704C330.026 690.336 331.882 688.224 337.194 688.224C341.162 688.224 344.746 689.504 347.626 691.488L350.186 688.096C347.114 685.984 342.378 684.128 337.642 684.128C329.13 684.128 324.714 687.968 324.714 692.96C324.714 697.632 328.81 700.384 336.874 702.048C345.322 703.776 346.602 705.44 346.602 707.808C346.602 710.432 343.978 712.672 338.73 712.672C332.97 712.672 328.81 711.008 325.226 708.448L322.794 711.904C326.57 714.528 332.01 716.768 338.09 716.768ZM537.837 727.264L540.717 724.576C532.141 717.344 528.173 708.96 528.173 698.208C528.173 687.456 532.141 679.072 540.717 671.84L537.837 669.152C528.941 676.064 523.437 685.856 523.437 698.208C523.437 710.56 528.941 720.352 537.837 727.264ZM576.212 727.264L579.092 724.576C570.516 717.344 566.548 708.96 566.548 698.208C566.548 687.456 570.516 679.072 579.092 671.84L576.212 669.152C567.316 676.064 561.812 685.856 561.812 698.208C561.812 710.56 567.316 720.352 576.212 727.264ZM789.438 727.264C798.334 720.352 803.838 710.56 803.838 698.208C803.838 685.856 798.334 676.064 789.438 669.152L786.558 671.84C795.134 679.072 799.102 687.456 799.102 698.208C799.102 708.96 795.134 717.344 786.558 724.576L789.438 727.264ZM860.94 690.016H888.46V686.048H860.94V690.016ZM860.94 703.712H888.46V699.744H860.94V703.712ZM900.723 712.928L924.595 696.736V692.768L900.723 676.576V681.632L919.987 694.624V694.88L900.723 707.872V712.928ZM976.577 729.12H981.825V718.624L981.569 712.736H981.761C984.513 715.296 988.161 716.768 991.041 716.768C998.529 716.768 1005.19 710.56 1005.19 700C1005.19 690.336 1000.71 684.128 992.321 684.128C988.481 684.128 984.449 686.112 981.569 688.864H981.377L980.929 684.896H976.577V729.12ZM990.145 712.352C988.033 712.352 984.769 711.328 981.825 708.704V693.216C985.025 690.016 988.225 688.544 990.977 688.544C997.185 688.544 999.745 693.152 999.745 700C999.745 707.68 995.713 712.352 990.145 712.352ZM1034.22 716.768C1038.12 716.768 1041.13 715.936 1043.94 714.912L1042.79 711.072C1040.55 711.904 1038.25 712.48 1035.3 712.48C1029.29 712.48 1027.43 709.536 1027.43 703.968V689.184H1042.73V684.896H1027.43V674.912H1023.08L1022.38 684.896L1013.42 685.216V689.184H1022.18V703.904C1022.18 711.584 1025.13 716.768 1034.22 716.768ZM1067.22 716.768C1076.11 716.768 1081.04 712.544 1081.04 707.488C1081.04 702.752 1078.54 700.128 1068.18 697.888C1061.84 696.544 1059.15 695.392 1059.15 692.704C1059.15 690.336 1061.01 688.224 1066.32 688.224C1070.29 688.224 1073.87 689.504 1076.75 691.488L1079.31 688.096C1076.24 685.984 1071.5 684.128 1066.77 684.128C1058.26 684.128 1053.84 687.968 1053.84 692.96C1053.84 697.632 1057.94 700.384 1066 702.048C1074.45 703.776 1075.73 705.44 1075.73 707.808C1075.73 710.432 1073.1 712.672 1067.86 712.672C1062.1 712.672 1057.94 711.008 1054.35 708.448L1051.92 711.904C1055.7 714.528 1061.14 716.768 1067.22 716.768ZM1100.15 725.728H1117.88V722.72H1104.37V673.696H1117.88V670.688H1100.15V725.728ZM1322.27 725.728H1340V670.688H1322.27V673.696H1335.78V722.72H1322.27V725.728ZM1365.06 727.264C1373.96 720.352 1379.46 710.56 1379.46 698.208C1379.46 685.856 1373.96 676.064 1365.06 669.152L1362.18 671.84C1370.76 679.072 1374.73 687.456 1374.73 698.208C1374.73 708.96 1370.76 717.344 1362.18 724.576L1365.06 727.264ZM1436.57 690.016H1464.09V686.048H1436.57V690.016ZM1436.57 703.712H1464.09V699.744H1436.57V703.712Z" fill="#2F4858"/>
<path d="M375.825 716.768C378.705 716.768 381.009 714.592 381.009 711.392C381.009 708.128 378.705 705.952 375.825 705.952C372.945 705.952 370.641 708.128 370.641 711.392C370.641 714.592 372.945 716.768 375.825 716.768ZM398.712 716H403.96V693.472C405.496 690.272 406.904 688.672 409.08 688.672C411.384 688.672 412.28 690.528 412.28 694.112V716H417.144V693.472C418.808 690.272 419.96 688.672 422.136 688.672C424.44 688.672 425.464 690.528 425.464 694.112V716H430.712V693.728C430.712 687.52 428.152 684.128 423.8 684.128C420.216 684.128 418.296 686.176 416.504 689.504C415.608 685.92 413.688 684.128 410.616 684.128C407.032 684.128 405.112 686.112 403.512 688.992H403.384L402.936 684.896H398.712V716ZM449.119 716.768C453.535 716.768 457.951 714.464 461.407 711.776H461.599L462.047 716H466.335V696.928C466.335 689.184 462.239 684.128 453.727 684.128C448.287 684.128 443.039 686.56 439.903 688.608L441.951 692.192C444.831 690.4 448.799 688.48 452.831 688.48C458.847 688.48 460.959 692.064 461.087 696.288C445.023 697.568 438.559 700.96 438.559 707.936C438.559 713.504 443.295 716.768 449.119 716.768ZM450.527 712.544C446.943 712.544 443.679 711.072 443.679 707.552C443.679 703.456 447.775 700.832 461.087 699.744V707.936C457.567 710.88 454.047 712.544 450.527 712.544ZM477.702 729.12H482.95V718.624L482.694 712.736H482.886C485.638 715.296 489.286 716.768 492.166 716.768C499.654 716.768 506.31 710.56 506.31 700C506.31 690.336 501.83 684.128 493.446 684.128C489.606 684.128 485.574 686.112 482.694 688.864H482.502L482.054 684.896H477.702V729.12ZM491.27 712.352C489.158 712.352 485.894 711.328 482.95 708.704V693.216C486.15 690.016 489.35 688.544 492.102 688.544C498.31 688.544 500.87 693.152 500.87 700C500.87 707.68 496.838 712.352 491.27 712.352Z" fill="#B24E72"/>
</svg>
