<svg width="1920" height="1080" viewBox="0 0 1920 1080" fill="none" xmlns="http://www.w3.org/2000/svg">
<rect width="1920" height="1080" fill="white"/>
<path d="M608 173L763 173V328H608V173Z" fill="white"/>
<rect x="608" y="173" width="155" height="155" fill="#2F4858"/>
<path d="M714.321 254.958V281.358C710.865 283.854 707.169 285.726 703.233 286.974C699.329 288.19 695.041 288.798 690.369 288.798C684.833 288.798 679.841 287.95 675.393 286.254C670.945 284.526 667.137 282.126 663.969 279.054C660.833 275.95 658.417 272.238 656.721 267.918C655.025 263.598 654.177 258.846 654.177 253.662C654.177 248.414 654.993 243.63 656.625 239.31C658.289 234.99 660.641 231.294 663.681 228.222C666.721 225.118 670.417 222.718 674.769 221.022C679.121 219.326 683.985 218.478 689.361 218.478C692.081 218.478 694.609 218.686 696.945 219.102C699.281 219.486 701.441 220.062 703.425 220.83C705.409 221.566 707.249 222.478 708.945 223.566C710.641 224.622 712.225 225.822 713.697 227.166L711.057 231.39C710.641 232.03 710.097 232.446 709.425 232.638C708.785 232.798 708.065 232.638 707.265 232.158C706.497 231.71 705.617 231.166 704.625 230.526C703.633 229.886 702.417 229.278 700.977 228.702C699.569 228.094 697.889 227.582 695.937 227.166C694.017 226.75 691.729 226.542 689.073 226.542C685.201 226.542 681.697 227.182 678.561 228.462C675.425 229.71 672.753 231.518 670.545 233.886C668.337 236.222 666.641 239.07 665.457 242.43C664.273 245.758 663.681 249.502 663.681 253.662C663.681 257.982 664.289 261.854 665.505 265.278C666.753 268.67 668.513 271.566 670.785 273.966C673.089 276.334 675.873 278.142 679.137 279.39C682.401 280.638 686.065 281.262 690.129 281.262C693.329 281.262 696.161 280.91 698.625 280.206C701.121 279.47 703.553 278.462 705.921 277.182V262.062H695.217C694.609 262.062 694.113 261.886 693.729 261.534C693.377 261.182 693.201 260.75 693.201 260.238V254.958H714.321Z" fill="white"/>
<rect x="608" y="394" width="155" height="155" fill="#4D8DC9"/>
<path d="M702.633 450.998C702.345 451.478 702.025 451.846 701.673 452.102C701.353 452.326 700.953 452.438 700.473 452.438C699.929 452.438 699.289 452.166 698.553 451.622C697.817 451.078 696.889 450.486 695.769 449.846C694.681 449.174 693.353 448.566 691.785 448.022C690.249 447.478 688.377 447.206 686.169 447.206C684.089 447.206 682.249 447.494 680.649 448.07C679.081 448.614 677.753 449.366 676.665 450.326C675.609 451.286 674.809 452.422 674.265 453.734C673.721 455.014 673.449 456.406 673.449 457.91C673.449 459.83 673.913 461.43 674.841 462.71C675.801 463.958 677.049 465.03 678.585 465.926C680.153 466.822 681.913 467.606 683.865 468.278C685.849 468.918 687.865 469.59 689.913 470.294C691.993 470.998 694.009 471.798 695.961 472.694C697.945 473.558 699.705 474.662 701.241 476.006C702.809 477.35 704.057 478.998 704.985 480.95C705.945 482.902 706.425 485.302 706.425 488.15C706.425 491.158 705.913 493.99 704.889 496.646C703.865 499.27 702.361 501.558 700.377 503.51C698.425 505.462 696.009 506.998 693.129 508.118C690.281 509.238 687.033 509.798 683.385 509.798C678.905 509.798 674.841 508.998 671.193 507.398C667.545 505.766 664.425 503.574 661.833 500.822L664.521 496.406C664.777 496.054 665.081 495.766 665.433 495.542C665.817 495.286 666.233 495.158 666.681 495.158C667.097 495.158 667.561 495.334 668.073 495.686C668.617 496.006 669.225 496.422 669.897 496.934C670.569 497.446 671.337 498.006 672.201 498.614C673.065 499.222 674.041 499.782 675.129 500.294C676.249 500.806 677.513 501.238 678.921 501.59C680.329 501.91 681.913 502.07 683.673 502.07C685.881 502.07 687.849 501.766 689.577 501.158C691.305 500.55 692.761 499.702 693.945 498.614C695.161 497.494 696.089 496.166 696.729 494.63C697.369 493.094 697.689 491.382 697.689 489.494C697.689 487.414 697.209 485.718 696.249 484.406C695.321 483.062 694.089 481.942 692.553 481.046C691.017 480.15 689.257 479.398 687.273 478.79C685.289 478.15 683.273 477.51 681.225 476.87C679.177 476.198 677.161 475.43 675.177 474.566C673.193 473.702 671.433 472.582 669.897 471.206C668.361 469.83 667.113 468.118 666.153 466.07C665.225 463.99 664.761 461.43 664.761 458.39C664.761 455.958 665.225 453.606 666.153 451.334C667.113 449.062 668.489 447.046 670.281 445.286C672.105 443.526 674.329 442.118 676.953 441.062C679.609 440.006 682.649 439.478 686.073 439.478C689.913 439.478 693.401 440.086 696.537 441.302C699.705 442.518 702.489 444.278 704.889 446.582L702.633 450.998Z" fill="white"/>
<rect x="608.5" y="615.5" width="154" height="153" fill="#44BC96"/>
<path d="M689.387 702.109V729.517H680.075V702.109L654.875 660.733H663.035C663.867 660.733 664.523 660.941 665.003 661.357C665.483 661.741 665.899 662.253 666.251 662.893L681.995 689.629C682.571 690.749 683.099 691.805 683.579 692.797C684.059 693.757 684.475 694.733 684.827 695.725C685.179 694.733 685.579 693.757 686.027 692.797C686.475 691.805 686.971 690.749 687.515 689.629L703.211 662.893C703.499 662.349 703.899 661.853 704.411 661.405C704.923 660.957 705.579 660.733 706.379 660.733H714.587L689.387 702.109Z" fill="white"/>
<path d="M608 835H763V990H608V835Z" fill="#E3848B"/>
<rect x="608" y="835" width="155" height="155" fill="#E3848B"/>
<path d="M710.525 884.702C710.525 885.758 710.205 886.782 709.565 887.774L670.637 942.446H709.949V950.03H658.397V946.382C658.397 945.87 658.477 945.39 658.637 944.942C658.829 944.494 659.053 944.062 659.309 943.646L698.333 888.83H660.221V881.246H710.525V884.702Z" fill="white"/>
<path d="M1147 173L1302 173V328H1147V173Z" fill="white"/>
<rect x="1147" y="173" width="155" height="155" fill="#2F4858"/>
<path d="M1253.32 254.958V281.358C1249.87 283.854 1246.17 285.726 1242.23 286.974C1238.33 288.19 1234.04 288.798 1229.37 288.798C1223.83 288.798 1218.84 287.95 1214.39 286.254C1209.95 284.526 1206.14 282.126 1202.97 279.054C1199.83 275.95 1197.42 272.238 1195.72 267.918C1194.03 263.598 1193.18 258.846 1193.18 253.662C1193.18 248.414 1193.99 243.63 1195.63 239.31C1197.29 234.99 1199.64 231.294 1202.68 228.222C1205.72 225.118 1209.42 222.718 1213.77 221.022C1218.12 219.326 1222.99 218.478 1228.36 218.478C1231.08 218.478 1233.61 218.686 1235.95 219.102C1238.28 219.486 1240.44 220.062 1242.43 220.83C1244.41 221.566 1246.25 222.478 1247.95 223.566C1249.64 224.622 1251.23 225.822 1252.7 227.166L1250.06 231.39C1249.64 232.03 1249.1 232.446 1248.43 232.638C1247.79 232.798 1247.07 232.638 1246.27 232.158C1245.5 231.71 1244.62 231.166 1243.63 230.526C1242.63 229.886 1241.42 229.278 1239.98 228.702C1238.57 228.094 1236.89 227.582 1234.94 227.166C1233.02 226.75 1230.73 226.542 1228.07 226.542C1224.2 226.542 1220.7 227.182 1217.56 228.462C1214.43 229.71 1211.75 231.518 1209.55 233.886C1207.34 236.222 1205.64 239.07 1204.46 242.43C1203.27 245.758 1202.68 249.502 1202.68 253.662C1202.68 257.982 1203.29 261.854 1204.51 265.278C1205.75 268.67 1207.51 271.566 1209.79 273.966C1212.09 276.334 1214.87 278.142 1218.14 279.39C1221.4 280.638 1225.07 281.262 1229.13 281.262C1232.33 281.262 1235.16 280.91 1237.63 280.206C1240.12 279.47 1242.55 278.462 1244.92 277.182V262.062H1234.22C1233.61 262.062 1233.11 261.886 1232.73 261.534C1232.38 261.182 1232.2 260.75 1232.2 260.238V254.958H1253.32Z" fill="white"/>
<path d="M114.048 268.768C117.44 268.768 119.488 268.128 122.368 266.912L121.024 263.008C118.912 263.968 116.992 264.416 115.2 264.416C111.488 264.416 109.056 262.496 109.056 257.952V222.432H92.736V226.72H103.808V257.568C103.808 264.928 107.456 268.768 114.048 268.768ZM147.495 268.768C152.487 268.768 156.455 267.104 159.527 265.056L157.607 261.6C154.791 263.392 151.847 264.544 148.135 264.544C141.671 264.544 136.679 260.96 136.039 253.92H160.551C160.679 253.088 160.807 251.936 160.807 250.72C160.807 241.952 155.559 236.128 146.599 236.128C138.279 236.128 130.727 242.272 130.727 252.384C130.727 262.752 138.151 268.768 147.495 268.768ZM146.727 240.288C152.039 240.288 155.559 243.424 156.007 249.824H136.167C137.127 243.68 141.607 240.288 146.727 240.288ZM189.966 268.768C193.87 268.768 196.878 267.936 199.694 266.912L198.542 263.072C196.302 263.904 193.998 264.48 191.054 264.48C185.038 264.48 183.182 261.536 183.182 255.968V241.184H198.478V236.896H183.182V226.912H178.83L178.126 236.896L169.166 237.216V241.184H177.934V255.904C177.934 263.584 180.878 268.768 189.966 268.768ZM228.341 268.768C232.245 268.768 235.253 267.936 238.069 266.912L236.917 263.072C234.677 263.904 232.373 264.48 229.429 264.48C223.413 264.48 221.557 261.536 221.557 255.968V241.184H236.853V236.896H221.557V226.912H217.205L216.501 236.896L207.541 237.216V241.184H216.309V255.904C216.309 263.584 219.253 268.768 228.341 268.768ZM262.62 268.768C267.612 268.768 271.58 267.104 274.652 265.056L272.732 261.6C269.916 263.392 266.972 264.544 263.26 264.544C256.796 264.544 251.804 260.96 251.164 253.92H275.676C275.804 253.088 275.932 251.936 275.932 250.72C275.932 241.952 270.684 236.128 261.724 236.128C253.404 236.128 245.852 242.272 245.852 252.384C245.852 262.752 253.276 268.768 262.62 268.768ZM261.852 240.288C267.164 240.288 270.684 243.424 271.132 249.824H251.292C252.252 243.68 256.732 240.288 261.852 240.288ZM289.219 268H294.467V249.76C298.179 243.296 302.595 240.864 307.267 240.864C309.699 240.864 310.851 241.184 313.027 241.952L314.243 237.408C312.323 236.448 310.403 236.128 308.099 236.128C302.339 236.128 297.475 239.264 294.211 244.256H294.019L293.571 236.896H289.219V268ZM338.09 268.768C346.986 268.768 351.914 264.544 351.914 259.488C351.914 254.752 349.418 252.128 339.05 249.888C332.714 248.544 330.026 247.392 330.026 244.704C330.026 242.336 331.882 240.224 337.194 240.224C341.162 240.224 344.746 241.504 347.626 243.488L350.186 240.096C347.114 237.984 342.378 236.128 337.642 236.128C329.13 236.128 324.714 239.968 324.714 244.96C324.714 249.632 328.81 252.384 336.874 254.048C345.322 255.776 346.602 257.44 346.602 259.808C346.602 262.432 343.978 264.672 338.73 264.672C332.97 264.672 328.81 263.008 325.226 260.448L322.794 263.904C326.57 266.528 332.01 268.768 338.09 268.768ZM537.837 279.264L540.717 276.576C532.141 269.344 528.173 260.96 528.173 250.208C528.173 239.456 532.141 231.072 540.717 223.84L537.837 221.152C528.941 228.064 523.437 237.856 523.437 250.208C523.437 262.56 528.941 272.352 537.837 279.264ZM576.212 279.264L579.092 276.576C570.516 269.344 566.548 260.96 566.548 250.208C566.548 239.456 570.516 231.072 579.092 223.84L576.212 221.152C567.316 228.064 561.812 237.856 561.812 250.208C561.812 262.56 567.316 272.352 576.212 279.264ZM789.438 279.264C798.334 272.352 803.838 262.56 803.838 250.208C803.838 237.856 798.334 228.064 789.438 221.152L786.558 223.84C795.134 231.072 799.102 239.456 799.102 250.208C799.102 260.96 795.134 269.344 786.558 276.576L789.438 279.264ZM860.94 242.016H888.46V238.048H860.94V242.016ZM860.94 255.712H888.46V251.744H860.94V255.712ZM900.723 264.928L924.595 248.736V244.768L900.723 228.576V233.632L919.987 246.624V246.88L900.723 259.872V264.928ZM976.577 281.12H981.825V270.624L981.569 264.736H981.761C984.513 267.296 988.161 268.768 991.041 268.768C998.529 268.768 1005.19 262.56 1005.19 252C1005.19 242.336 1000.71 236.128 992.321 236.128C988.481 236.128 984.449 238.112 981.569 240.864H981.377L980.929 236.896H976.577V281.12ZM990.145 264.352C988.033 264.352 984.769 263.328 981.825 260.704V245.216C985.025 242.016 988.225 240.544 990.977 240.544C997.185 240.544 999.745 245.152 999.745 252C999.745 259.68 995.713 264.352 990.145 264.352ZM1034.22 268.768C1038.12 268.768 1041.13 267.936 1043.94 266.912L1042.79 263.072C1040.55 263.904 1038.25 264.48 1035.3 264.48C1029.29 264.48 1027.43 261.536 1027.43 255.968V241.184H1042.73V236.896H1027.43V226.912H1023.08L1022.38 236.896L1013.42 237.216V241.184H1022.18V255.904C1022.18 263.584 1025.13 268.768 1034.22 268.768ZM1067.22 268.768C1076.11 268.768 1081.04 264.544 1081.04 259.488C1081.04 254.752 1078.54 252.128 1068.18 249.888C1061.84 248.544 1059.15 247.392 1059.15 244.704C1059.15 242.336 1061.01 240.224 1066.32 240.224C1070.29 240.224 1073.87 241.504 1076.75 243.488L1079.31 240.096C1076.24 237.984 1071.5 236.128 1066.77 236.128C1058.26 236.128 1053.84 239.968 1053.84 244.96C1053.84 249.632 1057.94 252.384 1066 254.048C1074.45 255.776 1075.73 257.44 1075.73 259.808C1075.73 262.432 1073.1 264.672 1067.86 264.672C1062.1 264.672 1057.94 263.008 1054.35 260.448L1051.92 263.904C1055.7 266.528 1061.14 268.768 1067.22 268.768ZM1100.15 277.728H1117.88V274.72H1104.37V225.696H1117.88V222.688H1100.15V277.728ZM1322.27 277.728H1340V222.688H1322.27V225.696H1335.78V274.72H1322.27V277.728ZM1365.06 279.264C1373.96 272.352 1379.46 262.56 1379.46 250.208C1379.46 237.856 1373.96 228.064 1365.06 221.152L1362.18 223.84C1370.76 231.072 1374.73 239.456 1374.73 250.208C1374.73 260.96 1370.76 269.344 1362.18 276.576L1365.06 279.264Z" fill="#2F4858"/>
<path d="M375.825 268.768C378.705 268.768 381.009 266.592 381.009 263.392C381.009 260.128 378.705 257.952 375.825 257.952C372.945 257.952 370.641 260.128 370.641 263.392C370.641 266.592 372.945 268.768 375.825 268.768ZM398.712 268H403.96V245.472C405.496 242.272 406.904 240.672 409.08 240.672C411.384 240.672 412.28 242.528 412.28 246.112V268H417.144V245.472C418.808 242.272 419.96 240.672 422.136 240.672C424.44 240.672 425.464 242.528 425.464 246.112V268H430.712V245.728C430.712 239.52 428.152 236.128 423.8 236.128C420.216 236.128 418.296 238.176 416.504 241.504C415.608 237.92 413.688 236.128 410.616 236.128C407.032 236.128 405.112 238.112 403.512 240.992H403.384L402.936 236.896H398.712V268ZM449.119 268.768C453.535 268.768 457.951 266.464 461.407 263.776H461.599L462.047 268H466.335V248.928C466.335 241.184 462.239 236.128 453.727 236.128C448.287 236.128 443.039 238.56 439.903 240.608L441.951 244.192C444.831 242.4 448.799 240.48 452.831 240.48C458.847 240.48 460.959 244.064 461.087 248.288C445.023 249.568 438.559 252.96 438.559 259.936C438.559 265.504 443.295 268.768 449.119 268.768ZM450.527 264.544C446.943 264.544 443.679 263.072 443.679 259.552C443.679 255.456 447.775 252.832 461.087 251.744V259.936C457.567 262.88 454.047 264.544 450.527 264.544ZM477.702 281.12H482.95V270.624L482.694 264.736H482.886C485.638 267.296 489.286 268.768 492.166 268.768C499.654 268.768 506.31 262.56 506.31 252C506.31 242.336 501.83 236.128 493.446 236.128C489.606 236.128 485.574 238.112 482.694 240.864H482.502L482.054 236.896H477.702V281.12ZM491.27 264.352C489.158 264.352 485.894 263.328 482.95 260.704V245.216C486.15 242.016 489.35 240.544 492.102 240.544C498.31 240.544 500.87 245.152 500.87 252C500.87 259.68 496.838 264.352 491.27 264.352Z" fill="#B24E72"/>
</svg>
