<svg width="1920" height="1080" viewBox="0 0 1920 1080" fill="none" xmlns="http://www.w3.org/2000/svg">
<rect width="1920" height="1080" fill="white"/>
<path d="M144 173L299 173V328H144L144 173Z" fill="white"/>
<rect x="144" y="173" width="155" height="155" fill="#2F4858"/>
<path d="M250.321 254.958V281.358C246.865 283.854 243.169 285.726 239.233 286.974C235.329 288.19 231.041 288.798 226.369 288.798C220.833 288.798 215.841 287.95 211.393 286.254C206.945 284.526 203.137 282.126 199.969 279.054C196.833 275.95 194.417 272.238 192.721 267.918C191.025 263.598 190.177 258.846 190.177 253.662C190.177 248.414 190.993 243.63 192.625 239.31C194.289 234.99 196.641 231.294 199.681 228.222C202.721 225.118 206.417 222.718 210.769 221.022C215.121 219.326 219.985 218.478 225.361 218.478C228.081 218.478 230.609 218.686 232.945 219.102C235.281 219.486 237.441 220.062 239.425 220.83C241.409 221.566 243.249 222.478 244.945 223.566C246.641 224.622 248.225 225.822 249.697 227.166L247.057 231.39C246.641 232.03 246.097 232.446 245.425 232.638C244.785 232.798 244.065 232.638 243.265 232.158C242.497 231.71 241.617 231.166 240.625 230.526C239.633 229.886 238.417 229.278 236.977 228.702C235.569 228.094 233.889 227.582 231.937 227.166C230.017 226.75 227.729 226.542 225.073 226.542C221.201 226.542 217.697 227.182 214.561 228.462C211.425 229.71 208.753 231.518 206.545 233.886C204.337 236.222 202.641 239.07 201.457 242.43C200.273 245.758 199.681 249.502 199.681 253.662C199.681 257.982 200.289 261.854 201.505 265.278C202.753 268.67 204.513 271.566 206.785 273.966C209.089 276.334 211.873 278.142 215.137 279.39C218.401 280.638 222.065 281.262 226.129 281.262C229.329 281.262 232.161 280.91 234.625 280.206C237.121 279.47 239.553 278.462 241.921 277.182V262.062H231.217C230.609 262.062 230.113 261.886 229.729 261.534C229.377 261.182 229.201 260.75 229.201 260.238V254.958H250.321Z" fill="white"/>
<rect x="144" y="394" width="155" height="155" fill="#4D8DC9"/>
<path d="M238.633 450.998C238.345 451.478 238.025 451.846 237.673 452.102C237.353 452.326 236.953 452.438 236.473 452.438C235.929 452.438 235.289 452.166 234.553 451.622C233.817 451.078 232.889 450.486 231.769 449.846C230.681 449.174 229.353 448.566 227.785 448.022C226.249 447.478 224.377 447.206 222.169 447.206C220.089 447.206 218.249 447.494 216.649 448.07C215.081 448.614 213.753 449.366 212.665 450.326C211.609 451.286 210.809 452.422 210.265 453.734C209.721 455.014 209.449 456.406 209.449 457.91C209.449 459.83 209.913 461.43 210.841 462.71C211.801 463.958 213.049 465.03 214.585 465.926C216.153 466.822 217.913 467.606 219.865 468.278C221.849 468.918 223.865 469.59 225.913 470.294C227.993 470.998 230.009 471.798 231.961 472.694C233.945 473.558 235.705 474.662 237.241 476.006C238.809 477.35 240.057 478.998 240.985 480.95C241.945 482.902 242.425 485.302 242.425 488.15C242.425 491.158 241.913 493.99 240.889 496.646C239.865 499.27 238.361 501.558 236.377 503.51C234.425 505.462 232.009 506.998 229.129 508.118C226.281 509.238 223.033 509.798 219.385 509.798C214.905 509.798 210.841 508.998 207.193 507.398C203.545 505.766 200.425 503.574 197.833 500.822L200.521 496.406C200.777 496.054 201.081 495.766 201.433 495.542C201.817 495.286 202.233 495.158 202.681 495.158C203.097 495.158 203.561 495.334 204.073 495.686C204.617 496.006 205.225 496.422 205.897 496.934C206.569 497.446 207.337 498.006 208.201 498.614C209.065 499.222 210.041 499.782 211.129 500.294C212.249 500.806 213.513 501.238 214.921 501.59C216.329 501.91 217.913 502.07 219.673 502.07C221.881 502.07 223.849 501.766 225.577 501.158C227.305 500.55 228.761 499.702 229.945 498.614C231.161 497.494 232.089 496.166 232.729 494.63C233.369 493.094 233.689 491.382 233.689 489.494C233.689 487.414 233.209 485.718 232.249 484.406C231.321 483.062 230.089 481.942 228.553 481.046C227.017 480.15 225.257 479.398 223.273 478.79C221.289 478.15 219.273 477.51 217.225 476.87C215.177 476.198 213.161 475.43 211.177 474.566C209.193 473.702 207.433 472.582 205.897 471.206C204.361 469.83 203.113 468.118 202.153 466.07C201.225 463.99 200.761 461.43 200.761 458.39C200.761 455.958 201.225 453.606 202.153 451.334C203.113 449.062 204.489 447.046 206.281 445.286C208.105 443.526 210.329 442.118 212.953 441.062C215.609 440.006 218.649 439.478 222.073 439.478C225.913 439.478 229.401 440.086 232.537 441.302C235.705 442.518 238.489 444.278 240.889 446.582L238.633 450.998Z" fill="white"/>
<rect x="144.5" y="615.5" width="154" height="153" fill="#44BC96"/>
<path d="M225.387 702.109V729.517H216.075V702.109L190.875 660.733H199.035C199.867 660.733 200.523 660.941 201.003 661.357C201.483 661.741 201.899 662.253 202.251 662.893L217.995 689.629C218.571 690.749 219.099 691.805 219.579 692.797C220.059 693.757 220.475 694.733 220.827 695.725C221.179 694.733 221.579 693.757 222.027 692.797C222.475 691.805 222.971 690.749 223.515 689.629L239.211 662.893C239.499 662.349 239.899 661.853 240.411 661.405C240.923 660.957 241.579 660.733 242.379 660.733H250.587L225.387 702.109Z" fill="white"/>
<path d="M144 835H299V990H144L144 835Z" fill="#E3848B"/>
<rect x="144" y="835" width="155" height="155" fill="#E3848B"/>
<path d="M246.525 884.702C246.525 885.758 246.205 886.782 245.565 887.774L206.637 942.446H245.949V950.03H194.397L194.397 946.382C194.397 945.87 194.477 945.39 194.637 944.942C194.829 944.494 195.053 944.062 195.309 943.646L234.333 888.83H196.221V881.246H246.525V884.702Z" fill="white"/>
<path d="M114.048 140.768C117.44 140.768 119.488 140.128 122.368 138.912L121.024 135.008C118.912 135.968 116.992 136.416 115.2 136.416C111.488 136.416 109.056 134.496 109.056 129.952V94.432H92.736V98.72H103.808V129.568C103.808 136.928 107.456 140.768 114.048 140.768ZM147.495 140.768C152.487 140.768 156.455 139.104 159.527 137.056L157.607 133.6C154.791 135.392 151.847 136.544 148.135 136.544C141.671 136.544 136.679 132.96 136.039 125.92H160.551C160.679 125.088 160.807 123.936 160.807 122.72C160.807 113.952 155.559 108.128 146.599 108.128C138.279 108.128 130.727 114.272 130.727 124.384C130.727 134.752 138.151 140.768 147.495 140.768ZM146.727 112.288C152.039 112.288 155.559 115.424 156.007 121.824H136.167C137.127 115.68 141.607 112.288 146.727 112.288ZM189.966 140.768C193.87 140.768 196.878 139.936 199.694 138.912L198.542 135.072C196.302 135.904 193.998 136.48 191.054 136.48C185.038 136.48 183.182 133.536 183.182 127.968V113.184H198.478V108.896H183.182V98.912H178.83L178.126 108.896L169.166 109.216V113.184H177.934V127.904C177.934 135.584 180.878 140.768 189.966 140.768ZM228.341 140.768C232.245 140.768 235.253 139.936 238.069 138.912L236.917 135.072C234.677 135.904 232.373 136.48 229.429 136.48C223.413 136.48 221.557 133.536 221.557 127.968V113.184H236.853V108.896H221.557V98.912H217.205L216.501 108.896L207.541 109.216V113.184H216.309V127.904C216.309 135.584 219.253 140.768 228.341 140.768ZM262.62 140.768C267.612 140.768 271.58 139.104 274.652 137.056L272.732 133.6C269.916 135.392 266.972 136.544 263.26 136.544C256.796 136.544 251.804 132.96 251.164 125.92H275.676C275.804 125.088 275.932 123.936 275.932 122.72C275.932 113.952 270.684 108.128 261.724 108.128C253.404 108.128 245.852 114.272 245.852 124.384C245.852 134.752 253.276 140.768 262.62 140.768ZM261.852 112.288C267.164 112.288 270.684 115.424 271.132 121.824H251.292C252.252 115.68 256.732 112.288 261.852 112.288ZM289.219 140H294.467V121.76C298.179 115.296 302.595 112.864 307.267 112.864C309.699 112.864 310.851 113.184 313.027 113.952L314.243 109.408C312.323 108.448 310.403 108.128 308.099 108.128C302.339 108.128 297.475 111.264 294.211 116.256H294.019L293.571 108.896H289.219V140ZM338.09 140.768C346.986 140.768 351.914 136.544 351.914 131.488C351.914 126.752 349.418 124.128 339.05 121.888C332.714 120.544 330.026 119.392 330.026 116.704C330.026 114.336 331.882 112.224 337.194 112.224C341.162 112.224 344.746 113.504 347.626 115.488L350.186 112.096C347.114 109.984 342.378 108.128 337.642 108.128C329.13 108.128 324.714 111.968 324.714 116.96C324.714 121.632 328.81 124.384 336.874 126.048C345.322 127.776 346.602 129.44 346.602 131.808C346.602 134.432 343.978 136.672 338.73 136.672C332.97 136.672 328.81 135.008 325.226 132.448L322.794 135.904C326.57 138.528 332.01 140.768 338.09 140.768ZM537.837 151.264L540.717 148.576C532.141 141.344 528.173 132.96 528.173 122.208C528.173 111.456 532.141 103.072 540.717 95.84L537.837 93.152C528.941 100.064 523.437 109.856 523.437 122.208C523.437 134.56 528.941 144.352 537.837 151.264ZM576.212 151.264L579.092 148.576C570.516 141.344 566.548 132.96 566.548 122.208C566.548 111.456 570.516 103.072 579.092 95.84L576.212 93.152C567.316 100.064 561.812 109.856 561.812 122.208C561.812 134.56 567.316 144.352 576.212 151.264ZM612.923 140.768C616.315 140.768 618.363 140.128 621.243 138.912L619.899 135.008C617.787 135.968 615.867 136.416 614.075 136.416C610.363 136.416 607.931 134.496 607.931 129.952V94.432H591.611V98.72H602.683V129.568C602.683 136.928 606.331 140.768 612.923 140.768ZM635.938 151.264C644.834 144.352 650.338 134.56 650.338 122.208C650.338 109.856 644.834 100.064 635.938 93.152L633.058 95.84C641.634 103.072 645.602 111.456 645.602 122.208C645.602 132.96 641.634 141.344 633.058 148.576L635.938 151.264ZM707.44 114.016H734.96V110.048H707.44V114.016ZM707.44 127.712H734.96V123.744H707.44V127.712ZM747.223 136.928L771.095 120.736V116.768L747.223 100.576V105.632L766.487 118.624V118.88L747.223 131.872V136.928ZM823.077 153.12H828.325V142.624L828.069 136.736H828.261C831.013 139.296 834.661 140.768 837.541 140.768C845.029 140.768 851.685 134.56 851.685 124C851.685 114.336 847.205 108.128 838.821 108.128C834.981 108.128 830.949 110.112 828.069 112.864H827.877L827.429 108.896H823.077V153.12ZM836.645 136.352C834.533 136.352 831.269 135.328 828.325 132.704V117.216C831.525 114.016 834.725 112.544 837.477 112.544C843.685 112.544 846.245 117.152 846.245 124C846.245 131.68 842.213 136.352 836.645 136.352ZM880.716 140.768C884.62 140.768 887.628 139.936 890.444 138.912L889.292 135.072C887.052 135.904 884.748 136.48 881.804 136.48C875.788 136.48 873.932 133.536 873.932 127.968V113.184H889.228V108.896H873.932V98.912H869.58L868.876 108.896L859.916 109.216V113.184H868.684V127.904C868.684 135.584 871.628 140.768 880.716 140.768ZM913.715 140.768C922.611 140.768 927.539 136.544 927.539 131.488C927.539 126.752 925.043 124.128 914.675 121.888C908.339 120.544 905.651 119.392 905.651 116.704C905.651 114.336 907.507 112.224 912.819 112.224C916.787 112.224 920.371 113.504 923.251 115.488L925.811 112.096C922.739 109.984 918.003 108.128 913.267 108.128C904.755 108.128 900.339 111.968 900.339 116.96C900.339 121.632 904.435 124.384 912.499 126.048C920.947 127.776 922.227 129.44 922.227 131.808C922.227 134.432 919.603 136.672 914.355 136.672C908.595 136.672 904.435 135.008 900.851 132.448L898.419 135.904C902.195 138.528 907.635 140.768 913.715 140.768ZM946.65 149.728H964.378V146.72H950.874V97.696H964.378V94.688H946.65V149.728ZM996.673 140.768C1000.07 140.768 1002.11 140.128 1004.99 138.912L1003.65 135.008C1001.54 135.968 999.617 136.416 997.825 136.416C994.113 136.416 991.681 134.496 991.681 129.952V94.432H975.361V98.72H986.433V129.568C986.433 136.928 990.081 140.768 996.673 140.768ZM1015.27 149.728H1033V94.688H1015.27V97.696H1028.78V146.72H1015.27V149.728ZM1058.06 151.264C1066.96 144.352 1072.46 134.56 1072.46 122.208C1072.46 109.856 1066.96 100.064 1058.06 93.152L1055.18 95.84C1063.76 103.072 1067.73 111.456 1067.73 122.208C1067.73 132.96 1063.76 141.344 1055.18 148.576L1058.06 151.264Z" fill="#2F4858"/>
<path d="M375.825 140.768C378.705 140.768 381.009 138.592 381.009 135.392C381.009 132.128 378.705 129.952 375.825 129.952C372.945 129.952 370.641 132.128 370.641 135.392C370.641 138.592 372.945 140.768 375.825 140.768ZM398.712 140H403.96V117.472C405.496 114.272 406.904 112.672 409.08 112.672C411.384 112.672 412.28 114.528 412.28 118.112V140H417.144V117.472C418.808 114.272 419.96 112.672 422.136 112.672C424.44 112.672 425.464 114.528 425.464 118.112V140H430.712V117.728C430.712 111.52 428.152 108.128 423.8 108.128C420.216 108.128 418.296 110.176 416.504 113.504C415.608 109.92 413.688 108.128 410.616 108.128C407.032 108.128 405.112 110.112 403.512 112.992H403.384L402.936 108.896H398.712V140ZM449.119 140.768C453.535 140.768 457.951 138.464 461.407 135.776H461.599L462.047 140H466.335V120.928C466.335 113.184 462.239 108.128 453.727 108.128C448.287 108.128 443.039 110.56 439.903 112.608L441.951 116.192C444.831 114.4 448.799 112.48 452.831 112.48C458.847 112.48 460.959 116.064 461.087 120.288C445.023 121.568 438.559 124.96 438.559 131.936C438.559 137.504 443.295 140.768 449.119 140.768ZM450.527 136.544C446.943 136.544 443.679 135.072 443.679 131.552C443.679 127.456 447.775 124.832 461.087 123.744V131.936C457.567 134.88 454.047 136.544 450.527 136.544ZM477.702 153.12H482.95V142.624L482.694 136.736H482.886C485.638 139.296 489.286 140.768 492.166 140.768C499.654 140.768 506.31 134.56 506.31 124C506.31 114.336 501.83 108.128 493.446 108.128C489.606 108.128 485.574 110.112 482.694 112.864H482.502L482.054 108.896H477.702V153.12ZM491.27 136.352C489.158 136.352 485.894 135.328 482.95 132.704V117.216C486.15 114.016 489.35 112.544 492.102 112.544C498.31 112.544 500.87 117.152 500.87 124C500.87 131.68 496.838 136.352 491.27 136.352Z" fill="#B24E72"/>
</svg>
