<svg width="1920" height="1080" viewBox="0 0 1920 1080" fill="none" xmlns="http://www.w3.org/2000/svg">
<rect width="1920" height="1080" fill="white"/>
<path d="M114.048 140.768C117.44 140.768 119.488 140.128 122.368 138.912L121.024 135.008C118.912 135.968 116.992 136.416 115.2 136.416C111.488 136.416 109.056 134.496 109.056 129.952V94.432H92.736V98.72H103.808V129.568C103.808 136.928 107.456 140.768 114.048 140.768ZM151.591 140.768C155.495 140.768 158.503 139.936 161.319 138.912L160.167 135.072C157.927 135.904 155.623 136.48 152.679 136.48C146.663 136.48 144.807 133.536 144.807 127.968V113.184H160.103V108.896H144.807V98.912H140.455L139.751 108.896L130.791 109.216V113.184H139.559V127.904C139.559 135.584 142.503 140.768 151.591 140.768ZM174.094 140H179.342V121.76C183.054 115.296 187.47 112.864 192.142 112.864C194.574 112.864 195.726 113.184 197.902 113.952L199.118 109.408C197.198 108.448 195.278 108.128 192.974 108.128C187.214 108.128 182.35 111.264 179.086 116.256H178.894L178.446 108.896H174.094V140ZM222.965 140.768C231.861 140.768 236.789 136.544 236.789 131.488C236.789 126.752 234.293 124.128 223.925 121.888C217.589 120.544 214.901 119.392 214.901 116.704C214.901 114.336 216.757 112.224 222.069 112.224C226.037 112.224 229.621 113.504 232.501 115.488L235.061 112.096C231.989 109.984 227.253 108.128 222.517 108.128C214.005 108.128 209.589 111.968 209.589 116.96C209.589 121.632 213.685 124.384 221.749 126.048C230.197 127.776 231.477 129.44 231.477 131.808C231.477 134.432 228.853 136.672 223.605 136.672C217.845 136.672 213.685 135.008 210.101 132.448L207.669 135.904C211.445 138.528 216.885 140.768 222.965 140.768ZM576.212 151.264L579.092 148.576C570.516 141.344 566.548 132.96 566.548 122.208C566.548 111.456 570.516 103.072 579.092 95.84L576.212 93.152C567.316 100.064 561.812 109.856 561.812 122.208C561.812 134.56 567.316 144.352 576.212 151.264ZM614.587 151.264L617.467 148.576C608.891 141.344 604.923 132.96 604.923 122.208C604.923 111.456 608.891 103.072 617.467 95.84L614.587 93.152C605.691 100.064 600.187 109.856 600.187 122.208C600.187 134.56 605.691 144.352 614.587 151.264ZM651.298 140.768C654.69 140.768 656.738 140.128 659.618 138.912L658.274 135.008C656.162 135.968 654.242 136.416 652.45 136.416C648.738 136.416 646.306 134.496 646.306 129.952V94.432H629.986V98.72H641.058V129.568C641.058 136.928 644.706 140.768 651.298 140.768ZM674.313 151.264C683.209 144.352 688.713 134.56 688.713 122.208C688.713 109.856 683.209 100.064 674.313 93.152L671.433 95.84C680.009 103.072 683.977 111.456 683.977 122.208C683.977 132.96 680.009 141.344 671.433 148.576L674.313 151.264ZM745.815 114.016H773.335V110.048H745.815V114.016ZM745.815 127.712H773.335V123.744H745.815V127.712ZM785.598 136.928L809.47 120.736V116.768L785.598 100.576V105.632L804.862 118.624V118.88L785.598 131.872V136.928ZM875.34 140.768C884.236 140.768 889.164 136.544 889.164 131.488C889.164 126.752 886.668 124.128 876.3 121.888C869.964 120.544 867.276 119.392 867.276 116.704C867.276 114.336 869.132 112.224 874.444 112.224C878.412 112.224 881.996 113.504 884.876 115.488L887.436 112.096C884.364 109.984 879.628 108.128 874.892 108.128C866.38 108.128 861.964 111.968 861.964 116.96C861.964 121.632 866.06 124.384 874.124 126.048C882.572 127.776 883.852 129.44 883.852 131.808C883.852 134.432 881.228 136.672 875.98 136.672C870.22 136.672 866.06 135.008 862.476 132.448L860.044 135.904C863.82 138.528 869.26 140.768 875.34 140.768ZM916.019 140.768C920.627 140.768 924.915 138.976 928.371 135.904L926.003 132.512C923.443 134.688 920.243 136.416 916.403 136.416C909.235 136.416 904.435 131.616 904.435 124.512C904.435 117.344 909.363 112.48 916.531 112.48C919.795 112.48 922.483 113.824 925.043 116.064L927.667 112.672C925.107 110.176 921.395 108.128 916.339 108.128C906.931 108.128 898.995 114.08 898.995 124.512C898.995 134.816 906.291 140.768 916.019 140.768ZM951.45 140.768C959.642 140.768 966.81 134.816 966.81 124.512C966.81 114.08 959.642 108.128 951.45 108.128C943.258 108.128 936.09 114.08 936.09 124.512C936.09 134.816 943.258 140.768 951.45 140.768ZM951.45 136.416C945.498 136.416 941.53 131.616 941.53 124.512C941.53 117.344 945.498 112.48 951.45 112.48C957.402 112.48 961.37 117.344 961.37 124.512C961.37 131.616 957.402 136.416 951.45 136.416ZM979.969 140H985.217V121.76C988.929 115.296 993.345 112.864 998.017 112.864C1000.45 112.864 1001.6 113.184 1003.78 113.952L1004.99 109.408C1003.07 108.448 1001.15 108.128 998.849 108.128C993.089 108.128 988.225 111.264 984.961 116.256H984.769L984.321 108.896H979.969V140ZM1030.12 140.768C1035.11 140.768 1039.08 139.104 1042.15 137.056L1040.23 133.6C1037.42 135.392 1034.47 136.544 1030.76 136.544C1024.3 136.544 1019.3 132.96 1018.66 125.92H1043.18C1043.3 125.088 1043.43 123.936 1043.43 122.72C1043.43 113.952 1038.18 108.128 1029.22 108.128C1020.9 108.128 1013.35 114.272 1013.35 124.384C1013.35 134.752 1020.78 140.768 1030.12 140.768ZM1029.35 112.288C1034.66 112.288 1038.18 115.424 1038.63 121.824H1018.79C1019.75 115.68 1024.23 112.288 1029.35 112.288ZM1075.09 151.264L1077.97 148.576C1069.39 141.344 1065.42 132.96 1065.42 122.208C1065.42 111.456 1069.39 103.072 1077.97 95.84L1075.09 93.152C1066.19 100.064 1060.69 109.856 1060.69 122.208C1060.69 134.56 1066.19 144.352 1075.09 151.264ZM1111.8 140.768C1115.19 140.768 1117.24 140.128 1120.12 138.912L1118.77 135.008C1116.66 135.968 1114.74 136.416 1112.95 136.416C1109.24 136.416 1106.81 134.496 1106.81 129.952V94.432H1090.49V98.72H1101.56V129.568C1101.56 136.928 1105.21 140.768 1111.8 140.768ZM1134.81 151.264C1143.71 144.352 1149.21 134.56 1149.21 122.208C1149.21 109.856 1143.71 100.064 1134.81 93.152L1131.93 95.84C1140.51 103.072 1144.48 111.456 1144.48 122.208C1144.48 132.96 1140.51 141.344 1131.93 148.576L1134.81 151.264ZM1173.19 151.264C1182.08 144.352 1187.59 134.56 1187.59 122.208C1187.59 109.856 1182.08 100.064 1173.19 93.152L1170.31 95.84C1178.88 103.072 1182.85 111.456 1182.85 122.208C1182.85 132.96 1178.88 141.344 1170.31 148.576L1173.19 151.264Z" fill="#2F4858"/>
<path d="M260.7 140.768C263.58 140.768 265.884 138.592 265.884 135.392C265.884 132.128 263.58 129.952 260.7 129.952C257.82 129.952 255.516 132.128 255.516 135.392C255.516 138.592 257.82 140.768 260.7 140.768ZM295.363 140H300.547V113.184H313.603V108.896H300.547V106.08C300.547 101.024 302.851 97.952 308.419 97.952C311.107 97.952 313.091 98.272 315.651 99.424L316.867 95.456C313.923 94.24 310.979 93.664 307.907 93.664C299.331 93.664 295.363 98.656 295.363 106.272V108.896L286.467 109.216V113.184H295.363V140ZM337.45 140.768C345.642 140.768 352.81 134.816 352.81 124.512C352.81 114.08 345.642 108.128 337.45 108.128C329.258 108.128 322.09 114.08 322.09 124.512C322.09 134.816 329.258 140.768 337.45 140.768ZM337.45 136.416C331.498 136.416 327.53 131.616 327.53 124.512C327.53 117.344 331.498 112.48 337.45 112.48C343.402 112.48 347.37 117.344 347.37 124.512C347.37 131.616 343.402 136.416 337.45 136.416ZM365.969 140H371.217V121.76C374.929 115.296 379.345 112.864 384.017 112.864C386.449 112.864 387.601 113.184 389.777 113.952L390.993 109.408C389.073 108.448 387.153 108.128 384.849 108.128C379.089 108.128 374.225 111.264 370.961 116.256H370.769L370.321 108.896H365.969V140ZM402.296 140H428.92V135.456H407.672V120.224H425.08V115.68H407.672V102.496H428.28V98.016H402.296V140ZM449.119 140.768C453.535 140.768 457.951 138.464 461.407 135.776H461.599L462.047 140H466.335V120.928C466.335 113.184 462.239 108.128 453.727 108.128C448.287 108.128 443.039 110.56 439.903 112.608L441.951 116.192C444.831 114.4 448.799 112.48 452.831 112.48C458.847 112.48 460.959 116.064 461.087 120.288C445.023 121.568 438.559 124.96 438.559 131.936C438.559 137.504 443.295 140.768 449.119 140.768ZM450.527 136.544C446.943 136.544 443.679 135.072 443.679 131.552C443.679 127.456 447.775 124.832 461.087 123.744V131.936C457.567 134.88 454.047 136.544 450.527 136.544ZM493.894 140.768C498.502 140.768 502.79 138.976 506.246 135.904L503.878 132.512C501.318 134.688 498.118 136.416 494.278 136.416C487.11 136.416 482.31 131.616 482.31 124.512C482.31 117.344 487.238 112.48 494.406 112.48C497.67 112.48 500.358 113.824 502.918 116.064L505.542 112.672C502.982 110.176 499.27 108.128 494.214 108.128C484.806 108.128 476.87 114.08 476.87 124.512C476.87 134.816 484.166 140.768 493.894 140.768ZM516.077 140H521.325V118.304C524.973 114.528 527.469 112.672 531.181 112.672C536.301 112.672 538.349 115.488 538.349 121.376V140H543.597V120.672C543.597 112.48 540.205 108.128 532.845 108.128C527.981 108.128 524.397 110.752 521.197 114.208H521.005L521.325 106.848V94.432H516.077V140Z" fill="#B24E72"/>
</svg>
