<svg width="1920" height="1080" viewBox="0 0 1920 1080" fill="none" xmlns="http://www.w3.org/2000/svg">
<rect width="1920" height="1080" fill="white"/>
<path d="M114.048 140.768C117.44 140.768 119.488 140.128 122.368 138.912L121.024 135.008C118.912 135.968 116.992 136.416 115.2 136.416C111.488 136.416 109.056 134.496 109.056 129.952V94.432H92.736V98.72H103.808V129.568C103.808 136.928 107.456 140.768 114.048 140.768ZM151.591 140.768C155.495 140.768 158.503 139.936 161.319 138.912L160.167 135.072C157.927 135.904 155.623 136.48 152.679 136.48C146.663 136.48 144.807 133.536 144.807 127.968V113.184H160.103V108.896H144.807V98.912H140.455L139.751 108.896L130.791 109.216V113.184H139.559V127.904C139.559 135.584 142.503 140.768 151.591 140.768ZM174.094 140H179.342V121.76C183.054 115.296 187.47 112.864 192.142 112.864C194.574 112.864 195.726 113.184 197.902 113.952L199.118 109.408C197.198 108.448 195.278 108.128 192.974 108.128C187.214 108.128 182.35 111.264 179.086 116.256H178.894L178.446 108.896H174.094V140ZM222.965 140.768C231.861 140.768 236.789 136.544 236.789 131.488C236.789 126.752 234.293 124.128 223.925 121.888C217.589 120.544 214.901 119.392 214.901 116.704C214.901 114.336 216.757 112.224 222.069 112.224C226.037 112.224 229.621 113.504 232.501 115.488L235.061 112.096C231.989 109.984 227.253 108.128 222.517 108.128C214.005 108.128 209.589 111.968 209.589 116.96C209.589 121.632 213.685 124.384 221.749 126.048C230.197 127.776 231.477 129.44 231.477 131.808C231.477 134.432 228.853 136.672 223.605 136.672C217.845 136.672 213.685 135.008 210.101 132.448L207.669 135.904C211.445 138.528 216.885 140.768 222.965 140.768ZM576.212 151.264L579.092 148.576C570.516 141.344 566.548 132.96 566.548 122.208C566.548 111.456 570.516 103.072 579.092 95.84L576.212 93.152C567.316 100.064 561.812 109.856 561.812 122.208C561.812 134.56 567.316 144.352 576.212 151.264ZM614.587 151.264L617.467 148.576C608.891 141.344 604.923 132.96 604.923 122.208C604.923 111.456 608.891 103.072 617.467 95.84L614.587 93.152C605.691 100.064 600.187 109.856 600.187 122.208C600.187 134.56 605.691 144.352 614.587 151.264ZM728.048 140.768C731.44 140.768 733.488 140.128 736.368 138.912L735.024 135.008C732.912 135.968 730.992 136.416 729.2 136.416C725.488 136.416 723.056 134.496 723.056 129.952V94.432H706.736V98.72H717.808V129.568C717.808 136.928 721.456 140.768 728.048 140.768ZM827.813 151.264C836.709 144.352 842.213 134.56 842.213 122.208C842.213 109.856 836.709 100.064 827.813 93.152L824.933 95.84C833.509 103.072 837.477 111.456 837.477 122.208C837.477 132.96 833.509 141.344 824.933 148.576L827.813 151.264ZM899.315 114.016H926.835V110.048H899.315V114.016ZM899.315 127.712H926.835V123.744H899.315V127.712ZM939.098 136.928L962.97 120.736V116.768L939.098 100.576V105.632L958.362 118.624V118.88L939.098 131.872V136.928ZM1028.84 140.768C1037.74 140.768 1042.66 136.544 1042.66 131.488C1042.66 126.752 1040.17 124.128 1029.8 121.888C1023.46 120.544 1020.78 119.392 1020.78 116.704C1020.78 114.336 1022.63 112.224 1027.94 112.224C1031.91 112.224 1035.5 113.504 1038.38 115.488L1040.94 112.096C1037.86 109.984 1033.13 108.128 1028.39 108.128C1019.88 108.128 1015.46 111.968 1015.46 116.96C1015.46 121.632 1019.56 124.384 1027.62 126.048C1036.07 127.776 1037.35 129.44 1037.35 131.808C1037.35 134.432 1034.73 136.672 1029.48 136.672C1023.72 136.672 1019.56 135.008 1015.98 132.448L1013.54 135.904C1017.32 138.528 1022.76 140.768 1028.84 140.768ZM1069.52 140.768C1074.13 140.768 1078.42 138.976 1081.87 135.904L1079.5 132.512C1076.94 134.688 1073.74 136.416 1069.9 136.416C1062.74 136.416 1057.94 131.616 1057.94 124.512C1057.94 117.344 1062.86 112.48 1070.03 112.48C1073.3 112.48 1075.98 113.824 1078.54 116.064L1081.17 112.672C1078.61 110.176 1074.9 108.128 1069.84 108.128C1060.43 108.128 1052.5 114.08 1052.5 124.512C1052.5 134.816 1059.79 140.768 1069.52 140.768ZM1104.95 140.768C1113.14 140.768 1120.31 134.816 1120.31 124.512C1120.31 114.08 1113.14 108.128 1104.95 108.128C1096.76 108.128 1089.59 114.08 1089.59 124.512C1089.59 134.816 1096.76 140.768 1104.95 140.768ZM1104.95 136.416C1099 136.416 1095.03 131.616 1095.03 124.512C1095.03 117.344 1099 112.48 1104.95 112.48C1110.9 112.48 1114.87 117.344 1114.87 124.512C1114.87 131.616 1110.9 136.416 1104.95 136.416ZM1133.47 140H1138.72V121.76C1142.43 115.296 1146.85 112.864 1151.52 112.864C1153.95 112.864 1155.1 113.184 1157.28 113.952L1158.49 109.408C1156.57 108.448 1154.65 108.128 1152.35 108.128C1146.59 108.128 1141.73 111.264 1138.46 116.256H1138.27L1137.82 108.896H1133.47V140ZM1183.62 140.768C1188.61 140.768 1192.58 139.104 1195.65 137.056L1193.73 133.6C1190.92 135.392 1187.97 136.544 1184.26 136.544C1177.8 136.544 1172.8 132.96 1172.16 125.92H1196.68C1196.8 125.088 1196.93 123.936 1196.93 122.72C1196.93 113.952 1191.68 108.128 1182.72 108.128C1174.4 108.128 1166.85 114.272 1166.85 124.384C1166.85 134.752 1174.28 140.768 1183.62 140.768ZM1182.85 112.288C1188.16 112.288 1191.68 115.424 1192.13 121.824H1172.29C1173.25 115.68 1177.73 112.288 1182.85 112.288ZM1228.59 151.264L1231.47 148.576C1222.89 141.344 1218.92 132.96 1218.92 122.208C1218.92 111.456 1222.89 103.072 1231.47 95.84L1228.59 93.152C1219.69 100.064 1214.19 109.856 1214.19 122.208C1214.19 134.56 1219.69 144.352 1228.59 151.264ZM1342.05 140.768C1345.44 140.768 1347.49 140.128 1350.37 138.912L1349.02 135.008C1346.91 135.968 1344.99 136.416 1343.2 136.416C1339.49 136.416 1337.06 134.496 1337.06 129.952V94.432H1320.74V98.72H1331.81V129.568C1331.81 136.928 1335.46 140.768 1342.05 140.768ZM1441.81 151.264C1450.71 144.352 1456.21 134.56 1456.21 122.208C1456.21 109.856 1450.71 100.064 1441.81 93.152L1438.93 95.84C1447.51 103.072 1451.48 111.456 1451.48 122.208C1451.48 132.96 1447.51 141.344 1438.93 148.576L1441.81 151.264ZM1480.19 151.264C1489.08 144.352 1494.59 134.56 1494.59 122.208C1494.59 109.856 1489.08 100.064 1480.19 93.152L1477.31 95.84C1485.88 103.072 1489.85 111.456 1489.85 122.208C1489.85 132.96 1485.88 141.344 1477.31 148.576L1480.19 151.264Z" fill="#2F4858"/>
<path d="M260.7 140.768C263.58 140.768 265.884 138.592 265.884 135.392C265.884 132.128 263.58 129.952 260.7 129.952C257.82 129.952 255.516 132.128 255.516 135.392C255.516 138.592 257.82 140.768 260.7 140.768ZM295.363 140H300.547V113.184H313.603V108.896H300.547V106.08C300.547 101.024 302.851 97.952 308.419 97.952C311.107 97.952 313.091 98.272 315.651 99.424L316.867 95.456C313.923 94.24 310.979 93.664 307.907 93.664C299.331 93.664 295.363 98.656 295.363 106.272V108.896L286.467 109.216V113.184H295.363V140ZM337.45 140.768C345.642 140.768 352.81 134.816 352.81 124.512C352.81 114.08 345.642 108.128 337.45 108.128C329.258 108.128 322.09 114.08 322.09 124.512C322.09 134.816 329.258 140.768 337.45 140.768ZM337.45 136.416C331.498 136.416 327.53 131.616 327.53 124.512C327.53 117.344 331.498 112.48 337.45 112.48C343.402 112.48 347.37 117.344 347.37 124.512C347.37 131.616 343.402 136.416 337.45 136.416ZM365.969 140H371.217V121.76C374.929 115.296 379.345 112.864 384.017 112.864C386.449 112.864 387.601 113.184 389.777 113.952L390.993 109.408C389.073 108.448 387.153 108.128 384.849 108.128C379.089 108.128 374.225 111.264 370.961 116.256H370.769L370.321 108.896H365.969V140ZM402.296 140H428.92V135.456H407.672V120.224H425.08V115.68H407.672V102.496H428.28V98.016H402.296V140ZM449.119 140.768C453.535 140.768 457.951 138.464 461.407 135.776H461.599L462.047 140H466.335V120.928C466.335 113.184 462.239 108.128 453.727 108.128C448.287 108.128 443.039 110.56 439.903 112.608L441.951 116.192C444.831 114.4 448.799 112.48 452.831 112.48C458.847 112.48 460.959 116.064 461.087 120.288C445.023 121.568 438.559 124.96 438.559 131.936C438.559 137.504 443.295 140.768 449.119 140.768ZM450.527 136.544C446.943 136.544 443.679 135.072 443.679 131.552C443.679 127.456 447.775 124.832 461.087 123.744V131.936C457.567 134.88 454.047 136.544 450.527 136.544ZM493.894 140.768C498.502 140.768 502.79 138.976 506.246 135.904L503.878 132.512C501.318 134.688 498.118 136.416 494.278 136.416C487.11 136.416 482.31 131.616 482.31 124.512C482.31 117.344 487.238 112.48 494.406 112.48C497.67 112.48 500.358 113.824 502.918 116.064L505.542 112.672C502.982 110.176 499.27 108.128 494.214 108.128C484.806 108.128 476.87 114.08 476.87 124.512C476.87 134.816 484.166 140.768 493.894 140.768ZM516.077 140H521.325V118.304C524.973 114.528 527.469 112.672 531.181 112.672C536.301 112.672 538.349 115.488 538.349 121.376V140H543.597V120.672C543.597 112.48 540.205 108.128 532.845 108.128C527.981 108.128 524.397 110.752 521.197 114.208H521.005L521.325 106.848V94.432H516.077V140Z" fill="#B24E72"/>
<path d="M646 161L801 161V316H646V161Z" fill="white"/>
<rect x="646" y="161" width="155" height="155" fill="#2F4858"/>
<path d="M752.321 242.958V269.358C748.865 271.854 745.169 273.726 741.233 274.974C737.329 276.19 733.041 276.798 728.369 276.798C722.833 276.798 717.841 275.95 713.393 274.254C708.945 272.526 705.137 270.126 701.969 267.054C698.833 263.95 696.417 260.238 694.721 255.918C693.025 251.598 692.177 246.846 692.177 241.662C692.177 236.414 692.993 231.63 694.625 227.31C696.289 222.99 698.641 219.294 701.681 216.222C704.721 213.118 708.417 210.718 712.769 209.022C717.121 207.326 721.985 206.478 727.361 206.478C730.081 206.478 732.609 206.686 734.945 207.102C737.281 207.486 739.441 208.062 741.425 208.83C743.409 209.566 745.249 210.478 746.945 211.566C748.641 212.622 750.225 213.822 751.697 215.166L749.057 219.39C748.641 220.03 748.097 220.446 747.425 220.638C746.785 220.798 746.065 220.638 745.265 220.158C744.497 219.71 743.617 219.166 742.625 218.526C741.633 217.886 740.417 217.278 738.977 216.702C737.569 216.094 735.889 215.582 733.937 215.166C732.017 214.75 729.729 214.542 727.073 214.542C723.201 214.542 719.697 215.182 716.561 216.462C713.425 217.71 710.753 219.518 708.545 221.886C706.337 224.222 704.641 227.07 703.457 230.43C702.273 233.758 701.681 237.502 701.681 241.662C701.681 245.982 702.289 249.854 703.505 253.278C704.753 256.67 706.513 259.566 708.785 261.966C711.089 264.334 713.873 266.142 717.137 267.39C720.401 268.638 724.065 269.262 728.129 269.262C731.329 269.262 734.161 268.91 736.625 268.206C739.121 267.47 741.553 266.462 743.921 265.182V250.062H733.217C732.609 250.062 732.113 249.886 731.729 249.534C731.377 249.182 731.201 248.75 731.201 248.238V242.958H752.321Z" fill="white"/>
<rect x="646" y="382" width="155" height="155" fill="#4D8DC9"/>
<path d="M740.633 438.998C740.345 439.478 740.025 439.846 739.673 440.102C739.353 440.326 738.953 440.438 738.473 440.438C737.929 440.438 737.289 440.166 736.553 439.622C735.817 439.078 734.889 438.486 733.769 437.846C732.681 437.174 731.353 436.566 729.785 436.022C728.249 435.478 726.377 435.206 724.169 435.206C722.089 435.206 720.249 435.494 718.649 436.07C717.081 436.614 715.753 437.366 714.665 438.326C713.609 439.286 712.809 440.422 712.265 441.734C711.721 443.014 711.449 444.406 711.449 445.91C711.449 447.83 711.913 449.43 712.841 450.71C713.801 451.958 715.049 453.03 716.585 453.926C718.153 454.822 719.913 455.606 721.865 456.278C723.849 456.918 725.865 457.59 727.913 458.294C729.993 458.998 732.009 459.798 733.961 460.694C735.945 461.558 737.705 462.662 739.241 464.006C740.809 465.35 742.057 466.998 742.985 468.95C743.945 470.902 744.425 473.302 744.425 476.15C744.425 479.158 743.913 481.99 742.889 484.646C741.865 487.27 740.361 489.558 738.377 491.51C736.425 493.462 734.009 494.998 731.129 496.118C728.281 497.238 725.033 497.798 721.385 497.798C716.905 497.798 712.841 496.998 709.193 495.398C705.545 493.766 702.425 491.574 699.833 488.822L702.521 484.406C702.777 484.054 703.081 483.766 703.433 483.542C703.817 483.286 704.233 483.158 704.681 483.158C705.097 483.158 705.561 483.334 706.073 483.686C706.617 484.006 707.225 484.422 707.897 484.934C708.569 485.446 709.337 486.006 710.201 486.614C711.065 487.222 712.041 487.782 713.129 488.294C714.249 488.806 715.513 489.238 716.921 489.59C718.329 489.91 719.913 490.07 721.673 490.07C723.881 490.07 725.849 489.766 727.577 489.158C729.305 488.55 730.761 487.702 731.945 486.614C733.161 485.494 734.089 484.166 734.729 482.63C735.369 481.094 735.689 479.382 735.689 477.494C735.689 475.414 735.209 473.718 734.249 472.406C733.321 471.062 732.089 469.942 730.553 469.046C729.017 468.15 727.257 467.398 725.273 466.79C723.289 466.15 721.273 465.51 719.225 464.87C717.177 464.198 715.161 463.43 713.177 462.566C711.193 461.702 709.433 460.582 707.897 459.206C706.361 457.83 705.113 456.118 704.153 454.07C703.225 451.99 702.761 449.43 702.761 446.39C702.761 443.958 703.225 441.606 704.153 439.334C705.113 437.062 706.489 435.046 708.281 433.286C710.105 431.526 712.329 430.118 714.953 429.062C717.609 428.006 720.649 427.478 724.073 427.478C727.913 427.478 731.401 428.086 734.537 429.302C737.705 430.518 740.489 432.278 742.889 434.582L740.633 438.998Z" fill="white"/>
<rect x="646.5" y="603.5" width="154" height="153" fill="#44BC96"/>
<path d="M727.387 690.109V717.517H718.075V690.109L692.875 648.733H701.035C701.867 648.733 702.523 648.941 703.003 649.357C703.483 649.741 703.899 650.253 704.251 650.893L719.995 677.629C720.571 678.749 721.099 679.805 721.579 680.797C722.059 681.757 722.475 682.733 722.827 683.725C723.179 682.733 723.579 681.757 724.027 680.797C724.475 679.805 724.971 678.749 725.515 677.629L741.211 650.893C741.499 650.349 741.899 649.853 742.411 649.405C742.923 648.957 743.579 648.733 744.379 648.733H752.587L727.387 690.109Z" fill="white"/>
<path d="M646 823H801V978H646V823Z" fill="#E3848B"/>
<rect x="646" y="823" width="155" height="155" fill="#E3848B"/>
<path d="M748.525 872.702C748.525 873.758 748.205 874.782 747.565 875.774L708.637 930.446H747.949V938.03H696.397V934.382C696.397 933.87 696.477 933.39 696.637 932.942C696.829 932.494 697.053 932.062 697.309 931.646L736.333 876.83H698.221V869.246H748.525V872.702Z" fill="white"/>
</svg>
