<svg width="1920" height="1080" viewBox="0 0 1920 1080" fill="none" xmlns="http://www.w3.org/2000/svg">
<rect width="1920" height="1080" fill="white"/>
<g opacity="0.3">
<path d="M646 161L801 161V316H646V161Z" fill="white"/>
<rect x="646" y="161" width="155" height="155" fill="#2F4858"/>
<path d="M752.321 242.958V269.358C748.865 271.854 745.169 273.726 741.233 274.974C737.329 276.19 733.041 276.798 728.369 276.798C722.833 276.798 717.841 275.95 713.393 274.254C708.945 272.526 705.137 270.126 701.969 267.054C698.833 263.95 696.417 260.238 694.721 255.918C693.025 251.598 692.177 246.846 692.177 241.662C692.177 236.414 692.993 231.63 694.625 227.31C696.289 222.99 698.641 219.294 701.681 216.222C704.721 213.118 708.417 210.718 712.769 209.022C717.121 207.326 721.985 206.478 727.361 206.478C730.081 206.478 732.609 206.686 734.945 207.102C737.281 207.486 739.441 208.062 741.425 208.83C743.409 209.566 745.249 210.478 746.945 211.566C748.641 212.622 750.225 213.822 751.697 215.166L749.057 219.39C748.641 220.03 748.097 220.446 747.425 220.638C746.785 220.798 746.065 220.638 745.265 220.158C744.497 219.71 743.617 219.166 742.625 218.526C741.633 217.886 740.417 217.278 738.977 216.702C737.569 216.094 735.889 215.582 733.937 215.166C732.017 214.75 729.729 214.542 727.073 214.542C723.201 214.542 719.697 215.182 716.561 216.462C713.425 217.71 710.753 219.518 708.545 221.886C706.337 224.222 704.641 227.07 703.457 230.43C702.273 233.758 701.681 237.502 701.681 241.662C701.681 245.982 702.289 249.854 703.505 253.278C704.753 256.67 706.513 259.566 708.785 261.966C711.089 264.334 713.873 266.142 717.137 267.39C720.401 268.638 724.065 269.262 728.129 269.262C731.329 269.262 734.161 268.91 736.625 268.206C739.121 267.47 741.553 266.462 743.921 265.182V250.062H733.217C732.609 250.062 732.113 249.886 731.729 249.534C731.377 249.182 731.201 248.75 731.201 248.238V242.958H752.321Z" fill="white"/>
</g>
<g opacity="0.3">
<rect x="646" y="382" width="155" height="155" fill="#4D8DC9"/>
<path d="M740.633 438.998C740.345 439.478 740.025 439.846 739.673 440.102C739.353 440.326 738.953 440.438 738.473 440.438C737.929 440.438 737.289 440.166 736.553 439.622C735.817 439.078 734.889 438.486 733.769 437.846C732.681 437.174 731.353 436.566 729.785 436.022C728.249 435.478 726.377 435.206 724.169 435.206C722.089 435.206 720.249 435.494 718.649 436.07C717.081 436.614 715.753 437.366 714.665 438.326C713.609 439.286 712.809 440.422 712.265 441.734C711.721 443.014 711.449 444.406 711.449 445.91C711.449 447.83 711.913 449.43 712.841 450.71C713.801 451.958 715.049 453.03 716.585 453.926C718.153 454.822 719.913 455.606 721.865 456.278C723.849 456.918 725.865 457.59 727.913 458.294C729.993 458.998 732.009 459.798 733.961 460.694C735.945 461.558 737.705 462.662 739.241 464.006C740.809 465.35 742.057 466.998 742.985 468.95C743.945 470.902 744.425 473.302 744.425 476.15C744.425 479.158 743.913 481.99 742.889 484.646C741.865 487.27 740.361 489.558 738.377 491.51C736.425 493.462 734.009 494.998 731.129 496.118C728.281 497.238 725.033 497.798 721.385 497.798C716.905 497.798 712.841 496.998 709.193 495.398C705.545 493.766 702.425 491.574 699.833 488.822L702.521 484.406C702.777 484.054 703.081 483.766 703.433 483.542C703.817 483.286 704.233 483.158 704.681 483.158C705.097 483.158 705.561 483.334 706.073 483.686C706.617 484.006 707.225 484.422 707.897 484.934C708.569 485.446 709.337 486.006 710.201 486.614C711.065 487.222 712.041 487.782 713.129 488.294C714.249 488.806 715.513 489.238 716.921 489.59C718.329 489.91 719.913 490.07 721.673 490.07C723.881 490.07 725.849 489.766 727.577 489.158C729.305 488.55 730.761 487.702 731.945 486.614C733.161 485.494 734.089 484.166 734.729 482.63C735.369 481.094 735.689 479.382 735.689 477.494C735.689 475.414 735.209 473.718 734.249 472.406C733.321 471.062 732.089 469.942 730.553 469.046C729.017 468.15 727.257 467.398 725.273 466.79C723.289 466.15 721.273 465.51 719.225 464.87C717.177 464.198 715.161 463.43 713.177 462.566C711.193 461.702 709.433 460.582 707.897 459.206C706.361 457.83 705.113 456.118 704.153 454.07C703.225 451.99 702.761 449.43 702.761 446.39C702.761 443.958 703.225 441.606 704.153 439.334C705.113 437.062 706.489 435.046 708.281 433.286C710.105 431.526 712.329 430.118 714.953 429.062C717.609 428.006 720.649 427.478 724.073 427.478C727.913 427.478 731.401 428.086 734.537 429.302C737.705 430.518 740.489 432.278 742.889 434.582L740.633 438.998Z" fill="white"/>
</g>
<rect x="646.5" y="603.5" width="154" height="153" fill="#44BC96"/>
<path d="M727.387 690.109V717.517H718.075V690.109L692.875 648.733H701.035C701.867 648.733 702.523 648.941 703.003 649.357C703.483 649.741 703.899 650.253 704.251 650.893L719.995 677.629C720.571 678.749 721.099 679.805 721.579 680.797C722.059 681.757 722.475 682.733 722.827 683.725C723.179 682.733 723.579 681.757 724.027 680.797C724.475 679.805 724.971 678.749 725.515 677.629L741.211 650.893C741.499 650.349 741.899 649.853 742.411 649.405C742.923 648.957 743.579 648.733 744.379 648.733H752.587L727.387 690.109Z" fill="white"/>
<path d="M646 823H801V978H646V823Z" fill="#E3848B"/>
<rect x="646" y="823" width="155" height="155" fill="#E3848B"/>
<path d="M748.525 872.702C748.525 873.758 748.205 874.782 747.565 875.774L708.637 930.446H747.949V938.03H696.397V934.382C696.397 933.87 696.477 933.39 696.637 932.942C696.829 932.494 697.053 932.062 697.309 931.646L736.333 876.83H698.221V869.246H748.525V872.702Z" fill="white"/>
<g opacity="0.3">
<path d="M1258 160L1413 160V315H1258V160Z" fill="white"/>
<rect x="1258" y="160" width="155" height="155" fill="#2F4858"/>
<path d="M1364.32 241.958V268.358C1360.87 270.854 1357.17 272.726 1353.23 273.974C1349.33 275.19 1345.04 275.798 1340.37 275.798C1334.83 275.798 1329.84 274.95 1325.39 273.254C1320.95 271.526 1317.14 269.126 1313.97 266.054C1310.83 262.95 1308.42 259.238 1306.72 254.918C1305.03 250.598 1304.18 245.846 1304.18 240.662C1304.18 235.414 1304.99 230.63 1306.63 226.31C1308.29 221.99 1310.64 218.294 1313.68 215.222C1316.72 212.118 1320.42 209.718 1324.77 208.022C1329.12 206.326 1333.99 205.478 1339.36 205.478C1342.08 205.478 1344.61 205.686 1346.95 206.102C1349.28 206.486 1351.44 207.062 1353.43 207.83C1355.41 208.566 1357.25 209.478 1358.95 210.566C1360.64 211.622 1362.23 212.822 1363.7 214.166L1361.06 218.39C1360.64 219.03 1360.1 219.446 1359.43 219.638C1358.79 219.798 1358.07 219.638 1357.27 219.158C1356.5 218.71 1355.62 218.166 1354.63 217.526C1353.63 216.886 1352.42 216.278 1350.98 215.702C1349.57 215.094 1347.89 214.582 1345.94 214.166C1344.02 213.75 1341.73 213.542 1339.07 213.542C1335.2 213.542 1331.7 214.182 1328.56 215.462C1325.43 216.71 1322.75 218.518 1320.55 220.886C1318.34 223.222 1316.64 226.07 1315.46 229.43C1314.27 232.758 1313.68 236.502 1313.68 240.662C1313.68 244.982 1314.29 248.854 1315.51 252.278C1316.75 255.67 1318.51 258.566 1320.79 260.966C1323.09 263.334 1325.87 265.142 1329.14 266.39C1332.4 267.638 1336.07 268.262 1340.13 268.262C1343.33 268.262 1346.16 267.91 1348.63 267.206C1351.12 266.47 1353.55 265.462 1355.92 264.182V249.062H1345.22C1344.61 249.062 1344.11 248.886 1343.73 248.534C1343.38 248.182 1343.2 247.75 1343.2 247.238V241.958H1364.32Z" fill="white"/>
</g>
<g opacity="0.3">
<rect x="1258" y="381" width="155" height="155" fill="#4D8DC9"/>
<path d="M1352.63 437.998C1352.35 438.478 1352.03 438.846 1351.67 439.102C1351.35 439.326 1350.95 439.438 1350.47 439.438C1349.93 439.438 1349.29 439.166 1348.55 438.622C1347.82 438.078 1346.89 437.486 1345.77 436.846C1344.68 436.174 1343.35 435.566 1341.79 435.022C1340.25 434.478 1338.38 434.206 1336.17 434.206C1334.09 434.206 1332.25 434.494 1330.65 435.07C1329.08 435.614 1327.75 436.366 1326.67 437.326C1325.61 438.286 1324.81 439.422 1324.27 440.734C1323.72 442.014 1323.45 443.406 1323.45 444.91C1323.45 446.83 1323.91 448.43 1324.84 449.71C1325.8 450.958 1327.05 452.03 1328.59 452.926C1330.15 453.822 1331.91 454.606 1333.87 455.278C1335.85 455.918 1337.87 456.59 1339.91 457.294C1341.99 457.998 1344.01 458.798 1345.96 459.694C1347.95 460.558 1349.71 461.662 1351.24 463.006C1352.81 464.35 1354.06 465.998 1354.99 467.95C1355.95 469.902 1356.43 472.302 1356.43 475.15C1356.43 478.158 1355.91 480.99 1354.89 483.646C1353.87 486.27 1352.36 488.558 1350.38 490.51C1348.43 492.462 1346.01 493.998 1343.13 495.118C1340.28 496.238 1337.03 496.798 1333.39 496.798C1328.91 496.798 1324.84 495.998 1321.19 494.398C1317.55 492.766 1314.43 490.574 1311.83 487.822L1314.52 483.406C1314.78 483.054 1315.08 482.766 1315.43 482.542C1315.82 482.286 1316.23 482.158 1316.68 482.158C1317.1 482.158 1317.56 482.334 1318.07 482.686C1318.62 483.006 1319.23 483.422 1319.9 483.934C1320.57 484.446 1321.34 485.006 1322.2 485.614C1323.07 486.222 1324.04 486.782 1325.13 487.294C1326.25 487.806 1327.51 488.238 1328.92 488.59C1330.33 488.91 1331.91 489.07 1333.67 489.07C1335.88 489.07 1337.85 488.766 1339.58 488.158C1341.31 487.55 1342.76 486.702 1343.95 485.614C1345.16 484.494 1346.09 483.166 1346.73 481.63C1347.37 480.094 1347.69 478.382 1347.69 476.494C1347.69 474.414 1347.21 472.718 1346.25 471.406C1345.32 470.062 1344.09 468.942 1342.55 468.046C1341.02 467.15 1339.26 466.398 1337.27 465.79C1335.29 465.15 1333.27 464.51 1331.23 463.87C1329.18 463.198 1327.16 462.43 1325.18 461.566C1323.19 460.702 1321.43 459.582 1319.9 458.206C1318.36 456.83 1317.11 455.118 1316.15 453.07C1315.23 450.99 1314.76 448.43 1314.76 445.39C1314.76 442.958 1315.23 440.606 1316.15 438.334C1317.11 436.062 1318.49 434.046 1320.28 432.286C1322.11 430.526 1324.33 429.118 1326.95 428.062C1329.61 427.006 1332.65 426.478 1336.07 426.478C1339.91 426.478 1343.4 427.086 1346.54 428.302C1349.71 429.518 1352.49 431.278 1354.89 433.582L1352.63 437.998Z" fill="white"/>
</g>
<rect x="1258.5" y="602.5" width="154" height="153" fill="#44BC96"/>
<path d="M1339.39 689.109V716.517H1330.08V689.109L1304.88 647.733H1313.04C1313.87 647.733 1314.52 647.941 1315 648.357C1315.48 648.741 1315.9 649.253 1316.25 649.893L1332 676.629C1332.57 677.749 1333.1 678.805 1333.58 679.797C1334.06 680.757 1334.48 681.733 1334.83 682.725C1335.18 681.733 1335.58 680.757 1336.03 679.797C1336.48 678.805 1336.97 677.749 1337.52 676.629L1353.21 649.893C1353.5 649.349 1353.9 648.853 1354.41 648.405C1354.92 647.957 1355.58 647.733 1356.38 647.733H1364.59L1339.39 689.109Z" fill="white"/>
<path d="M1258 822H1413V977H1258V822Z" fill="#E3848B"/>
<rect x="1258" y="822" width="155" height="155" fill="#E3848B"/>
<path d="M1360.52 871.702C1360.52 872.758 1360.2 873.782 1359.56 874.774L1320.64 929.446H1359.95V937.03H1308.4V933.382C1308.4 932.87 1308.48 932.39 1308.64 931.942C1308.83 931.494 1309.05 931.062 1309.31 930.646L1348.33 875.83H1310.22V868.246H1360.52V871.702Z" fill="white"/>
<rect x="1653.5" y="160" width="154" height="153" fill="#44BC96"/>
<path d="M1753.78 205.233V209.073C1753.78 210.161 1753.65 211.057 1753.39 211.761C1753.17 212.465 1752.94 213.057 1752.72 213.537L1724.21 270.993C1723.79 271.825 1723.22 272.545 1722.48 273.153C1721.74 273.729 1720.77 274.017 1719.55 274.017H1713.41L1742.3 217.281C1742.72 216.481 1743.15 215.745 1743.6 215.073C1744.05 214.401 1744.53 213.761 1745.04 213.153H1709.14C1708.59 213.153 1708.11 212.945 1707.7 212.529C1707.28 212.081 1707.07 211.585 1707.07 211.041V205.233H1753.78Z" fill="white"/>
<path d="M114.048 697.768C117.44 697.768 119.488 697.128 122.368 695.912L121.024 692.008C118.912 692.968 116.992 693.416 115.2 693.416C111.488 693.416 109.056 691.496 109.056 686.952V651.432H92.736V655.72H103.808V686.568C103.808 693.928 107.456 697.768 114.048 697.768ZM151.591 697.768C155.495 697.768 158.503 696.936 161.319 695.912L160.167 692.072C157.927 692.904 155.623 693.48 152.679 693.48C146.663 693.48 144.807 690.536 144.807 684.968V670.184H160.103V665.896H144.807V655.912H140.455L139.751 665.896L130.791 666.216V670.184H139.559V684.904C139.559 692.584 142.503 697.768 151.591 697.768ZM174.094 697H179.342V678.76C183.054 672.296 187.47 669.864 192.142 669.864C194.574 669.864 195.726 670.184 197.902 670.952L199.118 666.408C197.198 665.448 195.278 665.128 192.974 665.128C187.214 665.128 182.35 668.264 179.086 673.256H178.894L178.446 665.896H174.094V697ZM222.965 697.768C231.861 697.768 236.789 693.544 236.789 688.488C236.789 683.752 234.293 681.128 223.925 678.888C217.589 677.544 214.901 676.392 214.901 673.704C214.901 671.336 216.757 669.224 222.069 669.224C226.037 669.224 229.621 670.504 232.501 672.488L235.061 669.096C231.989 666.984 227.253 665.128 222.517 665.128C214.005 665.128 209.589 668.968 209.589 673.96C209.589 678.632 213.685 681.384 221.749 683.048C230.197 684.776 231.477 686.44 231.477 688.808C231.477 691.432 228.853 693.672 223.605 693.672C217.845 693.672 213.685 692.008 210.101 689.448L207.669 692.904C211.445 695.528 216.885 697.768 222.965 697.768ZM576.212 708.264L579.092 705.576C570.516 698.344 566.548 689.96 566.548 679.208C566.548 668.456 570.516 660.072 579.092 652.84L576.212 650.152C567.316 657.064 561.812 666.856 561.812 679.208C561.812 691.56 567.316 701.352 576.212 708.264ZM614.587 708.264L617.467 705.576C608.891 698.344 604.923 689.96 604.923 679.208C604.923 668.456 608.891 660.072 617.467 652.84L614.587 650.152C605.691 657.064 600.187 666.856 600.187 679.208C600.187 691.56 605.691 701.352 614.587 708.264ZM827.813 708.264C836.709 701.352 842.213 691.56 842.213 679.208C842.213 666.856 836.709 657.064 827.813 650.152L824.933 652.84C833.509 660.072 837.477 668.456 837.477 679.208C837.477 689.96 833.509 698.344 824.933 705.576L827.813 708.264ZM899.315 671.016H926.835V667.048H899.315V671.016ZM899.315 684.712H926.835V680.744H899.315V684.712ZM939.098 693.928L962.97 677.736V673.768L939.098 657.576V662.632L958.362 675.624V675.88L939.098 688.872V693.928ZM1028.84 697.768C1037.74 697.768 1042.66 693.544 1042.66 688.488C1042.66 683.752 1040.17 681.128 1029.8 678.888C1023.46 677.544 1020.78 676.392 1020.78 673.704C1020.78 671.336 1022.63 669.224 1027.94 669.224C1031.91 669.224 1035.5 670.504 1038.38 672.488L1040.94 669.096C1037.86 666.984 1033.13 665.128 1028.39 665.128C1019.88 665.128 1015.46 668.968 1015.46 673.96C1015.46 678.632 1019.56 681.384 1027.62 683.048C1036.07 684.776 1037.35 686.44 1037.35 688.808C1037.35 691.432 1034.73 693.672 1029.48 693.672C1023.72 693.672 1019.56 692.008 1015.98 689.448L1013.54 692.904C1017.32 695.528 1022.76 697.768 1028.84 697.768ZM1069.52 697.768C1074.13 697.768 1078.42 695.976 1081.87 692.904L1079.5 689.512C1076.94 691.688 1073.74 693.416 1069.9 693.416C1062.74 693.416 1057.94 688.616 1057.94 681.512C1057.94 674.344 1062.86 669.48 1070.03 669.48C1073.3 669.48 1075.98 670.824 1078.54 673.064L1081.17 669.672C1078.61 667.176 1074.9 665.128 1069.84 665.128C1060.43 665.128 1052.5 671.08 1052.5 681.512C1052.5 691.816 1059.79 697.768 1069.52 697.768ZM1104.95 697.768C1113.14 697.768 1120.31 691.816 1120.31 681.512C1120.31 671.08 1113.14 665.128 1104.95 665.128C1096.76 665.128 1089.59 671.08 1089.59 681.512C1089.59 691.816 1096.76 697.768 1104.95 697.768ZM1104.95 693.416C1099 693.416 1095.03 688.616 1095.03 681.512C1095.03 674.344 1099 669.48 1104.95 669.48C1110.9 669.48 1114.87 674.344 1114.87 681.512C1114.87 688.616 1110.9 693.416 1104.95 693.416ZM1133.47 697H1138.72V678.76C1142.43 672.296 1146.85 669.864 1151.52 669.864C1153.95 669.864 1155.1 670.184 1157.28 670.952L1158.49 666.408C1156.57 665.448 1154.65 665.128 1152.35 665.128C1146.59 665.128 1141.73 668.264 1138.46 673.256H1138.27L1137.82 665.896H1133.47V697ZM1183.62 697.768C1188.61 697.768 1192.58 696.104 1195.65 694.056L1193.73 690.6C1190.92 692.392 1187.97 693.544 1184.26 693.544C1177.8 693.544 1172.8 689.96 1172.16 682.92H1196.68C1196.8 682.088 1196.93 680.936 1196.93 679.72C1196.93 670.952 1191.68 665.128 1182.72 665.128C1174.4 665.128 1166.85 671.272 1166.85 681.384C1166.85 691.752 1174.28 697.768 1183.62 697.768ZM1182.85 669.288C1188.16 669.288 1191.68 672.424 1192.13 678.824H1172.29C1173.25 672.68 1177.73 669.288 1182.85 669.288ZM1228.59 708.264L1231.47 705.576C1222.89 698.344 1218.92 689.96 1218.92 679.208C1218.92 668.456 1222.89 660.072 1231.47 652.84L1228.59 650.152C1219.69 657.064 1214.19 666.856 1214.19 679.208C1214.19 691.56 1219.69 701.352 1228.59 708.264ZM1441.81 708.264C1450.71 701.352 1456.21 691.56 1456.21 679.208C1456.21 666.856 1450.71 657.064 1441.81 650.152L1438.93 652.84C1447.51 660.072 1451.48 668.456 1451.48 679.208C1451.48 689.96 1447.51 698.344 1438.93 705.576L1441.81 708.264ZM1480.19 708.264C1489.08 701.352 1494.59 691.56 1494.59 679.208C1494.59 666.856 1489.08 657.064 1480.19 650.152L1477.31 652.84C1485.88 660.072 1489.85 668.456 1489.85 679.208C1489.85 689.96 1485.88 698.344 1477.31 705.576L1480.19 708.264Z" fill="#2F4858"/>
<path d="M260.7 697.768C263.58 697.768 265.884 695.592 265.884 692.392C265.884 689.128 263.58 686.952 260.7 686.952C257.82 686.952 255.516 689.128 255.516 692.392C255.516 695.592 257.82 697.768 260.7 697.768ZM295.363 697H300.547V670.184H313.603V665.896H300.547V663.08C300.547 658.024 302.851 654.952 308.419 654.952C311.107 654.952 313.091 655.272 315.651 656.424L316.867 652.456C313.923 651.24 310.979 650.664 307.907 650.664C299.331 650.664 295.363 655.656 295.363 663.272V665.896L286.467 666.216V670.184H295.363V697ZM337.45 697.768C345.642 697.768 352.81 691.816 352.81 681.512C352.81 671.08 345.642 665.128 337.45 665.128C329.258 665.128 322.09 671.08 322.09 681.512C322.09 691.816 329.258 697.768 337.45 697.768ZM337.45 693.416C331.498 693.416 327.53 688.616 327.53 681.512C327.53 674.344 331.498 669.48 337.45 669.48C343.402 669.48 347.37 674.344 347.37 681.512C347.37 688.616 343.402 693.416 337.45 693.416ZM365.969 697H371.217V678.76C374.929 672.296 379.345 669.864 384.017 669.864C386.449 669.864 387.601 670.184 389.777 670.952L390.993 666.408C389.073 665.448 387.153 665.128 384.849 665.128C379.089 665.128 374.225 668.264 370.961 673.256H370.769L370.321 665.896H365.969V697ZM402.296 697H428.92V692.456H407.672V677.224H425.08V672.68H407.672V659.496H428.28V655.016H402.296V697ZM449.119 697.768C453.535 697.768 457.951 695.464 461.407 692.776H461.599L462.047 697H466.335V677.928C466.335 670.184 462.239 665.128 453.727 665.128C448.287 665.128 443.039 667.56 439.903 669.608L441.951 673.192C444.831 671.4 448.799 669.48 452.831 669.48C458.847 669.48 460.959 673.064 461.087 677.288C445.023 678.568 438.559 681.96 438.559 688.936C438.559 694.504 443.295 697.768 449.119 697.768ZM450.527 693.544C446.943 693.544 443.679 692.072 443.679 688.552C443.679 684.456 447.775 681.832 461.087 680.744V688.936C457.567 691.88 454.047 693.544 450.527 693.544ZM493.894 697.768C498.502 697.768 502.79 695.976 506.246 692.904L503.878 689.512C501.318 691.688 498.118 693.416 494.278 693.416C487.11 693.416 482.31 688.616 482.31 681.512C482.31 674.344 487.238 669.48 494.406 669.48C497.67 669.48 500.358 670.824 502.918 673.064L505.542 669.672C502.982 667.176 499.27 665.128 494.214 665.128C484.806 665.128 476.87 671.08 476.87 681.512C476.87 691.816 484.166 697.768 493.894 697.768ZM516.077 697H521.325V675.304C524.973 671.528 527.469 669.672 531.181 669.672C536.301 669.672 538.349 672.488 538.349 678.376V697H543.597V677.672C543.597 669.48 540.205 665.128 532.845 665.128C527.981 665.128 524.397 667.752 521.197 671.208H521.005L521.325 663.848V651.432H516.077V697Z" fill="#B24E72"/>
<path d="M1678.49 100.928C1678.23 101.397 1677.84 101.632 1677.3 101.632C1676.98 101.632 1676.62 101.515 1676.21 101.28C1675.81 101.045 1675.31 100.789 1674.71 100.512C1674.13 100.213 1673.44 99.9467 1672.63 99.712C1671.82 99.456 1670.86 99.328 1669.75 99.328C1668.79 99.328 1667.93 99.456 1667.16 99.712C1666.39 99.9467 1665.73 100.277 1665.17 100.704C1664.64 101.131 1664.22 101.632 1663.93 102.208C1663.65 102.763 1663.51 103.371 1663.51 104.032C1663.51 104.864 1663.74 105.557 1664.21 106.112C1664.7 106.667 1665.34 107.147 1666.13 107.552C1666.92 107.957 1667.82 108.32 1668.82 108.64C1669.82 108.939 1670.85 109.269 1671.89 109.632C1672.96 109.973 1674 110.357 1675 110.784C1676 111.211 1676.9 111.744 1677.69 112.384C1678.48 113.024 1679.1 113.813 1679.57 114.752C1680.06 115.669 1680.31 116.779 1680.31 118.08C1680.31 119.573 1680.04 120.96 1679.51 122.24C1678.98 123.499 1678.19 124.597 1677.14 125.536C1676.1 126.453 1674.82 127.179 1673.3 127.712C1671.79 128.245 1670.04 128.512 1668.05 128.512C1665.79 128.512 1663.74 128.149 1661.91 127.424C1660.08 126.677 1658.52 125.728 1657.24 124.576L1658.58 122.4C1658.75 122.123 1658.96 121.909 1659.19 121.76C1659.42 121.611 1659.72 121.536 1660.09 121.536C1660.47 121.536 1660.88 121.685 1661.3 121.984C1661.73 122.283 1662.24 122.613 1662.84 122.976C1663.46 123.339 1664.2 123.669 1665.08 123.968C1665.95 124.267 1667.04 124.416 1668.34 124.416C1669.45 124.416 1670.42 124.277 1671.25 124C1672.09 123.701 1672.78 123.307 1673.33 122.816C1673.89 122.325 1674.29 121.76 1674.55 121.12C1674.83 120.48 1674.97 119.797 1674.97 119.072C1674.97 118.176 1674.72 117.44 1674.23 116.864C1673.76 116.267 1673.13 115.765 1672.34 115.36C1671.55 114.933 1670.65 114.571 1669.62 114.272C1668.62 113.952 1667.58 113.621 1666.52 113.28C1665.47 112.939 1664.44 112.555 1663.41 112.128C1662.41 111.68 1661.52 111.125 1660.73 110.464C1659.94 109.803 1659.3 108.992 1658.81 108.032C1658.34 107.051 1658.1 105.867 1658.1 104.48C1658.1 103.243 1658.36 102.059 1658.87 100.928C1659.38 99.776 1660.13 98.7733 1661.11 97.92C1662.09 97.0453 1663.3 96.352 1664.73 95.84C1666.16 95.328 1667.79 95.072 1669.62 95.072C1671.76 95.072 1673.66 95.4133 1675.35 96.096C1677.06 96.7573 1678.53 97.6747 1679.77 98.848L1678.49 100.928ZM1709.85 101.344C1709.68 101.579 1709.51 101.76 1709.34 101.888C1709.17 102.016 1708.94 102.08 1708.64 102.08C1708.32 102.08 1707.97 101.952 1707.58 101.696C1707.2 101.419 1706.72 101.12 1706.14 100.8C1705.59 100.48 1704.89 100.192 1704.06 99.936C1703.25 99.6587 1702.25 99.52 1701.05 99.52C1699.45 99.52 1698.05 99.808 1696.83 100.384C1695.61 100.939 1694.59 101.749 1693.76 102.816C1692.95 103.883 1692.33 105.173 1691.9 106.688C1691.5 108.203 1691.29 109.899 1691.29 111.776C1691.29 113.739 1691.52 115.488 1691.97 117.024C1692.41 118.539 1693.04 119.819 1693.85 120.864C1694.69 121.888 1695.68 122.677 1696.83 123.232C1698 123.765 1699.31 124.032 1700.77 124.032C1702.15 124.032 1703.29 123.872 1704.19 123.552C1705.09 123.211 1705.82 122.837 1706.4 122.432C1706.99 122.027 1707.49 121.664 1707.87 121.344C1708.27 121.003 1708.67 120.832 1709.05 120.832C1709.52 120.832 1709.89 121.013 1710.14 121.376L1711.74 123.456C1711.04 124.331 1710.24 125.077 1709.34 125.696C1708.45 126.315 1707.47 126.837 1706.43 127.264C1705.41 127.669 1704.33 127.968 1703.2 128.16C1702.07 128.352 1700.91 128.448 1699.74 128.448C1697.71 128.448 1695.83 128.075 1694.08 127.328C1692.35 126.581 1690.85 125.504 1689.57 124.096C1688.29 122.667 1687.28 120.917 1686.56 118.848C1685.83 116.779 1685.47 114.421 1685.47 111.776C1685.47 109.365 1685.8 107.136 1686.46 105.088C1687.14 103.04 1688.13 101.28 1689.41 99.808C1690.71 98.3147 1692.3 97.152 1694.17 96.32C1696.07 95.488 1698.25 95.072 1700.7 95.072C1702.98 95.072 1704.99 95.4453 1706.72 96.192C1708.47 96.9173 1710.01 97.952 1711.36 99.296L1709.85 101.344ZM1730.96 95.072C1733.33 95.072 1735.46 95.4667 1737.36 96.256C1739.26 97.0453 1740.88 98.1653 1742.22 99.616C1743.57 101.067 1744.59 102.827 1745.29 104.896C1746.02 106.944 1746.38 109.237 1746.38 111.776C1746.38 114.336 1746.02 116.64 1745.29 118.688C1744.59 120.736 1743.57 122.485 1742.22 123.936C1740.88 125.387 1739.26 126.507 1737.36 127.296C1735.46 128.064 1733.33 128.448 1730.96 128.448C1728.57 128.448 1726.41 128.064 1724.49 127.296C1722.59 126.507 1720.97 125.387 1719.63 123.936C1718.29 122.485 1717.25 120.736 1716.53 118.688C1715.82 116.64 1715.47 114.336 1715.47 111.776C1715.47 109.237 1715.82 106.944 1716.53 104.896C1717.25 102.827 1718.29 101.067 1719.63 99.616C1720.97 98.1653 1722.59 97.0453 1724.49 96.256C1726.41 95.4667 1728.57 95.072 1730.96 95.072ZM1730.96 124C1734.16 124 1736.55 122.933 1738.13 120.8C1739.7 118.645 1740.49 115.648 1740.49 111.808C1740.49 107.947 1739.7 104.939 1738.13 102.784C1736.55 100.629 1734.16 99.552 1730.96 99.552C1729.34 99.552 1727.92 99.8293 1726.7 100.384C1725.51 100.939 1724.5 101.739 1723.69 102.784C1722.9 103.829 1722.31 105.12 1721.9 106.656C1721.52 108.171 1721.33 109.888 1721.33 111.808C1721.33 115.648 1722.11 118.645 1723.69 120.8C1725.29 122.933 1727.71 124 1730.96 124ZM1759.01 102.08C1760.04 99.8613 1761.3 98.1333 1762.79 96.896C1764.28 95.6373 1766.11 95.008 1768.26 95.008C1768.94 95.008 1769.6 95.0827 1770.21 95.232C1770.85 95.3813 1771.42 95.616 1771.91 95.936L1771.49 100.192C1771.37 100.725 1771.05 100.992 1770.53 100.992C1770.24 100.992 1769.8 100.928 1769.22 100.8C1768.65 100.672 1768 100.608 1767.27 100.608C1766.25 100.608 1765.33 100.757 1764.52 101.056C1763.73 101.355 1763.01 101.803 1762.37 102.4C1761.76 102.976 1761.19 103.701 1760.68 104.576C1760.19 105.429 1759.74 106.411 1759.33 107.52V128H1753.61V95.584H1756.87C1757.49 95.584 1757.92 95.7013 1758.15 95.936C1758.38 96.1707 1758.54 96.576 1758.63 97.152L1759.01 102.08ZM1797.3 108.256C1797.3 106.933 1797.11 105.728 1796.73 104.64C1796.36 103.531 1795.82 102.581 1795.09 101.792C1794.39 100.981 1793.53 100.363 1792.5 99.936C1791.48 99.488 1790.32 99.264 1789.01 99.264C1786.28 99.264 1784.12 100.064 1782.52 101.664C1780.94 103.243 1779.96 105.44 1779.57 108.256H1797.3ZM1801.91 123.456C1801.21 124.309 1800.36 125.056 1799.38 125.696C1798.4 126.315 1797.34 126.827 1796.21 127.232C1795.1 127.637 1793.95 127.936 1792.76 128.128C1791.56 128.341 1790.38 128.448 1789.21 128.448C1786.97 128.448 1784.9 128.075 1783 127.328C1781.12 126.56 1779.49 125.451 1778.1 124C1776.74 122.528 1775.67 120.715 1774.9 118.56C1774.13 116.405 1773.75 113.931 1773.75 111.136C1773.75 108.875 1774.09 106.763 1774.77 104.8C1775.48 102.837 1776.48 101.141 1777.78 99.712C1779.08 98.2613 1780.67 97.1307 1782.55 96.32C1784.43 95.488 1786.54 95.072 1788.89 95.072C1790.83 95.072 1792.62 95.4027 1794.26 96.064C1795.93 96.704 1797.36 97.6427 1798.55 98.88C1799.77 100.096 1800.72 101.611 1801.4 103.424C1802.08 105.216 1802.42 107.264 1802.42 109.568C1802.42 110.464 1802.33 111.061 1802.13 111.36C1801.94 111.659 1801.58 111.808 1801.05 111.808H1779.38C1779.45 113.856 1779.72 115.637 1780.21 117.152C1780.73 118.667 1781.43 119.936 1782.33 120.96C1783.22 121.963 1784.29 122.72 1785.53 123.232C1786.76 123.723 1788.15 123.968 1789.69 123.968C1791.12 123.968 1792.34 123.808 1793.37 123.488C1794.41 123.147 1795.31 122.784 1796.05 122.4C1796.8 122.016 1797.42 121.664 1797.91 121.344C1798.42 121.003 1798.86 120.832 1799.22 120.832C1799.69 120.832 1800.05 121.013 1800.31 121.376L1801.91 123.456Z" fill="#6D7E8A"/>
</svg>
