<svg width="1920" height="1080" viewBox="0 0 1920 1080" fill="none" xmlns="http://www.w3.org/2000/svg">
<rect width="1920" height="1080" fill="white"/>
<path d="M646 161L801 161V316H646V161Z" fill="white"/>
<rect x="646" y="161" width="155" height="155" fill="#2F4858"/>
<path d="M752.321 242.958V269.358C748.865 271.854 745.169 273.726 741.233 274.974C737.329 276.19 733.041 276.798 728.369 276.798C722.833 276.798 717.841 275.95 713.393 274.254C708.945 272.526 705.137 270.126 701.969 267.054C698.833 263.95 696.417 260.238 694.721 255.918C693.025 251.598 692.177 246.846 692.177 241.662C692.177 236.414 692.993 231.63 694.625 227.31C696.289 222.99 698.641 219.294 701.681 216.222C704.721 213.118 708.417 210.718 712.769 209.022C717.121 207.326 721.985 206.478 727.361 206.478C730.081 206.478 732.609 206.686 734.945 207.102C737.281 207.486 739.441 208.062 741.425 208.83C743.409 209.566 745.249 210.478 746.945 211.566C748.641 212.622 750.225 213.822 751.697 215.166L749.057 219.39C748.641 220.03 748.097 220.446 747.425 220.638C746.785 220.798 746.065 220.638 745.265 220.158C744.497 219.71 743.617 219.166 742.625 218.526C741.633 217.886 740.417 217.278 738.977 216.702C737.569 216.094 735.889 215.582 733.937 215.166C732.017 214.75 729.729 214.542 727.073 214.542C723.201 214.542 719.697 215.182 716.561 216.462C713.425 217.71 710.753 219.518 708.545 221.886C706.337 224.222 704.641 227.07 703.457 230.43C702.273 233.758 701.681 237.502 701.681 241.662C701.681 245.982 702.289 249.854 703.505 253.278C704.753 256.67 706.513 259.566 708.785 261.966C711.089 264.334 713.873 266.142 717.137 267.39C720.401 268.638 724.065 269.262 728.129 269.262C731.329 269.262 734.161 268.91 736.625 268.206C739.121 267.47 741.553 266.462 743.921 265.182V250.062H733.217C732.609 250.062 732.113 249.886 731.729 249.534C731.377 249.182 731.201 248.75 731.201 248.238V242.958H752.321Z" fill="white"/>
<rect x="646" y="382" width="155" height="155" fill="#4D8DC9"/>
<path d="M740.633 438.998C740.345 439.478 740.025 439.846 739.673 440.102C739.353 440.326 738.953 440.438 738.473 440.438C737.929 440.438 737.289 440.166 736.553 439.622C735.817 439.078 734.889 438.486 733.769 437.846C732.681 437.174 731.353 436.566 729.785 436.022C728.249 435.478 726.377 435.206 724.169 435.206C722.089 435.206 720.249 435.494 718.649 436.07C717.081 436.614 715.753 437.366 714.665 438.326C713.609 439.286 712.809 440.422 712.265 441.734C711.721 443.014 711.449 444.406 711.449 445.91C711.449 447.83 711.913 449.43 712.841 450.71C713.801 451.958 715.049 453.03 716.585 453.926C718.153 454.822 719.913 455.606 721.865 456.278C723.849 456.918 725.865 457.59 727.913 458.294C729.993 458.998 732.009 459.798 733.961 460.694C735.945 461.558 737.705 462.662 739.241 464.006C740.809 465.35 742.057 466.998 742.985 468.95C743.945 470.902 744.425 473.302 744.425 476.15C744.425 479.158 743.913 481.99 742.889 484.646C741.865 487.27 740.361 489.558 738.377 491.51C736.425 493.462 734.009 494.998 731.129 496.118C728.281 497.238 725.033 497.798 721.385 497.798C716.905 497.798 712.841 496.998 709.193 495.398C705.545 493.766 702.425 491.574 699.833 488.822L702.521 484.406C702.777 484.054 703.081 483.766 703.433 483.542C703.817 483.286 704.233 483.158 704.681 483.158C705.097 483.158 705.561 483.334 706.073 483.686C706.617 484.006 707.225 484.422 707.897 484.934C708.569 485.446 709.337 486.006 710.201 486.614C711.065 487.222 712.041 487.782 713.129 488.294C714.249 488.806 715.513 489.238 716.921 489.59C718.329 489.91 719.913 490.07 721.673 490.07C723.881 490.07 725.849 489.766 727.577 489.158C729.305 488.55 730.761 487.702 731.945 486.614C733.161 485.494 734.089 484.166 734.729 482.63C735.369 481.094 735.689 479.382 735.689 477.494C735.689 475.414 735.209 473.718 734.249 472.406C733.321 471.062 732.089 469.942 730.553 469.046C729.017 468.15 727.257 467.398 725.273 466.79C723.289 466.15 721.273 465.51 719.225 464.87C717.177 464.198 715.161 463.43 713.177 462.566C711.193 461.702 709.433 460.582 707.897 459.206C706.361 457.83 705.113 456.118 704.153 454.07C703.225 451.99 702.761 449.43 702.761 446.39C702.761 443.958 703.225 441.606 704.153 439.334C705.113 437.062 706.489 435.046 708.281 433.286C710.105 431.526 712.329 430.118 714.953 429.062C717.609 428.006 720.649 427.478 724.073 427.478C727.913 427.478 731.401 428.086 734.537 429.302C737.705 430.518 740.489 432.278 742.889 434.582L740.633 438.998Z" fill="white"/>
<rect x="646.5" y="603.5" width="154" height="153" fill="#44BC96"/>
<path d="M727.387 690.109V717.517H718.075V690.109L692.875 648.733H701.035C701.867 648.733 702.523 648.941 703.003 649.357C703.483 649.741 703.899 650.253 704.251 650.893L719.995 677.629C720.571 678.749 721.099 679.805 721.579 680.797C722.059 681.757 722.475 682.733 722.827 683.725C723.179 682.733 723.579 681.757 724.027 680.797C724.475 679.805 724.971 678.749 725.515 677.629L741.211 650.893C741.499 650.349 741.899 649.853 742.411 649.405C742.923 648.957 743.579 648.733 744.379 648.733H752.587L727.387 690.109Z" fill="white"/>
<path d="M646 823H801V978H646V823Z" fill="#E3848B"/>
<rect x="646" y="823" width="155" height="155" fill="#E3848B"/>
<path d="M748.525 872.702C748.525 873.758 748.205 874.782 747.565 875.774L708.637 930.446H747.949V938.03H696.397V934.382C696.397 933.87 696.477 933.39 696.637 932.942C696.829 932.494 697.053 932.062 697.309 931.646L736.333 876.83H698.221V869.246H748.525V872.702Z" fill="white"/>
<path d="M1258 160L1413 160V315H1258V160Z" fill="white"/>
<rect x="1258" y="160" width="155" height="155" fill="#2F4858"/>
<path d="M1364.32 241.958V268.358C1360.87 270.854 1357.17 272.726 1353.23 273.974C1349.33 275.19 1345.04 275.798 1340.37 275.798C1334.83 275.798 1329.84 274.95 1325.39 273.254C1320.95 271.526 1317.14 269.126 1313.97 266.054C1310.83 262.95 1308.42 259.238 1306.72 254.918C1305.03 250.598 1304.18 245.846 1304.18 240.662C1304.18 235.414 1304.99 230.63 1306.63 226.31C1308.29 221.99 1310.64 218.294 1313.68 215.222C1316.72 212.118 1320.42 209.718 1324.77 208.022C1329.12 206.326 1333.99 205.478 1339.36 205.478C1342.08 205.478 1344.61 205.686 1346.95 206.102C1349.28 206.486 1351.44 207.062 1353.43 207.83C1355.41 208.566 1357.25 209.478 1358.95 210.566C1360.64 211.622 1362.23 212.822 1363.7 214.166L1361.06 218.39C1360.64 219.03 1360.1 219.446 1359.43 219.638C1358.79 219.798 1358.07 219.638 1357.27 219.158C1356.5 218.71 1355.62 218.166 1354.63 217.526C1353.63 216.886 1352.42 216.278 1350.98 215.702C1349.57 215.094 1347.89 214.582 1345.94 214.166C1344.02 213.75 1341.73 213.542 1339.07 213.542C1335.2 213.542 1331.7 214.182 1328.56 215.462C1325.43 216.71 1322.75 218.518 1320.55 220.886C1318.34 223.222 1316.64 226.07 1315.46 229.43C1314.27 232.758 1313.68 236.502 1313.68 240.662C1313.68 244.982 1314.29 248.854 1315.51 252.278C1316.75 255.67 1318.51 258.566 1320.79 260.966C1323.09 263.334 1325.87 265.142 1329.14 266.39C1332.4 267.638 1336.07 268.262 1340.13 268.262C1343.33 268.262 1346.16 267.91 1348.63 267.206C1351.12 266.47 1353.55 265.462 1355.92 264.182V249.062H1345.22C1344.61 249.062 1344.11 248.886 1343.73 248.534C1343.38 248.182 1343.2 247.75 1343.2 247.238V241.958H1364.32Z" fill="white"/>
<g opacity="0.3">
<path d="M1653 162L1808 162V317H1653V162Z" fill="white"/>
<rect x="1653" y="162" width="155" height="155" fill="#2F4858"/>
</g>
<path d="M114.048 257.768C117.44 257.768 119.488 257.128 122.368 255.912L121.024 252.008C118.912 252.968 116.992 253.416 115.2 253.416C111.488 253.416 109.056 251.496 109.056 246.952V211.432H92.736V215.72H103.808V246.568C103.808 253.928 107.456 257.768 114.048 257.768ZM151.591 257.768C155.495 257.768 158.503 256.936 161.319 255.912L160.167 252.072C157.927 252.904 155.623 253.48 152.679 253.48C146.663 253.48 144.807 250.536 144.807 244.968V230.184H160.103V225.896H144.807V215.912H140.455L139.751 225.896L130.791 226.216V230.184H139.559V244.904C139.559 252.584 142.503 257.768 151.591 257.768ZM174.094 257H179.342V238.76C183.054 232.296 187.47 229.864 192.142 229.864C194.574 229.864 195.726 230.184 197.902 230.952L199.118 226.408C197.198 225.448 195.278 225.128 192.974 225.128C187.214 225.128 182.35 228.264 179.086 233.256H178.894L178.446 225.896H174.094V257ZM222.965 257.768C231.861 257.768 236.789 253.544 236.789 248.488C236.789 243.752 234.293 241.128 223.925 238.888C217.589 237.544 214.901 236.392 214.901 233.704C214.901 231.336 216.757 229.224 222.069 229.224C226.037 229.224 229.621 230.504 232.501 232.488L235.061 229.096C231.989 226.984 227.253 225.128 222.517 225.128C214.005 225.128 209.589 228.968 209.589 233.96C209.589 238.632 213.685 241.384 221.749 243.048C230.197 244.776 231.477 246.44 231.477 248.808C231.477 251.432 228.853 253.672 223.605 253.672C217.845 253.672 213.685 252.008 210.101 249.448L207.669 252.904C211.445 255.528 216.885 257.768 222.965 257.768ZM576.212 268.264L579.092 265.576C570.516 258.344 566.548 249.96 566.548 239.208C566.548 228.456 570.516 220.072 579.092 212.84L576.212 210.152C567.316 217.064 561.812 226.856 561.812 239.208C561.812 251.56 567.316 261.352 576.212 268.264ZM614.587 268.264L617.467 265.576C608.891 258.344 604.923 249.96 604.923 239.208C604.923 228.456 608.891 220.072 617.467 212.84L614.587 210.152C605.691 217.064 600.187 226.856 600.187 239.208C600.187 251.56 605.691 261.352 614.587 268.264ZM827.813 268.264C836.709 261.352 842.213 251.56 842.213 239.208C842.213 226.856 836.709 217.064 827.813 210.152L824.933 212.84C833.509 220.072 837.477 228.456 837.477 239.208C837.477 249.96 833.509 258.344 824.933 265.576L827.813 268.264ZM899.315 231.016H926.835V227.048H899.315V231.016ZM899.315 244.712H926.835V240.744H899.315V244.712ZM939.098 253.928L962.97 237.736V233.768L939.098 217.576V222.632L958.362 235.624V235.88L939.098 248.872V253.928ZM1028.84 257.768C1037.74 257.768 1042.66 253.544 1042.66 248.488C1042.66 243.752 1040.17 241.128 1029.8 238.888C1023.46 237.544 1020.78 236.392 1020.78 233.704C1020.78 231.336 1022.63 229.224 1027.94 229.224C1031.91 229.224 1035.5 230.504 1038.38 232.488L1040.94 229.096C1037.86 226.984 1033.13 225.128 1028.39 225.128C1019.88 225.128 1015.46 228.968 1015.46 233.96C1015.46 238.632 1019.56 241.384 1027.62 243.048C1036.07 244.776 1037.35 246.44 1037.35 248.808C1037.35 251.432 1034.73 253.672 1029.48 253.672C1023.72 253.672 1019.56 252.008 1015.98 249.448L1013.54 252.904C1017.32 255.528 1022.76 257.768 1028.84 257.768ZM1069.52 257.768C1074.13 257.768 1078.42 255.976 1081.87 252.904L1079.5 249.512C1076.94 251.688 1073.74 253.416 1069.9 253.416C1062.74 253.416 1057.94 248.616 1057.94 241.512C1057.94 234.344 1062.86 229.48 1070.03 229.48C1073.3 229.48 1075.98 230.824 1078.54 233.064L1081.17 229.672C1078.61 227.176 1074.9 225.128 1069.84 225.128C1060.43 225.128 1052.5 231.08 1052.5 241.512C1052.5 251.816 1059.79 257.768 1069.52 257.768ZM1104.95 257.768C1113.14 257.768 1120.31 251.816 1120.31 241.512C1120.31 231.08 1113.14 225.128 1104.95 225.128C1096.76 225.128 1089.59 231.08 1089.59 241.512C1089.59 251.816 1096.76 257.768 1104.95 257.768ZM1104.95 253.416C1099 253.416 1095.03 248.616 1095.03 241.512C1095.03 234.344 1099 229.48 1104.95 229.48C1110.9 229.48 1114.87 234.344 1114.87 241.512C1114.87 248.616 1110.9 253.416 1104.95 253.416ZM1133.47 257H1138.72V238.76C1142.43 232.296 1146.85 229.864 1151.52 229.864C1153.95 229.864 1155.1 230.184 1157.28 230.952L1158.49 226.408C1156.57 225.448 1154.65 225.128 1152.35 225.128C1146.59 225.128 1141.73 228.264 1138.46 233.256H1138.27L1137.82 225.896H1133.47V257ZM1183.62 257.768C1188.61 257.768 1192.58 256.104 1195.65 254.056L1193.73 250.6C1190.92 252.392 1187.97 253.544 1184.26 253.544C1177.8 253.544 1172.8 249.96 1172.16 242.92H1196.68C1196.8 242.088 1196.93 240.936 1196.93 239.72C1196.93 230.952 1191.68 225.128 1182.72 225.128C1174.4 225.128 1166.85 231.272 1166.85 241.384C1166.85 251.752 1174.28 257.768 1183.62 257.768ZM1182.85 229.288C1188.16 229.288 1191.68 232.424 1192.13 238.824H1172.29C1173.25 232.68 1177.73 229.288 1182.85 229.288ZM1228.59 268.264L1231.47 265.576C1222.89 258.344 1218.92 249.96 1218.92 239.208C1218.92 228.456 1222.89 220.072 1231.47 212.84L1228.59 210.152C1219.69 217.064 1214.19 226.856 1214.19 239.208C1214.19 251.56 1219.69 261.352 1228.59 268.264ZM1441.81 268.264C1450.71 261.352 1456.21 251.56 1456.21 239.208C1456.21 226.856 1450.71 217.064 1441.81 210.152L1438.93 212.84C1447.51 220.072 1451.48 228.456 1451.48 239.208C1451.48 249.96 1447.51 258.344 1438.93 265.576L1441.81 268.264ZM1480.19 268.264C1489.08 261.352 1494.59 251.56 1494.59 239.208C1494.59 226.856 1489.08 217.064 1480.19 210.152L1477.31 212.84C1485.88 220.072 1489.85 228.456 1489.85 239.208C1489.85 249.96 1485.88 258.344 1477.31 265.576L1480.19 268.264Z" fill="#2F4858"/>
<path d="M260.7 257.768C263.58 257.768 265.884 255.592 265.884 252.392C265.884 249.128 263.58 246.952 260.7 246.952C257.82 246.952 255.516 249.128 255.516 252.392C255.516 255.592 257.82 257.768 260.7 257.768ZM295.363 257H300.547V230.184H313.603V225.896H300.547V223.08C300.547 218.024 302.851 214.952 308.419 214.952C311.107 214.952 313.091 215.272 315.651 216.424L316.867 212.456C313.923 211.24 310.979 210.664 307.907 210.664C299.331 210.664 295.363 215.656 295.363 223.272V225.896L286.467 226.216V230.184H295.363V257ZM337.45 257.768C345.642 257.768 352.81 251.816 352.81 241.512C352.81 231.08 345.642 225.128 337.45 225.128C329.258 225.128 322.09 231.08 322.09 241.512C322.09 251.816 329.258 257.768 337.45 257.768ZM337.45 253.416C331.498 253.416 327.53 248.616 327.53 241.512C327.53 234.344 331.498 229.48 337.45 229.48C343.402 229.48 347.37 234.344 347.37 241.512C347.37 248.616 343.402 253.416 337.45 253.416ZM365.969 257H371.217V238.76C374.929 232.296 379.345 229.864 384.017 229.864C386.449 229.864 387.601 230.184 389.777 230.952L390.993 226.408C389.073 225.448 387.153 225.128 384.849 225.128C379.089 225.128 374.225 228.264 370.961 233.256H370.769L370.321 225.896H365.969V257ZM402.296 257H428.92V252.456H407.672V237.224H425.08V232.68H407.672V219.496H428.28V215.016H402.296V257ZM449.119 257.768C453.535 257.768 457.951 255.464 461.407 252.776H461.599L462.047 257H466.335V237.928C466.335 230.184 462.239 225.128 453.727 225.128C448.287 225.128 443.039 227.56 439.903 229.608L441.951 233.192C444.831 231.4 448.799 229.48 452.831 229.48C458.847 229.48 460.959 233.064 461.087 237.288C445.023 238.568 438.559 241.96 438.559 248.936C438.559 254.504 443.295 257.768 449.119 257.768ZM450.527 253.544C446.943 253.544 443.679 252.072 443.679 248.552C443.679 244.456 447.775 241.832 461.087 240.744V248.936C457.567 251.88 454.047 253.544 450.527 253.544ZM493.894 257.768C498.502 257.768 502.79 255.976 506.246 252.904L503.878 249.512C501.318 251.688 498.118 253.416 494.278 253.416C487.11 253.416 482.31 248.616 482.31 241.512C482.31 234.344 487.238 229.48 494.406 229.48C497.67 229.48 500.358 230.824 502.918 233.064L505.542 229.672C502.982 227.176 499.27 225.128 494.214 225.128C484.806 225.128 476.87 231.08 476.87 241.512C476.87 251.816 484.166 257.768 493.894 257.768ZM516.077 257H521.325V235.304C524.973 231.528 527.469 229.672 531.181 229.672C536.301 229.672 538.349 232.488 538.349 238.376V257H543.597V237.672C543.597 229.48 540.205 225.128 532.845 225.128C527.981 225.128 524.397 227.752 521.197 231.208H521.005L521.325 223.848V211.432H516.077V257Z" fill="#B24E72"/>
<path d="M1678.49 100.928C1678.23 101.397 1677.84 101.632 1677.3 101.632C1676.98 101.632 1676.62 101.515 1676.21 101.28C1675.81 101.045 1675.31 100.789 1674.71 100.512C1674.13 100.213 1673.44 99.9467 1672.63 99.712C1671.82 99.456 1670.86 99.328 1669.75 99.328C1668.79 99.328 1667.93 99.456 1667.16 99.712C1666.39 99.9467 1665.73 100.277 1665.17 100.704C1664.64 101.131 1664.22 101.632 1663.93 102.208C1663.65 102.763 1663.51 103.371 1663.51 104.032C1663.51 104.864 1663.74 105.557 1664.21 106.112C1664.7 106.667 1665.34 107.147 1666.13 107.552C1666.92 107.957 1667.82 108.32 1668.82 108.64C1669.82 108.939 1670.85 109.269 1671.89 109.632C1672.96 109.973 1674 110.357 1675 110.784C1676 111.211 1676.9 111.744 1677.69 112.384C1678.48 113.024 1679.1 113.813 1679.57 114.752C1680.06 115.669 1680.31 116.779 1680.31 118.08C1680.31 119.573 1680.04 120.96 1679.51 122.24C1678.98 123.499 1678.19 124.597 1677.14 125.536C1676.1 126.453 1674.82 127.179 1673.3 127.712C1671.79 128.245 1670.04 128.512 1668.05 128.512C1665.79 128.512 1663.74 128.149 1661.91 127.424C1660.08 126.677 1658.52 125.728 1657.24 124.576L1658.58 122.4C1658.75 122.123 1658.96 121.909 1659.19 121.76C1659.42 121.611 1659.72 121.536 1660.09 121.536C1660.47 121.536 1660.88 121.685 1661.3 121.984C1661.73 122.283 1662.24 122.613 1662.84 122.976C1663.46 123.339 1664.2 123.669 1665.08 123.968C1665.95 124.267 1667.04 124.416 1668.34 124.416C1669.45 124.416 1670.42 124.277 1671.25 124C1672.09 123.701 1672.78 123.307 1673.33 122.816C1673.89 122.325 1674.29 121.76 1674.55 121.12C1674.83 120.48 1674.97 119.797 1674.97 119.072C1674.97 118.176 1674.72 117.44 1674.23 116.864C1673.76 116.267 1673.13 115.765 1672.34 115.36C1671.55 114.933 1670.65 114.571 1669.62 114.272C1668.62 113.952 1667.58 113.621 1666.52 113.28C1665.47 112.939 1664.44 112.555 1663.41 112.128C1662.41 111.68 1661.52 111.125 1660.73 110.464C1659.94 109.803 1659.3 108.992 1658.81 108.032C1658.34 107.051 1658.1 105.867 1658.1 104.48C1658.1 103.243 1658.36 102.059 1658.87 100.928C1659.38 99.776 1660.13 98.7733 1661.11 97.92C1662.09 97.0453 1663.3 96.352 1664.73 95.84C1666.16 95.328 1667.79 95.072 1669.62 95.072C1671.76 95.072 1673.66 95.4133 1675.35 96.096C1677.06 96.7573 1678.53 97.6747 1679.77 98.848L1678.49 100.928ZM1709.85 101.344C1709.68 101.579 1709.51 101.76 1709.34 101.888C1709.17 102.016 1708.94 102.08 1708.64 102.08C1708.32 102.08 1707.97 101.952 1707.58 101.696C1707.2 101.419 1706.72 101.12 1706.14 100.8C1705.59 100.48 1704.89 100.192 1704.06 99.936C1703.25 99.6587 1702.25 99.52 1701.05 99.52C1699.45 99.52 1698.05 99.808 1696.83 100.384C1695.61 100.939 1694.59 101.749 1693.76 102.816C1692.95 103.883 1692.33 105.173 1691.9 106.688C1691.5 108.203 1691.29 109.899 1691.29 111.776C1691.29 113.739 1691.52 115.488 1691.97 117.024C1692.41 118.539 1693.04 119.819 1693.85 120.864C1694.69 121.888 1695.68 122.677 1696.83 123.232C1698 123.765 1699.31 124.032 1700.77 124.032C1702.15 124.032 1703.29 123.872 1704.19 123.552C1705.09 123.211 1705.82 122.837 1706.4 122.432C1706.99 122.027 1707.49 121.664 1707.87 121.344C1708.27 121.003 1708.67 120.832 1709.05 120.832C1709.52 120.832 1709.89 121.013 1710.14 121.376L1711.74 123.456C1711.04 124.331 1710.24 125.077 1709.34 125.696C1708.45 126.315 1707.47 126.837 1706.43 127.264C1705.41 127.669 1704.33 127.968 1703.2 128.16C1702.07 128.352 1700.91 128.448 1699.74 128.448C1697.71 128.448 1695.83 128.075 1694.08 127.328C1692.35 126.581 1690.85 125.504 1689.57 124.096C1688.29 122.667 1687.28 120.917 1686.56 118.848C1685.83 116.779 1685.47 114.421 1685.47 111.776C1685.47 109.365 1685.8 107.136 1686.46 105.088C1687.14 103.04 1688.13 101.28 1689.41 99.808C1690.71 98.3147 1692.3 97.152 1694.17 96.32C1696.07 95.488 1698.25 95.072 1700.7 95.072C1702.98 95.072 1704.99 95.4453 1706.72 96.192C1708.47 96.9173 1710.01 97.952 1711.36 99.296L1709.85 101.344ZM1730.96 95.072C1733.33 95.072 1735.46 95.4667 1737.36 96.256C1739.26 97.0453 1740.88 98.1653 1742.22 99.616C1743.57 101.067 1744.59 102.827 1745.29 104.896C1746.02 106.944 1746.38 109.237 1746.38 111.776C1746.38 114.336 1746.02 116.64 1745.29 118.688C1744.59 120.736 1743.57 122.485 1742.22 123.936C1740.88 125.387 1739.26 126.507 1737.36 127.296C1735.46 128.064 1733.33 128.448 1730.96 128.448C1728.57 128.448 1726.41 128.064 1724.49 127.296C1722.59 126.507 1720.97 125.387 1719.63 123.936C1718.29 122.485 1717.25 120.736 1716.53 118.688C1715.82 116.64 1715.47 114.336 1715.47 111.776C1715.47 109.237 1715.82 106.944 1716.53 104.896C1717.25 102.827 1718.29 101.067 1719.63 99.616C1720.97 98.1653 1722.59 97.0453 1724.49 96.256C1726.41 95.4667 1728.57 95.072 1730.96 95.072ZM1730.96 124C1734.16 124 1736.55 122.933 1738.13 120.8C1739.7 118.645 1740.49 115.648 1740.49 111.808C1740.49 107.947 1739.7 104.939 1738.13 102.784C1736.55 100.629 1734.16 99.552 1730.96 99.552C1729.34 99.552 1727.92 99.8293 1726.7 100.384C1725.51 100.939 1724.5 101.739 1723.69 102.784C1722.9 103.829 1722.31 105.12 1721.9 106.656C1721.52 108.171 1721.33 109.888 1721.33 111.808C1721.33 115.648 1722.11 118.645 1723.69 120.8C1725.29 122.933 1727.71 124 1730.96 124ZM1759.01 102.08C1760.04 99.8613 1761.3 98.1333 1762.79 96.896C1764.28 95.6373 1766.11 95.008 1768.26 95.008C1768.94 95.008 1769.6 95.0827 1770.21 95.232C1770.85 95.3813 1771.42 95.616 1771.91 95.936L1771.49 100.192C1771.37 100.725 1771.05 100.992 1770.53 100.992C1770.24 100.992 1769.8 100.928 1769.22 100.8C1768.65 100.672 1768 100.608 1767.27 100.608C1766.25 100.608 1765.33 100.757 1764.52 101.056C1763.73 101.355 1763.01 101.803 1762.37 102.4C1761.76 102.976 1761.19 103.701 1760.68 104.576C1760.19 105.429 1759.74 106.411 1759.33 107.52V128H1753.61V95.584H1756.87C1757.49 95.584 1757.92 95.7013 1758.15 95.936C1758.38 96.1707 1758.54 96.576 1758.63 97.152L1759.01 102.08ZM1797.3 108.256C1797.3 106.933 1797.11 105.728 1796.73 104.64C1796.36 103.531 1795.82 102.581 1795.09 101.792C1794.39 100.981 1793.53 100.363 1792.5 99.936C1791.48 99.488 1790.32 99.264 1789.01 99.264C1786.28 99.264 1784.12 100.064 1782.52 101.664C1780.94 103.243 1779.96 105.44 1779.57 108.256H1797.3ZM1801.91 123.456C1801.21 124.309 1800.36 125.056 1799.38 125.696C1798.4 126.315 1797.34 126.827 1796.21 127.232C1795.1 127.637 1793.95 127.936 1792.76 128.128C1791.56 128.341 1790.38 128.448 1789.21 128.448C1786.97 128.448 1784.9 128.075 1783 127.328C1781.12 126.56 1779.49 125.451 1778.1 124C1776.74 122.528 1775.67 120.715 1774.9 118.56C1774.13 116.405 1773.75 113.931 1773.75 111.136C1773.75 108.875 1774.09 106.763 1774.77 104.8C1775.48 102.837 1776.48 101.141 1777.78 99.712C1779.08 98.2613 1780.67 97.1307 1782.55 96.32C1784.43 95.488 1786.54 95.072 1788.89 95.072C1790.83 95.072 1792.62 95.4027 1794.26 96.064C1795.93 96.704 1797.36 97.6427 1798.55 98.88C1799.77 100.096 1800.72 101.611 1801.4 103.424C1802.08 105.216 1802.42 107.264 1802.42 109.568C1802.42 110.464 1802.33 111.061 1802.13 111.36C1801.94 111.659 1801.58 111.808 1801.05 111.808H1779.38C1779.45 113.856 1779.72 115.637 1780.21 117.152C1780.73 118.667 1781.43 119.936 1782.33 120.96C1783.22 121.963 1784.29 122.72 1785.53 123.232C1786.76 123.723 1788.15 123.968 1789.69 123.968C1791.12 123.968 1792.34 123.808 1793.37 123.488C1794.41 123.147 1795.31 122.784 1796.05 122.4C1796.8 122.016 1797.42 121.664 1797.91 121.344C1798.42 121.003 1798.86 120.832 1799.22 120.832C1799.69 120.832 1800.05 121.013 1800.31 121.376L1801.91 123.456Z" fill="#6D7E8A"/>
</svg>
