<svg width="1920" height="1080" viewBox="0 0 1920 1080" fill="none" xmlns="http://www.w3.org/2000/svg">
<rect width="1920" height="1080" fill="white"/>
<path d="M114.048 140.768C117.44 140.768 119.488 140.128 122.368 138.912L121.024 135.008C118.912 135.968 116.992 136.416 115.2 136.416C111.488 136.416 109.056 134.496 109.056 129.952V94.432H92.736V98.72H103.808V129.568C103.808 136.928 107.456 140.768 114.048 140.768ZM147.495 140.768C152.487 140.768 156.455 139.104 159.527 137.056L157.607 133.6C154.791 135.392 151.847 136.544 148.135 136.544C141.671 136.544 136.679 132.96 136.039 125.92H160.551C160.679 125.088 160.807 123.936 160.807 122.72C160.807 113.952 155.559 108.128 146.599 108.128C138.279 108.128 130.727 114.272 130.727 124.384C130.727 134.752 138.151 140.768 147.495 140.768ZM146.727 112.288C152.039 112.288 155.559 115.424 156.007 121.824H136.167C137.127 115.68 141.607 112.288 146.727 112.288ZM189.966 140.768C193.87 140.768 196.878 139.936 199.694 138.912L198.542 135.072C196.302 135.904 193.998 136.48 191.054 136.48C185.038 136.48 183.182 133.536 183.182 127.968V113.184H198.478V108.896H183.182V98.912H178.83L178.126 108.896L169.166 109.216V113.184H177.934V127.904C177.934 135.584 180.878 140.768 189.966 140.768ZM228.341 140.768C232.245 140.768 235.253 139.936 238.069 138.912L236.917 135.072C234.677 135.904 232.373 136.48 229.429 136.48C223.413 136.48 221.557 133.536 221.557 127.968V113.184H236.853V108.896H221.557V98.912H217.205L216.501 108.896L207.541 109.216V113.184H216.309V127.904C216.309 135.584 219.253 140.768 228.341 140.768ZM262.62 140.768C267.612 140.768 271.58 139.104 274.652 137.056L272.732 133.6C269.916 135.392 266.972 136.544 263.26 136.544C256.796 136.544 251.804 132.96 251.164 125.92H275.676C275.804 125.088 275.932 123.936 275.932 122.72C275.932 113.952 270.684 108.128 261.724 108.128C253.404 108.128 245.852 114.272 245.852 124.384C245.852 134.752 253.276 140.768 262.62 140.768ZM261.852 112.288C267.164 112.288 270.684 115.424 271.132 121.824H251.292C252.252 115.68 256.732 112.288 261.852 112.288ZM289.219 140H294.467V121.76C298.179 115.296 302.595 112.864 307.267 112.864C309.699 112.864 310.851 113.184 313.027 113.952L314.243 109.408C312.323 108.448 310.403 108.128 308.099 108.128C302.339 108.128 297.475 111.264 294.211 116.256H294.019L293.571 108.896H289.219V140ZM338.09 140.768C346.986 140.768 351.914 136.544 351.914 131.488C351.914 126.752 349.418 124.128 339.05 121.888C332.714 120.544 330.026 119.392 330.026 116.704C330.026 114.336 331.882 112.224 337.194 112.224C341.162 112.224 344.746 113.504 347.626 115.488L350.186 112.096C347.114 109.984 342.378 108.128 337.642 108.128C329.13 108.128 324.714 111.968 324.714 116.96C324.714 121.632 328.81 124.384 336.874 126.048C345.322 127.776 346.602 129.44 346.602 131.808C346.602 134.432 343.978 136.672 338.73 136.672C332.97 136.672 328.81 135.008 325.226 132.448L322.794 135.904C326.57 138.528 332.01 140.768 338.09 140.768ZM691.337 151.264L694.217 148.576C685.641 141.344 681.673 132.96 681.673 122.208C681.673 111.456 685.641 103.072 694.217 95.84L691.337 93.152C682.441 100.064 676.937 109.856 676.937 122.208C676.937 134.56 682.441 144.352 691.337 151.264ZM729.712 151.264L732.592 148.576C724.016 141.344 720.048 132.96 720.048 122.208C720.048 111.456 724.016 103.072 732.592 95.84L729.712 93.152C720.816 100.064 715.312 109.856 715.312 122.208C715.312 134.56 720.816 144.352 729.712 151.264ZM766.423 140.768C769.815 140.768 771.863 140.128 774.743 138.912L773.399 135.008C771.287 135.968 769.367 136.416 767.575 136.416C763.863 136.416 761.431 134.496 761.431 129.952V94.432H745.111V98.72H756.183V129.568C756.183 136.928 759.831 140.768 766.423 140.768ZM789.438 151.264C798.334 144.352 803.838 134.56 803.838 122.208C803.838 109.856 798.334 100.064 789.438 93.152L786.558 95.84C795.134 103.072 799.102 111.456 799.102 122.208C799.102 132.96 795.134 141.344 786.558 148.576L789.438 151.264ZM860.94 114.016H888.46V110.048H860.94V114.016ZM860.94 127.712H888.46V123.744H860.94V127.712ZM900.723 136.928L924.595 120.736V116.768L900.723 100.576V105.632L919.987 118.624V118.88L900.723 131.872V136.928ZM990.465 140.768C999.361 140.768 1004.29 136.544 1004.29 131.488C1004.29 126.752 1001.79 124.128 991.425 121.888C985.089 120.544 982.401 119.392 982.401 116.704C982.401 114.336 984.257 112.224 989.569 112.224C993.537 112.224 997.121 113.504 1000 115.488L1002.56 112.096C999.489 109.984 994.753 108.128 990.017 108.128C981.505 108.128 977.089 111.968 977.089 116.96C977.089 121.632 981.185 124.384 989.249 126.048C997.697 127.776 998.977 129.44 998.977 131.808C998.977 134.432 996.353 136.672 991.105 136.672C985.345 136.672 981.185 135.008 977.601 132.448L975.169 135.904C978.945 138.528 984.385 140.768 990.465 140.768ZM1031.14 140.768C1035.75 140.768 1040.04 138.976 1043.5 135.904L1041.13 132.512C1038.57 134.688 1035.37 136.416 1031.53 136.416C1024.36 136.416 1019.56 131.616 1019.56 124.512C1019.56 117.344 1024.49 112.48 1031.66 112.48C1034.92 112.48 1037.61 113.824 1040.17 116.064L1042.79 112.672C1040.23 110.176 1036.52 108.128 1031.46 108.128C1022.06 108.128 1014.12 114.08 1014.12 124.512C1014.12 134.816 1021.42 140.768 1031.14 140.768ZM1066.58 140.768C1074.77 140.768 1081.94 134.816 1081.94 124.512C1081.94 114.08 1074.77 108.128 1066.58 108.128C1058.38 108.128 1051.22 114.08 1051.22 124.512C1051.22 134.816 1058.38 140.768 1066.58 140.768ZM1066.58 136.416C1060.62 136.416 1056.66 131.616 1056.66 124.512C1056.66 117.344 1060.62 112.48 1066.58 112.48C1072.53 112.48 1076.5 117.344 1076.5 124.512C1076.5 131.616 1072.53 136.416 1066.58 136.416ZM1095.09 140H1100.34V121.76C1104.05 115.296 1108.47 112.864 1113.14 112.864C1115.57 112.864 1116.73 113.184 1118.9 113.952L1120.12 109.408C1118.2 108.448 1116.28 108.128 1113.97 108.128C1108.21 108.128 1103.35 111.264 1100.09 116.256H1099.89L1099.45 108.896H1095.09V140ZM1145.25 140.768C1150.24 140.768 1154.21 139.104 1157.28 137.056L1155.36 133.6C1152.54 135.392 1149.6 136.544 1145.89 136.544C1139.42 136.544 1134.43 132.96 1133.79 125.92H1158.3C1158.43 125.088 1158.56 123.936 1158.56 122.72C1158.56 113.952 1153.31 108.128 1144.35 108.128C1136.03 108.128 1128.48 114.272 1128.48 124.384C1128.48 134.752 1135.9 140.768 1145.25 140.768ZM1144.48 112.288C1149.79 112.288 1153.31 115.424 1153.76 121.824H1133.92C1134.88 115.68 1139.36 112.288 1144.48 112.288ZM1190.21 151.264L1193.09 148.576C1184.52 141.344 1180.55 132.96 1180.55 122.208C1180.55 111.456 1184.52 103.072 1193.09 95.84L1190.21 93.152C1181.32 100.064 1175.81 109.856 1175.81 122.208C1175.81 134.56 1181.32 144.352 1190.21 151.264ZM1226.92 140.768C1230.32 140.768 1232.36 140.128 1235.24 138.912L1233.9 135.008C1231.79 135.968 1229.87 136.416 1228.08 136.416C1224.36 136.416 1221.93 134.496 1221.93 129.952V94.432H1205.61V98.72H1216.68V129.568C1216.68 136.928 1220.33 140.768 1226.92 140.768ZM1249.94 151.264C1258.83 144.352 1264.34 134.56 1264.34 122.208C1264.34 109.856 1258.83 100.064 1249.94 93.152L1247.06 95.84C1255.63 103.072 1259.6 111.456 1259.6 122.208C1259.6 132.96 1255.63 141.344 1247.06 148.576L1249.94 151.264ZM1288.31 151.264C1297.21 144.352 1302.71 134.56 1302.71 122.208C1302.71 109.856 1297.21 100.064 1288.31 93.152L1285.43 95.84C1294.01 103.072 1297.98 111.456 1297.98 122.208C1297.98 132.96 1294.01 141.344 1285.43 148.576L1288.31 151.264Z" fill="#2F4858"/>
<path d="M375.825 140.768C378.705 140.768 381.009 138.592 381.009 135.392C381.009 132.128 378.705 129.952 375.825 129.952C372.945 129.952 370.641 132.128 370.641 135.392C370.641 138.592 372.945 140.768 375.825 140.768ZM410.488 140H415.672V113.184H428.728V108.896H415.672V106.08C415.672 101.024 417.976 97.952 423.544 97.952C426.232 97.952 428.216 98.272 430.776 99.424L431.992 95.456C429.048 94.24 426.104 93.664 423.032 93.664C414.456 93.664 410.488 98.656 410.488 106.272V108.896L401.592 109.216V113.184H410.488V140ZM452.575 140.768C460.767 140.768 467.935 134.816 467.935 124.512C467.935 114.08 460.767 108.128 452.575 108.128C444.383 108.128 437.215 114.08 437.215 124.512C437.215 134.816 444.383 140.768 452.575 140.768ZM452.575 136.416C446.623 136.416 442.655 131.616 442.655 124.512C442.655 117.344 446.623 112.48 452.575 112.48C458.527 112.48 462.495 117.344 462.495 124.512C462.495 131.616 458.527 136.416 452.575 136.416ZM481.094 140H486.342V121.76C490.054 115.296 494.47 112.864 499.142 112.864C501.574 112.864 502.726 113.184 504.902 113.952L506.118 109.408C504.198 108.448 502.278 108.128 499.974 108.128C494.214 108.128 489.35 111.264 486.086 116.256H485.894L485.446 108.896H481.094V140ZM517.421 140H544.045V135.456H522.797V120.224H540.205V115.68H522.797V102.496H543.405V98.016H517.421V140ZM564.244 140.768C568.66 140.768 573.076 138.464 576.532 135.776H576.724L577.172 140H581.46V120.928C581.46 113.184 577.364 108.128 568.852 108.128C563.412 108.128 558.164 110.56 555.028 112.608L557.076 116.192C559.956 114.4 563.924 112.48 567.956 112.48C573.972 112.48 576.084 116.064 576.212 120.288C560.148 121.568 553.684 124.96 553.684 131.936C553.684 137.504 558.42 140.768 564.244 140.768ZM565.652 136.544C562.068 136.544 558.804 135.072 558.804 131.552C558.804 127.456 562.9 124.832 576.212 123.744V131.936C572.692 134.88 569.172 136.544 565.652 136.544ZM609.019 140.768C613.627 140.768 617.915 138.976 621.371 135.904L619.003 132.512C616.443 134.688 613.243 136.416 609.403 136.416C602.235 136.416 597.435 131.616 597.435 124.512C597.435 117.344 602.363 112.48 609.531 112.48C612.795 112.48 615.483 113.824 618.043 116.064L620.667 112.672C618.107 110.176 614.395 108.128 609.339 108.128C599.931 108.128 591.995 114.08 591.995 124.512C591.995 134.816 599.291 140.768 609.019 140.768ZM631.202 140H636.45V118.304C640.098 114.528 642.594 112.672 646.306 112.672C651.426 112.672 653.474 115.488 653.474 121.376V140H658.722V120.672C658.722 112.48 655.33 108.128 647.97 108.128C643.106 108.128 639.522 110.752 636.322 114.208H636.13L636.45 106.848V94.432H631.202V140Z" fill="#B24E72"/>
</svg>
