<svg width="1920" height="1080" viewBox="0 0 1920 1080" fill="none" xmlns="http://www.w3.org/2000/svg">
<rect width="1920" height="1080" fill="white"/>
<path d="M120.048 350.768C123.44 350.768 125.488 350.128 128.368 348.912L127.024 345.008C124.912 345.968 122.992 346.416 121.2 346.416C117.488 346.416 115.056 344.496 115.056 339.952V304.432H98.736V308.72H109.808V339.568C109.808 346.928 113.456 350.768 120.048 350.768ZM153.495 350.768C158.487 350.768 162.455 349.104 165.527 347.056L163.607 343.6C160.791 345.392 157.847 346.544 154.135 346.544C147.671 346.544 142.679 342.96 142.039 335.92H166.551C166.679 335.088 166.807 333.936 166.807 332.72C166.807 323.952 161.559 318.128 152.599 318.128C144.279 318.128 136.727 324.272 136.727 334.384C136.727 344.752 144.151 350.768 153.495 350.768ZM152.727 322.288C158.039 322.288 161.559 325.424 162.007 331.824H142.167C143.127 325.68 147.607 322.288 152.727 322.288ZM195.966 350.768C199.87 350.768 202.878 349.936 205.694 348.912L204.542 345.072C202.302 345.904 199.998 346.48 197.054 346.48C191.038 346.48 189.182 343.536 189.182 337.968V323.184H204.478V318.896H189.182V308.912H184.83L184.126 318.896L175.166 319.216V323.184H183.934V337.904C183.934 345.584 186.878 350.768 195.966 350.768ZM272.716 350.768C276.62 350.768 279.628 349.936 282.444 348.912L281.292 345.072C279.052 345.904 276.748 346.48 273.804 346.48C267.788 346.48 265.932 343.536 265.932 337.968V323.184H281.228V318.896H265.932V308.912H261.58L260.876 318.896L251.916 319.216V323.184H260.684V337.904C260.684 345.584 263.628 350.768 272.716 350.768ZM305.075 350.768C313.267 350.768 320.435 344.816 320.435 334.512C320.435 324.08 313.267 318.128 305.075 318.128C296.883 318.128 289.715 324.08 289.715 334.512C289.715 344.816 296.883 350.768 305.075 350.768ZM305.075 346.416C299.123 346.416 295.155 341.616 295.155 334.512C295.155 327.344 299.123 322.48 305.075 322.48C311.027 322.48 314.995 327.344 314.995 334.512C314.995 341.616 311.027 346.416 305.075 346.416ZM349.466 350.768C353.37 350.768 356.378 349.936 359.194 348.912L358.042 345.072C355.802 345.904 353.498 346.48 350.554 346.48C344.538 346.48 342.682 343.536 342.682 337.968V323.184H357.978V318.896H342.682V308.912H338.33L337.626 318.896L328.666 319.216V323.184H337.434V337.904C337.434 345.584 340.378 350.768 349.466 350.768ZM378.369 350.768C382.785 350.768 387.201 348.464 390.657 345.776H390.849L391.297 350H395.585V330.928C395.585 323.184 391.489 318.128 382.977 318.128C377.537 318.128 372.289 320.56 369.153 322.608L371.201 326.192C374.081 324.4 378.049 322.48 382.081 322.48C388.097 322.48 390.209 326.064 390.337 330.288C374.273 331.568 367.809 334.96 367.809 341.936C367.809 347.504 372.545 350.768 378.369 350.768ZM379.777 346.544C376.193 346.544 372.929 345.072 372.929 341.552C372.929 337.456 377.025 334.832 390.337 333.744V341.936C386.817 344.88 383.297 346.544 379.777 346.544ZM427.048 350.768C430.44 350.768 432.488 350.128 435.368 348.912L434.024 345.008C431.912 345.968 429.992 346.416 428.2 346.416C424.488 346.416 422.056 344.496 422.056 339.952V304.432H405.736V308.72H416.808V339.568C416.808 346.928 420.456 350.768 427.048 350.768ZM483.19 324.016H510.71V320.048H483.19V324.016ZM483.19 337.712H510.71V333.744H483.19V337.712ZM573.7 350.768C582.788 350.768 588.356 343.024 588.356 329.456C588.356 315.76 582.788 308.4 573.7 308.4C564.612 308.4 559.044 315.76 559.044 329.456C559.044 343.024 564.612 350.768 573.7 350.768ZM573.7 346.544C568.004 346.544 563.972 341.168 563.972 329.456C563.972 317.68 568.004 312.624 573.7 312.624C579.396 312.624 583.428 317.68 583.428 329.456C583.428 341.168 579.396 346.544 573.7 346.544ZM573.7 333.296C575.812 333.296 577.668 331.696 577.668 329.008C577.668 326.384 575.812 324.784 573.7 324.784C571.588 324.784 569.732 326.384 569.732 329.008C569.732 331.696 571.588 333.296 573.7 333.296ZM99.952 443.12H105.2V432.624L104.944 426.736H105.136C107.888 429.296 111.536 430.768 114.416 430.768C121.904 430.768 128.56 424.56 128.56 414C128.56 404.336 124.08 398.128 115.696 398.128C111.856 398.128 107.824 400.112 104.944 402.864H104.752L104.304 398.896H99.952V443.12ZM113.52 426.352C111.408 426.352 108.144 425.328 105.2 422.704V407.216C108.4 404.016 111.6 402.544 114.352 402.544C120.56 402.544 123.12 407.152 123.12 414C123.12 421.68 119.088 426.352 113.52 426.352ZM157.591 430.768C161.495 430.768 164.503 429.936 167.319 428.912L166.167 425.072C163.927 425.904 161.623 426.48 158.679 426.48C152.663 426.48 150.807 423.536 150.807 417.968V403.184H166.103V398.896H150.807V388.912H146.455L145.751 398.896L136.791 399.216V403.184H145.559V417.904C145.559 425.584 148.503 430.768 157.591 430.768ZM190.59 430.768C199.486 430.768 204.414 426.544 204.414 421.488C204.414 416.752 201.918 414.128 191.55 411.888C185.214 410.544 182.526 409.392 182.526 406.704C182.526 404.336 184.382 402.224 189.694 402.224C193.662 402.224 197.246 403.504 200.126 405.488L202.686 402.096C199.614 399.984 194.878 398.128 190.142 398.128C181.63 398.128 177.214 401.968 177.214 406.96C177.214 411.632 181.31 414.384 189.374 416.048C197.822 417.776 199.102 419.44 199.102 421.808C199.102 424.432 196.478 426.672 191.23 426.672C185.47 426.672 181.31 425.008 177.726 422.448L175.294 425.904C179.07 428.528 184.51 430.768 190.59 430.768ZM543.837 441.264L546.717 438.576C538.141 431.344 534.173 422.96 534.173 412.208C534.173 401.456 538.141 393.072 546.717 385.84L543.837 383.152C534.941 390.064 529.437 399.856 529.437 412.208C529.437 424.56 534.941 434.352 543.837 441.264ZM560.452 443.12H565.7V432.624L565.444 426.736H565.636C568.388 429.296 572.036 430.768 574.916 430.768C582.404 430.768 589.06 424.56 589.06 414C589.06 404.336 584.58 398.128 576.196 398.128C572.356 398.128 568.324 400.112 565.444 402.864H565.252L564.804 398.896H560.452V443.12ZM574.02 426.352C571.908 426.352 568.644 425.328 565.7 422.704V407.216C568.9 404.016 572.1 402.544 574.852 402.544C581.06 402.544 583.62 407.152 583.62 414C583.62 421.68 579.588 426.352 574.02 426.352ZM618.091 430.768C621.995 430.768 625.003 429.936 627.819 428.912L626.667 425.072C624.427 425.904 622.123 426.48 619.179 426.48C613.163 426.48 611.307 423.536 611.307 417.968V403.184H626.603V398.896H611.307V388.912H606.955L606.251 398.896L597.291 399.216V403.184H606.059V417.904C606.059 425.584 609.003 430.768 618.091 430.768ZM675.065 404.016H702.585V400.048H675.065V404.016ZM675.065 417.712H702.585V413.744H675.065V417.712ZM714.848 426.928L738.72 410.736V406.768L714.848 390.576V395.632L734.112 408.624V408.88L714.848 421.872V426.928ZM809.966 430.768C813.87 430.768 816.878 429.936 819.694 428.912L818.542 425.072C816.302 425.904 813.998 426.48 811.054 426.48C805.038 426.48 803.182 423.536 803.182 417.968V403.184H818.478V398.896H803.182V388.912H798.83L798.126 398.896L789.166 399.216V403.184H797.934V417.904C797.934 425.584 800.878 430.768 809.966 430.768ZM842.325 430.768C850.517 430.768 857.685 424.816 857.685 414.512C857.685 404.08 850.517 398.128 842.325 398.128C834.133 398.128 826.965 404.08 826.965 414.512C826.965 424.816 834.133 430.768 842.325 430.768ZM842.325 426.416C836.373 426.416 832.405 421.616 832.405 414.512C832.405 407.344 836.373 402.48 842.325 402.48C848.277 402.48 852.245 407.344 852.245 414.512C852.245 421.616 848.277 426.416 842.325 426.416ZM886.716 430.768C890.62 430.768 893.628 429.936 896.444 428.912L895.292 425.072C893.052 425.904 890.748 426.48 887.804 426.48C881.788 426.48 879.932 423.536 879.932 417.968V403.184H895.228V398.896H879.932V388.912H875.58L874.876 398.896L865.916 399.216V403.184H874.684V417.904C874.684 425.584 877.628 430.768 886.716 430.768ZM915.619 430.768C920.035 430.768 924.451 428.464 927.907 425.776H928.099L928.547 430H932.835V410.928C932.835 403.184 928.739 398.128 920.227 398.128C914.787 398.128 909.539 400.56 906.403 402.608L908.451 406.192C911.331 404.4 915.299 402.48 919.331 402.48C925.347 402.48 927.459 406.064 927.587 410.288C911.523 411.568 905.059 414.96 905.059 421.936C905.059 427.504 909.795 430.768 915.619 430.768ZM917.027 426.544C913.443 426.544 910.179 425.072 910.179 421.552C910.179 417.456 914.275 414.832 927.587 413.744V421.936C924.067 424.88 920.547 426.544 917.027 426.544ZM964.298 430.768C967.69 430.768 969.738 430.128 972.618 428.912L971.274 425.008C969.162 425.968 967.242 426.416 965.45 426.416C961.738 426.416 959.306 424.496 959.306 419.952V384.432H942.986V388.72H954.058V419.568C954.058 426.928 957.706 430.768 964.298 430.768ZM1032.09 423.344H1036.31V410.864H1047.96V406.896H1036.31V394.416H1032.09V406.896H1020.44V410.864H1032.09V423.344ZM1058.82 404.016H1086.34V400.048H1058.82V404.016ZM1058.82 417.712H1086.34V413.744H1058.82V417.712ZM1136.08 443.12H1141.33V432.624L1141.07 426.736H1141.26C1144.01 429.296 1147.66 430.768 1150.54 430.768C1158.03 430.768 1164.69 424.56 1164.69 414C1164.69 404.336 1160.21 398.128 1151.82 398.128C1147.98 398.128 1143.95 400.112 1141.07 402.864H1140.88L1140.43 398.896H1136.08V443.12ZM1149.65 426.352C1147.53 426.352 1144.27 425.328 1141.33 422.704V407.216C1144.53 404.016 1147.73 402.544 1150.48 402.544C1156.69 402.544 1159.25 407.152 1159.25 414C1159.25 421.68 1155.21 426.352 1149.65 426.352ZM1193.72 430.768C1197.62 430.768 1200.63 429.936 1203.44 428.912L1202.29 425.072C1200.05 425.904 1197.75 426.48 1194.8 426.48C1188.79 426.48 1186.93 423.536 1186.93 417.968V403.184H1202.23V398.896H1186.93V388.912H1182.58L1181.88 398.896L1172.92 399.216V403.184H1181.68V417.904C1181.68 425.584 1184.63 430.768 1193.72 430.768ZM1217.56 441.264C1226.46 434.352 1231.96 424.56 1231.96 412.208C1231.96 399.856 1226.46 390.064 1217.56 383.152L1214.68 385.84C1223.26 393.072 1227.23 401.456 1227.23 412.208C1227.23 422.96 1223.26 431.344 1214.68 438.576L1217.56 441.264Z" fill="#2F4858"/>
<path d="M228.325 430.768C231.205 430.768 233.509 428.592 233.509 425.392C233.509 422.128 231.205 419.952 228.325 419.952C225.445 419.952 223.141 422.128 223.141 425.392C223.141 428.592 225.445 430.768 228.325 430.768ZM262.988 430H268.172V403.184H281.228V398.896H268.172V396.08C268.172 391.024 270.476 387.952 276.044 387.952C278.732 387.952 280.716 388.272 283.276 389.424L284.492 385.456C281.548 384.24 278.604 383.664 275.532 383.664C266.956 383.664 262.988 388.656 262.988 396.272V398.896L254.092 399.216V403.184H262.988V430ZM305.075 430.768C313.267 430.768 320.435 424.816 320.435 414.512C320.435 404.08 313.267 398.128 305.075 398.128C296.883 398.128 289.715 404.08 289.715 414.512C289.715 424.816 296.883 430.768 305.075 430.768ZM305.075 426.416C299.123 426.416 295.155 421.616 295.155 414.512C295.155 407.344 299.123 402.48 305.075 402.48C311.027 402.48 314.995 407.344 314.995 414.512C314.995 421.616 311.027 426.416 305.075 426.416ZM333.594 430H338.842V411.76C342.554 405.296 346.97 402.864 351.642 402.864C354.074 402.864 355.226 403.184 357.402 403.952L358.618 399.408C356.698 398.448 354.778 398.128 352.474 398.128C346.714 398.128 341.85 401.264 338.586 406.256H338.394L337.946 398.896H333.594V430ZM369.921 430H396.545V425.456H375.297V410.224H392.705V405.68H375.297V392.496H395.905V388.016H369.921V430ZM416.744 430.768C421.16 430.768 425.576 428.464 429.032 425.776H429.224L429.672 430H433.96V410.928C433.96 403.184 429.864 398.128 421.352 398.128C415.912 398.128 410.664 400.56 407.528 402.608L409.576 406.192C412.456 404.4 416.424 402.48 420.456 402.48C426.472 402.48 428.584 406.064 428.712 410.288C412.648 411.568 406.184 414.96 406.184 421.936C406.184 427.504 410.92 430.768 416.744 430.768ZM418.152 426.544C414.568 426.544 411.304 425.072 411.304 421.552C411.304 417.456 415.4 414.832 428.712 413.744V421.936C425.192 424.88 421.672 426.544 418.152 426.544ZM461.519 430.768C466.127 430.768 470.415 428.976 473.871 425.904L471.503 422.512C468.943 424.688 465.743 426.416 461.903 426.416C454.735 426.416 449.935 421.616 449.935 414.512C449.935 407.344 454.863 402.48 462.031 402.48C465.295 402.48 467.983 403.824 470.543 406.064L473.167 402.672C470.607 400.176 466.895 398.128 461.839 398.128C452.431 398.128 444.495 404.08 444.495 414.512C444.495 424.816 451.791 430.768 461.519 430.768ZM483.702 430H488.95V408.304C492.598 404.528 495.094 402.672 498.806 402.672C503.926 402.672 505.974 405.488 505.974 411.376V430H511.222V410.672C511.222 402.48 507.83 398.128 500.47 398.128C495.606 398.128 492.022 400.752 488.822 404.208H488.63L488.95 396.848V384.432H483.702V430Z" fill="#B24E72"/>
</svg>
