<svg width="1920" height="1080" viewBox="0 0 1920 1080" fill="none" xmlns="http://www.w3.org/2000/svg">
<rect width="1920" height="1080" fill="white"/>
<path d="M816 161L971 161V316H816V161Z" fill="white"/>
<rect x="816" y="161" width="155" height="155" fill="#2F4858"/>
<path d="M912.26 267.918C913.188 267.918 913.924 268.19 914.468 268.734C915.012 269.278 915.284 269.982 915.284 270.846V276.03H869.396V273.102C869.396 272.494 869.524 271.87 869.78 271.23C870.036 270.59 870.436 269.998 870.98 269.454L893.012 247.326C894.836 245.47 896.5 243.694 898.004 241.998C899.508 240.27 900.788 238.542 901.844 236.814C902.9 235.086 903.716 233.342 904.292 231.582C904.868 229.79 905.156 227.886 905.156 225.87C905.156 223.854 904.836 222.094 904.196 220.59C903.556 219.054 902.676 217.79 901.556 216.798C900.468 215.806 899.172 215.07 897.668 214.59C896.164 214.078 894.548 213.822 892.82 213.822C891.06 213.822 889.444 214.078 887.972 214.59C886.5 215.102 885.188 215.822 884.036 216.75C882.916 217.646 881.972 218.718 881.204 219.966C880.436 221.214 879.892 222.59 879.572 224.094C879.188 225.214 878.66 225.966 877.988 226.35C877.348 226.702 876.436 226.798 875.252 226.638L870.788 225.87C871.236 222.734 872.1 219.966 873.38 217.566C874.692 215.134 876.324 213.102 878.276 211.47C880.26 209.838 882.516 208.606 885.044 207.774C887.572 206.91 890.308 206.478 893.252 206.478C896.164 206.478 898.884 206.91 901.412 207.774C903.94 208.638 906.132 209.902 907.988 211.566C909.844 213.198 911.3 215.198 912.356 217.566C913.412 219.934 913.94 222.622 913.94 225.63C913.94 228.19 913.556 230.574 912.788 232.782C912.02 234.958 910.98 237.038 909.668 239.022C908.356 241.006 906.836 242.942 905.108 244.83C903.412 246.718 901.604 248.622 899.684 250.542L881.54 269.07C882.82 268.718 884.116 268.446 885.428 268.254C886.74 268.03 888.004 267.918 889.22 267.918H912.26Z" fill="white"/>
<g opacity="0.3">
<rect x="816" y="382" width="155" height="155" fill="#4D8DC9"/>
<path d="M913.748 490.502V497.03H876.884V490.502H891.62V443.606C891.62 442.198 891.668 440.774 891.764 439.334L879.524 449.846C879.108 450.198 878.692 450.422 878.276 450.518C877.86 450.582 877.476 450.582 877.124 450.518C876.772 450.454 876.436 450.326 876.116 450.134C875.828 449.942 875.604 449.734 875.444 449.51L872.756 445.814L893.252 428.102H900.212V490.502H913.748Z" fill="white"/>
</g>
<g opacity="0.3">
<rect x="816.5" y="603.5" width="154" height="153" fill="#44BC96"/>
<path d="M899.929 692.701V664.333C899.929 663.501 899.961 662.589 900.025 661.597C900.089 660.605 900.185 659.597 900.313 658.573L875.257 692.701H899.929ZM917.833 692.701V697.597C917.833 698.109 917.673 698.541 917.353 698.893C917.065 699.245 916.601 699.421 915.961 699.421H907.417V717.517H899.929V699.421H869.401C868.761 699.421 868.201 699.245 867.721 698.893C867.273 698.509 866.985 698.045 866.857 697.501L865.993 693.133L899.449 648.733H907.417V692.701H917.833Z" fill="white"/>
</g>
<g opacity="0.3">
<path d="M816 823H971V978H816V823Z" fill="#E3848B"/>
<rect x="816" y="823" width="155" height="155" fill="#E3848B"/>
<path d="M885.904 931.502V938.03H849.04V931.502H863.776V884.606C863.776 883.198 863.824 881.774 863.92 880.334L851.68 890.846C851.264 891.198 850.848 891.422 850.432 891.518C850.016 891.582 849.632 891.582 849.28 891.518C848.928 891.454 848.592 891.326 848.272 891.134C847.984 890.942 847.76 890.734 847.6 890.51L844.912 886.814L865.408 869.102H872.368V931.502H885.904ZM945.528 903.662C945.528 909.678 944.872 914.894 943.56 919.31C942.28 923.694 940.52 927.326 938.28 930.206C936.04 933.086 933.384 935.23 930.312 936.638C927.272 938.046 924.008 938.75 920.52 938.75C917 938.75 913.72 938.046 910.68 936.638C907.672 935.23 905.048 933.086 902.808 930.206C900.568 927.326 898.808 923.694 897.528 919.31C896.248 914.894 895.608 909.678 895.608 903.662C895.608 897.646 896.248 892.43 897.528 888.014C898.808 883.598 900.568 879.95 902.808 877.07C905.048 874.158 907.672 871.998 910.68 870.59C913.72 869.182 917 868.478 920.52 868.478C924.008 868.478 927.272 869.182 930.312 870.59C933.384 871.998 936.04 874.158 938.28 877.07C940.52 879.95 942.28 883.598 943.56 888.014C944.872 892.43 945.528 897.646 945.528 903.662ZM936.648 903.662C936.648 898.414 936.2 894.014 935.304 890.462C934.44 886.878 933.256 883.998 931.752 881.822C930.28 879.646 928.568 878.094 926.616 877.166C924.664 876.206 922.632 875.726 920.52 875.726C918.408 875.726 916.376 876.206 914.424 877.166C912.472 878.094 910.76 879.646 909.288 881.822C907.816 883.998 906.632 886.878 905.736 890.462C904.872 894.014 904.44 898.414 904.44 903.662C904.44 908.91 904.872 913.31 905.736 916.862C906.632 920.414 907.816 923.278 909.288 925.454C910.76 927.63 912.472 929.198 914.424 930.158C916.376 931.086 918.408 931.55 920.52 931.55C922.632 931.55 924.664 931.086 926.616 930.158C928.568 929.198 930.28 927.63 931.752 925.454C933.256 923.278 934.44 920.414 935.304 916.862C936.2 913.31 936.648 908.91 936.648 903.662Z" fill="white"/>
</g>
<rect x="566.5" y="162.5" width="152" height="152" stroke="#6D7E8A" stroke-width="3" stroke-dasharray="10 5"/>
<path d="M666.684 241.662C666.684 247.678 666.028 252.894 664.716 257.31C663.436 261.694 661.676 265.326 659.436 268.206C657.196 271.086 654.54 273.23 651.468 274.638C648.428 276.046 645.164 276.75 641.676 276.75C638.156 276.75 634.876 276.046 631.836 274.638C628.828 273.23 626.204 271.086 623.964 268.206C621.724 265.326 619.964 261.694 618.684 257.31C617.404 252.894 616.764 247.678 616.764 241.662C616.764 235.646 617.404 230.43 618.684 226.014C619.964 221.598 621.724 217.95 623.964 215.07C626.204 212.158 628.828 209.998 631.836 208.59C634.876 207.182 638.156 206.478 641.676 206.478C645.164 206.478 648.428 207.182 651.468 208.59C654.54 209.998 657.196 212.158 659.436 215.07C661.676 217.95 663.436 221.598 664.716 226.014C666.028 230.43 666.684 235.646 666.684 241.662ZM657.804 241.662C657.804 236.414 657.356 232.014 656.46 228.462C655.596 224.878 654.412 221.998 652.908 219.822C651.436 217.646 649.724 216.094 647.772 215.166C645.82 214.206 643.788 213.726 641.676 213.726C639.564 213.726 637.532 214.206 635.58 215.166C633.628 216.094 631.916 217.646 630.444 219.822C628.972 221.998 627.788 224.878 626.892 228.462C626.028 232.014 625.596 236.414 625.596 241.662C625.596 246.91 626.028 251.31 626.892 254.862C627.788 258.414 628.972 261.278 630.444 263.454C631.916 265.63 633.628 267.198 635.58 268.158C637.532 269.086 639.564 269.55 641.676 269.55C643.788 269.55 645.82 269.086 647.772 268.158C649.724 267.198 651.436 265.63 652.908 263.454C654.412 261.278 655.596 258.414 656.46 254.862C657.356 251.31 657.804 246.91 657.804 241.662Z" fill="#2F4858"/>
<rect x="566.5" y="603.5" width="152" height="152" stroke="#6D7E8A" stroke-width="3" stroke-dasharray="10 5"/>
<path d="M661.26 708.918C662.188 708.918 662.924 709.19 663.468 709.734C664.012 710.278 664.284 710.982 664.284 711.846V717.03H618.396V714.102C618.396 713.494 618.524 712.87 618.78 712.23C619.036 711.59 619.436 710.998 619.98 710.454L642.012 688.326C643.836 686.47 645.5 684.694 647.004 682.998C648.508 681.27 649.788 679.542 650.844 677.814C651.9 676.086 652.716 674.342 653.292 672.582C653.868 670.79 654.156 668.886 654.156 666.87C654.156 664.854 653.836 663.094 653.196 661.59C652.556 660.054 651.676 658.79 650.556 657.798C649.468 656.806 648.172 656.07 646.668 655.59C645.164 655.078 643.548 654.822 641.82 654.822C640.06 654.822 638.444 655.078 636.972 655.59C635.5 656.102 634.188 656.822 633.036 657.75C631.916 658.646 630.972 659.718 630.204 660.966C629.436 662.214 628.892 663.59 628.572 665.094C628.188 666.214 627.66 666.966 626.988 667.35C626.348 667.702 625.436 667.798 624.252 667.638L619.788 666.87C620.236 663.734 621.1 660.966 622.38 658.566C623.692 656.134 625.324 654.102 627.276 652.47C629.26 650.838 631.516 649.606 634.044 648.774C636.572 647.91 639.308 647.478 642.252 647.478C645.164 647.478 647.884 647.91 650.412 648.774C652.94 649.638 655.132 650.902 656.988 652.566C658.844 654.198 660.3 656.198 661.356 658.566C662.412 660.934 662.94 663.622 662.94 666.63C662.94 669.19 662.556 671.574 661.788 673.782C661.02 675.958 659.98 678.038 658.668 680.022C657.356 682.006 655.836 683.942 654.108 685.83C652.412 687.718 650.604 689.622 648.684 691.542L630.54 710.07C631.82 709.718 633.116 709.446 634.428 709.254C635.74 709.03 637.004 708.918 638.22 708.918H661.26Z" fill="white"/>
<rect x="566.5" y="823.5" width="152" height="152" stroke="#6D7E8A" stroke-width="3" stroke-dasharray="10 5"/>
<path d="M661.26 928.918C662.188 928.918 662.924 929.19 663.468 929.734C664.012 930.278 664.284 930.982 664.284 931.846V937.03H618.396V934.102C618.396 933.494 618.524 932.87 618.78 932.23C619.036 931.59 619.436 930.998 619.98 930.454L642.012 908.326C643.836 906.47 645.5 904.694 647.004 902.998C648.508 901.27 649.788 899.542 650.844 897.814C651.9 896.086 652.716 894.342 653.292 892.582C653.868 890.79 654.156 888.886 654.156 886.87C654.156 884.854 653.836 883.094 653.196 881.59C652.556 880.054 651.676 878.79 650.556 877.798C649.468 876.806 648.172 876.07 646.668 875.59C645.164 875.078 643.548 874.822 641.82 874.822C640.06 874.822 638.444 875.078 636.972 875.59C635.5 876.102 634.188 876.822 633.036 877.75C631.916 878.646 630.972 879.718 630.204 880.966C629.436 882.214 628.892 883.59 628.572 885.094C628.188 886.214 627.66 886.966 626.988 887.35C626.348 887.702 625.436 887.798 624.252 887.638L619.788 886.87C620.236 883.734 621.1 880.966 622.38 878.566C623.692 876.134 625.324 874.102 627.276 872.47C629.26 870.838 631.516 869.606 634.044 868.774C636.572 867.91 639.308 867.478 642.252 867.478C645.164 867.478 647.884 867.91 650.412 868.774C652.94 869.638 655.132 870.902 656.988 872.566C658.844 874.198 660.3 876.198 661.356 878.566C662.412 880.934 662.94 883.622 662.94 886.63C662.94 889.19 662.556 891.574 661.788 893.782C661.02 895.958 659.98 898.038 658.668 900.022C657.356 902.006 655.836 903.942 654.108 905.83C652.412 907.718 650.604 909.622 648.684 911.542L630.54 930.07C631.82 929.718 633.116 929.446 634.428 929.254C635.74 929.03 637.004 928.918 638.22 928.918H661.26Z" fill="white"/>
<rect x="566.5" y="383.5" width="152" height="152" stroke="#6D7E8A" stroke-width="3" stroke-dasharray="10 5"/>
<path d="M661.26 488.918C662.188 488.918 662.924 489.19 663.468 489.734C664.012 490.278 664.284 490.982 664.284 491.846V497.03H618.396V494.102C618.396 493.494 618.524 492.87 618.78 492.23C619.036 491.59 619.436 490.998 619.98 490.454L642.012 468.326C643.836 466.47 645.5 464.694 647.004 462.998C648.508 461.27 649.788 459.542 650.844 457.814C651.9 456.086 652.716 454.342 653.292 452.582C653.868 450.79 654.156 448.886 654.156 446.87C654.156 444.854 653.836 443.094 653.196 441.59C652.556 440.054 651.676 438.79 650.556 437.798C649.468 436.806 648.172 436.07 646.668 435.59C645.164 435.078 643.548 434.822 641.82 434.822C640.06 434.822 638.444 435.078 636.972 435.59C635.5 436.102 634.188 436.822 633.036 437.75C631.916 438.646 630.972 439.718 630.204 440.966C629.436 442.214 628.892 443.59 628.572 445.094C628.188 446.214 627.66 446.966 626.988 447.35C626.348 447.702 625.436 447.798 624.252 447.638L619.788 446.87C620.236 443.734 621.1 440.966 622.38 438.566C623.692 436.134 625.324 434.102 627.276 432.47C629.26 430.838 631.516 429.606 634.044 428.774C636.572 427.91 639.308 427.478 642.252 427.478C645.164 427.478 647.884 427.91 650.412 428.774C652.94 429.638 655.132 430.902 656.988 432.566C658.844 434.198 660.3 436.198 661.356 438.566C662.412 440.934 662.94 443.622 662.94 446.63C662.94 449.19 662.556 451.574 661.788 453.782C661.02 455.958 659.98 458.038 658.668 460.022C657.356 462.006 655.836 463.942 654.108 465.83C652.412 467.718 650.604 469.622 648.684 471.542L630.54 490.07C631.82 489.718 633.116 489.446 634.428 489.254C635.74 489.03 637.004 488.918 638.22 488.918H661.26Z" fill="white"/>
<path d="M93.952 269.12H99.2V258.624L98.944 252.736H99.136C101.888 255.296 105.536 256.768 108.416 256.768C115.904 256.768 122.56 250.56 122.56 240C122.56 230.336 118.08 224.128 109.696 224.128C105.856 224.128 101.824 226.112 98.944 228.864H98.752L98.304 224.896H93.952V269.12ZM107.52 252.352C105.408 252.352 102.144 251.328 99.2 248.704V233.216C102.4 230.016 105.6 228.544 108.352 228.544C114.56 228.544 117.12 233.152 117.12 240C117.12 247.68 113.088 252.352 107.52 252.352ZM151.591 256.768C155.495 256.768 158.503 255.936 161.319 254.912L160.167 251.072C157.927 251.904 155.623 252.48 152.679 252.48C146.663 252.48 144.807 249.536 144.807 243.968V229.184H160.103V224.896H144.807V214.912H140.455L139.751 224.896L130.791 225.216V229.184H139.559V243.904C139.559 251.584 142.503 256.768 151.591 256.768ZM184.59 256.768C193.486 256.768 198.414 252.544 198.414 247.488C198.414 242.752 195.918 240.128 185.55 237.888C179.214 236.544 176.526 235.392 176.526 232.704C176.526 230.336 178.382 228.224 183.694 228.224C187.662 228.224 191.246 229.504 194.126 231.488L196.686 228.096C193.614 225.984 188.878 224.128 184.142 224.128C175.63 224.128 171.214 227.968 171.214 232.96C171.214 237.632 175.31 240.384 183.374 242.048C191.822 243.776 193.102 245.44 193.102 247.808C193.102 250.432 190.478 252.672 185.23 252.672C179.47 252.672 175.31 251.008 171.726 248.448L169.294 251.904C173.07 254.528 178.51 256.768 184.59 256.768ZM499.462 267.264L502.342 264.576C493.766 257.344 489.798 248.96 489.798 238.208C489.798 227.456 493.766 219.072 502.342 211.84L499.462 209.152C490.566 216.064 485.062 225.856 485.062 238.208C485.062 250.56 490.566 260.352 499.462 267.264ZM537.837 267.264L540.717 264.576C532.141 257.344 528.173 248.96 528.173 238.208C528.173 227.456 532.141 219.072 540.717 211.84L537.837 209.152C528.941 216.064 523.437 225.856 523.437 238.208C523.437 250.56 528.941 260.352 537.837 267.264ZM754.455 269.632C761.495 267.008 765.719 261.76 765.719 254.272C765.719 249.28 763.735 246.08 759.959 246.08C757.207 246.08 754.839 247.808 754.839 250.944C754.839 254.144 757.079 255.744 759.831 255.744C760.215 255.744 760.663 255.744 761.047 255.616C760.855 260.672 758.231 263.936 752.983 266.304L754.455 269.632ZM981.313 267.264C990.209 260.352 995.713 250.56 995.713 238.208C995.713 225.856 990.209 216.064 981.313 209.152L978.433 211.84C987.009 219.072 990.977 227.456 990.977 238.208C990.977 248.96 987.009 257.344 978.433 264.576L981.313 267.264ZM1052.82 230.016H1080.34V226.048H1052.82V230.016ZM1052.82 243.712H1080.34V239.744H1052.82V243.712ZM1092.6 252.928L1116.47 236.736V232.768L1092.6 216.576V221.632L1111.86 234.624V234.88L1092.6 247.872V252.928ZM1187.72 256.768C1191.62 256.768 1194.63 255.936 1197.44 254.912L1196.29 251.072C1194.05 251.904 1191.75 252.48 1188.8 252.48C1182.79 252.48 1180.93 249.536 1180.93 243.968V229.184H1196.23V224.896H1180.93V214.912H1176.58L1175.88 224.896L1166.92 225.216V229.184H1175.68V243.904C1175.68 251.584 1178.63 256.768 1187.72 256.768ZM1220.08 256.768C1228.27 256.768 1235.44 250.816 1235.44 240.512C1235.44 230.08 1228.27 224.128 1220.08 224.128C1211.88 224.128 1204.72 230.08 1204.72 240.512C1204.72 250.816 1211.88 256.768 1220.08 256.768ZM1220.08 252.416C1214.12 252.416 1210.16 247.616 1210.16 240.512C1210.16 233.344 1214.12 228.48 1220.08 228.48C1226.03 228.48 1230 233.344 1230 240.512C1230 247.616 1226.03 252.416 1220.08 252.416ZM1264.47 256.768C1268.37 256.768 1271.38 255.936 1274.19 254.912L1273.04 251.072C1270.8 251.904 1268.5 252.48 1265.55 252.48C1259.54 252.48 1257.68 249.536 1257.68 243.968V229.184H1272.98V224.896H1257.68V214.912H1253.33L1252.63 224.896L1243.67 225.216V229.184H1252.43V243.904C1252.43 251.584 1255.38 256.768 1264.47 256.768ZM1293.37 256.768C1297.79 256.768 1302.2 254.464 1305.66 251.776H1305.85L1306.3 256H1310.59V236.928C1310.59 229.184 1306.49 224.128 1297.98 224.128C1292.54 224.128 1287.29 226.56 1284.15 228.608L1286.2 232.192C1289.08 230.4 1293.05 228.48 1297.08 228.48C1303.1 228.48 1305.21 232.064 1305.34 236.288C1289.27 237.568 1282.81 240.96 1282.81 247.936C1282.81 253.504 1287.55 256.768 1293.37 256.768ZM1294.78 252.544C1291.19 252.544 1287.93 251.072 1287.93 247.552C1287.93 243.456 1292.03 240.832 1305.34 239.744V247.936C1301.82 250.88 1298.3 252.544 1294.78 252.544ZM1342.05 256.768C1345.44 256.768 1347.49 256.128 1350.37 254.912L1349.02 251.008C1346.91 251.968 1344.99 252.416 1343.2 252.416C1339.49 252.416 1337.06 250.496 1337.06 245.952V210.432H1320.74V214.72H1331.81V245.568C1331.81 252.928 1335.46 256.768 1342.05 256.768ZM1409.84 249.344H1414.06V236.864H1425.71V232.896H1414.06V220.416H1409.84V232.896H1398.19V236.864H1409.84V249.344ZM1475.45 269.12H1480.7V258.624L1480.44 252.736H1480.64C1483.39 255.296 1487.04 256.768 1489.92 256.768C1497.4 256.768 1504.06 250.56 1504.06 240C1504.06 230.336 1499.58 224.128 1491.2 224.128C1487.36 224.128 1483.32 226.112 1480.44 228.864H1480.25L1479.8 224.896H1475.45V269.12ZM1489.02 252.352C1486.91 252.352 1483.64 251.328 1480.7 248.704V233.216C1483.9 230.016 1487.1 228.544 1489.85 228.544C1496.06 228.544 1498.62 233.152 1498.62 240C1498.62 247.68 1494.59 252.352 1489.02 252.352ZM1533.09 256.768C1537 256.768 1540 255.936 1542.82 254.912L1541.67 251.072C1539.43 251.904 1537.12 252.48 1534.18 252.48C1528.16 252.48 1526.31 249.536 1526.31 243.968V229.184H1541.6V224.896H1526.31V214.912H1521.96L1521.25 224.896L1512.29 225.216V229.184H1521.06V243.904C1521.06 251.584 1524 256.768 1533.09 256.768ZM1672.06 267.264C1680.96 260.352 1686.46 250.56 1686.46 238.208C1686.46 225.856 1680.96 216.064 1672.06 209.152L1669.18 211.84C1677.76 219.072 1681.73 227.456 1681.73 238.208C1681.73 248.96 1677.76 257.344 1669.18 264.576L1672.06 267.264Z" fill="#2F4858"/>
<path d="M222.325 256.768C225.205 256.768 227.509 254.592 227.509 251.392C227.509 248.128 225.205 245.952 222.325 245.952C219.445 245.952 217.141 248.128 217.141 251.392C217.141 254.592 219.445 256.768 222.325 256.768ZM250.844 256H256.092V237.76C259.804 231.296 264.22 228.864 268.892 228.864C271.324 228.864 272.476 229.184 274.652 229.952L275.868 225.408C273.948 224.448 272.028 224.128 269.724 224.128C263.964 224.128 259.1 227.264 255.836 232.256H255.644L255.196 224.896H250.844V256ZM300.995 256.768C305.987 256.768 309.955 255.104 313.027 253.056L311.107 249.6C308.291 251.392 305.347 252.544 301.635 252.544C295.171 252.544 290.179 248.96 289.539 241.92H314.051C314.179 241.088 314.307 239.936 314.307 238.72C314.307 229.952 309.059 224.128 300.099 224.128C291.779 224.128 284.227 230.272 284.227 240.384C284.227 250.752 291.651 256.768 300.995 256.768ZM300.227 228.288C305.539 228.288 309.059 231.424 309.507 237.824H289.667C290.627 231.68 295.107 228.288 300.227 228.288ZM335.594 256.768C339.434 256.768 343.146 254.528 345.706 251.904H345.898L346.346 256H350.698V210.432H345.45V222.4L345.706 228.16H345.514C342.826 225.6 339.946 224.128 336.234 224.128C328.874 224.128 322.09 230.4 322.09 240.512C322.09 250.88 327.466 256.768 335.594 256.768ZM336.682 252.352C330.922 252.352 327.53 247.872 327.53 240.448C327.53 233.344 331.882 228.544 337.258 228.544C339.946 228.544 342.634 229.568 345.45 232.192V247.68C342.698 250.752 339.754 252.352 336.682 252.352ZM372.369 256.768C377.169 256.768 380.817 254.208 383.953 250.56H384.209L384.657 256H388.945V224.896H383.697V246.464C380.241 250.496 377.617 252.224 374.033 252.224C368.849 252.224 366.865 249.408 366.865 243.52V224.896H361.553V244.224C361.553 252.416 364.945 256.768 372.369 256.768ZM417.144 256.768C421.752 256.768 426.04 254.976 429.496 251.904L427.128 248.512C424.568 250.688 421.368 252.416 417.528 252.416C410.36 252.416 405.56 247.616 405.56 240.512C405.56 233.344 410.488 228.48 417.656 228.48C420.92 228.48 423.608 229.824 426.168 232.064L428.792 228.672C426.232 226.176 422.52 224.128 417.464 224.128C408.056 224.128 400.12 230.08 400.12 240.512C400.12 250.816 407.416 256.768 417.144 256.768ZM454.495 256.768C459.487 256.768 463.455 255.104 466.527 253.056L464.607 249.6C461.791 251.392 458.847 252.544 455.135 252.544C448.671 252.544 443.679 248.96 443.039 241.92H467.551C467.679 241.088 467.807 239.936 467.807 238.72C467.807 229.952 462.559 224.128 453.599 224.128C445.279 224.128 437.727 230.272 437.727 240.384C437.727 250.752 445.151 256.768 454.495 256.768ZM453.727 228.288C459.039 228.288 462.559 231.424 463.007 237.824H443.167C444.127 231.68 448.607 228.288 453.727 228.288Z" fill="#B24E72"/>
<path d="M1560.33 269.632C1567.37 267.008 1571.59 261.76 1571.59 254.272C1571.59 249.28 1569.61 246.08 1565.83 246.08C1563.08 246.08 1560.71 247.808 1560.71 250.944C1560.71 254.144 1562.95 255.744 1565.71 255.744C1566.09 255.744 1566.54 255.744 1566.92 255.616C1566.73 260.672 1564.11 263.936 1558.86 266.304L1560.33 269.632ZM1642.2 256.768C1651.29 256.768 1656.86 249.024 1656.86 235.456C1656.86 221.76 1651.29 214.4 1642.2 214.4C1633.11 214.4 1627.54 221.76 1627.54 235.456C1627.54 249.024 1633.11 256.768 1642.2 256.768ZM1642.2 252.544C1636.5 252.544 1632.47 247.168 1632.47 235.456C1632.47 223.68 1636.5 218.624 1642.2 218.624C1647.9 218.624 1651.93 223.68 1651.93 235.456C1651.93 247.168 1647.9 252.544 1642.2 252.544ZM1642.2 239.296C1644.31 239.296 1646.17 237.696 1646.17 235.008C1646.17 232.384 1644.31 230.784 1642.2 230.784C1640.09 230.784 1638.23 232.384 1638.23 235.008C1638.23 237.696 1640.09 239.296 1642.2 239.296Z" fill="#C0C8CC"/>
<path d="M573.279 140.768C577.183 140.768 580.191 139.936 583.007 138.912L581.854 135.072C579.615 135.904 577.311 136.48 574.367 136.48C568.351 136.48 566.495 133.536 566.495 127.968V113.184H581.791V108.896H566.495V98.912H562.143L561.439 108.896L552.479 109.216V113.184H561.247V127.904C561.247 135.584 564.191 140.768 573.279 140.768ZM605.638 140.768C613.83 140.768 620.998 134.816 620.998 124.512C620.998 114.08 613.83 108.128 605.638 108.128C597.446 108.128 590.278 114.08 590.278 124.512C590.278 134.816 597.446 140.768 605.638 140.768ZM605.638 136.416C599.686 136.416 595.718 131.616 595.718 124.512C595.718 117.344 599.686 112.48 605.638 112.48C611.59 112.48 615.558 117.344 615.558 124.512C615.558 131.616 611.59 136.416 605.638 136.416ZM650.029 140.768C653.933 140.768 656.941 139.936 659.757 138.912L658.604 135.072C656.365 135.904 654.061 136.48 651.117 136.48C645.101 136.48 643.245 133.536 643.245 127.968V113.184H658.541V108.896H643.245V98.912H638.893L638.189 108.896L629.229 109.216V113.184H637.997V127.904C637.997 135.584 640.941 140.768 650.029 140.768ZM678.932 140.768C683.348 140.768 687.764 138.464 691.22 135.776H691.412L691.86 140H696.148V120.928C696.148 113.184 692.052 108.128 683.54 108.128C678.1 108.128 672.852 110.56 669.716 112.608L671.764 116.192C674.644 114.4 678.612 112.48 682.644 112.48C688.66 112.48 690.772 116.064 690.9 120.288C674.836 121.568 668.372 124.96 668.372 131.936C668.372 137.504 673.108 140.768 678.932 140.768ZM680.34 136.544C676.756 136.544 673.492 135.072 673.492 131.552C673.492 127.456 677.588 124.832 690.9 123.744V131.936C687.38 134.88 683.86 136.544 680.34 136.544ZM727.611 140.768C731.003 140.768 733.051 140.128 735.931 138.912L734.587 135.008C732.475 135.968 730.555 136.416 728.763 136.416C725.051 136.416 722.619 134.496 722.619 129.952V94.432H706.299V98.72H717.371V129.568C717.371 136.928 721.019 140.768 727.611 140.768Z" fill="#6D7E8A"/>
<path d="M860.577 153.12H865.825V142.624L865.569 136.736H865.761C868.513 139.296 872.161 140.768 875.041 140.768C882.529 140.768 889.185 134.56 889.185 124C889.185 114.336 884.705 108.128 876.321 108.128C872.481 108.128 868.449 110.112 865.569 112.864H865.377L864.929 108.896H860.577V153.12ZM874.145 136.352C872.033 136.352 868.769 135.328 865.825 132.704V117.216C869.025 114.016 872.225 112.544 874.977 112.544C881.185 112.544 883.745 117.152 883.745 124C883.745 131.68 879.713 136.352 874.145 136.352ZM918.216 140.768C922.12 140.768 925.128 139.936 927.944 138.912L926.792 135.072C924.552 135.904 922.248 136.48 919.304 136.48C913.288 136.48 911.432 133.536 911.432 127.968V113.184H926.728V108.896H911.432V98.912H907.08L906.376 108.896L897.416 109.216V113.184H906.184V127.904C906.184 135.584 909.128 140.768 918.216 140.768Z" fill="#6D7E8A"/>
</svg>
