<svg width="1920" height="1080" viewBox="0 0 1920 1080" fill="none" xmlns="http://www.w3.org/2000/svg">
<rect width="1920" height="1080" fill="white"/>
<g opacity="0.3">
<path d="M816 161L971 161V316H816V161Z" fill="white"/>
<rect x="816" y="161" width="155" height="155" fill="#2F4858"/>
<path d="M912.26 267.918C913.188 267.918 913.924 268.19 914.468 268.734C915.012 269.278 915.284 269.982 915.284 270.846V276.03H869.396V273.102C869.396 272.494 869.524 271.87 869.78 271.23C870.036 270.59 870.436 269.998 870.98 269.454L893.012 247.326C894.836 245.47 896.5 243.694 898.004 241.998C899.508 240.27 900.788 238.542 901.844 236.814C902.9 235.086 903.716 233.342 904.292 231.582C904.868 229.79 905.156 227.886 905.156 225.87C905.156 223.854 904.836 222.094 904.196 220.59C903.556 219.054 902.676 217.79 901.556 216.798C900.468 215.806 899.172 215.07 897.668 214.59C896.164 214.078 894.548 213.822 892.82 213.822C891.06 213.822 889.444 214.078 887.972 214.59C886.5 215.102 885.188 215.822 884.036 216.75C882.916 217.646 881.972 218.718 881.204 219.966C880.436 221.214 879.892 222.59 879.572 224.094C879.188 225.214 878.66 225.966 877.988 226.35C877.348 226.702 876.436 226.798 875.252 226.638L870.788 225.87C871.236 222.734 872.1 219.966 873.38 217.566C874.692 215.134 876.324 213.102 878.276 211.47C880.26 209.838 882.516 208.606 885.044 207.774C887.572 206.91 890.308 206.478 893.252 206.478C896.164 206.478 898.884 206.91 901.412 207.774C903.94 208.638 906.132 209.902 907.988 211.566C909.844 213.198 911.3 215.198 912.356 217.566C913.412 219.934 913.94 222.622 913.94 225.63C913.94 228.19 913.556 230.574 912.788 232.782C912.02 234.958 910.98 237.038 909.668 239.022C908.356 241.006 906.836 242.942 905.108 244.83C903.412 246.718 901.604 248.622 899.684 250.542L881.54 269.07C882.82 268.718 884.116 268.446 885.428 268.254C886.74 268.03 888.004 267.918 889.22 267.918H912.26Z" fill="white"/>
</g>
<g opacity="0.3">
<rect x="816" y="382" width="155" height="155" fill="#4D8DC9"/>
<path d="M913.748 490.502V497.03H876.884V490.502H891.62V443.606C891.62 442.198 891.668 440.774 891.764 439.334L879.524 449.846C879.108 450.198 878.692 450.422 878.276 450.518C877.86 450.582 877.476 450.582 877.124 450.518C876.772 450.454 876.436 450.326 876.116 450.134C875.828 449.942 875.604 449.734 875.444 449.51L872.756 445.814L893.252 428.102H900.212V490.502H913.748Z" fill="white"/>
</g>
<g opacity="0.3">
<rect x="816.5" y="603.5" width="154" height="153" fill="#44BC96"/>
<path d="M899.929 692.701V664.333C899.929 663.501 899.961 662.589 900.025 661.597C900.089 660.605 900.185 659.597 900.313 658.573L875.257 692.701H899.929ZM917.833 692.701V697.597C917.833 698.109 917.673 698.541 917.353 698.893C917.065 699.245 916.601 699.421 915.961 699.421H907.417V717.517H899.929V699.421H869.401C868.761 699.421 868.201 699.245 867.721 698.893C867.273 698.509 866.985 698.045 866.857 697.501L865.993 693.133L899.449 648.733H907.417V692.701H917.833Z" fill="white"/>
</g>
<path d="M816 823H971V978H816V823Z" fill="#E3848B"/>
<rect x="816" y="823" width="155" height="155" fill="#E3848B"/>
<path d="M885.904 931.502V938.03H849.04V931.502H863.776V884.606C863.776 883.198 863.824 881.774 863.92 880.334L851.68 890.846C851.264 891.198 850.848 891.422 850.432 891.518C850.016 891.582 849.632 891.582 849.28 891.518C848.928 891.454 848.592 891.326 848.272 891.134C847.984 890.942 847.76 890.734 847.6 890.51L844.912 886.814L865.408 869.102H872.368V931.502H885.904ZM945.528 903.662C945.528 909.678 944.872 914.894 943.56 919.31C942.28 923.694 940.52 927.326 938.28 930.206C936.04 933.086 933.384 935.23 930.312 936.638C927.272 938.046 924.008 938.75 920.52 938.75C917 938.75 913.72 938.046 910.68 936.638C907.672 935.23 905.048 933.086 902.808 930.206C900.568 927.326 898.808 923.694 897.528 919.31C896.248 914.894 895.608 909.678 895.608 903.662C895.608 897.646 896.248 892.43 897.528 888.014C898.808 883.598 900.568 879.95 902.808 877.07C905.048 874.158 907.672 871.998 910.68 870.59C913.72 869.182 917 868.478 920.52 868.478C924.008 868.478 927.272 869.182 930.312 870.59C933.384 871.998 936.04 874.158 938.28 877.07C940.52 879.95 942.28 883.598 943.56 888.014C944.872 892.43 945.528 897.646 945.528 903.662ZM936.648 903.662C936.648 898.414 936.2 894.014 935.304 890.462C934.44 886.878 933.256 883.998 931.752 881.822C930.28 879.646 928.568 878.094 926.616 877.166C924.664 876.206 922.632 875.726 920.52 875.726C918.408 875.726 916.376 876.206 914.424 877.166C912.472 878.094 910.76 879.646 909.288 881.822C907.816 883.998 906.632 886.878 905.736 890.462C904.872 894.014 904.44 898.414 904.44 903.662C904.44 908.91 904.872 913.31 905.736 916.862C906.632 920.414 907.816 923.278 909.288 925.454C910.76 927.63 912.472 929.198 914.424 930.158C916.376 931.086 918.408 931.55 920.52 931.55C922.632 931.55 924.664 931.086 926.616 930.158C928.568 929.198 930.28 927.63 931.752 925.454C933.256 923.278 934.44 920.414 935.304 916.862C936.2 913.31 936.648 908.91 936.648 903.662Z" fill="white"/>
<rect x="566.5" y="162.5" width="152" height="152" stroke="#6D7E8A" stroke-width="3" stroke-dasharray="10 5"/>
<path d="M666.684 241.662C666.684 247.678 666.028 252.894 664.716 257.31C663.436 261.694 661.676 265.326 659.436 268.206C657.196 271.086 654.54 273.23 651.468 274.638C648.428 276.046 645.164 276.75 641.676 276.75C638.156 276.75 634.876 276.046 631.836 274.638C628.828 273.23 626.204 271.086 623.964 268.206C621.724 265.326 619.964 261.694 618.684 257.31C617.404 252.894 616.764 247.678 616.764 241.662C616.764 235.646 617.404 230.43 618.684 226.014C619.964 221.598 621.724 217.95 623.964 215.07C626.204 212.158 628.828 209.998 631.836 208.59C634.876 207.182 638.156 206.478 641.676 206.478C645.164 206.478 648.428 207.182 651.468 208.59C654.54 209.998 657.196 212.158 659.436 215.07C661.676 217.95 663.436 221.598 664.716 226.014C666.028 230.43 666.684 235.646 666.684 241.662ZM657.804 241.662C657.804 236.414 657.356 232.014 656.46 228.462C655.596 224.878 654.412 221.998 652.908 219.822C651.436 217.646 649.724 216.094 647.772 215.166C645.82 214.206 643.788 213.726 641.676 213.726C639.564 213.726 637.532 214.206 635.58 215.166C633.628 216.094 631.916 217.646 630.444 219.822C628.972 221.998 627.788 224.878 626.892 228.462C626.028 232.014 625.596 236.414 625.596 241.662C625.596 246.91 626.028 251.31 626.892 254.862C627.788 258.414 628.972 261.278 630.444 263.454C631.916 265.63 633.628 267.198 635.58 268.158C637.532 269.086 639.564 269.55 641.676 269.55C643.788 269.55 645.82 269.086 647.772 268.158C649.724 267.198 651.436 265.63 652.908 263.454C654.412 261.278 655.596 258.414 656.46 254.862C657.356 251.31 657.804 246.91 657.804 241.662Z" fill="#C0C8CC"/>
<rect x="565" y="602" width="155" height="155" fill="white"/>
<rect x="566.5" y="603.5" width="152" height="152" stroke="#6D7E8A" stroke-width="3" stroke-dasharray="10 5"/>
<path d="M620.124 666.87C620.572 663.734 621.436 660.966 622.716 658.566C623.996 656.134 625.612 654.102 627.564 652.47C629.548 650.838 631.804 649.606 634.332 648.774C636.892 647.91 639.644 647.478 642.588 647.478C645.5 647.478 648.188 647.894 650.652 648.726C653.116 649.558 655.228 650.742 656.988 652.278C658.78 653.814 660.172 655.67 661.164 657.846C662.156 660.022 662.652 662.438 662.652 665.094C662.652 667.27 662.364 669.222 661.788 670.95C661.244 672.646 660.444 674.134 659.388 675.414C658.364 676.694 657.116 677.782 655.644 678.678C654.172 679.574 652.524 680.31 650.7 680.886C655.18 682.038 658.54 684.022 660.78 686.838C663.052 689.622 664.188 693.11 664.188 697.302C664.188 700.47 663.58 703.318 662.364 705.846C661.18 708.374 659.548 710.534 657.468 712.326C655.388 714.086 652.956 715.446 650.172 716.406C647.42 717.334 644.46 717.798 641.292 717.798C637.644 717.798 634.524 717.35 631.932 716.454C629.34 715.526 627.148 714.262 625.356 712.662C623.564 711.062 622.092 709.174 620.94 706.998C619.788 704.79 618.812 702.406 618.012 699.846L621.708 698.31C622.668 697.894 623.596 697.782 624.492 697.974C625.42 698.166 626.092 698.694 626.508 699.558C626.924 700.454 627.436 701.526 628.044 702.774C628.684 704.022 629.548 705.222 630.636 706.374C631.724 707.526 633.1 708.502 634.764 709.302C636.46 710.102 638.604 710.502 641.196 710.502C643.596 710.502 645.692 710.118 647.484 709.35C649.308 708.55 650.812 707.526 651.996 706.278C653.212 705.03 654.124 703.638 654.732 702.102C655.34 700.566 655.644 699.046 655.644 697.542C655.644 695.686 655.404 693.99 654.924 692.454C654.444 690.918 653.548 689.59 652.236 688.47C650.924 687.35 649.116 686.47 646.812 685.83C644.54 685.19 641.612 684.87 638.028 684.87V678.678C640.972 678.646 643.468 678.326 645.516 677.718C647.596 677.11 649.276 676.278 650.556 675.222C651.868 674.166 652.812 672.902 653.388 671.43C653.996 669.958 654.3 668.326 654.3 666.534C654.3 664.55 653.98 662.822 653.34 661.35C652.732 659.878 651.884 658.662 650.796 657.702C649.708 656.742 648.412 656.022 646.908 655.542C645.436 655.062 643.836 654.822 642.108 654.822C640.38 654.822 638.764 655.078 637.26 655.59C635.788 656.102 634.476 656.822 633.324 657.75C632.204 658.646 631.26 659.718 630.492 660.966C629.724 662.214 629.18 663.59 628.86 665.094C628.444 666.214 627.916 666.966 627.276 667.35C626.668 667.702 625.772 667.798 624.588 667.638L620.124 666.87Z" fill="#C0C8CC"/>
<rect x="565" y="822" width="155" height="155" fill="white"/>
<rect x="566.5" y="823.5" width="152" height="152" stroke="#6D7E8A" stroke-width="3" stroke-dasharray="10 5"/>
<path d="M665.772 868.246V872.086C665.772 873.174 665.644 874.07 665.388 874.774C665.164 875.478 664.94 876.07 664.716 876.55L636.204 934.006C635.788 934.838 635.212 935.558 634.476 936.166C633.74 936.742 632.764 937.03 631.548 937.03H625.404L654.3 880.294C654.716 879.494 655.148 878.758 655.596 878.086C656.044 877.414 656.524 876.774 657.036 876.166H621.132C620.588 876.166 620.108 875.958 619.692 875.542C619.276 875.094 619.068 874.598 619.068 874.054V868.246H665.772Z" fill="#2F4858"/>
<rect x="565" y="382" width="155" height="155" fill="white"/>
<rect x="566.5" y="383.5" width="152" height="152" stroke="#6D7E8A" stroke-width="3" stroke-dasharray="10 5"/>
<path d="M661.26 488.918C662.188 488.918 662.924 489.19 663.468 489.734C664.012 490.278 664.284 490.982 664.284 491.846V497.03H618.396V494.102C618.396 493.494 618.524 492.87 618.78 492.23C619.036 491.59 619.436 490.998 619.98 490.454L642.012 468.326C643.836 466.47 645.5 464.694 647.004 462.998C648.508 461.27 649.788 459.542 650.844 457.814C651.9 456.086 652.716 454.342 653.292 452.582C653.868 450.79 654.156 448.886 654.156 446.87C654.156 444.854 653.836 443.094 653.196 441.59C652.556 440.054 651.676 438.79 650.556 437.798C649.468 436.806 648.172 436.07 646.668 435.59C645.164 435.078 643.548 434.822 641.82 434.822C640.06 434.822 638.444 435.078 636.972 435.59C635.5 436.102 634.188 436.822 633.036 437.75C631.916 438.646 630.972 439.718 630.204 440.966C629.436 442.214 628.892 443.59 628.572 445.094C628.188 446.214 627.66 446.966 626.988 447.35C626.348 447.702 625.436 447.798 624.252 447.638L619.788 446.87C620.236 443.734 621.1 440.966 622.38 438.566C623.692 436.134 625.324 434.102 627.276 432.47C629.26 430.838 631.516 429.606 634.044 428.774C636.572 427.91 639.308 427.478 642.252 427.478C645.164 427.478 647.884 427.91 650.412 428.774C652.94 429.638 655.132 430.902 656.988 432.566C658.844 434.198 660.3 436.198 661.356 438.566C662.412 440.934 662.94 443.622 662.94 446.63C662.94 449.19 662.556 451.574 661.788 453.782C661.02 455.958 659.98 458.038 658.668 460.022C657.356 462.006 655.836 463.942 654.108 465.83C652.412 467.718 650.604 469.622 648.684 471.542L630.54 490.07C631.82 489.718 633.116 489.446 634.428 489.254C635.74 489.03 637.004 488.918 638.22 488.918H661.26Z" fill="#C0C8CC"/>
<path d="M93.952 950.12H99.2V939.624L98.944 933.736H99.136C101.888 936.296 105.536 937.768 108.416 937.768C115.904 937.768 122.56 931.56 122.56 921C122.56 911.336 118.08 905.128 109.696 905.128C105.856 905.128 101.824 907.112 98.944 909.864H98.752L98.304 905.896H93.952V950.12ZM107.52 933.352C105.408 933.352 102.144 932.328 99.2 929.704V914.216C102.4 911.016 105.6 909.544 108.352 909.544C114.56 909.544 117.12 914.152 117.12 921C117.12 928.68 113.088 933.352 107.52 933.352ZM151.591 937.768C155.495 937.768 158.503 936.936 161.319 935.912L160.167 932.072C157.927 932.904 155.623 933.48 152.679 933.48C146.663 933.48 144.807 930.536 144.807 924.968V910.184H160.103V905.896H144.807V895.912H140.455L139.751 905.896L130.791 906.216V910.184H139.559V924.904C139.559 932.584 142.503 937.768 151.591 937.768ZM184.59 937.768C193.486 937.768 198.414 933.544 198.414 928.488C198.414 923.752 195.918 921.128 185.55 918.888C179.214 917.544 176.526 916.392 176.526 913.704C176.526 911.336 178.382 909.224 183.694 909.224C187.662 909.224 191.246 910.504 194.126 912.488L196.686 909.096C193.614 906.984 188.878 905.128 184.142 905.128C175.63 905.128 171.214 908.968 171.214 913.96C171.214 918.632 175.31 921.384 183.374 923.048C191.822 924.776 193.102 926.44 193.102 928.808C193.102 931.432 190.478 933.672 185.23 933.672C179.47 933.672 175.31 932.008 171.726 929.448L169.294 932.904C173.07 935.528 178.51 937.768 184.59 937.768ZM499.462 948.264L502.342 945.576C493.766 938.344 489.798 929.96 489.798 919.208C489.798 908.456 493.766 900.072 502.342 892.84L499.462 890.152C490.566 897.064 485.062 906.856 485.062 919.208C485.062 931.56 490.566 941.352 499.462 948.264ZM537.837 948.264L540.717 945.576C532.141 938.344 528.173 929.96 528.173 919.208C528.173 908.456 532.141 900.072 540.717 892.84L537.837 890.152C528.941 897.064 523.437 906.856 523.437 919.208C523.437 931.56 528.941 941.352 537.837 948.264ZM754.455 950.632C761.495 948.008 765.719 942.76 765.719 935.272C765.719 930.28 763.735 927.08 759.959 927.08C757.207 927.08 754.839 928.808 754.839 931.944C754.839 935.144 757.079 936.744 759.831 936.744C760.215 936.744 760.663 936.744 761.047 936.616C760.855 941.672 758.231 944.936 752.983 947.304L754.455 950.632ZM981.313 948.264C990.209 941.352 995.713 931.56 995.713 919.208C995.713 906.856 990.209 897.064 981.313 890.152L978.433 892.84C987.009 900.072 990.977 908.456 990.977 919.208C990.977 929.96 987.009 938.344 978.433 945.576L981.313 948.264ZM1052.82 911.016H1080.34V907.048H1052.82V911.016ZM1052.82 924.712H1080.34V920.744H1052.82V924.712ZM1092.6 933.928L1116.47 917.736V913.768L1092.6 897.576V902.632L1111.86 915.624V915.88L1092.6 928.872V933.928ZM1187.72 937.768C1191.62 937.768 1194.63 936.936 1197.44 935.912L1196.29 932.072C1194.05 932.904 1191.75 933.48 1188.8 933.48C1182.79 933.48 1180.93 930.536 1180.93 924.968V910.184H1196.23V905.896H1180.93V895.912H1176.58L1175.88 905.896L1166.92 906.216V910.184H1175.68V924.904C1175.68 932.584 1178.63 937.768 1187.72 937.768ZM1220.08 937.768C1228.27 937.768 1235.44 931.816 1235.44 921.512C1235.44 911.08 1228.27 905.128 1220.08 905.128C1211.88 905.128 1204.72 911.08 1204.72 921.512C1204.72 931.816 1211.88 937.768 1220.08 937.768ZM1220.08 933.416C1214.12 933.416 1210.16 928.616 1210.16 921.512C1210.16 914.344 1214.12 909.48 1220.08 909.48C1226.03 909.48 1230 914.344 1230 921.512C1230 928.616 1226.03 933.416 1220.08 933.416ZM1264.47 937.768C1268.37 937.768 1271.38 936.936 1274.19 935.912L1273.04 932.072C1270.8 932.904 1268.5 933.48 1265.55 933.48C1259.54 933.48 1257.68 930.536 1257.68 924.968V910.184H1272.98V905.896H1257.68V895.912H1253.33L1252.63 905.896L1243.67 906.216V910.184H1252.43V924.904C1252.43 932.584 1255.38 937.768 1264.47 937.768ZM1293.37 937.768C1297.79 937.768 1302.2 935.464 1305.66 932.776H1305.85L1306.3 937H1310.59V917.928C1310.59 910.184 1306.49 905.128 1297.98 905.128C1292.54 905.128 1287.29 907.56 1284.15 909.608L1286.2 913.192C1289.08 911.4 1293.05 909.48 1297.08 909.48C1303.1 909.48 1305.21 913.064 1305.34 917.288C1289.27 918.568 1282.81 921.96 1282.81 928.936C1282.81 934.504 1287.55 937.768 1293.37 937.768ZM1294.78 933.544C1291.19 933.544 1287.93 932.072 1287.93 928.552C1287.93 924.456 1292.03 921.832 1305.34 920.744V928.936C1301.82 931.88 1298.3 933.544 1294.78 933.544ZM1342.05 937.768C1345.44 937.768 1347.49 937.128 1350.37 935.912L1349.02 932.008C1346.91 932.968 1344.99 933.416 1343.2 933.416C1339.49 933.416 1337.06 931.496 1337.06 926.952V891.432H1320.74V895.72H1331.81V926.568C1331.81 933.928 1335.46 937.768 1342.05 937.768ZM1409.84 930.344H1414.06V917.864H1425.71V913.896H1414.06V901.416H1409.84V913.896H1398.19V917.864H1409.84V930.344ZM1475.45 950.12H1480.7V939.624L1480.44 933.736H1480.64C1483.39 936.296 1487.04 937.768 1489.92 937.768C1497.4 937.768 1504.06 931.56 1504.06 921C1504.06 911.336 1499.58 905.128 1491.2 905.128C1487.36 905.128 1483.32 907.112 1480.44 909.864H1480.25L1479.8 905.896H1475.45V950.12ZM1489.02 933.352C1486.91 933.352 1483.64 932.328 1480.7 929.704V914.216C1483.9 911.016 1487.1 909.544 1489.85 909.544C1496.06 909.544 1498.62 914.152 1498.62 921C1498.62 928.68 1494.59 933.352 1489.02 933.352ZM1533.09 937.768C1537 937.768 1540 936.936 1542.82 935.912L1541.67 932.072C1539.43 932.904 1537.12 933.48 1534.18 933.48C1528.16 933.48 1526.31 930.536 1526.31 924.968V910.184H1541.6V905.896H1526.31V895.912H1521.96L1521.25 905.896L1512.29 906.216V910.184H1521.06V924.904C1521.06 932.584 1524 937.768 1533.09 937.768ZM1672.06 948.264C1680.96 941.352 1686.46 931.56 1686.46 919.208C1686.46 906.856 1680.96 897.064 1672.06 890.152L1669.18 892.84C1677.76 900.072 1681.73 908.456 1681.73 919.208C1681.73 929.96 1677.76 938.344 1669.18 945.576L1672.06 948.264Z" fill="#2F4858"/>
<path d="M222.325 937.768C225.205 937.768 227.509 935.592 227.509 932.392C227.509 929.128 225.205 926.952 222.325 926.952C219.445 926.952 217.141 929.128 217.141 932.392C217.141 935.592 219.445 937.768 222.325 937.768ZM250.844 937H256.092V918.76C259.804 912.296 264.22 909.864 268.892 909.864C271.324 909.864 272.476 910.184 274.652 910.952L275.868 906.408C273.948 905.448 272.028 905.128 269.724 905.128C263.964 905.128 259.1 908.264 255.836 913.256H255.644L255.196 905.896H250.844V937ZM300.995 937.768C305.987 937.768 309.955 936.104 313.027 934.056L311.107 930.6C308.291 932.392 305.347 933.544 301.635 933.544C295.171 933.544 290.179 929.96 289.539 922.92H314.051C314.179 922.088 314.307 920.936 314.307 919.72C314.307 910.952 309.059 905.128 300.099 905.128C291.779 905.128 284.227 911.272 284.227 921.384C284.227 931.752 291.651 937.768 300.995 937.768ZM300.227 909.288C305.539 909.288 309.059 912.424 309.507 918.824H289.667C290.627 912.68 295.107 909.288 300.227 909.288ZM335.594 937.768C339.434 937.768 343.146 935.528 345.706 932.904H345.898L346.346 937H350.698V891.432H345.45V903.4L345.706 909.16H345.514C342.826 906.6 339.946 905.128 336.234 905.128C328.874 905.128 322.09 911.4 322.09 921.512C322.09 931.88 327.466 937.768 335.594 937.768ZM336.682 933.352C330.922 933.352 327.53 928.872 327.53 921.448C327.53 914.344 331.882 909.544 337.258 909.544C339.946 909.544 342.634 910.568 345.45 913.192V928.68C342.698 931.752 339.754 933.352 336.682 933.352ZM372.369 937.768C377.169 937.768 380.817 935.208 383.953 931.56H384.209L384.657 937H388.945V905.896H383.697V927.464C380.241 931.496 377.617 933.224 374.033 933.224C368.849 933.224 366.865 930.408 366.865 924.52V905.896H361.553V925.224C361.553 933.416 364.945 937.768 372.369 937.768ZM417.144 937.768C421.752 937.768 426.04 935.976 429.496 932.904L427.128 929.512C424.568 931.688 421.368 933.416 417.528 933.416C410.36 933.416 405.56 928.616 405.56 921.512C405.56 914.344 410.488 909.48 417.656 909.48C420.92 909.48 423.608 910.824 426.168 913.064L428.792 909.672C426.232 907.176 422.52 905.128 417.464 905.128C408.056 905.128 400.12 911.08 400.12 921.512C400.12 931.816 407.416 937.768 417.144 937.768ZM454.495 937.768C459.487 937.768 463.455 936.104 466.527 934.056L464.607 930.6C461.791 932.392 458.847 933.544 455.135 933.544C448.671 933.544 443.679 929.96 443.039 922.92H467.551C467.679 922.088 467.807 920.936 467.807 919.72C467.807 910.952 462.559 905.128 453.599 905.128C445.279 905.128 437.727 911.272 437.727 921.384C437.727 931.752 445.151 937.768 454.495 937.768ZM453.727 909.288C459.039 909.288 462.559 912.424 463.007 918.824H443.167C444.127 912.68 448.607 909.288 453.727 909.288Z" fill="#B24E72"/>
<path d="M1560.33 950.632C1567.37 948.008 1571.59 942.76 1571.59 935.272C1571.59 930.28 1569.61 927.08 1565.83 927.08C1563.08 927.08 1560.71 928.808 1560.71 931.944C1560.71 935.144 1562.95 936.744 1565.71 936.744C1566.09 936.744 1566.54 936.744 1566.92 936.616C1566.73 941.672 1564.11 944.936 1558.86 947.304L1560.33 950.632ZM1642.2 937.768C1651.29 937.768 1656.86 930.024 1656.86 916.456C1656.86 902.76 1651.29 895.4 1642.2 895.4C1633.11 895.4 1627.54 902.76 1627.54 916.456C1627.54 930.024 1633.11 937.768 1642.2 937.768ZM1642.2 933.544C1636.5 933.544 1632.47 928.168 1632.47 916.456C1632.47 904.68 1636.5 899.624 1642.2 899.624C1647.9 899.624 1651.93 904.68 1651.93 916.456C1651.93 928.168 1647.9 933.544 1642.2 933.544ZM1642.2 920.296C1644.31 920.296 1646.17 918.696 1646.17 916.008C1646.17 913.384 1644.31 911.784 1642.2 911.784C1640.09 911.784 1638.23 913.384 1638.23 916.008C1638.23 918.696 1640.09 920.296 1642.2 920.296Z" fill="#C0C8CC"/>
<path d="M573.279 140.768C577.183 140.768 580.191 139.936 583.007 138.912L581.854 135.072C579.615 135.904 577.311 136.48 574.367 136.48C568.351 136.48 566.495 133.536 566.495 127.968V113.184H581.791V108.896H566.495V98.912H562.143L561.439 108.896L552.479 109.216V113.184H561.247V127.904C561.247 135.584 564.191 140.768 573.279 140.768ZM605.638 140.768C613.83 140.768 620.998 134.816 620.998 124.512C620.998 114.08 613.83 108.128 605.638 108.128C597.446 108.128 590.278 114.08 590.278 124.512C590.278 134.816 597.446 140.768 605.638 140.768ZM605.638 136.416C599.686 136.416 595.718 131.616 595.718 124.512C595.718 117.344 599.686 112.48 605.638 112.48C611.59 112.48 615.558 117.344 615.558 124.512C615.558 131.616 611.59 136.416 605.638 136.416ZM650.029 140.768C653.933 140.768 656.941 139.936 659.757 138.912L658.604 135.072C656.365 135.904 654.061 136.48 651.117 136.48C645.101 136.48 643.245 133.536 643.245 127.968V113.184H658.541V108.896H643.245V98.912H638.893L638.189 108.896L629.229 109.216V113.184H637.997V127.904C637.997 135.584 640.941 140.768 650.029 140.768ZM678.932 140.768C683.348 140.768 687.764 138.464 691.22 135.776H691.412L691.86 140H696.148V120.928C696.148 113.184 692.052 108.128 683.54 108.128C678.1 108.128 672.852 110.56 669.716 112.608L671.764 116.192C674.644 114.4 678.612 112.48 682.644 112.48C688.66 112.48 690.772 116.064 690.9 120.288C674.836 121.568 668.372 124.96 668.372 131.936C668.372 137.504 673.108 140.768 678.932 140.768ZM680.34 136.544C676.756 136.544 673.492 135.072 673.492 131.552C673.492 127.456 677.588 124.832 690.9 123.744V131.936C687.38 134.88 683.86 136.544 680.34 136.544ZM727.611 140.768C731.003 140.768 733.051 140.128 735.931 138.912L734.587 135.008C732.475 135.968 730.555 136.416 728.763 136.416C725.051 136.416 722.619 134.496 722.619 129.952V94.432H706.299V98.72H717.371V129.568C717.371 136.928 721.019 140.768 727.611 140.768Z" fill="#6D7E8A"/>
<path d="M860.577 153.12H865.825V142.624L865.569 136.736H865.761C868.513 139.296 872.161 140.768 875.041 140.768C882.529 140.768 889.185 134.56 889.185 124C889.185 114.336 884.705 108.128 876.321 108.128C872.481 108.128 868.449 110.112 865.569 112.864H865.377L864.929 108.896H860.577V153.12ZM874.145 136.352C872.033 136.352 868.769 135.328 865.825 132.704V117.216C869.025 114.016 872.225 112.544 874.977 112.544C881.185 112.544 883.745 117.152 883.745 124C883.745 131.68 879.713 136.352 874.145 136.352ZM918.216 140.768C922.12 140.768 925.128 139.936 927.944 138.912L926.792 135.072C924.552 135.904 922.248 136.48 919.304 136.48C913.288 136.48 911.432 133.536 911.432 127.968V113.184H926.728V108.896H911.432V98.912H907.08L906.376 108.896L897.416 109.216V113.184H906.184V127.904C906.184 135.584 909.128 140.768 918.216 140.768Z" fill="#6D7E8A"/>
</svg>
